G04 MADE WITH FRITZING*
G04 WWW.FRITZING.ORG*
G04 DOUBLE SIDED*
G04 HOLES PLATED*
G04 CONTOUR ON CENTER OF CONTOUR VECTOR*
%ASAXBY*%
%FSLAX23Y23*%
%MOIN*%
%OFA0B0*%
%SFA1.0B1.0*%
%ADD10C,0.072992*%
%ADD11C,0.085000*%
%ADD12C,0.088000*%
%ADD13R,0.072992X0.072992*%
%ADD14R,0.085000X0.085000*%
%LNMASK1*%
G90*
G70*
G54D10*
X513Y2294D03*
X414Y2294D03*
X513Y794D03*
X414Y794D03*
X513Y1094D03*
X414Y1094D03*
X513Y194D03*
X414Y194D03*
X513Y494D03*
X414Y494D03*
X513Y1394D03*
X414Y1394D03*
X513Y1694D03*
X414Y1694D03*
X513Y1994D03*
X414Y1994D03*
G54D11*
X717Y1294D03*
X1017Y1294D03*
X717Y1194D03*
X1017Y1194D03*
X717Y1094D03*
X1017Y1094D03*
X717Y994D03*
X1017Y994D03*
X717Y894D03*
X1017Y894D03*
X717Y794D03*
X1017Y794D03*
X717Y694D03*
X1017Y694D03*
X717Y594D03*
X1017Y594D03*
G54D12*
X1214Y194D03*
X1114Y194D03*
X1014Y194D03*
X914Y194D03*
X814Y194D03*
X1217Y794D03*
X1217Y894D03*
X1217Y994D03*
X1217Y1094D03*
X1217Y1194D03*
G54D11*
X131Y2011D03*
X414Y2294D03*
X114Y1894D03*
X397Y2177D03*
X114Y1594D03*
X397Y1877D03*
X114Y1294D03*
X397Y1577D03*
X114Y994D03*
X397Y1277D03*
X114Y694D03*
X397Y977D03*
X114Y394D03*
X397Y677D03*
X114Y94D03*
X397Y377D03*
G54D13*
X513Y2294D03*
X513Y794D03*
X513Y1094D03*
X513Y194D03*
X513Y494D03*
X513Y1394D03*
X513Y1694D03*
X513Y1994D03*
G54D14*
X717Y1294D03*
G04 End of Mask1*
M02*