G04 MADE WITH FRITZING*
G04 WWW.FRITZING.ORG*
G04 DOUBLE SIDED*
G04 HOLES PLATED*
G04 CONTOUR ON CENTER OF CONTOUR VECTOR*
%ASAXBY*%
%FSLAX23Y23*%
%MOIN*%
%OFA0B0*%
%SFA1.0B1.0*%
%ADD10C,0.062992*%
%ADD11C,0.075000*%
%ADD12C,0.078000*%
%ADD13R,0.062992X0.062992*%
%ADD14R,0.075000X0.075000*%
%ADD15R,0.047244X0.043307*%
%ADD16C,0.024000*%
%ADD17R,0.001000X0.001000*%
%LNCOPPER0*%
G90*
G70*
G54D10*
X268Y1577D03*
X169Y1577D03*
X268Y577D03*
X169Y577D03*
X268Y777D03*
X169Y777D03*
X268Y177D03*
X169Y177D03*
X268Y377D03*
X169Y377D03*
X268Y977D03*
X169Y977D03*
X268Y1177D03*
X169Y1177D03*
X268Y1377D03*
X169Y1377D03*
G54D11*
X472Y1177D03*
X772Y1177D03*
X472Y1077D03*
X772Y1077D03*
X472Y977D03*
X772Y977D03*
X472Y877D03*
X772Y877D03*
X472Y777D03*
X772Y777D03*
X472Y677D03*
X772Y677D03*
X472Y577D03*
X772Y577D03*
X472Y477D03*
X772Y477D03*
G54D12*
X869Y177D03*
X769Y177D03*
X669Y177D03*
X569Y177D03*
X469Y177D03*
X469Y1577D03*
X569Y1577D03*
X669Y1577D03*
X769Y1577D03*
X869Y1577D03*
G54D13*
X268Y1577D03*
X268Y577D03*
X268Y777D03*
X268Y177D03*
X268Y377D03*
X268Y977D03*
X268Y1177D03*
X268Y1377D03*
G54D14*
X472Y1177D03*
G54D15*
X169Y1677D03*
X102Y1677D03*
X169Y1477D03*
X102Y1477D03*
G54D16*
X570Y1278D02*
X369Y1376D01*
D02*
X934Y613D02*
X772Y577D01*
D02*
X769Y177D02*
X772Y477D01*
D02*
X877Y317D02*
X871Y207D01*
D02*
X934Y378D02*
X877Y317D01*
D02*
X934Y613D02*
X934Y378D01*
D02*
X671Y551D02*
X670Y218D01*
D02*
X368Y1077D02*
X291Y1154D01*
D02*
X438Y1077D02*
X368Y1077D01*
D02*
X369Y876D02*
X291Y799D01*
D02*
X438Y877D02*
X369Y876D01*
D02*
X670Y1077D02*
X570Y1278D01*
D02*
X738Y1077D02*
X670Y1077D01*
D02*
X447Y553D02*
X368Y477D01*
D02*
X157Y1213D02*
X142Y1261D01*
D02*
X51Y512D02*
X68Y661D01*
D02*
X68Y293D02*
X51Y479D01*
D02*
X995Y909D02*
X934Y613D01*
D02*
X995Y1381D02*
X995Y909D01*
D02*
X886Y1551D02*
X995Y1381D01*
D02*
X369Y1278D02*
X291Y1354D01*
D02*
X448Y1201D02*
X369Y1278D01*
D02*
X670Y1376D02*
X369Y1476D01*
D02*
X869Y1677D02*
X869Y1612D01*
D02*
X369Y1476D02*
X369Y1677D01*
D02*
X369Y1677D02*
X869Y1677D01*
D02*
X756Y1207D02*
X670Y1376D01*
D02*
X102Y1493D02*
X102Y1661D01*
D02*
X157Y613D02*
X142Y661D01*
D02*
X157Y813D02*
X142Y861D01*
D02*
X671Y878D02*
X732Y877D01*
D02*
X671Y551D02*
X671Y878D01*
D02*
X570Y477D02*
X671Y551D01*
D02*
X512Y477D02*
X570Y477D01*
D02*
X448Y653D02*
X370Y577D01*
D02*
X370Y577D02*
X285Y435D01*
D02*
X285Y435D02*
X275Y402D01*
D02*
X934Y1263D02*
X934Y967D01*
D02*
X869Y876D02*
X806Y877D01*
D02*
X934Y967D02*
X869Y876D01*
D02*
X786Y1545D02*
X934Y1263D01*
D02*
X72Y1293D02*
X100Y1461D01*
D02*
X69Y1093D02*
X69Y1261D01*
D02*
X157Y213D02*
X142Y261D01*
D02*
X157Y1013D02*
X142Y1061D01*
D02*
X69Y893D02*
X69Y1061D01*
D02*
X369Y677D02*
X291Y599D01*
D02*
X448Y753D02*
X369Y677D01*
D02*
X285Y82D02*
X167Y82D01*
D02*
X167Y82D02*
X110Y142D01*
D02*
X110Y142D02*
X74Y261D01*
D02*
X345Y142D02*
X285Y82D01*
D02*
X369Y277D02*
X345Y142D01*
D02*
X454Y442D02*
X369Y277D01*
D02*
X159Y401D02*
X124Y479D01*
D02*
X869Y1278D02*
X869Y977D01*
D02*
X689Y1547D02*
X869Y1278D01*
D02*
X869Y977D02*
X806Y977D01*
D02*
X69Y693D02*
X69Y861D01*
D02*
X383Y984D02*
X300Y979D01*
D02*
X438Y980D02*
X383Y984D01*
D02*
X169Y1403D02*
X169Y1461D01*
D02*
X270Y1477D02*
X268Y1544D01*
D02*
X369Y1376D02*
X270Y1477D01*
D02*
X169Y1661D02*
X169Y1603D01*
D02*
X772Y448D02*
X770Y207D01*
G36*
X46Y1255D02*
X46Y1298D01*
X93Y1298D01*
X93Y1255D01*
X46Y1255D01*
G37*
D02*
G36*
X113Y1255D02*
X113Y1298D01*
X160Y1298D01*
X160Y1255D01*
X113Y1255D01*
G37*
D02*
G36*
X46Y1055D02*
X46Y1098D01*
X93Y1098D01*
X93Y1055D01*
X46Y1055D01*
G37*
D02*
G36*
X113Y1055D02*
X113Y1098D01*
X160Y1098D01*
X160Y1055D01*
X113Y1055D01*
G37*
D02*
G36*
X46Y855D02*
X46Y898D01*
X93Y898D01*
X93Y855D01*
X46Y855D01*
G37*
D02*
G36*
X113Y855D02*
X113Y898D01*
X160Y898D01*
X160Y855D01*
X113Y855D01*
G37*
D02*
G36*
X46Y655D02*
X46Y698D01*
X93Y698D01*
X93Y655D01*
X46Y655D01*
G37*
D02*
G36*
X113Y655D02*
X113Y698D01*
X160Y698D01*
X160Y655D01*
X113Y655D01*
G37*
D02*
G36*
X26Y474D02*
X26Y517D01*
X73Y517D01*
X73Y474D01*
X26Y474D01*
G37*
D02*
G36*
X93Y474D02*
X93Y517D01*
X140Y517D01*
X140Y474D01*
X93Y474D01*
G37*
D02*
G36*
X46Y255D02*
X46Y298D01*
X93Y298D01*
X93Y255D01*
X46Y255D01*
G37*
D02*
G36*
X113Y255D02*
X113Y298D01*
X160Y298D01*
X160Y255D01*
X113Y255D01*
G37*
D02*
G54D17*
X364Y489D02*
X372Y489D01*
X362Y488D02*
X374Y488D01*
X361Y487D02*
X375Y487D01*
X359Y486D02*
X376Y486D01*
X359Y485D02*
X377Y485D01*
X358Y484D02*
X377Y484D01*
X357Y483D02*
X378Y483D01*
X357Y482D02*
X378Y482D01*
X357Y481D02*
X379Y481D01*
X356Y480D02*
X379Y480D01*
X356Y479D02*
X379Y479D01*
X356Y478D02*
X379Y478D01*
X355Y477D02*
X379Y477D01*
X355Y476D02*
X379Y476D01*
X355Y475D02*
X379Y475D01*
X354Y474D02*
X379Y474D01*
X354Y473D02*
X378Y473D01*
X354Y472D02*
X378Y472D01*
X353Y471D02*
X378Y471D01*
X353Y470D02*
X377Y470D01*
X353Y469D02*
X377Y469D01*
X352Y468D02*
X377Y468D01*
X352Y467D02*
X376Y467D01*
X352Y466D02*
X376Y466D01*
X351Y465D02*
X376Y465D01*
X351Y464D02*
X375Y464D01*
X351Y463D02*
X375Y463D01*
X350Y462D02*
X375Y462D01*
X350Y461D02*
X374Y461D01*
X350Y460D02*
X374Y460D01*
X349Y459D02*
X374Y459D01*
X349Y458D02*
X373Y458D01*
X349Y457D02*
X373Y457D01*
X348Y456D02*
X373Y456D01*
X348Y455D02*
X372Y455D01*
X348Y454D02*
X372Y454D01*
X347Y453D02*
X372Y453D01*
X347Y452D02*
X371Y452D01*
X347Y451D02*
X371Y451D01*
X346Y450D02*
X371Y450D01*
X346Y449D02*
X370Y449D01*
X346Y448D02*
X370Y448D01*
X345Y447D02*
X370Y447D01*
X345Y446D02*
X369Y446D01*
X345Y445D02*
X369Y445D01*
X344Y444D02*
X369Y444D01*
X344Y443D02*
X368Y443D01*
X344Y442D02*
X368Y442D01*
X343Y441D02*
X368Y441D01*
X343Y440D02*
X367Y440D01*
X343Y439D02*
X367Y439D01*
X342Y438D02*
X367Y438D01*
X342Y437D02*
X366Y437D01*
X342Y436D02*
X366Y436D01*
X341Y435D02*
X366Y435D01*
X341Y434D02*
X365Y434D01*
X341Y433D02*
X365Y433D01*
X340Y432D02*
X365Y432D01*
X340Y431D02*
X364Y431D01*
X340Y430D02*
X364Y430D01*
X339Y429D02*
X364Y429D01*
X339Y428D02*
X363Y428D01*
X339Y427D02*
X363Y427D01*
X338Y426D02*
X363Y426D01*
X338Y425D02*
X362Y425D01*
X338Y424D02*
X362Y424D01*
X337Y423D02*
X362Y423D01*
X337Y422D02*
X361Y422D01*
X337Y421D02*
X361Y421D01*
X336Y420D02*
X361Y420D01*
X336Y419D02*
X360Y419D01*
X336Y418D02*
X360Y418D01*
X335Y417D02*
X359Y417D01*
X335Y416D02*
X359Y416D01*
X335Y415D02*
X359Y415D01*
X334Y414D02*
X358Y414D01*
X334Y413D02*
X358Y413D01*
X334Y412D02*
X358Y412D01*
X333Y411D02*
X357Y411D01*
X333Y410D02*
X357Y410D01*
X333Y409D02*
X357Y409D01*
X332Y408D02*
X356Y408D01*
X332Y407D02*
X356Y407D01*
X332Y406D02*
X356Y406D01*
X331Y405D02*
X355Y405D01*
X331Y404D02*
X355Y404D01*
X331Y403D02*
X355Y403D01*
X330Y402D02*
X354Y402D01*
X330Y401D02*
X354Y401D01*
X330Y400D02*
X354Y400D01*
X329Y399D02*
X353Y399D01*
X329Y398D02*
X353Y398D01*
X328Y397D02*
X353Y397D01*
X328Y396D02*
X352Y396D01*
X328Y395D02*
X352Y395D01*
X327Y394D02*
X352Y394D01*
X327Y393D02*
X351Y393D01*
X327Y392D02*
X351Y392D01*
X326Y391D02*
X351Y391D01*
X326Y390D02*
X350Y390D01*
X326Y389D02*
X350Y389D01*
X325Y388D02*
X350Y388D01*
X325Y387D02*
X349Y387D01*
X325Y386D02*
X349Y386D01*
X324Y385D02*
X349Y385D01*
X324Y384D02*
X348Y384D01*
X324Y383D02*
X348Y383D01*
X323Y382D02*
X348Y382D01*
X323Y381D02*
X347Y381D01*
X323Y380D02*
X347Y380D01*
X322Y379D02*
X347Y379D01*
X322Y378D02*
X346Y378D01*
X322Y377D02*
X346Y377D01*
X321Y376D02*
X346Y376D01*
X321Y375D02*
X345Y375D01*
X321Y374D02*
X345Y374D01*
X320Y373D02*
X345Y373D01*
X320Y372D02*
X344Y372D01*
X320Y371D02*
X344Y371D01*
X319Y370D02*
X344Y370D01*
X319Y369D02*
X343Y369D01*
X319Y368D02*
X343Y368D01*
X318Y367D02*
X343Y367D01*
X318Y366D02*
X342Y366D01*
X318Y365D02*
X342Y365D01*
X317Y364D02*
X342Y364D01*
X317Y363D02*
X341Y363D01*
X317Y362D02*
X341Y362D01*
X316Y361D02*
X341Y361D01*
X316Y360D02*
X340Y360D01*
X316Y359D02*
X340Y359D01*
X315Y358D02*
X340Y358D01*
X315Y357D02*
X339Y357D01*
X315Y356D02*
X339Y356D01*
X314Y355D02*
X339Y355D01*
X314Y354D02*
X338Y354D01*
X314Y353D02*
X338Y353D01*
X313Y352D02*
X338Y352D01*
X313Y351D02*
X337Y351D01*
X313Y350D02*
X337Y350D01*
X312Y349D02*
X337Y349D01*
X312Y348D02*
X336Y348D01*
X312Y347D02*
X336Y347D01*
X311Y346D02*
X336Y346D01*
X311Y345D02*
X335Y345D01*
X311Y344D02*
X335Y344D01*
X310Y343D02*
X335Y343D01*
X310Y342D02*
X334Y342D01*
X310Y341D02*
X334Y341D01*
X309Y340D02*
X334Y340D01*
X309Y339D02*
X333Y339D01*
X309Y338D02*
X333Y338D01*
X308Y337D02*
X333Y337D01*
X308Y336D02*
X332Y336D01*
X308Y335D02*
X332Y335D01*
X307Y334D02*
X332Y334D01*
X307Y333D02*
X331Y333D01*
X307Y332D02*
X331Y332D01*
X306Y331D02*
X331Y331D01*
X306Y330D02*
X330Y330D01*
X306Y329D02*
X330Y329D01*
X305Y328D02*
X330Y328D01*
X305Y327D02*
X329Y327D01*
X305Y326D02*
X329Y326D01*
X304Y325D02*
X329Y325D01*
X304Y324D02*
X328Y324D01*
X304Y323D02*
X328Y323D01*
X303Y322D02*
X328Y322D01*
X303Y321D02*
X327Y321D01*
X303Y320D02*
X327Y320D01*
X302Y319D02*
X327Y319D01*
X302Y318D02*
X326Y318D01*
X302Y317D02*
X326Y317D01*
X301Y316D02*
X326Y316D01*
X301Y315D02*
X325Y315D01*
X301Y314D02*
X325Y314D01*
X300Y313D02*
X325Y313D01*
X300Y312D02*
X324Y312D01*
X300Y311D02*
X324Y311D01*
X299Y310D02*
X324Y310D01*
X299Y309D02*
X323Y309D01*
X299Y308D02*
X323Y308D01*
X298Y307D02*
X323Y307D01*
X298Y306D02*
X322Y306D01*
X298Y305D02*
X322Y305D01*
X297Y304D02*
X322Y304D01*
X297Y303D02*
X321Y303D01*
X297Y302D02*
X321Y302D01*
X296Y301D02*
X321Y301D01*
X296Y300D02*
X320Y300D01*
X296Y299D02*
X320Y299D01*
X295Y298D02*
X320Y298D01*
X295Y297D02*
X319Y297D01*
X295Y296D02*
X319Y296D01*
X294Y295D02*
X319Y295D01*
X294Y294D02*
X318Y294D01*
X294Y293D02*
X318Y293D01*
X293Y292D02*
X318Y292D01*
X293Y291D02*
X317Y291D01*
X293Y290D02*
X317Y290D01*
X292Y289D02*
X317Y289D01*
X292Y288D02*
X316Y288D01*
X292Y287D02*
X316Y287D01*
X291Y286D02*
X316Y286D01*
X291Y285D02*
X315Y285D01*
X291Y284D02*
X315Y284D01*
X290Y283D02*
X315Y283D01*
X290Y282D02*
X314Y282D01*
X290Y281D02*
X314Y281D01*
X289Y280D02*
X314Y280D01*
X289Y279D02*
X313Y279D01*
X289Y278D02*
X313Y278D01*
X288Y277D02*
X313Y277D01*
X288Y276D02*
X312Y276D01*
X288Y275D02*
X312Y275D01*
X287Y274D02*
X312Y274D01*
X287Y273D02*
X311Y273D01*
X287Y272D02*
X311Y272D01*
X286Y271D02*
X311Y271D01*
X286Y270D02*
X310Y270D01*
X286Y269D02*
X310Y269D01*
X285Y268D02*
X310Y268D01*
X285Y267D02*
X309Y267D01*
X285Y266D02*
X309Y266D01*
X284Y265D02*
X309Y265D01*
X284Y264D02*
X308Y264D01*
X284Y263D02*
X308Y263D01*
X283Y262D02*
X308Y262D01*
X283Y261D02*
X307Y261D01*
X283Y260D02*
X307Y260D01*
X282Y259D02*
X307Y259D01*
X282Y258D02*
X306Y258D01*
X282Y257D02*
X306Y257D01*
X281Y256D02*
X306Y256D01*
X281Y255D02*
X305Y255D01*
X281Y254D02*
X305Y254D01*
X280Y253D02*
X305Y253D01*
X280Y252D02*
X304Y252D01*
X280Y251D02*
X304Y251D01*
X279Y250D02*
X304Y250D01*
X279Y249D02*
X303Y249D01*
X279Y248D02*
X303Y248D01*
X278Y247D02*
X303Y247D01*
X278Y246D02*
X302Y246D01*
X278Y245D02*
X302Y245D01*
X277Y244D02*
X302Y244D01*
X277Y243D02*
X301Y243D01*
X277Y242D02*
X301Y242D01*
X276Y241D02*
X301Y241D01*
X276Y240D02*
X300Y240D01*
X276Y239D02*
X300Y239D01*
X275Y238D02*
X300Y238D01*
X275Y237D02*
X299Y237D01*
X275Y236D02*
X299Y236D01*
X274Y235D02*
X299Y235D01*
X274Y234D02*
X298Y234D01*
X274Y233D02*
X298Y233D01*
X273Y232D02*
X298Y232D01*
X273Y231D02*
X297Y231D01*
X273Y230D02*
X297Y230D01*
X272Y229D02*
X297Y229D01*
X272Y228D02*
X296Y228D01*
X272Y227D02*
X296Y227D01*
X271Y226D02*
X296Y226D01*
X271Y225D02*
X295Y225D01*
X271Y224D02*
X295Y224D01*
X270Y223D02*
X295Y223D01*
X270Y222D02*
X294Y222D01*
X270Y221D02*
X294Y221D01*
X269Y220D02*
X294Y220D01*
X269Y219D02*
X293Y219D01*
X269Y218D02*
X293Y218D01*
X268Y217D02*
X293Y217D01*
X268Y216D02*
X292Y216D01*
X268Y215D02*
X292Y215D01*
X267Y214D02*
X292Y214D01*
X267Y213D02*
X291Y213D01*
X267Y212D02*
X291Y212D01*
X266Y211D02*
X291Y211D01*
X266Y210D02*
X290Y210D01*
X266Y209D02*
X290Y209D01*
X265Y208D02*
X290Y208D01*
X265Y207D02*
X289Y207D01*
X265Y206D02*
X289Y206D01*
X264Y205D02*
X288Y205D01*
X264Y204D02*
X288Y204D01*
X264Y203D02*
X288Y203D01*
X263Y202D02*
X287Y202D01*
X263Y201D02*
X287Y201D01*
X263Y200D02*
X287Y200D01*
X262Y199D02*
X286Y199D01*
X262Y198D02*
X286Y198D01*
X262Y197D02*
X286Y197D01*
X261Y196D02*
X285Y196D01*
X261Y195D02*
X285Y195D01*
X261Y194D02*
X285Y194D01*
X260Y193D02*
X284Y193D01*
X260Y192D02*
X284Y192D01*
X259Y191D02*
X284Y191D01*
X259Y190D02*
X283Y190D01*
X259Y189D02*
X283Y189D01*
X258Y188D02*
X283Y188D01*
X258Y187D02*
X282Y187D01*
X258Y186D02*
X282Y186D01*
X257Y185D02*
X282Y185D01*
X257Y184D02*
X281Y184D01*
X257Y183D02*
X281Y183D01*
X256Y182D02*
X281Y182D01*
X256Y181D02*
X280Y181D01*
X256Y180D02*
X280Y180D01*
X256Y179D02*
X280Y179D01*
X256Y178D02*
X279Y178D01*
X256Y177D02*
X279Y177D01*
X256Y176D02*
X279Y176D01*
X256Y175D02*
X278Y175D01*
X257Y174D02*
X278Y174D01*
X257Y173D02*
X278Y173D01*
X258Y172D02*
X277Y172D01*
X258Y171D02*
X276Y171D01*
X259Y170D02*
X276Y170D01*
X260Y169D02*
X275Y169D01*
X261Y168D02*
X273Y168D01*
X263Y167D02*
X271Y167D01*
D02*
G04 End of Copper0*
M02*