G04 MADE WITH FRITZING*
G04 WWW.FRITZING.ORG*
G04 DOUBLE SIDED*
G04 HOLES PLATED*
G04 CONTOUR ON CENTER OF CONTOUR VECTOR*
%ASAXBY*%
%FSLAX23Y23*%
%MOIN*%
%OFA0B0*%
%SFA1.0B1.0*%
%ADD10C,0.062992*%
%ADD11C,0.075000*%
%ADD12C,0.078000*%
%ADD13R,0.062992X0.062992*%
%ADD14R,0.075000X0.075000*%
%ADD15C,0.024000*%
%LNCOPPER1*%
G90*
G70*
G54D10*
X268Y1577D03*
X169Y1577D03*
X268Y577D03*
X169Y577D03*
X268Y777D03*
X169Y777D03*
X268Y177D03*
X169Y177D03*
X268Y377D03*
X169Y377D03*
X268Y977D03*
X169Y977D03*
X268Y1177D03*
X169Y1177D03*
X268Y1377D03*
X169Y1377D03*
G54D11*
X472Y1177D03*
X772Y1177D03*
X472Y1077D03*
X772Y1077D03*
X472Y977D03*
X772Y977D03*
X472Y877D03*
X772Y877D03*
X472Y777D03*
X772Y777D03*
X472Y677D03*
X772Y677D03*
X472Y577D03*
X772Y577D03*
X472Y477D03*
X772Y477D03*
G54D12*
X869Y177D03*
X769Y177D03*
X669Y177D03*
X569Y177D03*
X469Y177D03*
X469Y1577D03*
X569Y1577D03*
X669Y1577D03*
X769Y1577D03*
X869Y1577D03*
G54D13*
X268Y1577D03*
X268Y577D03*
X268Y777D03*
X268Y177D03*
X268Y377D03*
X268Y977D03*
X268Y1177D03*
X268Y1377D03*
G54D14*
X472Y1177D03*
G54D15*
X570Y377D02*
X463Y317D01*
D02*
X463Y317D02*
X468Y207D01*
D02*
X475Y1547D02*
X570Y1077D01*
D02*
X570Y1077D02*
X570Y377D01*
D02*
X581Y317D02*
X572Y207D01*
D02*
X670Y377D02*
X581Y317D01*
D02*
X869Y377D02*
X670Y377D01*
D02*
X869Y1278D02*
X869Y377D01*
D02*
X569Y1547D02*
X570Y1376D01*
D02*
X570Y1376D02*
X869Y1278D01*
D02*
X570Y676D02*
X738Y677D01*
D02*
X476Y1542D02*
X570Y1077D01*
D02*
X570Y1077D02*
X570Y676D01*
D02*
X570Y1376D02*
X869Y1278D01*
D02*
X569Y1541D02*
X570Y1376D01*
D02*
X869Y1278D02*
X869Y776D01*
D02*
X869Y776D02*
X806Y777D01*
G04 End of Copper1*
M02*