; NON-PLATED HOLES START AT T1
; THROUGH (PLATED) HOLES START AT T100
M48
INCH
T100C0.038000
T101C0.035000
T102C0.031497
%
T100
X009142Y001942
X012168Y011944
X012168Y007944
X012168Y008944
X010142Y001942
X011142Y001942
X008142Y001942
X012168Y009944
X012168Y010944
X012142Y001942
T101
X003970Y006770
X003970Y018770
X007168Y007944
X007168Y009944
X010168Y006944
X010168Y007944
X010168Y008944
X003970Y003770
X001142Y000942
X010168Y012944
X001142Y009942
X003970Y012770
X001142Y006942
X003970Y009770
X003970Y021770
X010168Y005944
X007168Y012944
X001313Y020114
X003970Y015770
X001142Y012942
X010168Y009944
X004142Y022942
X007168Y005944
X007168Y010944
X007168Y006944
X010168Y010944
X007168Y008944
X010168Y011944
X001142Y015942
X001142Y003942
X007168Y011944
X001142Y018942
T102
X004142Y010942
X005126Y010942
X005126Y019942
X004142Y016942
X005126Y022942
X004142Y001942
X005126Y004942
X005126Y016942
X004142Y004942
X004142Y007942
X004142Y022942
X004142Y013942
X005126Y001942
X005126Y007942
X005126Y013942
X004142Y019942
T00
M30
