G04 MADE WITH FRITZING*
G04 WWW.FRITZING.ORG*
G04 DOUBLE SIDED*
G04 HOLES PLATED*
G04 CONTOUR ON CENTER OF CONTOUR VECTOR*
%ASAXBY*%
%FSLAX23Y23*%
%MOIN*%
%OFA0B0*%
%SFA1.0B1.0*%
%ADD10R,1.050040X1.746960X1.034040X1.730960*%
%ADD11C,0.008000*%
%ADD12C,0.010000*%
%ADD13C,0.005000*%
%ADD14R,0.001000X0.001000*%
%LNSILK1*%
G90*
G70*
G54D11*
X4Y1743D02*
X1046Y1743D01*
X1046Y4D01*
X4Y4D01*
X4Y1743D01*
D02*
G54D12*
X422Y1227D02*
X422Y427D01*
D02*
X422Y427D02*
X822Y427D01*
D02*
X822Y427D02*
X822Y1227D01*
D02*
X422Y1227D02*
X572Y1227D01*
D02*
X672Y1227D02*
X822Y1227D01*
D02*
X919Y227D02*
X419Y227D01*
D02*
X419Y227D02*
X419Y127D01*
D02*
X419Y127D02*
X919Y127D01*
D02*
X919Y127D02*
X919Y227D01*
G54D13*
D02*
X884Y227D02*
X919Y192D01*
G54D12*
D02*
X419Y1527D02*
X919Y1527D01*
D02*
X919Y1527D02*
X919Y1627D01*
D02*
X919Y1627D02*
X419Y1627D01*
D02*
X419Y1627D02*
X419Y1527D01*
G54D13*
D02*
X454Y1527D02*
X419Y1562D01*
G54D14*
X680Y1703D02*
X684Y1703D01*
X679Y1702D02*
X684Y1702D01*
X679Y1701D02*
X685Y1701D01*
X679Y1700D02*
X685Y1700D01*
X679Y1699D02*
X685Y1699D01*
X679Y1698D02*
X685Y1698D01*
X679Y1697D02*
X685Y1697D01*
X679Y1696D02*
X685Y1696D01*
X679Y1695D02*
X685Y1695D01*
X679Y1694D02*
X685Y1694D01*
X679Y1693D02*
X685Y1693D01*
X679Y1692D02*
X685Y1692D01*
X679Y1691D02*
X685Y1691D01*
X665Y1690D02*
X671Y1690D01*
X679Y1690D02*
X685Y1690D01*
X561Y1689D02*
X568Y1689D01*
X620Y1689D02*
X624Y1689D01*
X662Y1689D02*
X674Y1689D01*
X679Y1689D02*
X685Y1689D01*
X732Y1689D02*
X732Y1689D01*
X755Y1689D02*
X782Y1689D01*
X557Y1688D02*
X572Y1688D01*
X602Y1688D02*
X606Y1688D01*
X616Y1688D02*
X628Y1688D01*
X661Y1688D02*
X675Y1688D01*
X679Y1688D02*
X685Y1688D01*
X703Y1688D02*
X706Y1688D01*
X730Y1688D02*
X734Y1688D01*
X752Y1688D02*
X784Y1688D01*
X556Y1687D02*
X574Y1687D01*
X602Y1687D02*
X607Y1687D01*
X615Y1687D02*
X630Y1687D01*
X660Y1687D02*
X676Y1687D01*
X679Y1687D02*
X685Y1687D01*
X702Y1687D02*
X707Y1687D01*
X729Y1687D02*
X735Y1687D01*
X752Y1687D02*
X785Y1687D01*
X555Y1686D02*
X575Y1686D01*
X601Y1686D02*
X607Y1686D01*
X613Y1686D02*
X631Y1686D01*
X659Y1686D02*
X677Y1686D01*
X679Y1686D02*
X685Y1686D01*
X702Y1686D02*
X707Y1686D01*
X729Y1686D02*
X735Y1686D01*
X751Y1686D02*
X785Y1686D01*
X554Y1685D02*
X576Y1685D01*
X601Y1685D02*
X607Y1685D01*
X611Y1685D02*
X632Y1685D01*
X658Y1685D02*
X685Y1685D01*
X701Y1685D02*
X707Y1685D01*
X729Y1685D02*
X735Y1685D01*
X751Y1685D02*
X785Y1685D01*
X553Y1684D02*
X577Y1684D01*
X601Y1684D02*
X607Y1684D01*
X610Y1684D02*
X633Y1684D01*
X656Y1684D02*
X685Y1684D01*
X701Y1684D02*
X707Y1684D01*
X729Y1684D02*
X735Y1684D01*
X752Y1684D02*
X785Y1684D01*
X552Y1683D02*
X577Y1683D01*
X601Y1683D02*
X633Y1683D01*
X655Y1683D02*
X665Y1683D01*
X671Y1683D02*
X685Y1683D01*
X701Y1683D02*
X707Y1683D01*
X729Y1683D02*
X735Y1683D01*
X753Y1683D02*
X784Y1683D01*
X552Y1682D02*
X561Y1682D01*
X569Y1682D02*
X577Y1682D01*
X601Y1682D02*
X619Y1682D01*
X625Y1682D02*
X634Y1682D01*
X654Y1682D02*
X664Y1682D01*
X672Y1682D02*
X685Y1682D01*
X702Y1682D02*
X708Y1682D01*
X729Y1682D02*
X735Y1682D01*
X765Y1682D02*
X772Y1682D01*
X552Y1681D02*
X559Y1681D01*
X571Y1681D02*
X578Y1681D01*
X601Y1681D02*
X617Y1681D01*
X627Y1681D02*
X634Y1681D01*
X653Y1681D02*
X663Y1681D01*
X673Y1681D02*
X685Y1681D01*
X702Y1681D02*
X708Y1681D01*
X729Y1681D02*
X735Y1681D01*
X765Y1681D02*
X771Y1681D01*
X551Y1680D02*
X558Y1680D01*
X572Y1680D02*
X578Y1680D01*
X601Y1680D02*
X616Y1680D01*
X628Y1680D02*
X634Y1680D01*
X653Y1680D02*
X661Y1680D01*
X674Y1680D02*
X685Y1680D01*
X702Y1680D02*
X708Y1680D01*
X729Y1680D02*
X735Y1680D01*
X765Y1680D02*
X771Y1680D01*
X551Y1679D02*
X557Y1679D01*
X572Y1679D02*
X578Y1679D01*
X601Y1679D02*
X614Y1679D01*
X628Y1679D02*
X634Y1679D01*
X652Y1679D02*
X660Y1679D01*
X675Y1679D02*
X685Y1679D01*
X702Y1679D02*
X708Y1679D01*
X729Y1679D02*
X735Y1679D01*
X765Y1679D02*
X771Y1679D01*
X552Y1678D02*
X557Y1678D01*
X572Y1678D02*
X578Y1678D01*
X601Y1678D02*
X612Y1678D01*
X628Y1678D02*
X634Y1678D01*
X652Y1678D02*
X659Y1678D01*
X676Y1678D02*
X685Y1678D01*
X702Y1678D02*
X708Y1678D01*
X729Y1678D02*
X735Y1678D01*
X765Y1678D02*
X771Y1678D01*
X553Y1677D02*
X556Y1677D01*
X572Y1677D02*
X578Y1677D01*
X601Y1677D02*
X611Y1677D01*
X628Y1677D02*
X634Y1677D01*
X652Y1677D02*
X658Y1677D01*
X677Y1677D02*
X685Y1677D01*
X702Y1677D02*
X708Y1677D01*
X729Y1677D02*
X735Y1677D01*
X765Y1677D02*
X771Y1677D01*
X572Y1676D02*
X578Y1676D01*
X601Y1676D02*
X609Y1676D01*
X628Y1676D02*
X634Y1676D01*
X651Y1676D02*
X658Y1676D01*
X678Y1676D02*
X685Y1676D01*
X702Y1676D02*
X708Y1676D01*
X729Y1676D02*
X735Y1676D01*
X765Y1676D02*
X771Y1676D01*
X572Y1675D02*
X578Y1675D01*
X601Y1675D02*
X608Y1675D01*
X628Y1675D02*
X634Y1675D01*
X651Y1675D02*
X657Y1675D01*
X679Y1675D02*
X685Y1675D01*
X702Y1675D02*
X708Y1675D01*
X729Y1675D02*
X735Y1675D01*
X765Y1675D02*
X771Y1675D01*
X572Y1674D02*
X578Y1674D01*
X601Y1674D02*
X607Y1674D01*
X628Y1674D02*
X634Y1674D01*
X651Y1674D02*
X657Y1674D01*
X679Y1674D02*
X685Y1674D01*
X702Y1674D02*
X708Y1674D01*
X729Y1674D02*
X735Y1674D01*
X765Y1674D02*
X771Y1674D01*
X572Y1673D02*
X578Y1673D01*
X601Y1673D02*
X607Y1673D01*
X628Y1673D02*
X634Y1673D01*
X651Y1673D02*
X657Y1673D01*
X679Y1673D02*
X685Y1673D01*
X702Y1673D02*
X708Y1673D01*
X729Y1673D02*
X735Y1673D01*
X765Y1673D02*
X771Y1673D01*
X572Y1672D02*
X578Y1672D01*
X601Y1672D02*
X607Y1672D01*
X628Y1672D02*
X634Y1672D01*
X651Y1672D02*
X657Y1672D01*
X679Y1672D02*
X685Y1672D01*
X702Y1672D02*
X708Y1672D01*
X729Y1672D02*
X735Y1672D01*
X765Y1672D02*
X771Y1672D01*
X572Y1671D02*
X578Y1671D01*
X601Y1671D02*
X607Y1671D01*
X628Y1671D02*
X634Y1671D01*
X651Y1671D02*
X657Y1671D01*
X679Y1671D02*
X685Y1671D01*
X702Y1671D02*
X708Y1671D01*
X729Y1671D02*
X735Y1671D01*
X765Y1671D02*
X771Y1671D01*
X572Y1670D02*
X578Y1670D01*
X601Y1670D02*
X607Y1670D01*
X628Y1670D02*
X634Y1670D01*
X651Y1670D02*
X657Y1670D01*
X679Y1670D02*
X685Y1670D01*
X702Y1670D02*
X708Y1670D01*
X729Y1670D02*
X735Y1670D01*
X765Y1670D02*
X771Y1670D01*
X572Y1669D02*
X578Y1669D01*
X601Y1669D02*
X607Y1669D01*
X628Y1669D02*
X634Y1669D01*
X651Y1669D02*
X657Y1669D01*
X679Y1669D02*
X685Y1669D01*
X702Y1669D02*
X708Y1669D01*
X729Y1669D02*
X735Y1669D01*
X765Y1669D02*
X771Y1669D01*
X572Y1668D02*
X578Y1668D01*
X601Y1668D02*
X607Y1668D01*
X628Y1668D02*
X634Y1668D01*
X651Y1668D02*
X657Y1668D01*
X679Y1668D02*
X685Y1668D01*
X702Y1668D02*
X708Y1668D01*
X729Y1668D02*
X735Y1668D01*
X765Y1668D02*
X771Y1668D01*
X572Y1667D02*
X578Y1667D01*
X601Y1667D02*
X607Y1667D01*
X629Y1667D02*
X634Y1667D01*
X651Y1667D02*
X657Y1667D01*
X679Y1667D02*
X685Y1667D01*
X702Y1667D02*
X708Y1667D01*
X729Y1667D02*
X735Y1667D01*
X765Y1667D02*
X771Y1667D01*
X572Y1666D02*
X578Y1666D01*
X601Y1666D02*
X607Y1666D01*
X629Y1666D02*
X635Y1666D01*
X651Y1666D02*
X657Y1666D01*
X679Y1666D02*
X685Y1666D01*
X702Y1666D02*
X708Y1666D01*
X729Y1666D02*
X735Y1666D01*
X765Y1666D02*
X771Y1666D01*
X572Y1665D02*
X578Y1665D01*
X601Y1665D02*
X607Y1665D01*
X629Y1665D02*
X635Y1665D01*
X651Y1665D02*
X657Y1665D01*
X679Y1665D02*
X685Y1665D01*
X702Y1665D02*
X708Y1665D01*
X729Y1665D02*
X735Y1665D01*
X765Y1665D02*
X771Y1665D01*
X572Y1664D02*
X578Y1664D01*
X601Y1664D02*
X607Y1664D01*
X629Y1664D02*
X635Y1664D01*
X651Y1664D02*
X657Y1664D01*
X679Y1664D02*
X685Y1664D01*
X702Y1664D02*
X708Y1664D01*
X729Y1664D02*
X735Y1664D01*
X765Y1664D02*
X771Y1664D01*
X572Y1663D02*
X578Y1663D01*
X601Y1663D02*
X607Y1663D01*
X629Y1663D02*
X635Y1663D01*
X651Y1663D02*
X658Y1663D01*
X678Y1663D02*
X685Y1663D01*
X702Y1663D02*
X708Y1663D01*
X727Y1663D02*
X735Y1663D01*
X765Y1663D02*
X771Y1663D01*
X572Y1662D02*
X578Y1662D01*
X601Y1662D02*
X607Y1662D01*
X629Y1662D02*
X635Y1662D01*
X652Y1662D02*
X658Y1662D01*
X677Y1662D02*
X685Y1662D01*
X702Y1662D02*
X708Y1662D01*
X726Y1662D02*
X735Y1662D01*
X765Y1662D02*
X771Y1662D01*
X572Y1661D02*
X578Y1661D01*
X601Y1661D02*
X607Y1661D01*
X629Y1661D02*
X635Y1661D01*
X652Y1661D02*
X659Y1661D01*
X676Y1661D02*
X685Y1661D01*
X702Y1661D02*
X708Y1661D01*
X724Y1661D02*
X735Y1661D01*
X765Y1661D02*
X771Y1661D01*
X572Y1660D02*
X578Y1660D01*
X601Y1660D02*
X607Y1660D01*
X629Y1660D02*
X635Y1660D01*
X652Y1660D02*
X660Y1660D01*
X676Y1660D02*
X685Y1660D01*
X702Y1660D02*
X708Y1660D01*
X723Y1660D02*
X735Y1660D01*
X765Y1660D02*
X771Y1660D01*
X572Y1659D02*
X578Y1659D01*
X601Y1659D02*
X607Y1659D01*
X629Y1659D02*
X635Y1659D01*
X653Y1659D02*
X661Y1659D01*
X675Y1659D02*
X685Y1659D01*
X702Y1659D02*
X709Y1659D01*
X721Y1659D02*
X735Y1659D01*
X765Y1659D02*
X771Y1659D01*
X572Y1658D02*
X578Y1658D01*
X601Y1658D02*
X607Y1658D01*
X629Y1658D02*
X635Y1658D01*
X653Y1658D02*
X662Y1658D01*
X674Y1658D02*
X685Y1658D01*
X702Y1658D02*
X709Y1658D01*
X720Y1658D02*
X735Y1658D01*
X765Y1658D02*
X771Y1658D01*
X572Y1657D02*
X578Y1657D01*
X601Y1657D02*
X607Y1657D01*
X629Y1657D02*
X635Y1657D01*
X654Y1657D02*
X663Y1657D01*
X673Y1657D02*
X685Y1657D01*
X703Y1657D02*
X710Y1657D01*
X718Y1657D02*
X735Y1657D01*
X765Y1657D02*
X771Y1657D01*
X208Y1656D02*
X221Y1656D01*
X556Y1656D02*
X583Y1656D01*
X601Y1656D02*
X607Y1656D01*
X629Y1656D02*
X635Y1656D01*
X655Y1656D02*
X665Y1656D01*
X671Y1656D02*
X685Y1656D01*
X703Y1656D02*
X735Y1656D01*
X765Y1656D02*
X771Y1656D01*
X200Y1655D02*
X228Y1655D01*
X555Y1655D02*
X584Y1655D01*
X601Y1655D02*
X607Y1655D01*
X629Y1655D02*
X635Y1655D01*
X656Y1655D02*
X685Y1655D01*
X704Y1655D02*
X727Y1655D01*
X729Y1655D02*
X735Y1655D01*
X765Y1655D02*
X771Y1655D01*
X196Y1654D02*
X233Y1654D01*
X555Y1654D02*
X585Y1654D01*
X601Y1654D02*
X607Y1654D01*
X629Y1654D02*
X635Y1654D01*
X657Y1654D02*
X685Y1654D01*
X704Y1654D02*
X726Y1654D01*
X729Y1654D02*
X735Y1654D01*
X765Y1654D02*
X771Y1654D01*
X192Y1653D02*
X237Y1653D01*
X555Y1653D02*
X585Y1653D01*
X601Y1653D02*
X607Y1653D01*
X629Y1653D02*
X635Y1653D01*
X658Y1653D02*
X685Y1653D01*
X705Y1653D02*
X724Y1653D01*
X729Y1653D02*
X735Y1653D01*
X765Y1653D02*
X771Y1653D01*
X189Y1652D02*
X240Y1652D01*
X555Y1652D02*
X585Y1652D01*
X602Y1652D02*
X607Y1652D01*
X629Y1652D02*
X635Y1652D01*
X659Y1652D02*
X676Y1652D01*
X679Y1652D02*
X685Y1652D01*
X706Y1652D02*
X722Y1652D01*
X729Y1652D02*
X735Y1652D01*
X765Y1652D02*
X771Y1652D01*
X186Y1651D02*
X204Y1651D01*
X224Y1651D02*
X243Y1651D01*
X556Y1651D02*
X584Y1651D01*
X602Y1651D02*
X607Y1651D01*
X630Y1651D02*
X634Y1651D01*
X661Y1651D02*
X675Y1651D01*
X679Y1651D02*
X685Y1651D01*
X708Y1651D02*
X721Y1651D01*
X730Y1651D02*
X734Y1651D01*
X765Y1651D02*
X771Y1651D01*
X184Y1650D02*
X199Y1650D01*
X230Y1650D02*
X245Y1650D01*
X557Y1650D02*
X583Y1650D01*
X603Y1650D02*
X605Y1650D01*
X631Y1650D02*
X633Y1650D01*
X662Y1650D02*
X674Y1650D01*
X679Y1650D02*
X684Y1650D01*
X710Y1650D02*
X718Y1650D01*
X731Y1650D02*
X733Y1650D01*
X765Y1650D02*
X771Y1650D01*
X181Y1649D02*
X194Y1649D01*
X234Y1649D02*
X247Y1649D01*
X572Y1649D02*
X578Y1649D01*
X664Y1649D02*
X672Y1649D01*
X680Y1649D02*
X684Y1649D01*
X765Y1649D02*
X771Y1649D01*
X179Y1648D02*
X191Y1648D01*
X237Y1648D02*
X249Y1648D01*
X572Y1648D02*
X578Y1648D01*
X765Y1648D02*
X771Y1648D01*
X177Y1647D02*
X188Y1647D01*
X240Y1647D02*
X251Y1647D01*
X572Y1647D02*
X578Y1647D01*
X765Y1647D02*
X771Y1647D01*
X175Y1646D02*
X186Y1646D01*
X243Y1646D02*
X253Y1646D01*
X572Y1646D02*
X578Y1646D01*
X765Y1646D02*
X771Y1646D01*
X174Y1645D02*
X183Y1645D01*
X245Y1645D02*
X255Y1645D01*
X572Y1645D02*
X578Y1645D01*
X765Y1645D02*
X771Y1645D01*
X172Y1644D02*
X181Y1644D01*
X247Y1644D02*
X256Y1644D01*
X572Y1644D02*
X578Y1644D01*
X765Y1644D02*
X771Y1644D01*
X171Y1643D02*
X179Y1643D01*
X249Y1643D02*
X258Y1643D01*
X572Y1643D02*
X578Y1643D01*
X765Y1643D02*
X771Y1643D01*
X169Y1642D02*
X177Y1642D01*
X251Y1642D02*
X259Y1642D01*
X572Y1642D02*
X578Y1642D01*
X765Y1642D02*
X772Y1642D01*
X168Y1641D02*
X176Y1641D01*
X253Y1641D02*
X261Y1641D01*
X572Y1641D02*
X578Y1641D01*
X753Y1641D02*
X784Y1641D01*
X166Y1640D02*
X174Y1640D01*
X254Y1640D02*
X262Y1640D01*
X572Y1640D02*
X578Y1640D01*
X752Y1640D02*
X784Y1640D01*
X165Y1639D02*
X173Y1639D01*
X256Y1639D02*
X263Y1639D01*
X573Y1639D02*
X577Y1639D01*
X751Y1639D02*
X785Y1639D01*
X164Y1638D02*
X171Y1638D01*
X257Y1638D02*
X265Y1638D01*
X575Y1638D02*
X576Y1638D01*
X751Y1638D02*
X785Y1638D01*
X163Y1637D02*
X170Y1637D01*
X259Y1637D02*
X266Y1637D01*
X752Y1637D02*
X785Y1637D01*
X162Y1636D02*
X168Y1636D01*
X260Y1636D02*
X267Y1636D01*
X752Y1636D02*
X784Y1636D01*
X160Y1635D02*
X167Y1635D01*
X261Y1635D02*
X268Y1635D01*
X754Y1635D02*
X782Y1635D01*
X159Y1634D02*
X166Y1634D01*
X262Y1634D02*
X269Y1634D01*
X158Y1633D02*
X165Y1633D01*
X264Y1633D02*
X270Y1633D01*
X157Y1632D02*
X164Y1632D01*
X265Y1632D02*
X271Y1632D01*
X156Y1631D02*
X163Y1631D01*
X266Y1631D02*
X272Y1631D01*
X156Y1630D02*
X162Y1630D01*
X267Y1630D02*
X273Y1630D01*
X155Y1629D02*
X161Y1629D01*
X268Y1629D02*
X274Y1629D01*
X154Y1628D02*
X160Y1628D01*
X269Y1628D02*
X275Y1628D01*
X153Y1627D02*
X159Y1627D01*
X270Y1627D02*
X275Y1627D01*
X152Y1626D02*
X158Y1626D01*
X271Y1626D02*
X276Y1626D01*
X151Y1625D02*
X157Y1625D01*
X272Y1625D02*
X277Y1625D01*
X151Y1624D02*
X156Y1624D01*
X272Y1624D02*
X278Y1624D01*
X151Y1623D02*
X155Y1623D01*
X273Y1623D02*
X279Y1623D01*
X151Y1622D02*
X155Y1622D01*
X274Y1622D02*
X279Y1622D01*
X151Y1621D02*
X155Y1621D01*
X275Y1621D02*
X280Y1621D01*
X151Y1620D02*
X155Y1620D01*
X275Y1620D02*
X281Y1620D01*
X151Y1619D02*
X155Y1619D01*
X276Y1619D02*
X281Y1619D01*
X151Y1618D02*
X155Y1618D01*
X277Y1618D02*
X282Y1618D01*
X151Y1617D02*
X155Y1617D01*
X277Y1617D02*
X282Y1617D01*
X151Y1616D02*
X155Y1616D01*
X278Y1616D02*
X282Y1616D01*
X151Y1615D02*
X155Y1615D01*
X279Y1615D02*
X282Y1615D01*
X151Y1614D02*
X155Y1614D01*
X151Y1613D02*
X155Y1613D01*
X151Y1612D02*
X155Y1612D01*
X151Y1611D02*
X155Y1611D01*
X151Y1610D02*
X154Y1610D01*
X151Y1609D02*
X152Y1609D01*
X151Y1545D02*
X153Y1545D01*
X151Y1544D02*
X155Y1544D01*
X151Y1543D02*
X155Y1543D01*
X151Y1542D02*
X155Y1542D01*
X151Y1541D02*
X155Y1541D01*
X151Y1540D02*
X155Y1540D01*
X279Y1540D02*
X283Y1540D01*
X151Y1539D02*
X155Y1539D01*
X278Y1539D02*
X283Y1539D01*
X151Y1538D02*
X155Y1538D01*
X278Y1538D02*
X283Y1538D01*
X151Y1537D02*
X155Y1537D01*
X277Y1537D02*
X282Y1537D01*
X151Y1536D02*
X155Y1536D01*
X276Y1536D02*
X281Y1536D01*
X151Y1535D02*
X155Y1535D01*
X276Y1535D02*
X281Y1535D01*
X151Y1534D02*
X155Y1534D01*
X275Y1534D02*
X280Y1534D01*
X151Y1533D02*
X155Y1533D01*
X274Y1533D02*
X280Y1533D01*
X151Y1532D02*
X155Y1532D01*
X274Y1532D02*
X279Y1532D01*
X151Y1531D02*
X156Y1531D01*
X273Y1531D02*
X278Y1531D01*
X151Y1530D02*
X157Y1530D01*
X272Y1530D02*
X277Y1530D01*
X152Y1529D02*
X157Y1529D01*
X271Y1529D02*
X277Y1529D01*
X153Y1528D02*
X158Y1528D01*
X270Y1528D02*
X276Y1528D01*
X153Y1527D02*
X159Y1527D01*
X269Y1527D02*
X275Y1527D01*
X154Y1526D02*
X160Y1526D01*
X268Y1526D02*
X274Y1526D01*
X155Y1525D02*
X161Y1525D01*
X267Y1525D02*
X273Y1525D01*
X156Y1524D02*
X162Y1524D01*
X266Y1524D02*
X272Y1524D01*
X157Y1523D02*
X163Y1523D01*
X265Y1523D02*
X272Y1523D01*
X158Y1522D02*
X164Y1522D01*
X264Y1522D02*
X271Y1522D01*
X159Y1521D02*
X165Y1521D01*
X263Y1521D02*
X270Y1521D01*
X160Y1520D02*
X167Y1520D01*
X262Y1520D02*
X269Y1520D01*
X161Y1519D02*
X168Y1519D01*
X261Y1519D02*
X267Y1519D01*
X162Y1518D02*
X169Y1518D01*
X259Y1518D02*
X266Y1518D01*
X163Y1517D02*
X171Y1517D01*
X258Y1517D02*
X265Y1517D01*
X164Y1516D02*
X172Y1516D01*
X257Y1516D02*
X264Y1516D01*
X166Y1515D02*
X173Y1515D01*
X255Y1515D02*
X263Y1515D01*
X167Y1514D02*
X175Y1514D01*
X254Y1514D02*
X261Y1514D01*
X168Y1513D02*
X177Y1513D01*
X252Y1513D02*
X260Y1513D01*
X170Y1512D02*
X179Y1512D01*
X250Y1512D02*
X259Y1512D01*
X171Y1511D02*
X180Y1511D01*
X248Y1511D02*
X257Y1511D01*
X173Y1510D02*
X182Y1510D01*
X246Y1510D02*
X256Y1510D01*
X174Y1509D02*
X185Y1509D01*
X244Y1509D02*
X254Y1509D01*
X460Y1509D02*
X473Y1509D01*
X176Y1508D02*
X187Y1508D01*
X242Y1508D02*
X252Y1508D01*
X458Y1508D02*
X475Y1508D01*
X178Y1507D02*
X190Y1507D01*
X239Y1507D02*
X250Y1507D01*
X457Y1507D02*
X476Y1507D01*
X180Y1506D02*
X193Y1506D01*
X236Y1506D02*
X248Y1506D01*
X456Y1506D02*
X477Y1506D01*
X182Y1505D02*
X196Y1505D01*
X232Y1505D02*
X246Y1505D01*
X455Y1505D02*
X478Y1505D01*
X649Y1505D02*
X671Y1505D01*
X185Y1504D02*
X201Y1504D01*
X227Y1504D02*
X244Y1504D01*
X455Y1504D02*
X462Y1504D01*
X471Y1504D02*
X479Y1504D01*
X647Y1504D02*
X673Y1504D01*
X187Y1503D02*
X210Y1503D01*
X219Y1503D02*
X241Y1503D01*
X454Y1503D02*
X460Y1503D01*
X473Y1503D02*
X479Y1503D01*
X646Y1503D02*
X674Y1503D01*
X755Y1503D02*
X781Y1503D01*
X190Y1502D02*
X238Y1502D01*
X453Y1502D02*
X459Y1502D01*
X473Y1502D02*
X480Y1502D01*
X645Y1502D02*
X675Y1502D01*
X754Y1502D02*
X783Y1502D01*
X193Y1501D02*
X235Y1501D01*
X452Y1501D02*
X459Y1501D01*
X474Y1501D02*
X481Y1501D01*
X644Y1501D02*
X676Y1501D01*
X752Y1501D02*
X785Y1501D01*
X198Y1500D02*
X231Y1500D01*
X452Y1500D02*
X458Y1500D01*
X475Y1500D02*
X481Y1500D01*
X643Y1500D02*
X677Y1500D01*
X751Y1500D02*
X786Y1500D01*
X203Y1499D02*
X225Y1499D01*
X451Y1499D02*
X457Y1499D01*
X476Y1499D02*
X482Y1499D01*
X549Y1499D02*
X551Y1499D01*
X582Y1499D02*
X584Y1499D01*
X643Y1499D02*
X678Y1499D01*
X751Y1499D02*
X787Y1499D01*
X451Y1498D02*
X456Y1498D01*
X477Y1498D02*
X482Y1498D01*
X548Y1498D02*
X552Y1498D01*
X581Y1498D02*
X585Y1498D01*
X642Y1498D02*
X651Y1498D01*
X670Y1498D02*
X679Y1498D01*
X750Y1498D02*
X789Y1498D01*
X451Y1497D02*
X456Y1497D01*
X477Y1497D02*
X482Y1497D01*
X548Y1497D02*
X552Y1497D01*
X581Y1497D02*
X585Y1497D01*
X641Y1497D02*
X649Y1497D01*
X671Y1497D02*
X679Y1497D01*
X750Y1497D02*
X758Y1497D01*
X778Y1497D02*
X790Y1497D01*
X451Y1496D02*
X455Y1496D01*
X477Y1496D02*
X482Y1496D01*
X548Y1496D02*
X552Y1496D01*
X581Y1496D02*
X585Y1496D01*
X641Y1496D02*
X649Y1496D01*
X672Y1496D02*
X680Y1496D01*
X750Y1496D02*
X756Y1496D01*
X781Y1496D02*
X791Y1496D01*
X451Y1495D02*
X455Y1495D01*
X477Y1495D02*
X482Y1495D01*
X548Y1495D02*
X552Y1495D01*
X581Y1495D02*
X585Y1495D01*
X641Y1495D02*
X648Y1495D01*
X673Y1495D02*
X680Y1495D01*
X749Y1495D02*
X755Y1495D01*
X783Y1495D02*
X793Y1495D01*
X451Y1494D02*
X455Y1494D01*
X477Y1494D02*
X482Y1494D01*
X548Y1494D02*
X552Y1494D01*
X581Y1494D02*
X585Y1494D01*
X641Y1494D02*
X647Y1494D01*
X674Y1494D02*
X680Y1494D01*
X749Y1494D02*
X755Y1494D01*
X784Y1494D02*
X794Y1494D01*
X451Y1493D02*
X455Y1493D01*
X477Y1493D02*
X482Y1493D01*
X548Y1493D02*
X552Y1493D01*
X581Y1493D02*
X585Y1493D01*
X641Y1493D02*
X647Y1493D01*
X674Y1493D02*
X680Y1493D01*
X749Y1493D02*
X755Y1493D01*
X785Y1493D02*
X795Y1493D01*
X451Y1492D02*
X455Y1492D01*
X477Y1492D02*
X482Y1492D01*
X548Y1492D02*
X585Y1492D01*
X640Y1492D02*
X647Y1492D01*
X674Y1492D02*
X680Y1492D01*
X749Y1492D02*
X755Y1492D01*
X786Y1492D02*
X796Y1492D01*
X451Y1491D02*
X455Y1491D01*
X477Y1491D02*
X482Y1491D01*
X548Y1491D02*
X585Y1491D01*
X640Y1491D02*
X647Y1491D01*
X674Y1491D02*
X680Y1491D01*
X749Y1491D02*
X755Y1491D01*
X788Y1491D02*
X798Y1491D01*
X451Y1490D02*
X455Y1490D01*
X477Y1490D02*
X482Y1490D01*
X548Y1490D02*
X585Y1490D01*
X640Y1490D02*
X647Y1490D01*
X674Y1490D02*
X680Y1490D01*
X749Y1490D02*
X755Y1490D01*
X789Y1490D02*
X798Y1490D01*
X451Y1489D02*
X455Y1489D01*
X477Y1489D02*
X482Y1489D01*
X548Y1489D02*
X585Y1489D01*
X640Y1489D02*
X647Y1489D01*
X674Y1489D02*
X680Y1489D01*
X749Y1489D02*
X755Y1489D01*
X790Y1489D02*
X799Y1489D01*
X451Y1488D02*
X455Y1488D01*
X477Y1488D02*
X482Y1488D01*
X548Y1488D02*
X584Y1488D01*
X640Y1488D02*
X647Y1488D01*
X674Y1488D02*
X680Y1488D01*
X749Y1488D02*
X755Y1488D01*
X792Y1488D02*
X800Y1488D01*
X451Y1487D02*
X455Y1487D01*
X477Y1487D02*
X482Y1487D01*
X548Y1487D02*
X552Y1487D01*
X640Y1487D02*
X647Y1487D01*
X674Y1487D02*
X680Y1487D01*
X749Y1487D02*
X755Y1487D01*
X768Y1487D02*
X770Y1487D01*
X793Y1487D02*
X800Y1487D01*
X451Y1486D02*
X455Y1486D01*
X477Y1486D02*
X482Y1486D01*
X548Y1486D02*
X552Y1486D01*
X641Y1486D02*
X647Y1486D01*
X674Y1486D02*
X680Y1486D01*
X749Y1486D02*
X755Y1486D01*
X767Y1486D02*
X771Y1486D01*
X794Y1486D02*
X800Y1486D01*
X451Y1485D02*
X455Y1485D01*
X477Y1485D02*
X482Y1485D01*
X548Y1485D02*
X552Y1485D01*
X641Y1485D02*
X647Y1485D01*
X673Y1485D02*
X680Y1485D01*
X749Y1485D02*
X755Y1485D01*
X767Y1485D02*
X772Y1485D01*
X794Y1485D02*
X800Y1485D01*
X451Y1484D02*
X455Y1484D01*
X477Y1484D02*
X482Y1484D01*
X548Y1484D02*
X552Y1484D01*
X641Y1484D02*
X648Y1484D01*
X672Y1484D02*
X680Y1484D01*
X749Y1484D02*
X755Y1484D01*
X766Y1484D02*
X772Y1484D01*
X795Y1484D02*
X800Y1484D01*
X451Y1483D02*
X455Y1483D01*
X478Y1483D02*
X482Y1483D01*
X548Y1483D02*
X552Y1483D01*
X641Y1483D02*
X649Y1483D01*
X671Y1483D02*
X679Y1483D01*
X749Y1483D02*
X755Y1483D01*
X766Y1483D02*
X772Y1483D01*
X795Y1483D02*
X800Y1483D01*
X880Y1483D02*
X894Y1483D01*
X452Y1482D02*
X454Y1482D01*
X479Y1482D02*
X481Y1482D01*
X548Y1482D02*
X552Y1482D01*
X642Y1482D02*
X650Y1482D01*
X671Y1482D02*
X679Y1482D01*
X749Y1482D02*
X755Y1482D01*
X766Y1482D02*
X772Y1482D01*
X795Y1482D02*
X800Y1482D01*
X878Y1482D02*
X895Y1482D01*
X549Y1481D02*
X551Y1481D01*
X642Y1481D02*
X651Y1481D01*
X670Y1481D02*
X678Y1481D01*
X749Y1481D02*
X755Y1481D01*
X766Y1481D02*
X772Y1481D01*
X795Y1481D02*
X800Y1481D01*
X875Y1481D02*
X896Y1481D01*
X643Y1480D02*
X652Y1480D01*
X669Y1480D02*
X677Y1480D01*
X749Y1480D02*
X755Y1480D01*
X766Y1480D02*
X772Y1480D01*
X795Y1480D02*
X800Y1480D01*
X873Y1480D02*
X896Y1480D01*
X644Y1479D02*
X653Y1479D01*
X668Y1479D02*
X677Y1479D01*
X750Y1479D02*
X756Y1479D01*
X766Y1479D02*
X772Y1479D01*
X795Y1479D02*
X800Y1479D01*
X870Y1479D02*
X896Y1479D01*
X645Y1478D02*
X654Y1478D01*
X667Y1478D02*
X676Y1478D01*
X750Y1478D02*
X757Y1478D01*
X766Y1478D02*
X772Y1478D01*
X795Y1478D02*
X800Y1478D01*
X868Y1478D02*
X895Y1478D01*
X643Y1477D02*
X693Y1477D01*
X750Y1477D02*
X772Y1477D01*
X795Y1477D02*
X800Y1477D01*
X865Y1477D02*
X894Y1477D01*
X641Y1476D02*
X694Y1476D01*
X751Y1476D02*
X772Y1476D01*
X795Y1476D02*
X800Y1476D01*
X862Y1476D02*
X880Y1476D01*
X641Y1475D02*
X695Y1475D01*
X751Y1475D02*
X772Y1475D01*
X795Y1475D02*
X800Y1475D01*
X860Y1475D02*
X877Y1475D01*
X641Y1474D02*
X695Y1474D01*
X752Y1474D02*
X772Y1474D01*
X795Y1474D02*
X800Y1474D01*
X857Y1474D02*
X875Y1474D01*
X641Y1473D02*
X695Y1473D01*
X753Y1473D02*
X772Y1473D01*
X795Y1473D02*
X800Y1473D01*
X855Y1473D02*
X872Y1473D01*
X641Y1472D02*
X695Y1472D01*
X755Y1472D02*
X772Y1472D01*
X795Y1472D02*
X800Y1472D01*
X852Y1472D02*
X870Y1472D01*
X642Y1471D02*
X694Y1471D01*
X757Y1471D02*
X772Y1471D01*
X797Y1471D02*
X798Y1471D01*
X850Y1471D02*
X867Y1471D01*
X847Y1470D02*
X865Y1470D01*
X846Y1469D02*
X862Y1469D01*
X846Y1468D02*
X859Y1468D01*
X845Y1467D02*
X858Y1467D01*
X552Y1466D02*
X561Y1466D01*
X846Y1466D02*
X860Y1466D01*
X452Y1465D02*
X454Y1465D01*
X491Y1465D02*
X493Y1465D01*
X550Y1465D02*
X562Y1465D01*
X846Y1465D02*
X862Y1465D01*
X451Y1464D02*
X455Y1464D01*
X490Y1464D02*
X494Y1464D01*
X549Y1464D02*
X563Y1464D01*
X848Y1464D02*
X865Y1464D01*
X451Y1463D02*
X455Y1463D01*
X490Y1463D02*
X494Y1463D01*
X549Y1463D02*
X563Y1463D01*
X850Y1463D02*
X867Y1463D01*
X451Y1462D02*
X455Y1462D01*
X490Y1462D02*
X494Y1462D01*
X548Y1462D02*
X554Y1462D01*
X558Y1462D02*
X564Y1462D01*
X572Y1462D02*
X573Y1462D01*
X853Y1462D02*
X870Y1462D01*
X451Y1461D02*
X455Y1461D01*
X490Y1461D02*
X494Y1461D01*
X548Y1461D02*
X552Y1461D01*
X560Y1461D02*
X564Y1461D01*
X571Y1461D02*
X574Y1461D01*
X855Y1461D02*
X872Y1461D01*
X451Y1460D02*
X455Y1460D01*
X490Y1460D02*
X494Y1460D01*
X548Y1460D02*
X552Y1460D01*
X560Y1460D02*
X564Y1460D01*
X571Y1460D02*
X575Y1460D01*
X858Y1460D02*
X875Y1460D01*
X451Y1459D02*
X455Y1459D01*
X490Y1459D02*
X494Y1459D01*
X548Y1459D02*
X552Y1459D01*
X560Y1459D02*
X564Y1459D01*
X571Y1459D02*
X575Y1459D01*
X860Y1459D02*
X878Y1459D01*
X451Y1458D02*
X455Y1458D01*
X490Y1458D02*
X494Y1458D01*
X548Y1458D02*
X552Y1458D01*
X560Y1458D02*
X564Y1458D01*
X571Y1458D02*
X575Y1458D01*
X863Y1458D02*
X880Y1458D01*
X451Y1457D02*
X494Y1457D01*
X548Y1457D02*
X552Y1457D01*
X560Y1457D02*
X564Y1457D01*
X571Y1457D02*
X575Y1457D01*
X865Y1457D02*
X894Y1457D01*
X207Y1456D02*
X222Y1456D01*
X451Y1456D02*
X494Y1456D01*
X548Y1456D02*
X552Y1456D01*
X560Y1456D02*
X564Y1456D01*
X571Y1456D02*
X575Y1456D01*
X868Y1456D02*
X895Y1456D01*
X200Y1455D02*
X229Y1455D01*
X451Y1455D02*
X494Y1455D01*
X548Y1455D02*
X552Y1455D01*
X560Y1455D02*
X564Y1455D01*
X571Y1455D02*
X575Y1455D01*
X750Y1455D02*
X800Y1455D01*
X871Y1455D02*
X896Y1455D01*
X195Y1454D02*
X234Y1454D01*
X451Y1454D02*
X494Y1454D01*
X548Y1454D02*
X552Y1454D01*
X560Y1454D02*
X564Y1454D01*
X571Y1454D02*
X575Y1454D01*
X649Y1454D02*
X657Y1454D01*
X750Y1454D02*
X800Y1454D01*
X873Y1454D02*
X896Y1454D01*
X192Y1453D02*
X237Y1453D01*
X451Y1453D02*
X494Y1453D01*
X548Y1453D02*
X552Y1453D01*
X560Y1453D02*
X564Y1453D01*
X571Y1453D02*
X575Y1453D01*
X646Y1453D02*
X659Y1453D01*
X749Y1453D02*
X800Y1453D01*
X876Y1453D02*
X896Y1453D01*
X188Y1452D02*
X240Y1452D01*
X451Y1452D02*
X493Y1452D01*
X548Y1452D02*
X553Y1452D01*
X560Y1452D02*
X564Y1452D01*
X571Y1452D02*
X575Y1452D01*
X645Y1452D02*
X661Y1452D01*
X749Y1452D02*
X800Y1452D01*
X878Y1452D02*
X895Y1452D01*
X186Y1451D02*
X203Y1451D01*
X225Y1451D02*
X243Y1451D01*
X451Y1451D02*
X455Y1451D01*
X548Y1451D02*
X553Y1451D01*
X560Y1451D02*
X564Y1451D01*
X571Y1451D02*
X575Y1451D01*
X643Y1451D02*
X662Y1451D01*
X750Y1451D02*
X800Y1451D01*
X881Y1451D02*
X894Y1451D01*
X183Y1450D02*
X198Y1450D01*
X230Y1450D02*
X245Y1450D01*
X451Y1450D02*
X455Y1450D01*
X549Y1450D02*
X554Y1450D01*
X560Y1450D02*
X564Y1450D01*
X571Y1450D02*
X575Y1450D01*
X643Y1450D02*
X663Y1450D01*
X751Y1450D02*
X800Y1450D01*
X181Y1449D02*
X194Y1449D01*
X234Y1449D02*
X248Y1449D01*
X451Y1449D02*
X455Y1449D01*
X550Y1449D02*
X554Y1449D01*
X560Y1449D02*
X564Y1449D01*
X570Y1449D02*
X574Y1449D01*
X642Y1449D02*
X663Y1449D01*
X777Y1449D02*
X784Y1449D01*
X794Y1449D02*
X800Y1449D01*
X179Y1448D02*
X191Y1448D01*
X238Y1448D02*
X250Y1448D01*
X451Y1448D02*
X455Y1448D01*
X550Y1448D02*
X555Y1448D01*
X558Y1448D02*
X574Y1448D01*
X641Y1448D02*
X664Y1448D01*
X778Y1448D02*
X783Y1448D01*
X795Y1448D02*
X800Y1448D01*
X177Y1447D02*
X188Y1447D01*
X241Y1447D02*
X252Y1447D01*
X451Y1447D02*
X455Y1447D01*
X549Y1447D02*
X574Y1447D01*
X641Y1447D02*
X650Y1447D01*
X656Y1447D02*
X664Y1447D01*
X676Y1447D02*
X678Y1447D01*
X778Y1447D02*
X783Y1447D01*
X795Y1447D02*
X800Y1447D01*
X175Y1446D02*
X185Y1446D01*
X243Y1446D02*
X253Y1446D01*
X451Y1446D02*
X455Y1446D01*
X548Y1446D02*
X573Y1446D01*
X641Y1446D02*
X648Y1446D01*
X658Y1446D02*
X665Y1446D01*
X675Y1446D02*
X679Y1446D01*
X778Y1446D02*
X783Y1446D01*
X795Y1446D02*
X800Y1446D01*
X174Y1445D02*
X183Y1445D01*
X245Y1445D02*
X255Y1445D01*
X451Y1445D02*
X455Y1445D01*
X548Y1445D02*
X572Y1445D01*
X641Y1445D02*
X647Y1445D01*
X658Y1445D02*
X665Y1445D01*
X674Y1445D02*
X680Y1445D01*
X778Y1445D02*
X783Y1445D01*
X795Y1445D02*
X800Y1445D01*
X172Y1444D02*
X181Y1444D01*
X247Y1444D02*
X257Y1444D01*
X451Y1444D02*
X455Y1444D01*
X548Y1444D02*
X570Y1444D01*
X641Y1444D02*
X647Y1444D01*
X659Y1444D02*
X665Y1444D01*
X674Y1444D02*
X680Y1444D01*
X777Y1444D02*
X783Y1444D01*
X795Y1444D02*
X800Y1444D01*
X170Y1443D02*
X179Y1443D01*
X249Y1443D02*
X258Y1443D01*
X549Y1443D02*
X558Y1443D01*
X640Y1443D02*
X647Y1443D01*
X659Y1443D02*
X665Y1443D01*
X674Y1443D02*
X680Y1443D01*
X775Y1443D02*
X783Y1443D01*
X795Y1443D02*
X800Y1443D01*
X169Y1442D02*
X177Y1442D01*
X251Y1442D02*
X260Y1442D01*
X640Y1442D02*
X647Y1442D01*
X659Y1442D02*
X665Y1442D01*
X674Y1442D02*
X680Y1442D01*
X773Y1442D02*
X783Y1442D01*
X795Y1442D02*
X800Y1442D01*
X168Y1441D02*
X175Y1441D01*
X253Y1441D02*
X261Y1441D01*
X640Y1441D02*
X647Y1441D01*
X659Y1441D02*
X665Y1441D01*
X674Y1441D02*
X680Y1441D01*
X771Y1441D02*
X783Y1441D01*
X795Y1441D02*
X800Y1441D01*
X166Y1440D02*
X174Y1440D01*
X254Y1440D02*
X262Y1440D01*
X640Y1440D02*
X647Y1440D01*
X659Y1440D02*
X665Y1440D01*
X674Y1440D02*
X680Y1440D01*
X770Y1440D02*
X783Y1440D01*
X795Y1440D02*
X800Y1440D01*
X165Y1439D02*
X172Y1439D01*
X256Y1439D02*
X264Y1439D01*
X640Y1439D02*
X647Y1439D01*
X659Y1439D02*
X665Y1439D01*
X674Y1439D02*
X680Y1439D01*
X768Y1439D02*
X783Y1439D01*
X795Y1439D02*
X800Y1439D01*
X164Y1438D02*
X171Y1438D01*
X257Y1438D02*
X265Y1438D01*
X640Y1438D02*
X647Y1438D01*
X659Y1438D02*
X665Y1438D01*
X674Y1438D02*
X680Y1438D01*
X766Y1438D02*
X783Y1438D01*
X795Y1438D02*
X800Y1438D01*
X162Y1437D02*
X170Y1437D01*
X259Y1437D02*
X266Y1437D01*
X640Y1437D02*
X647Y1437D01*
X659Y1437D02*
X665Y1437D01*
X674Y1437D02*
X680Y1437D01*
X765Y1437D02*
X783Y1437D01*
X795Y1437D02*
X800Y1437D01*
X161Y1436D02*
X168Y1436D01*
X260Y1436D02*
X267Y1436D01*
X640Y1436D02*
X647Y1436D01*
X659Y1436D02*
X665Y1436D01*
X674Y1436D02*
X680Y1436D01*
X763Y1436D02*
X775Y1436D01*
X778Y1436D02*
X783Y1436D01*
X795Y1436D02*
X800Y1436D01*
X871Y1436D02*
X871Y1436D01*
X160Y1435D02*
X167Y1435D01*
X261Y1435D02*
X268Y1435D01*
X640Y1435D02*
X647Y1435D01*
X659Y1435D02*
X665Y1435D01*
X674Y1435D02*
X680Y1435D01*
X761Y1435D02*
X774Y1435D01*
X778Y1435D02*
X783Y1435D01*
X795Y1435D02*
X800Y1435D01*
X866Y1435D02*
X875Y1435D01*
X159Y1434D02*
X166Y1434D01*
X263Y1434D02*
X269Y1434D01*
X640Y1434D02*
X647Y1434D01*
X659Y1434D02*
X665Y1434D01*
X674Y1434D02*
X680Y1434D01*
X759Y1434D02*
X772Y1434D01*
X778Y1434D02*
X783Y1434D01*
X795Y1434D02*
X800Y1434D01*
X863Y1434D02*
X878Y1434D01*
X158Y1433D02*
X165Y1433D01*
X264Y1433D02*
X270Y1433D01*
X640Y1433D02*
X647Y1433D01*
X659Y1433D02*
X665Y1433D01*
X674Y1433D02*
X680Y1433D01*
X758Y1433D02*
X770Y1433D01*
X778Y1433D02*
X783Y1433D01*
X795Y1433D02*
X800Y1433D01*
X861Y1433D02*
X880Y1433D01*
X157Y1432D02*
X164Y1432D01*
X265Y1432D02*
X271Y1432D01*
X641Y1432D02*
X648Y1432D01*
X659Y1432D02*
X665Y1432D01*
X674Y1432D02*
X680Y1432D01*
X756Y1432D02*
X769Y1432D01*
X778Y1432D02*
X784Y1432D01*
X794Y1432D02*
X800Y1432D01*
X859Y1432D02*
X882Y1432D01*
X156Y1431D02*
X163Y1431D01*
X266Y1431D02*
X272Y1431D01*
X571Y1431D02*
X574Y1431D01*
X641Y1431D02*
X648Y1431D01*
X659Y1431D02*
X665Y1431D01*
X674Y1431D02*
X680Y1431D01*
X754Y1431D02*
X767Y1431D01*
X778Y1431D02*
X784Y1431D01*
X794Y1431D02*
X800Y1431D01*
X857Y1431D02*
X884Y1431D01*
X155Y1430D02*
X161Y1430D01*
X267Y1430D02*
X273Y1430D01*
X571Y1430D02*
X575Y1430D01*
X642Y1430D02*
X649Y1430D01*
X659Y1430D02*
X665Y1430D01*
X674Y1430D02*
X680Y1430D01*
X753Y1430D02*
X765Y1430D01*
X778Y1430D02*
X785Y1430D01*
X793Y1430D02*
X800Y1430D01*
X855Y1430D02*
X886Y1430D01*
X155Y1429D02*
X160Y1429D01*
X268Y1429D02*
X274Y1429D01*
X571Y1429D02*
X575Y1429D01*
X642Y1429D02*
X650Y1429D01*
X659Y1429D02*
X665Y1429D01*
X674Y1429D02*
X680Y1429D01*
X751Y1429D02*
X763Y1429D01*
X778Y1429D02*
X800Y1429D01*
X853Y1429D02*
X868Y1429D01*
X874Y1429D02*
X888Y1429D01*
X154Y1428D02*
X159Y1428D01*
X269Y1428D02*
X275Y1428D01*
X571Y1428D02*
X575Y1428D01*
X643Y1428D02*
X650Y1428D01*
X658Y1428D02*
X665Y1428D01*
X673Y1428D02*
X680Y1428D01*
X750Y1428D02*
X762Y1428D01*
X779Y1428D02*
X799Y1428D01*
X851Y1428D02*
X865Y1428D01*
X876Y1428D02*
X890Y1428D01*
X153Y1427D02*
X159Y1427D01*
X270Y1427D02*
X276Y1427D01*
X458Y1427D02*
X474Y1427D01*
X554Y1427D02*
X581Y1427D01*
X643Y1427D02*
X651Y1427D01*
X657Y1427D02*
X665Y1427D01*
X670Y1427D02*
X680Y1427D01*
X749Y1427D02*
X760Y1427D01*
X780Y1427D02*
X798Y1427D01*
X850Y1427D02*
X863Y1427D01*
X878Y1427D02*
X892Y1427D01*
X152Y1426D02*
X158Y1426D01*
X271Y1426D02*
X276Y1426D01*
X456Y1426D02*
X476Y1426D01*
X552Y1426D02*
X582Y1426D01*
X644Y1426D02*
X679Y1426D01*
X749Y1426D02*
X758Y1426D01*
X780Y1426D02*
X798Y1426D01*
X849Y1426D02*
X861Y1426D01*
X880Y1426D02*
X893Y1426D01*
X151Y1425D02*
X157Y1425D01*
X272Y1425D02*
X277Y1425D01*
X455Y1425D02*
X478Y1425D01*
X550Y1425D02*
X583Y1425D01*
X642Y1425D02*
X679Y1425D01*
X750Y1425D02*
X757Y1425D01*
X781Y1425D02*
X796Y1425D01*
X848Y1425D02*
X859Y1425D01*
X882Y1425D02*
X894Y1425D01*
X151Y1424D02*
X156Y1424D01*
X272Y1424D02*
X278Y1424D01*
X454Y1424D02*
X479Y1424D01*
X549Y1424D02*
X583Y1424D01*
X641Y1424D02*
X678Y1424D01*
X750Y1424D02*
X755Y1424D01*
X783Y1424D02*
X795Y1424D01*
X847Y1424D02*
X857Y1424D01*
X884Y1424D02*
X894Y1424D01*
X151Y1423D02*
X155Y1423D01*
X273Y1423D02*
X279Y1423D01*
X453Y1423D02*
X480Y1423D01*
X549Y1423D02*
X582Y1423D01*
X641Y1423D02*
X677Y1423D01*
X751Y1423D02*
X753Y1423D01*
X785Y1423D02*
X792Y1423D01*
X846Y1423D02*
X855Y1423D01*
X886Y1423D02*
X895Y1423D01*
X151Y1422D02*
X155Y1422D01*
X274Y1422D02*
X279Y1422D01*
X453Y1422D02*
X480Y1422D01*
X548Y1422D02*
X554Y1422D01*
X570Y1422D02*
X575Y1422D01*
X641Y1422D02*
X676Y1422D01*
X846Y1422D02*
X853Y1422D01*
X888Y1422D02*
X895Y1422D01*
X151Y1421D02*
X155Y1421D01*
X275Y1421D02*
X280Y1421D01*
X452Y1421D02*
X458Y1421D01*
X475Y1421D02*
X481Y1421D01*
X548Y1421D02*
X552Y1421D01*
X571Y1421D02*
X575Y1421D01*
X641Y1421D02*
X674Y1421D01*
X846Y1421D02*
X852Y1421D01*
X889Y1421D02*
X896Y1421D01*
X151Y1420D02*
X155Y1420D01*
X275Y1420D02*
X281Y1420D01*
X451Y1420D02*
X457Y1420D01*
X476Y1420D02*
X482Y1420D01*
X548Y1420D02*
X552Y1420D01*
X571Y1420D02*
X575Y1420D01*
X641Y1420D02*
X672Y1420D01*
X846Y1420D02*
X851Y1420D01*
X890Y1420D02*
X896Y1420D01*
X151Y1419D02*
X155Y1419D01*
X276Y1419D02*
X281Y1419D01*
X451Y1419D02*
X456Y1419D01*
X476Y1419D02*
X482Y1419D01*
X548Y1419D02*
X552Y1419D01*
X571Y1419D02*
X575Y1419D01*
X643Y1419D02*
X651Y1419D01*
X845Y1419D02*
X851Y1419D01*
X890Y1419D02*
X896Y1419D01*
X151Y1418D02*
X155Y1418D01*
X277Y1418D02*
X282Y1418D01*
X451Y1418D02*
X456Y1418D01*
X477Y1418D02*
X482Y1418D01*
X548Y1418D02*
X552Y1418D01*
X571Y1418D02*
X575Y1418D01*
X845Y1418D02*
X851Y1418D01*
X890Y1418D02*
X896Y1418D01*
X151Y1417D02*
X155Y1417D01*
X277Y1417D02*
X282Y1417D01*
X451Y1417D02*
X456Y1417D01*
X477Y1417D02*
X482Y1417D01*
X548Y1417D02*
X552Y1417D01*
X571Y1417D02*
X575Y1417D01*
X845Y1417D02*
X851Y1417D01*
X890Y1417D02*
X896Y1417D01*
X151Y1416D02*
X155Y1416D01*
X278Y1416D02*
X282Y1416D01*
X451Y1416D02*
X455Y1416D01*
X477Y1416D02*
X482Y1416D01*
X548Y1416D02*
X552Y1416D01*
X571Y1416D02*
X575Y1416D01*
X845Y1416D02*
X851Y1416D01*
X890Y1416D02*
X896Y1416D01*
X151Y1415D02*
X155Y1415D01*
X279Y1415D02*
X281Y1415D01*
X451Y1415D02*
X455Y1415D01*
X477Y1415D02*
X482Y1415D01*
X548Y1415D02*
X552Y1415D01*
X571Y1415D02*
X575Y1415D01*
X845Y1415D02*
X851Y1415D01*
X890Y1415D02*
X896Y1415D01*
X151Y1414D02*
X155Y1414D01*
X451Y1414D02*
X455Y1414D01*
X477Y1414D02*
X482Y1414D01*
X548Y1414D02*
X552Y1414D01*
X571Y1414D02*
X575Y1414D01*
X845Y1414D02*
X851Y1414D01*
X890Y1414D02*
X896Y1414D01*
X151Y1413D02*
X155Y1413D01*
X451Y1413D02*
X455Y1413D01*
X477Y1413D02*
X482Y1413D01*
X548Y1413D02*
X553Y1413D01*
X571Y1413D02*
X575Y1413D01*
X845Y1413D02*
X851Y1413D01*
X890Y1413D02*
X896Y1413D01*
X151Y1412D02*
X155Y1412D01*
X451Y1412D02*
X455Y1412D01*
X477Y1412D02*
X482Y1412D01*
X549Y1412D02*
X555Y1412D01*
X571Y1412D02*
X575Y1412D01*
X845Y1412D02*
X851Y1412D01*
X890Y1412D02*
X896Y1412D01*
X151Y1411D02*
X155Y1411D01*
X451Y1411D02*
X455Y1411D01*
X477Y1411D02*
X482Y1411D01*
X549Y1411D02*
X556Y1411D01*
X571Y1411D02*
X574Y1411D01*
X845Y1411D02*
X851Y1411D01*
X890Y1411D02*
X896Y1411D01*
X151Y1410D02*
X154Y1410D01*
X451Y1410D02*
X455Y1410D01*
X477Y1410D02*
X482Y1410D01*
X550Y1410D02*
X556Y1410D01*
X845Y1410D02*
X851Y1410D01*
X890Y1410D02*
X896Y1410D01*
X151Y1409D02*
X152Y1409D01*
X451Y1409D02*
X456Y1409D01*
X477Y1409D02*
X482Y1409D01*
X551Y1409D02*
X556Y1409D01*
X845Y1409D02*
X851Y1409D01*
X890Y1409D02*
X896Y1409D01*
X451Y1408D02*
X456Y1408D01*
X477Y1408D02*
X482Y1408D01*
X553Y1408D02*
X555Y1408D01*
X845Y1408D02*
X851Y1408D01*
X890Y1408D02*
X896Y1408D01*
X451Y1407D02*
X457Y1407D01*
X476Y1407D02*
X482Y1407D01*
X750Y1407D02*
X800Y1407D01*
X845Y1407D02*
X851Y1407D01*
X890Y1407D02*
X896Y1407D01*
X451Y1406D02*
X458Y1406D01*
X475Y1406D02*
X481Y1406D01*
X750Y1406D02*
X800Y1406D01*
X846Y1406D02*
X851Y1406D01*
X890Y1406D02*
X896Y1406D01*
X452Y1405D02*
X459Y1405D01*
X474Y1405D02*
X481Y1405D01*
X749Y1405D02*
X800Y1405D01*
X846Y1405D02*
X851Y1405D01*
X891Y1405D02*
X895Y1405D01*
X453Y1404D02*
X480Y1404D01*
X749Y1404D02*
X800Y1404D01*
X847Y1404D02*
X850Y1404D01*
X892Y1404D02*
X894Y1404D01*
X454Y1403D02*
X479Y1403D01*
X750Y1403D02*
X800Y1403D01*
X455Y1402D02*
X478Y1402D01*
X675Y1402D02*
X679Y1402D01*
X751Y1402D02*
X800Y1402D01*
X456Y1401D02*
X477Y1401D01*
X674Y1401D02*
X680Y1401D01*
X788Y1401D02*
X800Y1401D01*
X457Y1400D02*
X476Y1400D01*
X674Y1400D02*
X680Y1400D01*
X787Y1400D02*
X800Y1400D01*
X460Y1399D02*
X473Y1399D01*
X674Y1399D02*
X680Y1399D01*
X784Y1399D02*
X800Y1399D01*
X674Y1398D02*
X680Y1398D01*
X782Y1398D02*
X798Y1398D01*
X674Y1397D02*
X680Y1397D01*
X780Y1397D02*
X796Y1397D01*
X555Y1396D02*
X567Y1396D01*
X674Y1396D02*
X680Y1396D01*
X777Y1396D02*
X793Y1396D01*
X554Y1395D02*
X569Y1395D01*
X647Y1395D02*
X691Y1395D01*
X775Y1395D02*
X791Y1395D01*
X553Y1394D02*
X570Y1394D01*
X645Y1394D02*
X692Y1394D01*
X773Y1394D02*
X789Y1394D01*
X552Y1393D02*
X570Y1393D01*
X644Y1393D02*
X692Y1393D01*
X771Y1393D02*
X786Y1393D01*
X551Y1392D02*
X571Y1392D01*
X643Y1392D02*
X692Y1392D01*
X768Y1392D02*
X784Y1392D01*
X550Y1391D02*
X556Y1391D01*
X567Y1391D02*
X572Y1391D01*
X642Y1391D02*
X692Y1391D01*
X766Y1391D02*
X782Y1391D01*
X550Y1390D02*
X555Y1390D01*
X567Y1390D02*
X573Y1390D01*
X642Y1390D02*
X691Y1390D01*
X764Y1390D02*
X780Y1390D01*
X549Y1389D02*
X554Y1389D01*
X568Y1389D02*
X574Y1389D01*
X641Y1389D02*
X690Y1389D01*
X761Y1389D02*
X777Y1389D01*
X548Y1388D02*
X553Y1388D01*
X569Y1388D02*
X574Y1388D01*
X641Y1388D02*
X648Y1388D01*
X674Y1388D02*
X680Y1388D01*
X759Y1388D02*
X775Y1388D01*
X867Y1388D02*
X874Y1388D01*
X548Y1387D02*
X553Y1387D01*
X570Y1387D02*
X574Y1387D01*
X641Y1387D02*
X647Y1387D01*
X674Y1387D02*
X680Y1387D01*
X757Y1387D02*
X773Y1387D01*
X864Y1387D02*
X877Y1387D01*
X462Y1386D02*
X471Y1386D01*
X548Y1386D02*
X552Y1386D01*
X571Y1386D02*
X575Y1386D01*
X641Y1386D02*
X647Y1386D01*
X674Y1386D02*
X680Y1386D01*
X755Y1386D02*
X770Y1386D01*
X862Y1386D02*
X879Y1386D01*
X459Y1385D02*
X474Y1385D01*
X548Y1385D02*
X552Y1385D01*
X571Y1385D02*
X575Y1385D01*
X640Y1385D02*
X647Y1385D01*
X674Y1385D02*
X680Y1385D01*
X752Y1385D02*
X768Y1385D01*
X860Y1385D02*
X881Y1385D01*
X458Y1384D02*
X475Y1384D01*
X548Y1384D02*
X552Y1384D01*
X571Y1384D02*
X575Y1384D01*
X640Y1384D02*
X647Y1384D01*
X674Y1384D02*
X680Y1384D01*
X750Y1384D02*
X766Y1384D01*
X858Y1384D02*
X883Y1384D01*
X457Y1383D02*
X476Y1383D01*
X548Y1383D02*
X552Y1383D01*
X571Y1383D02*
X575Y1383D01*
X640Y1383D02*
X647Y1383D01*
X674Y1383D02*
X680Y1383D01*
X749Y1383D02*
X764Y1383D01*
X856Y1383D02*
X885Y1383D01*
X456Y1382D02*
X477Y1382D01*
X548Y1382D02*
X552Y1382D01*
X571Y1382D02*
X575Y1382D01*
X640Y1382D02*
X647Y1382D01*
X674Y1382D02*
X680Y1382D01*
X749Y1382D02*
X761Y1382D01*
X854Y1382D02*
X870Y1382D01*
X872Y1382D02*
X887Y1382D01*
X455Y1381D02*
X478Y1381D01*
X548Y1381D02*
X552Y1381D01*
X571Y1381D02*
X575Y1381D01*
X640Y1381D02*
X647Y1381D01*
X674Y1381D02*
X680Y1381D01*
X749Y1381D02*
X799Y1381D01*
X852Y1381D02*
X866Y1381D01*
X875Y1381D02*
X889Y1381D01*
X454Y1380D02*
X461Y1380D01*
X472Y1380D02*
X479Y1380D01*
X548Y1380D02*
X552Y1380D01*
X571Y1380D02*
X575Y1380D01*
X640Y1380D02*
X647Y1380D01*
X674Y1380D02*
X680Y1380D01*
X749Y1380D02*
X800Y1380D01*
X850Y1380D02*
X864Y1380D01*
X877Y1380D02*
X891Y1380D01*
X453Y1379D02*
X460Y1379D01*
X473Y1379D02*
X480Y1379D01*
X548Y1379D02*
X552Y1379D01*
X571Y1379D02*
X575Y1379D01*
X640Y1379D02*
X647Y1379D01*
X674Y1379D02*
X680Y1379D01*
X749Y1379D02*
X800Y1379D01*
X849Y1379D02*
X862Y1379D01*
X879Y1379D02*
X892Y1379D01*
X453Y1378D02*
X459Y1378D01*
X474Y1378D02*
X480Y1378D01*
X548Y1378D02*
X552Y1378D01*
X571Y1378D02*
X575Y1378D01*
X640Y1378D02*
X647Y1378D01*
X674Y1378D02*
X680Y1378D01*
X749Y1378D02*
X800Y1378D01*
X848Y1378D02*
X860Y1378D01*
X881Y1378D02*
X893Y1378D01*
X452Y1377D02*
X458Y1377D01*
X475Y1377D02*
X481Y1377D01*
X548Y1377D02*
X552Y1377D01*
X571Y1377D02*
X575Y1377D01*
X641Y1377D02*
X647Y1377D01*
X674Y1377D02*
X680Y1377D01*
X749Y1377D02*
X800Y1377D01*
X847Y1377D02*
X858Y1377D01*
X883Y1377D02*
X894Y1377D01*
X451Y1376D02*
X457Y1376D01*
X475Y1376D02*
X482Y1376D01*
X548Y1376D02*
X552Y1376D01*
X571Y1376D02*
X575Y1376D01*
X641Y1376D02*
X647Y1376D01*
X674Y1376D02*
X680Y1376D01*
X749Y1376D02*
X799Y1376D01*
X847Y1376D02*
X856Y1376D01*
X885Y1376D02*
X895Y1376D01*
X451Y1375D02*
X457Y1375D01*
X476Y1375D02*
X482Y1375D01*
X548Y1375D02*
X552Y1375D01*
X571Y1375D02*
X575Y1375D01*
X641Y1375D02*
X649Y1375D01*
X674Y1375D02*
X680Y1375D01*
X749Y1375D02*
X798Y1375D01*
X846Y1375D02*
X854Y1375D01*
X887Y1375D02*
X895Y1375D01*
X451Y1374D02*
X456Y1374D01*
X477Y1374D02*
X482Y1374D01*
X548Y1374D02*
X552Y1374D01*
X571Y1374D02*
X574Y1374D01*
X641Y1374D02*
X651Y1374D01*
X674Y1374D02*
X680Y1374D01*
X846Y1374D02*
X852Y1374D01*
X889Y1374D02*
X895Y1374D01*
X451Y1373D02*
X456Y1373D01*
X477Y1373D02*
X482Y1373D01*
X549Y1373D02*
X551Y1373D01*
X572Y1373D02*
X573Y1373D01*
X642Y1373D02*
X652Y1373D01*
X674Y1373D02*
X680Y1373D01*
X846Y1373D02*
X851Y1373D01*
X890Y1373D02*
X896Y1373D01*
X451Y1372D02*
X455Y1372D01*
X477Y1372D02*
X482Y1372D01*
X642Y1372D02*
X653Y1372D01*
X675Y1372D02*
X679Y1372D01*
X846Y1372D02*
X851Y1372D01*
X890Y1372D02*
X896Y1372D01*
X451Y1371D02*
X455Y1371D01*
X477Y1371D02*
X482Y1371D01*
X643Y1371D02*
X653Y1371D01*
X677Y1371D02*
X677Y1371D01*
X845Y1371D02*
X851Y1371D01*
X890Y1371D02*
X896Y1371D01*
X451Y1370D02*
X455Y1370D01*
X477Y1370D02*
X482Y1370D01*
X644Y1370D02*
X653Y1370D01*
X845Y1370D02*
X851Y1370D01*
X890Y1370D02*
X896Y1370D01*
X451Y1369D02*
X455Y1369D01*
X477Y1369D02*
X482Y1369D01*
X645Y1369D02*
X652Y1369D01*
X845Y1369D02*
X851Y1369D01*
X890Y1369D02*
X896Y1369D01*
X451Y1368D02*
X455Y1368D01*
X477Y1368D02*
X482Y1368D01*
X647Y1368D02*
X651Y1368D01*
X845Y1368D02*
X851Y1368D01*
X890Y1368D02*
X896Y1368D01*
X451Y1367D02*
X455Y1367D01*
X477Y1367D02*
X482Y1367D01*
X845Y1367D02*
X851Y1367D01*
X890Y1367D02*
X896Y1367D01*
X451Y1366D02*
X455Y1366D01*
X477Y1366D02*
X482Y1366D01*
X845Y1366D02*
X851Y1366D01*
X890Y1366D02*
X896Y1366D01*
X451Y1365D02*
X455Y1365D01*
X477Y1365D02*
X482Y1365D01*
X845Y1365D02*
X851Y1365D01*
X890Y1365D02*
X896Y1365D01*
X451Y1364D02*
X455Y1364D01*
X477Y1364D02*
X482Y1364D01*
X845Y1364D02*
X851Y1364D01*
X890Y1364D02*
X896Y1364D01*
X451Y1363D02*
X455Y1363D01*
X477Y1363D02*
X482Y1363D01*
X845Y1363D02*
X851Y1363D01*
X890Y1363D02*
X896Y1363D01*
X451Y1362D02*
X455Y1362D01*
X477Y1362D02*
X482Y1362D01*
X845Y1362D02*
X851Y1362D01*
X890Y1362D02*
X896Y1362D01*
X451Y1361D02*
X455Y1361D01*
X477Y1361D02*
X482Y1361D01*
X549Y1361D02*
X584Y1361D01*
X845Y1361D02*
X851Y1361D01*
X890Y1361D02*
X896Y1361D01*
X451Y1360D02*
X455Y1360D01*
X478Y1360D02*
X482Y1360D01*
X548Y1360D02*
X585Y1360D01*
X845Y1360D02*
X851Y1360D01*
X890Y1360D02*
X896Y1360D01*
X451Y1359D02*
X455Y1359D01*
X478Y1359D02*
X482Y1359D01*
X548Y1359D02*
X585Y1359D01*
X750Y1359D02*
X754Y1359D01*
X796Y1359D02*
X799Y1359D01*
X846Y1359D02*
X851Y1359D01*
X890Y1359D02*
X896Y1359D01*
X452Y1358D02*
X454Y1358D01*
X479Y1358D02*
X480Y1358D01*
X548Y1358D02*
X584Y1358D01*
X750Y1358D02*
X755Y1358D01*
X795Y1358D02*
X800Y1358D01*
X846Y1358D02*
X851Y1358D01*
X890Y1358D02*
X895Y1358D01*
X550Y1357D02*
X583Y1357D01*
X749Y1357D02*
X755Y1357D01*
X795Y1357D02*
X800Y1357D01*
X846Y1357D02*
X850Y1357D01*
X891Y1357D02*
X895Y1357D01*
X566Y1356D02*
X571Y1356D01*
X749Y1356D02*
X755Y1356D01*
X795Y1356D02*
X800Y1356D01*
X893Y1356D02*
X893Y1356D01*
X567Y1355D02*
X572Y1355D01*
X749Y1355D02*
X755Y1355D01*
X795Y1355D02*
X800Y1355D01*
X567Y1354D02*
X572Y1354D01*
X749Y1354D02*
X755Y1354D01*
X795Y1354D02*
X800Y1354D01*
X568Y1353D02*
X573Y1353D01*
X749Y1353D02*
X800Y1353D01*
X569Y1352D02*
X574Y1352D01*
X749Y1352D02*
X800Y1352D01*
X569Y1351D02*
X574Y1351D01*
X648Y1351D02*
X657Y1351D01*
X749Y1351D02*
X800Y1351D01*
X570Y1350D02*
X574Y1350D01*
X646Y1350D02*
X659Y1350D01*
X749Y1350D02*
X800Y1350D01*
X571Y1349D02*
X575Y1349D01*
X645Y1349D02*
X661Y1349D01*
X749Y1349D02*
X800Y1349D01*
X571Y1348D02*
X575Y1348D01*
X643Y1348D02*
X662Y1348D01*
X749Y1348D02*
X800Y1348D01*
X571Y1347D02*
X575Y1347D01*
X643Y1347D02*
X663Y1347D01*
X749Y1347D02*
X800Y1347D01*
X571Y1346D02*
X575Y1346D01*
X642Y1346D02*
X664Y1346D01*
X749Y1346D02*
X755Y1346D01*
X795Y1346D02*
X800Y1346D01*
X151Y1345D02*
X153Y1345D01*
X454Y1345D02*
X491Y1345D01*
X571Y1345D02*
X575Y1345D01*
X641Y1345D02*
X664Y1345D01*
X749Y1345D02*
X755Y1345D01*
X795Y1345D02*
X800Y1345D01*
X151Y1344D02*
X155Y1344D01*
X451Y1344D02*
X494Y1344D01*
X570Y1344D02*
X574Y1344D01*
X641Y1344D02*
X649Y1344D01*
X656Y1344D02*
X664Y1344D01*
X676Y1344D02*
X678Y1344D01*
X749Y1344D02*
X755Y1344D01*
X795Y1344D02*
X800Y1344D01*
X151Y1343D02*
X155Y1343D01*
X451Y1343D02*
X494Y1343D01*
X566Y1343D02*
X574Y1343D01*
X641Y1343D02*
X648Y1343D01*
X658Y1343D02*
X665Y1343D01*
X675Y1343D02*
X679Y1343D01*
X749Y1343D02*
X755Y1343D01*
X794Y1343D02*
X800Y1343D01*
X151Y1342D02*
X155Y1342D01*
X451Y1342D02*
X494Y1342D01*
X549Y1342D02*
X574Y1342D01*
X641Y1342D02*
X647Y1342D01*
X658Y1342D02*
X665Y1342D01*
X674Y1342D02*
X680Y1342D01*
X750Y1342D02*
X756Y1342D01*
X794Y1342D02*
X800Y1342D01*
X151Y1341D02*
X155Y1341D01*
X451Y1341D02*
X494Y1341D01*
X548Y1341D02*
X573Y1341D01*
X641Y1341D02*
X647Y1341D01*
X659Y1341D02*
X665Y1341D01*
X674Y1341D02*
X680Y1341D01*
X750Y1341D02*
X758Y1341D01*
X792Y1341D02*
X800Y1341D01*
X151Y1340D02*
X155Y1340D01*
X279Y1340D02*
X283Y1340D01*
X452Y1340D02*
X493Y1340D01*
X548Y1340D02*
X572Y1340D01*
X640Y1340D02*
X647Y1340D01*
X659Y1340D02*
X665Y1340D01*
X674Y1340D02*
X680Y1340D01*
X750Y1340D02*
X759Y1340D01*
X790Y1340D02*
X799Y1340D01*
X151Y1339D02*
X155Y1339D01*
X278Y1339D02*
X283Y1339D01*
X462Y1339D02*
X469Y1339D01*
X548Y1339D02*
X571Y1339D01*
X640Y1339D02*
X647Y1339D01*
X659Y1339D02*
X665Y1339D01*
X674Y1339D02*
X680Y1339D01*
X751Y1339D02*
X761Y1339D01*
X788Y1339D02*
X799Y1339D01*
X151Y1338D02*
X155Y1338D01*
X278Y1338D02*
X283Y1338D01*
X463Y1338D02*
X470Y1338D01*
X549Y1338D02*
X563Y1338D01*
X640Y1338D02*
X647Y1338D01*
X659Y1338D02*
X665Y1338D01*
X674Y1338D02*
X680Y1338D01*
X751Y1338D02*
X763Y1338D01*
X786Y1338D02*
X798Y1338D01*
X151Y1337D02*
X155Y1337D01*
X277Y1337D02*
X282Y1337D01*
X464Y1337D02*
X471Y1337D01*
X640Y1337D02*
X647Y1337D01*
X659Y1337D02*
X665Y1337D01*
X674Y1337D02*
X680Y1337D01*
X752Y1337D02*
X765Y1337D01*
X784Y1337D02*
X797Y1337D01*
X151Y1336D02*
X155Y1336D01*
X276Y1336D02*
X281Y1336D01*
X464Y1336D02*
X471Y1336D01*
X640Y1336D02*
X647Y1336D01*
X659Y1336D02*
X665Y1336D01*
X674Y1336D02*
X680Y1336D01*
X754Y1336D02*
X767Y1336D01*
X782Y1336D02*
X796Y1336D01*
X151Y1335D02*
X155Y1335D01*
X276Y1335D02*
X281Y1335D01*
X463Y1335D02*
X472Y1335D01*
X640Y1335D02*
X647Y1335D01*
X659Y1335D02*
X665Y1335D01*
X674Y1335D02*
X680Y1335D01*
X755Y1335D02*
X769Y1335D01*
X780Y1335D02*
X794Y1335D01*
X151Y1334D02*
X155Y1334D01*
X275Y1334D02*
X280Y1334D01*
X462Y1334D02*
X473Y1334D01*
X640Y1334D02*
X647Y1334D01*
X659Y1334D02*
X665Y1334D01*
X674Y1334D02*
X680Y1334D01*
X757Y1334D02*
X772Y1334D01*
X778Y1334D02*
X792Y1334D01*
X151Y1333D02*
X155Y1333D01*
X274Y1333D02*
X280Y1333D01*
X461Y1333D02*
X474Y1333D01*
X640Y1333D02*
X647Y1333D01*
X659Y1333D02*
X665Y1333D01*
X674Y1333D02*
X680Y1333D01*
X759Y1333D02*
X790Y1333D01*
X151Y1332D02*
X155Y1332D01*
X273Y1332D02*
X279Y1332D01*
X461Y1332D02*
X475Y1332D01*
X640Y1332D02*
X647Y1332D01*
X659Y1332D02*
X665Y1332D01*
X674Y1332D02*
X680Y1332D01*
X761Y1332D02*
X788Y1332D01*
X151Y1331D02*
X156Y1331D01*
X273Y1331D02*
X278Y1331D01*
X460Y1331D02*
X466Y1331D01*
X469Y1331D02*
X476Y1331D01*
X640Y1331D02*
X647Y1331D01*
X659Y1331D02*
X665Y1331D01*
X674Y1331D02*
X680Y1331D01*
X763Y1331D02*
X786Y1331D01*
X151Y1330D02*
X157Y1330D01*
X272Y1330D02*
X277Y1330D01*
X459Y1330D02*
X465Y1330D01*
X470Y1330D02*
X477Y1330D01*
X641Y1330D02*
X647Y1330D01*
X659Y1330D02*
X665Y1330D01*
X674Y1330D02*
X680Y1330D01*
X765Y1330D02*
X784Y1330D01*
X152Y1329D02*
X157Y1329D01*
X271Y1329D02*
X277Y1329D01*
X458Y1329D02*
X465Y1329D01*
X471Y1329D02*
X477Y1329D01*
X641Y1329D02*
X648Y1329D01*
X659Y1329D02*
X665Y1329D01*
X674Y1329D02*
X680Y1329D01*
X767Y1329D02*
X782Y1329D01*
X153Y1328D02*
X158Y1328D01*
X270Y1328D02*
X276Y1328D01*
X457Y1328D02*
X464Y1328D01*
X472Y1328D02*
X478Y1328D01*
X641Y1328D02*
X649Y1328D01*
X659Y1328D02*
X665Y1328D01*
X674Y1328D02*
X680Y1328D01*
X770Y1328D02*
X780Y1328D01*
X153Y1327D02*
X159Y1327D01*
X269Y1327D02*
X275Y1327D01*
X456Y1327D02*
X463Y1327D01*
X472Y1327D02*
X479Y1327D01*
X642Y1327D02*
X649Y1327D01*
X659Y1327D02*
X665Y1327D01*
X674Y1327D02*
X680Y1327D01*
X773Y1327D02*
X776Y1327D01*
X154Y1326D02*
X160Y1326D01*
X268Y1326D02*
X274Y1326D01*
X455Y1326D02*
X462Y1326D01*
X473Y1326D02*
X480Y1326D01*
X642Y1326D02*
X650Y1326D01*
X658Y1326D02*
X665Y1326D01*
X674Y1326D02*
X680Y1326D01*
X155Y1325D02*
X161Y1325D01*
X267Y1325D02*
X273Y1325D01*
X455Y1325D02*
X461Y1325D01*
X474Y1325D02*
X481Y1325D01*
X643Y1325D02*
X650Y1325D01*
X658Y1325D02*
X665Y1325D01*
X673Y1325D02*
X680Y1325D01*
X156Y1324D02*
X162Y1324D01*
X266Y1324D02*
X272Y1324D01*
X454Y1324D02*
X460Y1324D01*
X475Y1324D02*
X482Y1324D01*
X643Y1324D02*
X651Y1324D01*
X657Y1324D02*
X665Y1324D01*
X670Y1324D02*
X680Y1324D01*
X157Y1323D02*
X163Y1323D01*
X265Y1323D02*
X271Y1323D01*
X453Y1323D02*
X459Y1323D01*
X476Y1323D02*
X482Y1323D01*
X644Y1323D02*
X679Y1323D01*
X158Y1322D02*
X164Y1322D01*
X264Y1322D02*
X270Y1322D01*
X452Y1322D02*
X459Y1322D01*
X477Y1322D02*
X482Y1322D01*
X642Y1322D02*
X679Y1322D01*
X159Y1321D02*
X165Y1321D01*
X263Y1321D02*
X269Y1321D01*
X451Y1321D02*
X458Y1321D01*
X478Y1321D02*
X482Y1321D01*
X641Y1321D02*
X678Y1321D01*
X160Y1320D02*
X167Y1320D01*
X262Y1320D02*
X268Y1320D01*
X451Y1320D02*
X457Y1320D01*
X479Y1320D02*
X481Y1320D01*
X641Y1320D02*
X677Y1320D01*
X161Y1319D02*
X168Y1319D01*
X261Y1319D02*
X267Y1319D01*
X451Y1319D02*
X456Y1319D01*
X641Y1319D02*
X676Y1319D01*
X162Y1318D02*
X169Y1318D01*
X259Y1318D02*
X266Y1318D01*
X451Y1318D02*
X455Y1318D01*
X641Y1318D02*
X674Y1318D01*
X163Y1317D02*
X171Y1317D01*
X258Y1317D02*
X265Y1317D01*
X452Y1317D02*
X454Y1317D01*
X642Y1317D02*
X672Y1317D01*
X165Y1316D02*
X172Y1316D01*
X257Y1316D02*
X264Y1316D01*
X643Y1316D02*
X648Y1316D01*
X166Y1315D02*
X174Y1315D01*
X255Y1315D02*
X263Y1315D01*
X167Y1314D02*
X175Y1314D01*
X253Y1314D02*
X261Y1314D01*
X168Y1313D02*
X177Y1313D01*
X252Y1313D02*
X260Y1313D01*
X170Y1312D02*
X179Y1312D01*
X250Y1312D02*
X258Y1312D01*
X171Y1311D02*
X181Y1311D01*
X248Y1311D02*
X257Y1311D01*
X173Y1310D02*
X183Y1310D01*
X246Y1310D02*
X255Y1310D01*
X175Y1309D02*
X185Y1309D01*
X244Y1309D02*
X254Y1309D01*
X176Y1308D02*
X187Y1308D01*
X241Y1308D02*
X252Y1308D01*
X178Y1307D02*
X190Y1307D01*
X239Y1307D02*
X250Y1307D01*
X180Y1306D02*
X193Y1306D01*
X235Y1306D02*
X248Y1306D01*
X182Y1305D02*
X197Y1305D01*
X232Y1305D02*
X246Y1305D01*
X185Y1304D02*
X202Y1304D01*
X227Y1304D02*
X243Y1304D01*
X187Y1303D02*
X241Y1303D01*
X190Y1302D02*
X238Y1302D01*
X194Y1301D02*
X234Y1301D01*
X198Y1300D02*
X230Y1300D01*
X204Y1299D02*
X225Y1299D01*
X205Y1256D02*
X223Y1256D01*
X199Y1255D02*
X230Y1255D01*
X195Y1254D02*
X234Y1254D01*
X191Y1253D02*
X237Y1253D01*
X188Y1252D02*
X241Y1252D01*
X186Y1251D02*
X203Y1251D01*
X226Y1251D02*
X243Y1251D01*
X183Y1250D02*
X197Y1250D01*
X231Y1250D02*
X246Y1250D01*
X181Y1249D02*
X194Y1249D01*
X235Y1249D02*
X248Y1249D01*
X179Y1248D02*
X190Y1248D01*
X238Y1248D02*
X250Y1248D01*
X177Y1247D02*
X188Y1247D01*
X241Y1247D02*
X252Y1247D01*
X175Y1246D02*
X185Y1246D01*
X243Y1246D02*
X254Y1246D01*
X173Y1245D02*
X183Y1245D01*
X246Y1245D02*
X255Y1245D01*
X172Y1244D02*
X181Y1244D01*
X248Y1244D02*
X257Y1244D01*
X170Y1243D02*
X179Y1243D01*
X249Y1243D02*
X258Y1243D01*
X169Y1242D02*
X177Y1242D01*
X251Y1242D02*
X260Y1242D01*
X167Y1241D02*
X175Y1241D01*
X253Y1241D02*
X261Y1241D01*
X166Y1240D02*
X174Y1240D01*
X255Y1240D02*
X263Y1240D01*
X165Y1239D02*
X172Y1239D01*
X256Y1239D02*
X264Y1239D01*
X164Y1238D02*
X171Y1238D01*
X258Y1238D02*
X265Y1238D01*
X162Y1237D02*
X169Y1237D01*
X259Y1237D02*
X266Y1237D01*
X161Y1236D02*
X168Y1236D01*
X260Y1236D02*
X267Y1236D01*
X160Y1235D02*
X167Y1235D01*
X262Y1235D02*
X268Y1235D01*
X159Y1234D02*
X166Y1234D01*
X263Y1234D02*
X269Y1234D01*
X158Y1233D02*
X164Y1233D01*
X264Y1233D02*
X270Y1233D01*
X157Y1232D02*
X163Y1232D01*
X265Y1232D02*
X271Y1232D01*
X156Y1231D02*
X162Y1231D01*
X266Y1231D02*
X272Y1231D01*
X155Y1230D02*
X161Y1230D01*
X267Y1230D02*
X273Y1230D01*
X155Y1229D02*
X160Y1229D01*
X268Y1229D02*
X274Y1229D01*
X154Y1228D02*
X159Y1228D01*
X269Y1228D02*
X275Y1228D01*
X153Y1227D02*
X159Y1227D01*
X270Y1227D02*
X276Y1227D01*
X152Y1226D02*
X158Y1226D01*
X271Y1226D02*
X276Y1226D01*
X151Y1225D02*
X157Y1225D01*
X272Y1225D02*
X277Y1225D01*
X151Y1224D02*
X156Y1224D01*
X272Y1224D02*
X278Y1224D01*
X151Y1223D02*
X155Y1223D01*
X273Y1223D02*
X279Y1223D01*
X151Y1222D02*
X155Y1222D01*
X274Y1222D02*
X279Y1222D01*
X151Y1221D02*
X155Y1221D01*
X275Y1221D02*
X280Y1221D01*
X151Y1220D02*
X155Y1220D01*
X276Y1220D02*
X281Y1220D01*
X151Y1219D02*
X155Y1219D01*
X276Y1219D02*
X281Y1219D01*
X151Y1218D02*
X155Y1218D01*
X277Y1218D02*
X282Y1218D01*
X151Y1217D02*
X155Y1217D01*
X278Y1217D02*
X282Y1217D01*
X151Y1216D02*
X155Y1216D01*
X278Y1216D02*
X282Y1216D01*
X151Y1215D02*
X155Y1215D01*
X279Y1215D02*
X281Y1215D01*
X151Y1214D02*
X155Y1214D01*
X151Y1213D02*
X155Y1213D01*
X151Y1212D02*
X155Y1212D01*
X151Y1211D02*
X155Y1211D01*
X151Y1210D02*
X153Y1210D01*
X151Y1145D02*
X153Y1145D01*
X151Y1144D02*
X155Y1144D01*
X151Y1143D02*
X155Y1143D01*
X151Y1142D02*
X155Y1142D01*
X151Y1141D02*
X155Y1141D01*
X151Y1140D02*
X155Y1140D01*
X279Y1140D02*
X283Y1140D01*
X151Y1139D02*
X155Y1139D01*
X278Y1139D02*
X283Y1139D01*
X151Y1138D02*
X155Y1138D01*
X278Y1138D02*
X283Y1138D01*
X151Y1137D02*
X155Y1137D01*
X277Y1137D02*
X282Y1137D01*
X151Y1136D02*
X155Y1136D01*
X276Y1136D02*
X281Y1136D01*
X151Y1135D02*
X155Y1135D01*
X276Y1135D02*
X281Y1135D01*
X151Y1134D02*
X155Y1134D01*
X275Y1134D02*
X280Y1134D01*
X151Y1133D02*
X155Y1133D01*
X274Y1133D02*
X279Y1133D01*
X151Y1132D02*
X155Y1132D01*
X273Y1132D02*
X279Y1132D01*
X151Y1131D02*
X156Y1131D01*
X273Y1131D02*
X278Y1131D01*
X151Y1130D02*
X157Y1130D01*
X272Y1130D02*
X277Y1130D01*
X152Y1129D02*
X158Y1129D01*
X271Y1129D02*
X277Y1129D01*
X153Y1128D02*
X158Y1128D01*
X270Y1128D02*
X276Y1128D01*
X154Y1127D02*
X159Y1127D01*
X269Y1127D02*
X275Y1127D01*
X154Y1126D02*
X160Y1126D01*
X268Y1126D02*
X274Y1126D01*
X155Y1125D02*
X161Y1125D01*
X267Y1125D02*
X273Y1125D01*
X156Y1124D02*
X162Y1124D01*
X266Y1124D02*
X272Y1124D01*
X157Y1123D02*
X163Y1123D01*
X265Y1123D02*
X271Y1123D01*
X158Y1122D02*
X164Y1122D01*
X264Y1122D02*
X270Y1122D01*
X159Y1121D02*
X166Y1121D01*
X263Y1121D02*
X269Y1121D01*
X160Y1120D02*
X167Y1120D01*
X262Y1120D02*
X268Y1120D01*
X161Y1119D02*
X168Y1119D01*
X260Y1119D02*
X267Y1119D01*
X162Y1118D02*
X169Y1118D01*
X259Y1118D02*
X266Y1118D01*
X163Y1117D02*
X171Y1117D01*
X258Y1117D02*
X265Y1117D01*
X165Y1116D02*
X172Y1116D01*
X256Y1116D02*
X264Y1116D01*
X166Y1115D02*
X174Y1115D01*
X255Y1115D02*
X262Y1115D01*
X167Y1114D02*
X175Y1114D01*
X253Y1114D02*
X261Y1114D01*
X169Y1113D02*
X177Y1113D01*
X252Y1113D02*
X260Y1113D01*
X170Y1112D02*
X179Y1112D01*
X250Y1112D02*
X258Y1112D01*
X172Y1111D02*
X181Y1111D01*
X248Y1111D02*
X257Y1111D01*
X173Y1110D02*
X183Y1110D01*
X246Y1110D02*
X255Y1110D01*
X175Y1109D02*
X185Y1109D01*
X244Y1109D02*
X254Y1109D01*
X177Y1108D02*
X188Y1108D01*
X241Y1108D02*
X252Y1108D01*
X179Y1107D02*
X190Y1107D01*
X238Y1107D02*
X250Y1107D01*
X180Y1106D02*
X194Y1106D01*
X235Y1106D02*
X248Y1106D01*
X183Y1105D02*
X198Y1105D01*
X231Y1105D02*
X246Y1105D01*
X185Y1104D02*
X202Y1104D01*
X226Y1104D02*
X243Y1104D01*
X188Y1103D02*
X240Y1103D01*
X191Y1102D02*
X237Y1102D01*
X194Y1101D02*
X234Y1101D01*
X199Y1100D02*
X229Y1100D01*
X205Y1099D02*
X224Y1099D01*
X204Y1056D02*
X224Y1056D01*
X199Y1055D02*
X230Y1055D01*
X194Y1054D02*
X235Y1054D01*
X191Y1053D02*
X238Y1053D01*
X188Y1052D02*
X241Y1052D01*
X185Y1051D02*
X202Y1051D01*
X226Y1051D02*
X243Y1051D01*
X183Y1050D02*
X197Y1050D01*
X231Y1050D02*
X246Y1050D01*
X181Y1049D02*
X193Y1049D01*
X235Y1049D02*
X248Y1049D01*
X179Y1048D02*
X190Y1048D01*
X238Y1048D02*
X250Y1048D01*
X177Y1047D02*
X187Y1047D01*
X241Y1047D02*
X252Y1047D01*
X175Y1046D02*
X185Y1046D01*
X243Y1046D02*
X254Y1046D01*
X173Y1045D02*
X182Y1045D01*
X246Y1045D02*
X255Y1045D01*
X172Y1044D02*
X180Y1044D01*
X248Y1044D02*
X257Y1044D01*
X170Y1043D02*
X179Y1043D01*
X250Y1043D02*
X258Y1043D01*
X169Y1042D02*
X177Y1042D01*
X252Y1042D02*
X260Y1042D01*
X167Y1041D02*
X175Y1041D01*
X253Y1041D02*
X261Y1041D01*
X166Y1040D02*
X174Y1040D01*
X255Y1040D02*
X263Y1040D01*
X165Y1039D02*
X172Y1039D01*
X256Y1039D02*
X264Y1039D01*
X163Y1038D02*
X171Y1038D01*
X258Y1038D02*
X265Y1038D01*
X162Y1037D02*
X169Y1037D01*
X259Y1037D02*
X266Y1037D01*
X161Y1036D02*
X168Y1036D01*
X260Y1036D02*
X267Y1036D01*
X160Y1035D02*
X167Y1035D01*
X262Y1035D02*
X268Y1035D01*
X159Y1034D02*
X165Y1034D01*
X263Y1034D02*
X269Y1034D01*
X158Y1033D02*
X164Y1033D01*
X264Y1033D02*
X270Y1033D01*
X157Y1032D02*
X163Y1032D01*
X265Y1032D02*
X271Y1032D01*
X156Y1031D02*
X162Y1031D01*
X266Y1031D02*
X272Y1031D01*
X613Y1031D02*
X619Y1031D01*
X155Y1030D02*
X161Y1030D01*
X267Y1030D02*
X273Y1030D01*
X612Y1030D02*
X620Y1030D01*
X154Y1029D02*
X160Y1029D01*
X268Y1029D02*
X274Y1029D01*
X611Y1029D02*
X620Y1029D01*
X154Y1028D02*
X159Y1028D01*
X269Y1028D02*
X275Y1028D01*
X611Y1028D02*
X620Y1028D01*
X153Y1027D02*
X158Y1027D01*
X270Y1027D02*
X276Y1027D01*
X612Y1027D02*
X620Y1027D01*
X152Y1026D02*
X158Y1026D01*
X271Y1026D02*
X277Y1026D01*
X612Y1026D02*
X620Y1026D01*
X151Y1025D02*
X157Y1025D01*
X272Y1025D02*
X277Y1025D01*
X614Y1025D02*
X620Y1025D01*
X151Y1024D02*
X156Y1024D01*
X273Y1024D02*
X278Y1024D01*
X614Y1024D02*
X620Y1024D01*
X151Y1023D02*
X155Y1023D01*
X273Y1023D02*
X279Y1023D01*
X614Y1023D02*
X620Y1023D01*
X151Y1022D02*
X155Y1022D01*
X274Y1022D02*
X279Y1022D01*
X614Y1022D02*
X620Y1022D01*
X151Y1021D02*
X155Y1021D01*
X275Y1021D02*
X280Y1021D01*
X614Y1021D02*
X620Y1021D01*
X151Y1020D02*
X155Y1020D01*
X276Y1020D02*
X281Y1020D01*
X614Y1020D02*
X620Y1020D01*
X151Y1019D02*
X155Y1019D01*
X276Y1019D02*
X281Y1019D01*
X614Y1019D02*
X620Y1019D01*
X151Y1018D02*
X155Y1018D01*
X277Y1018D02*
X282Y1018D01*
X570Y1018D02*
X587Y1018D01*
X614Y1018D02*
X620Y1018D01*
X151Y1017D02*
X155Y1017D01*
X278Y1017D02*
X282Y1017D01*
X568Y1017D02*
X590Y1017D01*
X614Y1017D02*
X620Y1017D01*
X151Y1016D02*
X155Y1016D01*
X278Y1016D02*
X282Y1016D01*
X567Y1016D02*
X591Y1016D01*
X614Y1016D02*
X620Y1016D01*
X151Y1015D02*
X155Y1015D01*
X279Y1015D02*
X281Y1015D01*
X567Y1015D02*
X591Y1015D01*
X614Y1015D02*
X620Y1015D01*
X151Y1014D02*
X155Y1014D01*
X567Y1014D02*
X592Y1014D01*
X614Y1014D02*
X620Y1014D01*
X151Y1013D02*
X155Y1013D01*
X567Y1013D02*
X593Y1013D01*
X614Y1013D02*
X620Y1013D01*
X151Y1012D02*
X155Y1012D01*
X568Y1012D02*
X594Y1012D01*
X614Y1012D02*
X620Y1012D01*
X151Y1011D02*
X155Y1011D01*
X586Y1011D02*
X595Y1011D01*
X614Y1011D02*
X620Y1011D01*
X151Y1010D02*
X153Y1010D01*
X587Y1010D02*
X596Y1010D01*
X614Y1010D02*
X620Y1010D01*
X588Y1009D02*
X597Y1009D01*
X614Y1009D02*
X620Y1009D01*
X589Y1008D02*
X597Y1008D01*
X614Y1008D02*
X620Y1008D01*
X590Y1007D02*
X598Y1007D01*
X614Y1007D02*
X620Y1007D01*
X591Y1006D02*
X599Y1006D01*
X614Y1006D02*
X620Y1006D01*
X592Y1005D02*
X600Y1005D01*
X614Y1005D02*
X620Y1005D01*
X593Y1004D02*
X620Y1004D01*
X593Y1003D02*
X620Y1003D01*
X594Y1002D02*
X620Y1002D01*
X595Y1001D02*
X620Y1001D01*
X596Y1000D02*
X620Y1000D01*
X597Y999D02*
X620Y999D01*
X598Y998D02*
X620Y998D01*
X585Y980D02*
X617Y980D01*
X585Y979D02*
X619Y979D01*
X585Y978D02*
X620Y978D01*
X585Y977D02*
X620Y977D01*
X585Y976D02*
X620Y976D01*
X585Y975D02*
X620Y975D01*
X585Y974D02*
X619Y974D01*
X585Y973D02*
X591Y973D01*
X585Y972D02*
X591Y972D01*
X585Y971D02*
X591Y971D01*
X585Y970D02*
X591Y970D01*
X585Y969D02*
X591Y969D01*
X585Y968D02*
X591Y968D01*
X585Y967D02*
X591Y967D01*
X585Y966D02*
X591Y966D01*
X585Y965D02*
X591Y965D01*
X585Y964D02*
X591Y964D01*
X585Y963D02*
X591Y963D01*
X585Y962D02*
X591Y962D01*
X585Y961D02*
X591Y961D01*
X585Y960D02*
X591Y960D01*
X569Y959D02*
X612Y959D01*
X568Y958D02*
X614Y958D01*
X567Y957D02*
X614Y957D01*
X567Y956D02*
X614Y956D01*
X567Y955D02*
X614Y955D01*
X568Y954D02*
X614Y954D01*
X569Y953D02*
X613Y953D01*
X585Y952D02*
X591Y952D01*
X585Y951D02*
X590Y951D01*
X586Y950D02*
X590Y950D01*
X151Y946D02*
X152Y946D01*
X151Y945D02*
X153Y945D01*
X151Y944D02*
X155Y944D01*
X151Y943D02*
X155Y943D01*
X151Y942D02*
X155Y942D01*
X151Y941D02*
X155Y941D01*
X279Y941D02*
X282Y941D01*
X151Y940D02*
X155Y940D01*
X279Y940D02*
X283Y940D01*
X151Y939D02*
X155Y939D01*
X278Y939D02*
X283Y939D01*
X151Y938D02*
X155Y938D01*
X277Y938D02*
X282Y938D01*
X151Y937D02*
X155Y937D01*
X277Y937D02*
X282Y937D01*
X151Y936D02*
X155Y936D01*
X276Y936D02*
X281Y936D01*
X151Y935D02*
X155Y935D01*
X275Y935D02*
X281Y935D01*
X151Y934D02*
X155Y934D01*
X275Y934D02*
X280Y934D01*
X151Y933D02*
X155Y933D01*
X274Y933D02*
X279Y933D01*
X151Y932D02*
X155Y932D01*
X273Y932D02*
X279Y932D01*
X151Y931D02*
X156Y931D01*
X272Y931D02*
X278Y931D01*
X568Y931D02*
X619Y931D01*
X151Y930D02*
X157Y930D01*
X272Y930D02*
X277Y930D01*
X567Y930D02*
X620Y930D01*
X152Y929D02*
X158Y929D01*
X271Y929D02*
X276Y929D01*
X567Y929D02*
X620Y929D01*
X153Y928D02*
X159Y928D01*
X270Y928D02*
X276Y928D01*
X567Y928D02*
X620Y928D01*
X154Y927D02*
X159Y927D01*
X269Y927D02*
X275Y927D01*
X567Y927D02*
X620Y927D01*
X154Y926D02*
X160Y926D01*
X268Y926D02*
X274Y926D01*
X568Y926D02*
X619Y926D01*
X155Y925D02*
X161Y925D01*
X267Y925D02*
X273Y925D01*
X570Y925D02*
X617Y925D01*
X156Y924D02*
X162Y924D01*
X266Y924D02*
X272Y924D01*
X591Y924D02*
X597Y924D01*
X157Y923D02*
X164Y923D01*
X265Y923D02*
X271Y923D01*
X591Y923D02*
X597Y923D01*
X158Y922D02*
X165Y922D01*
X264Y922D02*
X270Y922D01*
X591Y922D02*
X597Y922D01*
X159Y921D02*
X166Y921D01*
X263Y921D02*
X269Y921D01*
X591Y921D02*
X597Y921D01*
X160Y920D02*
X167Y920D01*
X262Y920D02*
X268Y920D01*
X591Y920D02*
X597Y920D01*
X161Y919D02*
X168Y919D01*
X260Y919D02*
X267Y919D01*
X591Y919D02*
X597Y919D01*
X162Y918D02*
X170Y918D01*
X259Y918D02*
X266Y918D01*
X591Y918D02*
X597Y918D01*
X164Y917D02*
X171Y917D01*
X258Y917D02*
X265Y917D01*
X591Y917D02*
X597Y917D01*
X165Y916D02*
X172Y916D01*
X256Y916D02*
X264Y916D01*
X591Y916D02*
X597Y916D01*
X166Y915D02*
X174Y915D01*
X255Y915D02*
X262Y915D01*
X591Y915D02*
X597Y915D01*
X167Y914D02*
X175Y914D01*
X253Y914D02*
X261Y914D01*
X591Y914D02*
X597Y914D01*
X169Y913D02*
X177Y913D01*
X252Y913D02*
X260Y913D01*
X591Y913D02*
X597Y913D01*
X170Y912D02*
X179Y912D01*
X250Y912D02*
X258Y912D01*
X591Y912D02*
X597Y912D01*
X172Y911D02*
X181Y911D01*
X248Y911D02*
X257Y911D01*
X591Y911D02*
X597Y911D01*
X173Y910D02*
X183Y910D01*
X246Y910D02*
X255Y910D01*
X591Y910D02*
X597Y910D01*
X175Y909D02*
X185Y909D01*
X243Y909D02*
X253Y909D01*
X591Y909D02*
X597Y909D01*
X177Y908D02*
X188Y908D01*
X241Y908D02*
X251Y908D01*
X591Y908D02*
X597Y908D01*
X179Y907D02*
X191Y907D01*
X238Y907D02*
X250Y907D01*
X591Y907D02*
X597Y907D01*
X181Y906D02*
X194Y906D01*
X235Y906D02*
X248Y906D01*
X591Y906D02*
X597Y906D01*
X183Y905D02*
X198Y905D01*
X231Y905D02*
X245Y905D01*
X591Y905D02*
X597Y905D01*
X185Y904D02*
X203Y904D01*
X225Y904D02*
X243Y904D01*
X569Y904D02*
X618Y904D01*
X188Y903D02*
X240Y903D01*
X568Y903D02*
X619Y903D01*
X191Y902D02*
X237Y902D01*
X567Y902D02*
X620Y902D01*
X194Y901D02*
X233Y901D01*
X567Y901D02*
X620Y901D01*
X199Y900D02*
X229Y900D01*
X567Y900D02*
X620Y900D01*
X206Y899D02*
X222Y899D01*
X568Y899D02*
X620Y899D01*
X568Y898D02*
X619Y898D01*
X589Y881D02*
X598Y881D01*
X586Y880D02*
X601Y880D01*
X584Y879D02*
X603Y879D01*
X583Y878D02*
X605Y878D01*
X581Y877D02*
X607Y877D01*
X579Y876D02*
X609Y876D01*
X577Y875D02*
X611Y875D01*
X575Y874D02*
X589Y874D01*
X598Y874D02*
X613Y874D01*
X573Y873D02*
X587Y873D01*
X600Y873D02*
X615Y873D01*
X571Y872D02*
X585Y872D01*
X602Y872D02*
X616Y872D01*
X570Y871D02*
X583Y871D01*
X604Y871D02*
X617Y871D01*
X569Y870D02*
X581Y870D01*
X606Y870D02*
X618Y870D01*
X568Y869D02*
X579Y869D01*
X608Y869D02*
X619Y869D01*
X568Y868D02*
X577Y868D01*
X610Y868D02*
X619Y868D01*
X568Y867D02*
X575Y867D01*
X612Y867D02*
X620Y867D01*
X567Y866D02*
X574Y866D01*
X613Y866D02*
X620Y866D01*
X567Y865D02*
X573Y865D01*
X614Y865D02*
X620Y865D01*
X567Y864D02*
X573Y864D01*
X614Y864D02*
X620Y864D01*
X567Y863D02*
X573Y863D01*
X614Y863D02*
X620Y863D01*
X567Y862D02*
X573Y862D01*
X614Y862D02*
X620Y862D01*
X567Y861D02*
X573Y861D01*
X614Y861D02*
X620Y861D01*
X567Y860D02*
X573Y860D01*
X614Y860D02*
X620Y860D01*
X567Y859D02*
X573Y859D01*
X614Y859D02*
X620Y859D01*
X567Y858D02*
X573Y858D01*
X614Y858D02*
X620Y858D01*
X567Y857D02*
X573Y857D01*
X614Y857D02*
X620Y857D01*
X203Y856D02*
X226Y856D01*
X567Y856D02*
X573Y856D01*
X614Y856D02*
X620Y856D01*
X198Y855D02*
X231Y855D01*
X567Y855D02*
X573Y855D01*
X614Y855D02*
X620Y855D01*
X194Y854D02*
X235Y854D01*
X567Y854D02*
X573Y854D01*
X614Y854D02*
X620Y854D01*
X190Y853D02*
X238Y853D01*
X567Y853D02*
X573Y853D01*
X614Y853D02*
X620Y853D01*
X188Y852D02*
X210Y852D01*
X214Y852D02*
X241Y852D01*
X567Y852D02*
X573Y852D01*
X614Y852D02*
X620Y852D01*
X185Y851D02*
X201Y851D01*
X227Y851D02*
X244Y851D01*
X567Y851D02*
X573Y851D01*
X614Y851D02*
X620Y851D01*
X182Y850D02*
X196Y850D01*
X232Y850D02*
X246Y850D01*
X567Y850D02*
X573Y850D01*
X614Y850D02*
X620Y850D01*
X180Y849D02*
X193Y849D01*
X235Y849D02*
X248Y849D01*
X568Y849D02*
X572Y849D01*
X615Y849D02*
X620Y849D01*
X178Y848D02*
X190Y848D01*
X239Y848D02*
X250Y848D01*
X569Y848D02*
X571Y848D01*
X616Y848D02*
X619Y848D01*
X176Y847D02*
X187Y847D01*
X241Y847D02*
X252Y847D01*
X175Y846D02*
X184Y846D01*
X244Y846D02*
X254Y846D01*
X173Y845D02*
X182Y845D01*
X246Y845D02*
X256Y845D01*
X171Y844D02*
X180Y844D01*
X248Y844D02*
X257Y844D01*
X170Y843D02*
X178Y843D01*
X250Y843D02*
X259Y843D01*
X168Y842D02*
X176Y842D01*
X252Y842D02*
X260Y842D01*
X167Y841D02*
X175Y841D01*
X253Y841D02*
X262Y841D01*
X166Y840D02*
X173Y840D01*
X255Y840D02*
X263Y840D01*
X165Y839D02*
X172Y839D01*
X256Y839D02*
X264Y839D01*
X163Y838D02*
X170Y838D01*
X258Y838D02*
X265Y838D01*
X162Y837D02*
X169Y837D01*
X259Y837D02*
X266Y837D01*
X161Y836D02*
X168Y836D01*
X261Y836D02*
X268Y836D01*
X160Y835D02*
X167Y835D01*
X262Y835D02*
X269Y835D01*
X159Y834D02*
X165Y834D01*
X263Y834D02*
X270Y834D01*
X158Y833D02*
X164Y833D01*
X264Y833D02*
X271Y833D01*
X157Y832D02*
X163Y832D01*
X265Y832D02*
X271Y832D01*
X156Y831D02*
X162Y831D01*
X266Y831D02*
X272Y831D01*
X571Y831D02*
X575Y831D01*
X155Y830D02*
X161Y830D01*
X267Y830D02*
X273Y830D01*
X570Y830D02*
X575Y830D01*
X154Y829D02*
X160Y829D01*
X268Y829D02*
X274Y829D01*
X570Y829D02*
X576Y829D01*
X153Y828D02*
X159Y828D01*
X269Y828D02*
X275Y828D01*
X569Y828D02*
X576Y828D01*
X153Y827D02*
X158Y827D01*
X270Y827D02*
X276Y827D01*
X569Y827D02*
X576Y827D01*
X152Y826D02*
X157Y826D01*
X271Y826D02*
X277Y826D01*
X568Y826D02*
X575Y826D01*
X151Y825D02*
X157Y825D01*
X272Y825D02*
X277Y825D01*
X568Y825D02*
X575Y825D01*
X591Y825D02*
X620Y825D01*
X151Y824D02*
X156Y824D01*
X273Y824D02*
X278Y824D01*
X568Y824D02*
X574Y824D01*
X591Y824D02*
X620Y824D01*
X151Y823D02*
X155Y823D01*
X273Y823D02*
X279Y823D01*
X567Y823D02*
X574Y823D01*
X591Y823D02*
X620Y823D01*
X151Y822D02*
X155Y822D01*
X274Y822D02*
X279Y822D01*
X567Y822D02*
X573Y822D01*
X591Y822D02*
X620Y822D01*
X151Y821D02*
X155Y821D01*
X275Y821D02*
X280Y821D01*
X567Y821D02*
X573Y821D01*
X591Y821D02*
X620Y821D01*
X151Y820D02*
X155Y820D01*
X276Y820D02*
X281Y820D01*
X567Y820D02*
X573Y820D01*
X591Y820D02*
X620Y820D01*
X151Y819D02*
X155Y819D01*
X276Y819D02*
X281Y819D01*
X567Y819D02*
X573Y819D01*
X591Y819D02*
X620Y819D01*
X151Y818D02*
X155Y818D01*
X277Y818D02*
X282Y818D01*
X567Y818D02*
X573Y818D01*
X591Y818D02*
X597Y818D01*
X614Y818D02*
X620Y818D01*
X151Y817D02*
X155Y817D01*
X278Y817D02*
X282Y817D01*
X567Y817D02*
X573Y817D01*
X591Y817D02*
X597Y817D01*
X614Y817D02*
X620Y817D01*
X151Y816D02*
X155Y816D01*
X278Y816D02*
X282Y816D01*
X567Y816D02*
X573Y816D01*
X591Y816D02*
X597Y816D01*
X614Y816D02*
X620Y816D01*
X151Y815D02*
X155Y815D01*
X279Y815D02*
X281Y815D01*
X567Y815D02*
X573Y815D01*
X591Y815D02*
X597Y815D01*
X614Y815D02*
X620Y815D01*
X151Y814D02*
X155Y814D01*
X567Y814D02*
X573Y814D01*
X591Y814D02*
X597Y814D01*
X614Y814D02*
X620Y814D01*
X151Y813D02*
X155Y813D01*
X567Y813D02*
X573Y813D01*
X591Y813D02*
X597Y813D01*
X614Y813D02*
X620Y813D01*
X151Y812D02*
X155Y812D01*
X567Y812D02*
X573Y812D01*
X591Y812D02*
X597Y812D01*
X614Y812D02*
X620Y812D01*
X151Y811D02*
X155Y811D01*
X567Y811D02*
X573Y811D01*
X591Y811D02*
X597Y811D01*
X614Y811D02*
X620Y811D01*
X151Y810D02*
X153Y810D01*
X567Y810D02*
X573Y810D01*
X591Y810D02*
X597Y810D01*
X614Y810D02*
X620Y810D01*
X567Y809D02*
X573Y809D01*
X591Y809D02*
X597Y809D01*
X614Y809D02*
X620Y809D01*
X567Y808D02*
X573Y808D01*
X591Y808D02*
X597Y808D01*
X614Y808D02*
X620Y808D01*
X567Y807D02*
X573Y807D01*
X591Y807D02*
X597Y807D01*
X614Y807D02*
X620Y807D01*
X567Y806D02*
X573Y806D01*
X591Y806D02*
X597Y806D01*
X614Y806D02*
X620Y806D01*
X567Y805D02*
X573Y805D01*
X591Y805D02*
X597Y805D01*
X614Y805D02*
X620Y805D01*
X567Y804D02*
X597Y804D01*
X614Y804D02*
X620Y804D01*
X567Y803D02*
X596Y803D01*
X614Y803D02*
X620Y803D01*
X567Y802D02*
X596Y802D01*
X614Y802D02*
X620Y802D01*
X568Y801D02*
X596Y801D01*
X614Y801D02*
X620Y801D01*
X569Y800D02*
X595Y800D01*
X614Y800D02*
X620Y800D01*
X570Y799D02*
X594Y799D01*
X615Y799D02*
X620Y799D01*
X571Y798D02*
X592Y798D01*
X616Y798D02*
X619Y798D01*
X598Y781D02*
X619Y781D01*
X597Y780D02*
X620Y780D01*
X597Y779D02*
X620Y779D01*
X596Y778D02*
X620Y778D01*
X596Y777D02*
X620Y777D01*
X596Y776D02*
X620Y776D01*
X596Y775D02*
X620Y775D01*
X596Y774D02*
X602Y774D01*
X614Y774D02*
X620Y774D01*
X596Y773D02*
X602Y773D01*
X614Y773D02*
X620Y773D01*
X596Y772D02*
X602Y772D01*
X614Y772D02*
X620Y772D01*
X596Y771D02*
X602Y771D01*
X614Y771D02*
X620Y771D01*
X596Y770D02*
X602Y770D01*
X614Y770D02*
X620Y770D01*
X596Y769D02*
X602Y769D01*
X614Y769D02*
X620Y769D01*
X596Y768D02*
X602Y768D01*
X614Y768D02*
X620Y768D01*
X596Y767D02*
X602Y767D01*
X614Y767D02*
X620Y767D01*
X596Y766D02*
X602Y766D01*
X614Y766D02*
X620Y766D01*
X596Y765D02*
X602Y765D01*
X614Y765D02*
X620Y765D01*
X596Y764D02*
X602Y764D01*
X614Y764D02*
X620Y764D01*
X596Y763D02*
X602Y763D01*
X614Y763D02*
X620Y763D01*
X596Y762D02*
X602Y762D01*
X614Y762D02*
X620Y762D01*
X596Y761D02*
X602Y761D01*
X614Y761D02*
X620Y761D01*
X596Y760D02*
X602Y760D01*
X614Y760D02*
X620Y760D01*
X596Y759D02*
X602Y759D01*
X614Y759D02*
X620Y759D01*
X596Y758D02*
X602Y758D01*
X614Y758D02*
X620Y758D01*
X568Y757D02*
X572Y757D01*
X596Y757D02*
X602Y757D01*
X614Y757D02*
X620Y757D01*
X567Y756D02*
X573Y756D01*
X596Y756D02*
X602Y756D01*
X614Y756D02*
X620Y756D01*
X567Y755D02*
X573Y755D01*
X596Y755D02*
X602Y755D01*
X614Y755D02*
X620Y755D01*
X567Y754D02*
X620Y754D01*
X567Y753D02*
X620Y753D01*
X567Y752D02*
X620Y752D01*
X567Y751D02*
X620Y751D01*
X567Y750D02*
X620Y750D01*
X568Y749D02*
X620Y749D01*
X569Y748D02*
X619Y748D01*
X151Y746D02*
X152Y746D01*
X151Y745D02*
X154Y745D01*
X151Y744D02*
X155Y744D01*
X151Y743D02*
X155Y743D01*
X151Y742D02*
X155Y742D01*
X151Y741D02*
X155Y741D01*
X279Y741D02*
X282Y741D01*
X151Y740D02*
X155Y740D01*
X279Y740D02*
X283Y740D01*
X151Y739D02*
X155Y739D01*
X278Y739D02*
X283Y739D01*
X151Y738D02*
X155Y738D01*
X277Y738D02*
X282Y738D01*
X151Y737D02*
X155Y737D01*
X277Y737D02*
X282Y737D01*
X151Y736D02*
X155Y736D01*
X276Y736D02*
X281Y736D01*
X151Y735D02*
X155Y735D01*
X275Y735D02*
X281Y735D01*
X151Y734D02*
X155Y734D01*
X275Y734D02*
X280Y734D01*
X151Y733D02*
X155Y733D01*
X274Y733D02*
X279Y733D01*
X151Y732D02*
X155Y732D01*
X273Y732D02*
X279Y732D01*
X151Y731D02*
X156Y731D01*
X272Y731D02*
X278Y731D01*
X571Y731D02*
X575Y731D01*
X151Y730D02*
X157Y730D01*
X271Y730D02*
X277Y730D01*
X570Y730D02*
X576Y730D01*
X152Y729D02*
X158Y729D01*
X271Y729D02*
X276Y729D01*
X570Y729D02*
X576Y729D01*
X153Y728D02*
X159Y728D01*
X270Y728D02*
X275Y728D01*
X569Y728D02*
X576Y728D01*
X154Y727D02*
X160Y727D01*
X269Y727D02*
X275Y727D01*
X569Y727D02*
X576Y727D01*
X155Y726D02*
X161Y726D01*
X268Y726D02*
X274Y726D01*
X568Y726D02*
X575Y726D01*
X155Y725D02*
X161Y725D01*
X267Y725D02*
X273Y725D01*
X568Y725D02*
X575Y725D01*
X591Y725D02*
X620Y725D01*
X156Y724D02*
X163Y724D01*
X266Y724D02*
X272Y724D01*
X568Y724D02*
X574Y724D01*
X591Y724D02*
X620Y724D01*
X157Y723D02*
X164Y723D01*
X265Y723D02*
X271Y723D01*
X567Y723D02*
X574Y723D01*
X591Y723D02*
X620Y723D01*
X158Y722D02*
X165Y722D01*
X264Y722D02*
X270Y722D01*
X567Y722D02*
X573Y722D01*
X591Y722D02*
X620Y722D01*
X159Y721D02*
X166Y721D01*
X263Y721D02*
X269Y721D01*
X567Y721D02*
X573Y721D01*
X591Y721D02*
X620Y721D01*
X160Y720D02*
X167Y720D01*
X261Y720D02*
X268Y720D01*
X567Y720D02*
X573Y720D01*
X591Y720D02*
X620Y720D01*
X161Y719D02*
X168Y719D01*
X260Y719D02*
X267Y719D01*
X567Y719D02*
X573Y719D01*
X591Y719D02*
X620Y719D01*
X163Y718D02*
X170Y718D01*
X259Y718D02*
X266Y718D01*
X567Y718D02*
X573Y718D01*
X591Y718D02*
X597Y718D01*
X614Y718D02*
X620Y718D01*
X164Y717D02*
X171Y717D01*
X258Y717D02*
X265Y717D01*
X567Y717D02*
X573Y717D01*
X591Y717D02*
X597Y717D01*
X614Y717D02*
X620Y717D01*
X165Y716D02*
X173Y716D01*
X256Y716D02*
X263Y716D01*
X567Y716D02*
X573Y716D01*
X591Y716D02*
X597Y716D01*
X614Y716D02*
X620Y716D01*
X166Y715D02*
X174Y715D01*
X254Y715D02*
X262Y715D01*
X567Y715D02*
X573Y715D01*
X591Y715D02*
X597Y715D01*
X614Y715D02*
X620Y715D01*
X167Y714D02*
X176Y714D01*
X253Y714D02*
X261Y714D01*
X567Y714D02*
X573Y714D01*
X591Y714D02*
X597Y714D01*
X614Y714D02*
X620Y714D01*
X169Y713D02*
X178Y713D01*
X251Y713D02*
X260Y713D01*
X567Y713D02*
X573Y713D01*
X591Y713D02*
X597Y713D01*
X614Y713D02*
X620Y713D01*
X170Y712D02*
X179Y712D01*
X249Y712D02*
X258Y712D01*
X567Y712D02*
X573Y712D01*
X591Y712D02*
X597Y712D01*
X614Y712D02*
X620Y712D01*
X172Y711D02*
X181Y711D01*
X247Y711D02*
X256Y711D01*
X567Y711D02*
X573Y711D01*
X591Y711D02*
X597Y711D01*
X614Y711D02*
X620Y711D01*
X173Y710D02*
X183Y710D01*
X245Y710D02*
X255Y710D01*
X567Y710D02*
X573Y710D01*
X591Y710D02*
X597Y710D01*
X614Y710D02*
X620Y710D01*
X175Y709D02*
X186Y709D01*
X243Y709D02*
X253Y709D01*
X567Y709D02*
X573Y709D01*
X591Y709D02*
X597Y709D01*
X614Y709D02*
X620Y709D01*
X177Y708D02*
X188Y708D01*
X240Y708D02*
X251Y708D01*
X567Y708D02*
X573Y708D01*
X591Y708D02*
X597Y708D01*
X614Y708D02*
X620Y708D01*
X179Y707D02*
X191Y707D01*
X238Y707D02*
X249Y707D01*
X567Y707D02*
X573Y707D01*
X591Y707D02*
X597Y707D01*
X614Y707D02*
X620Y707D01*
X181Y706D02*
X194Y706D01*
X234Y706D02*
X247Y706D01*
X567Y706D02*
X573Y706D01*
X591Y706D02*
X597Y706D01*
X614Y706D02*
X620Y706D01*
X183Y705D02*
X199Y705D01*
X230Y705D02*
X245Y705D01*
X567Y705D02*
X573Y705D01*
X591Y705D02*
X597Y705D01*
X614Y705D02*
X620Y705D01*
X186Y704D02*
X204Y704D01*
X225Y704D02*
X242Y704D01*
X567Y704D02*
X597Y704D01*
X614Y704D02*
X620Y704D01*
X188Y703D02*
X240Y703D01*
X567Y703D02*
X596Y703D01*
X614Y703D02*
X620Y703D01*
X192Y702D02*
X237Y702D01*
X567Y702D02*
X596Y702D01*
X614Y702D02*
X620Y702D01*
X195Y701D02*
X233Y701D01*
X568Y701D02*
X596Y701D01*
X614Y701D02*
X620Y701D01*
X200Y700D02*
X228Y700D01*
X569Y700D02*
X595Y700D01*
X614Y700D02*
X620Y700D01*
X207Y699D02*
X221Y699D01*
X570Y699D02*
X594Y699D01*
X615Y699D02*
X619Y699D01*
X571Y698D02*
X592Y698D01*
X616Y698D02*
X618Y698D01*
X203Y656D02*
X226Y656D01*
X198Y655D02*
X231Y655D01*
X194Y654D02*
X235Y654D01*
X190Y653D02*
X239Y653D01*
X187Y652D02*
X209Y652D01*
X219Y652D02*
X242Y652D01*
X185Y651D02*
X201Y651D01*
X227Y651D02*
X244Y651D01*
X182Y650D02*
X196Y650D01*
X232Y650D02*
X246Y650D01*
X180Y649D02*
X192Y649D01*
X236Y649D02*
X249Y649D01*
X178Y648D02*
X189Y648D01*
X239Y648D02*
X250Y648D01*
X176Y647D02*
X187Y647D01*
X242Y647D02*
X252Y647D01*
X174Y646D02*
X184Y646D01*
X244Y646D02*
X254Y646D01*
X173Y645D02*
X182Y645D01*
X246Y645D02*
X256Y645D01*
X171Y644D02*
X180Y644D01*
X248Y644D02*
X257Y644D01*
X170Y643D02*
X178Y643D01*
X250Y643D02*
X259Y643D01*
X168Y642D02*
X176Y642D01*
X252Y642D02*
X260Y642D01*
X167Y641D02*
X175Y641D01*
X254Y641D02*
X262Y641D01*
X166Y640D02*
X173Y640D01*
X255Y640D02*
X263Y640D01*
X164Y639D02*
X172Y639D01*
X257Y639D02*
X264Y639D01*
X163Y638D02*
X170Y638D01*
X258Y638D02*
X265Y638D01*
X162Y637D02*
X169Y637D01*
X259Y637D02*
X266Y637D01*
X161Y636D02*
X168Y636D01*
X261Y636D02*
X268Y636D01*
X160Y635D02*
X166Y635D01*
X262Y635D02*
X269Y635D01*
X159Y634D02*
X165Y634D01*
X263Y634D02*
X270Y634D01*
X158Y633D02*
X164Y633D01*
X264Y633D02*
X271Y633D01*
X157Y632D02*
X163Y632D01*
X265Y632D02*
X272Y632D01*
X156Y631D02*
X162Y631D01*
X266Y631D02*
X273Y631D01*
X155Y630D02*
X161Y630D01*
X267Y630D02*
X273Y630D01*
X154Y629D02*
X160Y629D01*
X268Y629D02*
X274Y629D01*
X153Y628D02*
X159Y628D01*
X269Y628D02*
X275Y628D01*
X153Y627D02*
X158Y627D01*
X270Y627D02*
X276Y627D01*
X152Y626D02*
X157Y626D01*
X271Y626D02*
X277Y626D01*
X151Y625D02*
X157Y625D01*
X272Y625D02*
X278Y625D01*
X151Y624D02*
X156Y624D01*
X273Y624D02*
X278Y624D01*
X151Y623D02*
X155Y623D01*
X274Y623D02*
X279Y623D01*
X151Y622D02*
X155Y622D01*
X274Y622D02*
X280Y622D01*
X151Y621D02*
X155Y621D01*
X275Y621D02*
X280Y621D01*
X151Y620D02*
X155Y620D01*
X276Y620D02*
X281Y620D01*
X151Y619D02*
X155Y619D01*
X276Y619D02*
X282Y619D01*
X151Y618D02*
X155Y618D01*
X277Y618D02*
X282Y618D01*
X151Y617D02*
X155Y617D01*
X278Y617D02*
X282Y617D01*
X151Y616D02*
X155Y616D01*
X278Y616D02*
X282Y616D01*
X151Y615D02*
X155Y615D01*
X280Y615D02*
X281Y615D01*
X151Y614D02*
X155Y614D01*
X151Y613D02*
X155Y613D01*
X151Y612D02*
X155Y612D01*
X151Y611D02*
X155Y611D01*
X151Y610D02*
X153Y610D01*
X151Y546D02*
X152Y546D01*
X151Y545D02*
X154Y545D01*
X151Y544D02*
X155Y544D01*
X151Y543D02*
X155Y543D01*
X151Y542D02*
X155Y542D01*
X151Y541D02*
X155Y541D01*
X279Y541D02*
X282Y541D01*
X151Y540D02*
X155Y540D01*
X279Y540D02*
X283Y540D01*
X151Y539D02*
X155Y539D01*
X278Y539D02*
X283Y539D01*
X151Y538D02*
X155Y538D01*
X277Y538D02*
X282Y538D01*
X151Y537D02*
X155Y537D01*
X277Y537D02*
X282Y537D01*
X151Y536D02*
X155Y536D01*
X276Y536D02*
X281Y536D01*
X151Y535D02*
X155Y535D01*
X275Y535D02*
X281Y535D01*
X151Y534D02*
X155Y534D01*
X275Y534D02*
X280Y534D01*
X151Y533D02*
X155Y533D01*
X274Y533D02*
X279Y533D01*
X151Y532D02*
X155Y532D01*
X273Y532D02*
X278Y532D01*
X151Y531D02*
X156Y531D01*
X272Y531D02*
X278Y531D01*
X151Y530D02*
X157Y530D01*
X271Y530D02*
X277Y530D01*
X152Y529D02*
X158Y529D01*
X271Y529D02*
X276Y529D01*
X153Y528D02*
X159Y528D01*
X270Y528D02*
X275Y528D01*
X154Y527D02*
X160Y527D01*
X269Y527D02*
X275Y527D01*
X155Y526D02*
X161Y526D01*
X268Y526D02*
X274Y526D01*
X156Y525D02*
X162Y525D01*
X267Y525D02*
X273Y525D01*
X156Y524D02*
X163Y524D01*
X266Y524D02*
X272Y524D01*
X157Y523D02*
X164Y523D01*
X265Y523D02*
X271Y523D01*
X158Y522D02*
X165Y522D01*
X264Y522D02*
X270Y522D01*
X159Y521D02*
X166Y521D01*
X262Y521D02*
X269Y521D01*
X160Y520D02*
X167Y520D01*
X261Y520D02*
X268Y520D01*
X162Y519D02*
X168Y519D01*
X260Y519D02*
X267Y519D01*
X163Y518D02*
X170Y518D01*
X259Y518D02*
X266Y518D01*
X164Y517D02*
X171Y517D01*
X257Y517D02*
X265Y517D01*
X165Y516D02*
X173Y516D01*
X256Y516D02*
X263Y516D01*
X166Y515D02*
X174Y515D01*
X254Y515D02*
X262Y515D01*
X168Y514D02*
X176Y514D01*
X253Y514D02*
X261Y514D01*
X169Y513D02*
X178Y513D01*
X251Y513D02*
X259Y513D01*
X171Y512D02*
X180Y512D01*
X249Y512D02*
X258Y512D01*
X172Y511D02*
X181Y511D01*
X247Y511D02*
X256Y511D01*
X174Y510D02*
X184Y510D01*
X245Y510D02*
X255Y510D01*
X175Y509D02*
X186Y509D01*
X243Y509D02*
X253Y509D01*
X177Y508D02*
X188Y508D01*
X240Y508D02*
X251Y508D01*
X179Y507D02*
X192Y507D01*
X237Y507D02*
X249Y507D01*
X181Y506D02*
X195Y506D01*
X234Y506D02*
X247Y506D01*
X184Y505D02*
X199Y505D01*
X230Y505D02*
X245Y505D01*
X186Y504D02*
X205Y504D01*
X224Y504D02*
X242Y504D01*
X189Y503D02*
X240Y503D01*
X192Y502D02*
X236Y502D01*
X195Y501D02*
X233Y501D01*
X200Y500D02*
X228Y500D01*
X208Y499D02*
X220Y499D01*
X202Y456D02*
X227Y456D01*
X197Y455D02*
X232Y455D01*
X193Y454D02*
X236Y454D01*
X190Y453D02*
X239Y453D01*
X187Y452D02*
X208Y452D01*
X220Y452D02*
X242Y452D01*
X184Y451D02*
X200Y451D01*
X228Y451D02*
X244Y451D01*
X182Y450D02*
X196Y450D01*
X233Y450D02*
X247Y450D01*
X180Y449D02*
X192Y449D01*
X236Y449D02*
X249Y449D01*
X178Y448D02*
X189Y448D01*
X239Y448D02*
X251Y448D01*
X176Y447D02*
X186Y447D01*
X242Y447D02*
X253Y447D01*
X174Y446D02*
X184Y446D01*
X244Y446D02*
X254Y446D01*
X173Y445D02*
X182Y445D01*
X247Y445D02*
X256Y445D01*
X171Y444D02*
X180Y444D01*
X248Y444D02*
X257Y444D01*
X170Y443D02*
X178Y443D01*
X250Y443D02*
X259Y443D01*
X168Y442D02*
X176Y442D01*
X252Y442D02*
X260Y442D01*
X167Y441D02*
X175Y441D01*
X254Y441D02*
X262Y441D01*
X166Y440D02*
X173Y440D01*
X255Y440D02*
X263Y440D01*
X164Y439D02*
X172Y439D01*
X257Y439D02*
X264Y439D01*
X163Y438D02*
X170Y438D01*
X258Y438D02*
X265Y438D01*
X162Y437D02*
X169Y437D01*
X260Y437D02*
X267Y437D01*
X161Y436D02*
X168Y436D01*
X261Y436D02*
X268Y436D01*
X160Y435D02*
X166Y435D01*
X262Y435D02*
X269Y435D01*
X159Y434D02*
X165Y434D01*
X263Y434D02*
X270Y434D01*
X158Y433D02*
X164Y433D01*
X264Y433D02*
X271Y433D01*
X157Y432D02*
X163Y432D01*
X266Y432D02*
X272Y432D01*
X156Y431D02*
X162Y431D01*
X267Y431D02*
X273Y431D01*
X155Y430D02*
X161Y430D01*
X268Y430D02*
X274Y430D01*
X154Y429D02*
X160Y429D01*
X269Y429D02*
X274Y429D01*
X153Y428D02*
X159Y428D01*
X270Y428D02*
X275Y428D01*
X152Y427D02*
X158Y427D01*
X270Y427D02*
X276Y427D01*
X152Y426D02*
X157Y426D01*
X271Y426D02*
X277Y426D01*
X151Y425D02*
X156Y425D01*
X272Y425D02*
X278Y425D01*
X151Y424D02*
X156Y424D01*
X273Y424D02*
X278Y424D01*
X151Y423D02*
X155Y423D01*
X274Y423D02*
X279Y423D01*
X151Y422D02*
X155Y422D01*
X274Y422D02*
X280Y422D01*
X151Y421D02*
X155Y421D01*
X275Y421D02*
X280Y421D01*
X151Y420D02*
X155Y420D01*
X276Y420D02*
X281Y420D01*
X151Y419D02*
X155Y419D01*
X276Y419D02*
X282Y419D01*
X151Y418D02*
X155Y418D01*
X277Y418D02*
X282Y418D01*
X151Y417D02*
X155Y417D01*
X278Y417D02*
X282Y417D01*
X151Y416D02*
X155Y416D01*
X279Y416D02*
X282Y416D01*
X151Y415D02*
X155Y415D01*
X280Y415D02*
X281Y415D01*
X151Y414D02*
X155Y414D01*
X151Y413D02*
X155Y413D01*
X151Y412D02*
X155Y412D01*
X151Y411D02*
X154Y411D01*
X151Y410D02*
X152Y410D01*
X151Y346D02*
X152Y346D01*
X151Y345D02*
X154Y345D01*
X151Y344D02*
X155Y344D01*
X151Y343D02*
X155Y343D01*
X151Y342D02*
X155Y342D01*
X151Y341D02*
X155Y341D01*
X279Y341D02*
X282Y341D01*
X151Y340D02*
X155Y340D01*
X279Y340D02*
X283Y340D01*
X151Y339D02*
X155Y339D01*
X278Y339D02*
X283Y339D01*
X151Y338D02*
X155Y338D01*
X277Y338D02*
X282Y338D01*
X151Y337D02*
X155Y337D01*
X277Y337D02*
X282Y337D01*
X151Y336D02*
X155Y336D01*
X276Y336D02*
X281Y336D01*
X151Y335D02*
X155Y335D01*
X275Y335D02*
X280Y335D01*
X151Y334D02*
X155Y334D01*
X275Y334D02*
X280Y334D01*
X151Y333D02*
X155Y333D01*
X274Y333D02*
X279Y333D01*
X151Y332D02*
X155Y332D01*
X273Y332D02*
X278Y332D01*
X151Y331D02*
X156Y331D01*
X272Y331D02*
X278Y331D01*
X151Y330D02*
X157Y330D01*
X271Y330D02*
X277Y330D01*
X152Y329D02*
X158Y329D01*
X270Y329D02*
X276Y329D01*
X153Y328D02*
X159Y328D01*
X270Y328D02*
X275Y328D01*
X154Y327D02*
X160Y327D01*
X269Y327D02*
X274Y327D01*
X155Y326D02*
X161Y326D01*
X268Y326D02*
X274Y326D01*
X156Y325D02*
X162Y325D01*
X267Y325D02*
X273Y325D01*
X157Y324D02*
X163Y324D01*
X266Y324D02*
X272Y324D01*
X158Y323D02*
X164Y323D01*
X265Y323D02*
X271Y323D01*
X158Y322D02*
X165Y322D01*
X264Y322D02*
X270Y322D01*
X160Y321D02*
X166Y321D01*
X262Y321D02*
X269Y321D01*
X161Y320D02*
X167Y320D01*
X261Y320D02*
X268Y320D01*
X162Y319D02*
X169Y319D01*
X260Y319D02*
X267Y319D01*
X163Y318D02*
X170Y318D01*
X259Y318D02*
X266Y318D01*
X164Y317D02*
X172Y317D01*
X257Y317D02*
X264Y317D01*
X165Y316D02*
X173Y316D01*
X256Y316D02*
X263Y316D01*
X166Y315D02*
X174Y315D01*
X254Y315D02*
X262Y315D01*
X168Y314D02*
X176Y314D01*
X253Y314D02*
X261Y314D01*
X169Y313D02*
X178Y313D01*
X251Y313D02*
X259Y313D01*
X171Y312D02*
X180Y312D01*
X249Y312D02*
X258Y312D01*
X172Y311D02*
X182Y311D01*
X247Y311D02*
X256Y311D01*
X174Y310D02*
X184Y310D01*
X245Y310D02*
X254Y310D01*
X176Y309D02*
X186Y309D01*
X242Y309D02*
X253Y309D01*
X178Y308D02*
X189Y308D01*
X240Y308D02*
X251Y308D01*
X179Y307D02*
X192Y307D01*
X237Y307D02*
X249Y307D01*
X181Y306D02*
X195Y306D01*
X233Y306D02*
X247Y306D01*
X184Y305D02*
X200Y305D01*
X229Y305D02*
X244Y305D01*
X186Y304D02*
X207Y304D01*
X222Y304D02*
X242Y304D01*
X189Y303D02*
X239Y303D01*
X192Y302D02*
X236Y302D01*
X196Y301D02*
X232Y301D01*
X201Y300D02*
X227Y300D01*
X209Y299D02*
X219Y299D01*
X210Y257D02*
X219Y257D01*
X202Y256D02*
X227Y256D01*
X196Y255D02*
X232Y255D01*
X193Y254D02*
X236Y254D01*
X189Y253D02*
X239Y253D01*
X187Y252D02*
X207Y252D01*
X222Y252D02*
X242Y252D01*
X184Y251D02*
X200Y251D01*
X229Y251D02*
X245Y251D01*
X182Y250D02*
X195Y250D01*
X233Y250D02*
X247Y250D01*
X180Y249D02*
X192Y249D01*
X236Y249D02*
X249Y249D01*
X178Y248D02*
X189Y248D01*
X240Y248D02*
X251Y248D01*
X176Y247D02*
X186Y247D01*
X242Y247D02*
X253Y247D01*
X174Y246D02*
X184Y246D01*
X244Y246D02*
X255Y246D01*
X172Y245D02*
X182Y245D01*
X247Y245D02*
X256Y245D01*
X171Y244D02*
X180Y244D01*
X249Y244D02*
X258Y244D01*
X169Y243D02*
X178Y243D01*
X250Y243D02*
X259Y243D01*
X168Y242D02*
X176Y242D01*
X252Y242D02*
X261Y242D01*
X167Y241D02*
X174Y241D01*
X254Y241D02*
X262Y241D01*
X165Y240D02*
X173Y240D01*
X255Y240D02*
X263Y240D01*
X164Y239D02*
X171Y239D01*
X257Y239D02*
X264Y239D01*
X163Y238D02*
X170Y238D01*
X258Y238D02*
X266Y238D01*
X162Y237D02*
X169Y237D01*
X260Y237D02*
X267Y237D01*
X161Y236D02*
X167Y236D01*
X261Y236D02*
X268Y236D01*
X160Y235D02*
X166Y235D01*
X262Y235D02*
X269Y235D01*
X159Y234D02*
X165Y234D01*
X263Y234D02*
X270Y234D01*
X158Y233D02*
X164Y233D01*
X265Y233D02*
X271Y233D01*
X157Y232D02*
X163Y232D01*
X266Y232D02*
X272Y232D01*
X156Y231D02*
X162Y231D01*
X267Y231D02*
X273Y231D01*
X155Y230D02*
X161Y230D01*
X268Y230D02*
X274Y230D01*
X154Y229D02*
X160Y229D01*
X269Y229D02*
X274Y229D01*
X153Y228D02*
X159Y228D01*
X270Y228D02*
X275Y228D01*
X152Y227D02*
X158Y227D01*
X271Y227D02*
X276Y227D01*
X152Y226D02*
X157Y226D01*
X271Y226D02*
X277Y226D01*
X151Y225D02*
X156Y225D01*
X272Y225D02*
X278Y225D01*
X151Y224D02*
X156Y224D01*
X273Y224D02*
X278Y224D01*
X151Y223D02*
X155Y223D01*
X274Y223D02*
X279Y223D01*
X151Y222D02*
X155Y222D01*
X275Y222D02*
X280Y222D01*
X151Y221D02*
X155Y221D01*
X275Y221D02*
X280Y221D01*
X151Y220D02*
X155Y220D01*
X276Y220D02*
X281Y220D01*
X151Y219D02*
X155Y219D01*
X277Y219D02*
X282Y219D01*
X151Y218D02*
X155Y218D01*
X277Y218D02*
X282Y218D01*
X151Y217D02*
X155Y217D01*
X278Y217D02*
X282Y217D01*
X151Y216D02*
X155Y216D01*
X279Y216D02*
X282Y216D01*
X151Y215D02*
X155Y215D01*
X280Y215D02*
X280Y215D01*
X151Y214D02*
X155Y214D01*
X151Y213D02*
X155Y213D01*
X151Y212D02*
X155Y212D01*
X151Y211D02*
X154Y211D01*
X151Y210D02*
X152Y210D01*
X151Y146D02*
X152Y146D01*
X151Y145D02*
X154Y145D01*
X151Y144D02*
X155Y144D01*
X151Y143D02*
X155Y143D01*
X151Y142D02*
X155Y142D01*
X151Y141D02*
X155Y141D01*
X279Y141D02*
X282Y141D01*
X151Y140D02*
X155Y140D01*
X278Y140D02*
X283Y140D01*
X151Y139D02*
X155Y139D01*
X278Y139D02*
X283Y139D01*
X151Y138D02*
X155Y138D01*
X277Y138D02*
X282Y138D01*
X151Y137D02*
X155Y137D01*
X277Y137D02*
X282Y137D01*
X151Y136D02*
X155Y136D01*
X276Y136D02*
X281Y136D01*
X151Y135D02*
X155Y135D01*
X275Y135D02*
X280Y135D01*
X151Y134D02*
X155Y134D01*
X274Y134D02*
X280Y134D01*
X151Y133D02*
X155Y133D01*
X274Y133D02*
X279Y133D01*
X151Y132D02*
X156Y132D01*
X273Y132D02*
X278Y132D01*
X151Y131D02*
X156Y131D01*
X272Y131D02*
X278Y131D01*
X152Y130D02*
X157Y130D01*
X271Y130D02*
X277Y130D01*
X152Y129D02*
X158Y129D01*
X270Y129D02*
X276Y129D01*
X153Y128D02*
X159Y128D01*
X270Y128D02*
X275Y128D01*
X154Y127D02*
X160Y127D01*
X269Y127D02*
X274Y127D01*
X155Y126D02*
X161Y126D01*
X268Y126D02*
X274Y126D01*
X156Y125D02*
X162Y125D01*
X267Y125D02*
X273Y125D01*
X157Y124D02*
X163Y124D01*
X266Y124D02*
X272Y124D01*
X158Y123D02*
X164Y123D01*
X265Y123D02*
X271Y123D01*
X159Y122D02*
X165Y122D01*
X263Y122D02*
X270Y122D01*
X160Y121D02*
X166Y121D01*
X262Y121D02*
X269Y121D01*
X161Y120D02*
X168Y120D01*
X261Y120D02*
X268Y120D01*
X162Y119D02*
X169Y119D01*
X260Y119D02*
X267Y119D01*
X163Y118D02*
X170Y118D01*
X258Y118D02*
X266Y118D01*
X164Y117D02*
X172Y117D01*
X257Y117D02*
X264Y117D01*
X165Y116D02*
X173Y116D01*
X256Y116D02*
X263Y116D01*
X167Y115D02*
X175Y115D01*
X254Y115D02*
X262Y115D01*
X168Y114D02*
X176Y114D01*
X252Y114D02*
X260Y114D01*
X169Y113D02*
X178Y113D01*
X251Y113D02*
X259Y113D01*
X171Y112D02*
X180Y112D01*
X249Y112D02*
X257Y112D01*
X476Y112D02*
X482Y112D01*
X172Y111D02*
X182Y111D01*
X247Y111D02*
X256Y111D01*
X475Y111D02*
X483Y111D01*
X174Y110D02*
X184Y110D01*
X245Y110D02*
X254Y110D01*
X474Y110D02*
X483Y110D01*
X176Y109D02*
X187Y109D01*
X242Y109D02*
X253Y109D01*
X415Y109D02*
X418Y109D01*
X474Y109D02*
X484Y109D01*
X565Y109D02*
X568Y109D01*
X178Y108D02*
X189Y108D01*
X240Y108D02*
X251Y108D01*
X414Y108D02*
X419Y108D01*
X474Y108D02*
X484Y108D01*
X564Y108D02*
X569Y108D01*
X180Y107D02*
X192Y107D01*
X237Y107D02*
X249Y107D01*
X414Y107D02*
X420Y107D01*
X474Y107D02*
X484Y107D01*
X564Y107D02*
X570Y107D01*
X182Y106D02*
X195Y106D01*
X233Y106D02*
X247Y106D01*
X414Y106D02*
X420Y106D01*
X474Y106D02*
X483Y106D01*
X564Y106D02*
X570Y106D01*
X772Y106D02*
X775Y106D01*
X922Y106D02*
X925Y106D01*
X184Y105D02*
X200Y105D01*
X228Y105D02*
X244Y105D01*
X414Y105D02*
X420Y105D01*
X474Y105D02*
X483Y105D01*
X564Y105D02*
X570Y105D01*
X771Y105D02*
X776Y105D01*
X921Y105D02*
X926Y105D01*
X187Y104D02*
X208Y104D01*
X221Y104D02*
X242Y104D01*
X414Y104D02*
X420Y104D01*
X475Y104D02*
X483Y104D01*
X564Y104D02*
X570Y104D01*
X771Y104D02*
X777Y104D01*
X921Y104D02*
X927Y104D01*
X189Y103D02*
X239Y103D01*
X414Y103D02*
X420Y103D01*
X477Y103D02*
X481Y103D01*
X564Y103D02*
X570Y103D01*
X771Y103D02*
X777Y103D01*
X921Y103D02*
X927Y103D01*
X193Y102D02*
X235Y102D01*
X414Y102D02*
X420Y102D01*
X564Y102D02*
X570Y102D01*
X771Y102D02*
X777Y102D01*
X921Y102D02*
X927Y102D01*
X196Y101D02*
X232Y101D01*
X414Y101D02*
X420Y101D01*
X564Y101D02*
X570Y101D01*
X771Y101D02*
X777Y101D01*
X921Y101D02*
X927Y101D01*
X201Y100D02*
X226Y100D01*
X414Y100D02*
X420Y100D01*
X564Y100D02*
X570Y100D01*
X771Y100D02*
X777Y100D01*
X921Y100D02*
X927Y100D01*
X210Y99D02*
X218Y99D01*
X414Y99D02*
X420Y99D01*
X564Y99D02*
X570Y99D01*
X771Y99D02*
X777Y99D01*
X921Y99D02*
X927Y99D01*
X414Y98D02*
X420Y98D01*
X564Y98D02*
X570Y98D01*
X771Y98D02*
X777Y98D01*
X921Y98D02*
X927Y98D01*
X414Y97D02*
X420Y97D01*
X564Y97D02*
X570Y97D01*
X771Y97D02*
X777Y97D01*
X921Y97D02*
X927Y97D01*
X414Y96D02*
X420Y96D01*
X564Y96D02*
X570Y96D01*
X771Y96D02*
X777Y96D01*
X815Y96D02*
X818Y96D01*
X827Y96D02*
X834Y96D01*
X921Y96D02*
X927Y96D01*
X414Y95D02*
X420Y95D01*
X470Y95D02*
X481Y95D01*
X517Y95D02*
X517Y95D01*
X532Y95D02*
X537Y95D01*
X564Y95D02*
X570Y95D01*
X591Y95D02*
X591Y95D01*
X676Y95D02*
X686Y95D01*
X717Y95D02*
X717Y95D01*
X744Y95D02*
X744Y95D01*
X767Y95D02*
X791Y95D01*
X814Y95D02*
X819Y95D01*
X825Y95D02*
X836Y95D01*
X867Y95D02*
X867Y95D01*
X894Y95D02*
X894Y95D01*
X917Y95D02*
X941Y95D01*
X414Y94D02*
X420Y94D01*
X468Y94D02*
X482Y94D01*
X515Y94D02*
X519Y94D01*
X529Y94D02*
X541Y94D01*
X564Y94D02*
X570Y94D01*
X589Y94D02*
X593Y94D01*
X672Y94D02*
X689Y94D01*
X715Y94D02*
X719Y94D01*
X742Y94D02*
X746Y94D01*
X765Y94D02*
X793Y94D01*
X814Y94D02*
X820Y94D01*
X824Y94D02*
X838Y94D01*
X865Y94D02*
X869Y94D01*
X892Y94D02*
X896Y94D01*
X915Y94D02*
X943Y94D01*
X414Y93D02*
X420Y93D01*
X468Y93D02*
X483Y93D01*
X514Y93D02*
X519Y93D01*
X527Y93D02*
X542Y93D01*
X564Y93D02*
X570Y93D01*
X588Y93D02*
X594Y93D01*
X671Y93D02*
X691Y93D01*
X714Y93D02*
X719Y93D01*
X742Y93D02*
X747Y93D01*
X764Y93D02*
X793Y93D01*
X814Y93D02*
X820Y93D01*
X823Y93D02*
X839Y93D01*
X864Y93D02*
X869Y93D01*
X892Y93D02*
X897Y93D01*
X914Y93D02*
X943Y93D01*
X414Y92D02*
X420Y92D01*
X467Y92D02*
X483Y92D01*
X514Y92D02*
X520Y92D01*
X525Y92D02*
X543Y92D01*
X564Y92D02*
X570Y92D01*
X586Y92D02*
X594Y92D01*
X669Y92D02*
X692Y92D01*
X714Y92D02*
X720Y92D01*
X741Y92D02*
X747Y92D01*
X764Y92D02*
X794Y92D01*
X814Y92D02*
X820Y92D01*
X822Y92D02*
X840Y92D01*
X864Y92D02*
X870Y92D01*
X891Y92D02*
X897Y92D01*
X914Y92D02*
X944Y92D01*
X414Y91D02*
X420Y91D01*
X467Y91D02*
X484Y91D01*
X514Y91D02*
X520Y91D01*
X524Y91D02*
X544Y91D01*
X564Y91D02*
X570Y91D01*
X585Y91D02*
X594Y91D01*
X668Y91D02*
X693Y91D01*
X714Y91D02*
X720Y91D01*
X741Y91D02*
X747Y91D01*
X764Y91D02*
X794Y91D01*
X814Y91D02*
X841Y91D01*
X864Y91D02*
X870Y91D01*
X891Y91D02*
X897Y91D01*
X914Y91D02*
X944Y91D01*
X414Y90D02*
X420Y90D01*
X468Y90D02*
X484Y90D01*
X514Y90D02*
X520Y90D01*
X522Y90D02*
X545Y90D01*
X564Y90D02*
X570Y90D01*
X584Y90D02*
X593Y90D01*
X667Y90D02*
X694Y90D01*
X714Y90D02*
X720Y90D01*
X741Y90D02*
X747Y90D01*
X764Y90D02*
X793Y90D01*
X814Y90D02*
X842Y90D01*
X864Y90D02*
X870Y90D01*
X891Y90D02*
X897Y90D01*
X914Y90D02*
X943Y90D01*
X414Y89D02*
X420Y89D01*
X468Y89D02*
X484Y89D01*
X514Y89D02*
X546Y89D01*
X564Y89D02*
X570Y89D01*
X583Y89D02*
X593Y89D01*
X666Y89D02*
X695Y89D01*
X714Y89D02*
X720Y89D01*
X741Y89D02*
X747Y89D01*
X765Y89D02*
X793Y89D01*
X814Y89D02*
X828Y89D01*
X834Y89D02*
X844Y89D01*
X864Y89D02*
X870Y89D01*
X891Y89D02*
X897Y89D01*
X915Y89D02*
X943Y89D01*
X414Y88D02*
X420Y88D01*
X477Y88D02*
X484Y88D01*
X514Y88D02*
X531Y88D01*
X537Y88D02*
X546Y88D01*
X564Y88D02*
X570Y88D01*
X582Y88D02*
X592Y88D01*
X665Y88D02*
X675Y88D01*
X686Y88D02*
X696Y88D01*
X714Y88D02*
X720Y88D01*
X741Y88D02*
X747Y88D01*
X770Y88D02*
X777Y88D01*
X814Y88D02*
X826Y88D01*
X835Y88D02*
X844Y88D01*
X864Y88D02*
X870Y88D01*
X891Y88D02*
X897Y88D01*
X920Y88D02*
X927Y88D01*
X414Y87D02*
X420Y87D01*
X478Y87D02*
X484Y87D01*
X514Y87D02*
X529Y87D01*
X539Y87D02*
X546Y87D01*
X564Y87D02*
X570Y87D01*
X581Y87D02*
X590Y87D01*
X665Y87D02*
X673Y87D01*
X688Y87D02*
X696Y87D01*
X714Y87D02*
X720Y87D01*
X741Y87D02*
X747Y87D01*
X771Y87D02*
X777Y87D01*
X814Y87D02*
X825Y87D01*
X836Y87D02*
X845Y87D01*
X864Y87D02*
X870Y87D01*
X891Y87D02*
X897Y87D01*
X921Y87D02*
X927Y87D01*
X414Y86D02*
X420Y86D01*
X478Y86D02*
X484Y86D01*
X514Y86D02*
X528Y86D01*
X540Y86D02*
X546Y86D01*
X564Y86D02*
X570Y86D01*
X579Y86D02*
X589Y86D01*
X664Y86D02*
X672Y86D01*
X689Y86D02*
X697Y86D01*
X714Y86D02*
X720Y86D01*
X741Y86D02*
X747Y86D01*
X771Y86D02*
X777Y86D01*
X814Y86D02*
X824Y86D01*
X837Y86D02*
X846Y86D01*
X864Y86D02*
X870Y86D01*
X891Y86D02*
X897Y86D01*
X921Y86D02*
X927Y86D01*
X414Y85D02*
X420Y85D01*
X478Y85D02*
X484Y85D01*
X514Y85D02*
X526Y85D01*
X540Y85D02*
X546Y85D01*
X564Y85D02*
X570Y85D01*
X578Y85D02*
X588Y85D01*
X664Y85D02*
X671Y85D01*
X690Y85D02*
X697Y85D01*
X714Y85D02*
X720Y85D01*
X741Y85D02*
X747Y85D01*
X771Y85D02*
X777Y85D01*
X814Y85D02*
X823Y85D01*
X838Y85D02*
X847Y85D01*
X864Y85D02*
X870Y85D01*
X891Y85D02*
X897Y85D01*
X921Y85D02*
X927Y85D01*
X414Y84D02*
X420Y84D01*
X478Y84D02*
X484Y84D01*
X514Y84D02*
X525Y84D01*
X540Y84D02*
X547Y84D01*
X564Y84D02*
X570Y84D01*
X577Y84D02*
X587Y84D01*
X664Y84D02*
X670Y84D01*
X691Y84D02*
X697Y84D01*
X714Y84D02*
X720Y84D01*
X741Y84D02*
X747Y84D01*
X771Y84D02*
X777Y84D01*
X814Y84D02*
X822Y84D01*
X840Y84D02*
X847Y84D01*
X864Y84D02*
X870Y84D01*
X891Y84D02*
X897Y84D01*
X921Y84D02*
X927Y84D01*
X414Y83D02*
X420Y83D01*
X478Y83D02*
X484Y83D01*
X514Y83D02*
X523Y83D01*
X541Y83D02*
X547Y83D01*
X564Y83D02*
X570Y83D01*
X576Y83D02*
X586Y83D01*
X664Y83D02*
X670Y83D01*
X691Y83D02*
X697Y83D01*
X714Y83D02*
X720Y83D01*
X741Y83D02*
X747Y83D01*
X771Y83D02*
X777Y83D01*
X814Y83D02*
X822Y83D01*
X841Y83D02*
X847Y83D01*
X864Y83D02*
X870Y83D01*
X891Y83D02*
X897Y83D01*
X921Y83D02*
X927Y83D01*
X414Y82D02*
X420Y82D01*
X478Y82D02*
X484Y82D01*
X514Y82D02*
X522Y82D01*
X541Y82D02*
X547Y82D01*
X564Y82D02*
X570Y82D01*
X575Y82D02*
X585Y82D01*
X664Y82D02*
X670Y82D01*
X691Y82D02*
X697Y82D01*
X714Y82D02*
X720Y82D01*
X741Y82D02*
X747Y82D01*
X771Y82D02*
X777Y82D01*
X814Y82D02*
X821Y82D01*
X841Y82D02*
X847Y82D01*
X864Y82D02*
X870Y82D01*
X891Y82D02*
X897Y82D01*
X921Y82D02*
X927Y82D01*
X414Y81D02*
X420Y81D01*
X478Y81D02*
X484Y81D01*
X514Y81D02*
X520Y81D01*
X541Y81D02*
X547Y81D01*
X564Y81D02*
X570Y81D01*
X574Y81D02*
X583Y81D01*
X664Y81D02*
X670Y81D01*
X691Y81D02*
X697Y81D01*
X714Y81D02*
X720Y81D01*
X741Y81D02*
X747Y81D01*
X771Y81D02*
X777Y81D01*
X814Y81D02*
X820Y81D01*
X841Y81D02*
X847Y81D01*
X864Y81D02*
X870Y81D01*
X891Y81D02*
X897Y81D01*
X921Y81D02*
X927Y81D01*
X414Y80D02*
X420Y80D01*
X478Y80D02*
X484Y80D01*
X514Y80D02*
X520Y80D01*
X541Y80D02*
X547Y80D01*
X564Y80D02*
X570Y80D01*
X572Y80D02*
X582Y80D01*
X664Y80D02*
X670Y80D01*
X691Y80D02*
X697Y80D01*
X714Y80D02*
X720Y80D01*
X741Y80D02*
X747Y80D01*
X771Y80D02*
X777Y80D01*
X814Y80D02*
X820Y80D01*
X841Y80D02*
X847Y80D01*
X864Y80D02*
X870Y80D01*
X891Y80D02*
X897Y80D01*
X921Y80D02*
X927Y80D01*
X414Y79D02*
X420Y79D01*
X478Y79D02*
X484Y79D01*
X514Y79D02*
X520Y79D01*
X541Y79D02*
X547Y79D01*
X564Y79D02*
X581Y79D01*
X664Y79D02*
X670Y79D01*
X691Y79D02*
X697Y79D01*
X714Y79D02*
X720Y79D01*
X741Y79D02*
X747Y79D01*
X771Y79D02*
X777Y79D01*
X814Y79D02*
X820Y79D01*
X841Y79D02*
X847Y79D01*
X864Y79D02*
X870Y79D01*
X891Y79D02*
X897Y79D01*
X921Y79D02*
X927Y79D01*
X414Y78D02*
X420Y78D01*
X478Y78D02*
X484Y78D01*
X514Y78D02*
X520Y78D01*
X541Y78D02*
X547Y78D01*
X564Y78D02*
X580Y78D01*
X664Y78D02*
X670Y78D01*
X691Y78D02*
X697Y78D01*
X714Y78D02*
X720Y78D01*
X741Y78D02*
X747Y78D01*
X771Y78D02*
X777Y78D01*
X814Y78D02*
X820Y78D01*
X841Y78D02*
X847Y78D01*
X864Y78D02*
X870Y78D01*
X891Y78D02*
X897Y78D01*
X921Y78D02*
X927Y78D01*
X414Y77D02*
X420Y77D01*
X478Y77D02*
X484Y77D01*
X514Y77D02*
X520Y77D01*
X541Y77D02*
X547Y77D01*
X564Y77D02*
X579Y77D01*
X664Y77D02*
X670Y77D01*
X691Y77D02*
X697Y77D01*
X714Y77D02*
X720Y77D01*
X741Y77D02*
X747Y77D01*
X771Y77D02*
X777Y77D01*
X814Y77D02*
X820Y77D01*
X841Y77D02*
X847Y77D01*
X864Y77D02*
X870Y77D01*
X891Y77D02*
X897Y77D01*
X921Y77D02*
X927Y77D01*
X414Y76D02*
X420Y76D01*
X478Y76D02*
X484Y76D01*
X514Y76D02*
X520Y76D01*
X541Y76D02*
X547Y76D01*
X564Y76D02*
X580Y76D01*
X664Y76D02*
X670Y76D01*
X691Y76D02*
X697Y76D01*
X714Y76D02*
X720Y76D01*
X741Y76D02*
X747Y76D01*
X771Y76D02*
X777Y76D01*
X814Y76D02*
X820Y76D01*
X841Y76D02*
X847Y76D01*
X864Y76D02*
X870Y76D01*
X891Y76D02*
X897Y76D01*
X921Y76D02*
X927Y76D01*
X414Y75D02*
X420Y75D01*
X478Y75D02*
X484Y75D01*
X514Y75D02*
X520Y75D01*
X541Y75D02*
X547Y75D01*
X564Y75D02*
X581Y75D01*
X664Y75D02*
X670Y75D01*
X691Y75D02*
X697Y75D01*
X714Y75D02*
X720Y75D01*
X741Y75D02*
X747Y75D01*
X771Y75D02*
X777Y75D01*
X814Y75D02*
X820Y75D01*
X841Y75D02*
X847Y75D01*
X864Y75D02*
X870Y75D01*
X891Y75D02*
X897Y75D01*
X921Y75D02*
X927Y75D01*
X414Y74D02*
X420Y74D01*
X478Y74D02*
X484Y74D01*
X514Y74D02*
X520Y74D01*
X541Y74D02*
X547Y74D01*
X564Y74D02*
X582Y74D01*
X664Y74D02*
X670Y74D01*
X691Y74D02*
X697Y74D01*
X714Y74D02*
X720Y74D01*
X741Y74D02*
X747Y74D01*
X771Y74D02*
X777Y74D01*
X814Y74D02*
X820Y74D01*
X841Y74D02*
X847Y74D01*
X864Y74D02*
X870Y74D01*
X891Y74D02*
X897Y74D01*
X921Y74D02*
X927Y74D01*
X414Y73D02*
X420Y73D01*
X478Y73D02*
X484Y73D01*
X514Y73D02*
X520Y73D01*
X541Y73D02*
X547Y73D01*
X564Y73D02*
X583Y73D01*
X664Y73D02*
X670Y73D01*
X691Y73D02*
X697Y73D01*
X714Y73D02*
X720Y73D01*
X741Y73D02*
X747Y73D01*
X771Y73D02*
X777Y73D01*
X814Y73D02*
X820Y73D01*
X841Y73D02*
X847Y73D01*
X864Y73D02*
X870Y73D01*
X891Y73D02*
X897Y73D01*
X921Y73D02*
X927Y73D01*
X414Y72D02*
X420Y72D01*
X478Y72D02*
X484Y72D01*
X514Y72D02*
X520Y72D01*
X541Y72D02*
X547Y72D01*
X564Y72D02*
X584Y72D01*
X664Y72D02*
X670Y72D01*
X691Y72D02*
X697Y72D01*
X714Y72D02*
X720Y72D01*
X741Y72D02*
X747Y72D01*
X771Y72D02*
X777Y72D01*
X814Y72D02*
X820Y72D01*
X841Y72D02*
X847Y72D01*
X864Y72D02*
X870Y72D01*
X891Y72D02*
X897Y72D01*
X921Y72D02*
X927Y72D01*
X414Y71D02*
X420Y71D01*
X478Y71D02*
X484Y71D01*
X514Y71D02*
X520Y71D01*
X541Y71D02*
X547Y71D01*
X564Y71D02*
X572Y71D01*
X576Y71D02*
X585Y71D01*
X664Y71D02*
X670Y71D01*
X691Y71D02*
X697Y71D01*
X714Y71D02*
X720Y71D01*
X741Y71D02*
X747Y71D01*
X771Y71D02*
X777Y71D01*
X814Y71D02*
X820Y71D01*
X841Y71D02*
X847Y71D01*
X864Y71D02*
X870Y71D01*
X891Y71D02*
X897Y71D01*
X921Y71D02*
X927Y71D01*
X414Y70D02*
X420Y70D01*
X478Y70D02*
X484Y70D01*
X514Y70D02*
X520Y70D01*
X541Y70D02*
X547Y70D01*
X564Y70D02*
X571Y70D01*
X577Y70D02*
X587Y70D01*
X664Y70D02*
X670Y70D01*
X691Y70D02*
X697Y70D01*
X714Y70D02*
X720Y70D01*
X741Y70D02*
X747Y70D01*
X771Y70D02*
X777Y70D01*
X814Y70D02*
X820Y70D01*
X841Y70D02*
X847Y70D01*
X864Y70D02*
X870Y70D01*
X891Y70D02*
X897Y70D01*
X921Y70D02*
X927Y70D01*
X414Y69D02*
X420Y69D01*
X478Y69D02*
X484Y69D01*
X514Y69D02*
X520Y69D01*
X541Y69D02*
X547Y69D01*
X564Y69D02*
X570Y69D01*
X578Y69D02*
X588Y69D01*
X664Y69D02*
X670Y69D01*
X691Y69D02*
X697Y69D01*
X714Y69D02*
X721Y69D01*
X740Y69D02*
X747Y69D01*
X771Y69D02*
X777Y69D01*
X814Y69D02*
X820Y69D01*
X841Y69D02*
X847Y69D01*
X864Y69D02*
X871Y69D01*
X890Y69D02*
X897Y69D01*
X921Y69D02*
X927Y69D01*
X414Y68D02*
X420Y68D01*
X478Y68D02*
X484Y68D01*
X514Y68D02*
X520Y68D01*
X541Y68D02*
X547Y68D01*
X564Y68D02*
X570Y68D01*
X579Y68D02*
X589Y68D01*
X664Y68D02*
X670Y68D01*
X691Y68D02*
X697Y68D01*
X715Y68D02*
X721Y68D01*
X738Y68D02*
X747Y68D01*
X771Y68D02*
X777Y68D01*
X793Y68D02*
X796Y68D01*
X814Y68D02*
X821Y68D01*
X841Y68D02*
X847Y68D01*
X865Y68D02*
X871Y68D01*
X888Y68D02*
X897Y68D01*
X921Y68D02*
X927Y68D01*
X943Y68D02*
X946Y68D01*
X414Y67D02*
X420Y67D01*
X478Y67D02*
X484Y67D01*
X514Y67D02*
X520Y67D01*
X541Y67D02*
X547Y67D01*
X564Y67D02*
X570Y67D01*
X580Y67D02*
X590Y67D01*
X664Y67D02*
X670Y67D01*
X691Y67D02*
X697Y67D01*
X715Y67D02*
X721Y67D01*
X737Y67D02*
X747Y67D01*
X771Y67D02*
X777Y67D01*
X792Y67D02*
X797Y67D01*
X814Y67D02*
X822Y67D01*
X840Y67D02*
X847Y67D01*
X865Y67D02*
X871Y67D01*
X887Y67D02*
X897Y67D01*
X921Y67D02*
X927Y67D01*
X942Y67D02*
X947Y67D01*
X414Y66D02*
X420Y66D01*
X478Y66D02*
X484Y66D01*
X514Y66D02*
X520Y66D01*
X541Y66D02*
X547Y66D01*
X564Y66D02*
X570Y66D01*
X581Y66D02*
X591Y66D01*
X664Y66D02*
X671Y66D01*
X690Y66D02*
X697Y66D01*
X715Y66D02*
X721Y66D01*
X735Y66D02*
X747Y66D01*
X771Y66D02*
X777Y66D01*
X792Y66D02*
X797Y66D01*
X814Y66D02*
X823Y66D01*
X839Y66D02*
X847Y66D01*
X865Y66D02*
X871Y66D01*
X885Y66D02*
X897Y66D01*
X921Y66D02*
X927Y66D01*
X942Y66D02*
X947Y66D01*
X414Y65D02*
X420Y65D01*
X478Y65D02*
X484Y65D01*
X514Y65D02*
X520Y65D01*
X541Y65D02*
X547Y65D01*
X564Y65D02*
X570Y65D01*
X583Y65D02*
X592Y65D01*
X664Y65D02*
X672Y65D01*
X689Y65D02*
X697Y65D01*
X715Y65D02*
X721Y65D01*
X734Y65D02*
X747Y65D01*
X771Y65D02*
X777Y65D01*
X791Y65D02*
X797Y65D01*
X814Y65D02*
X824Y65D01*
X838Y65D02*
X846Y65D01*
X865Y65D02*
X871Y65D01*
X884Y65D02*
X897Y65D01*
X921Y65D02*
X927Y65D01*
X941Y65D02*
X947Y65D01*
X414Y64D02*
X420Y64D01*
X478Y64D02*
X484Y64D01*
X514Y64D02*
X520Y64D01*
X541Y64D02*
X547Y64D01*
X564Y64D02*
X570Y64D01*
X584Y64D02*
X594Y64D01*
X665Y64D02*
X673Y64D01*
X688Y64D02*
X696Y64D01*
X715Y64D02*
X721Y64D01*
X732Y64D02*
X747Y64D01*
X771Y64D02*
X777Y64D01*
X790Y64D02*
X797Y64D01*
X814Y64D02*
X825Y64D01*
X836Y64D02*
X846Y64D01*
X865Y64D02*
X871Y64D01*
X882Y64D02*
X897Y64D01*
X921Y64D02*
X927Y64D01*
X940Y64D02*
X947Y64D01*
X414Y63D02*
X420Y63D01*
X478Y63D02*
X484Y63D01*
X514Y63D02*
X520Y63D01*
X541Y63D02*
X547Y63D01*
X564Y63D02*
X570Y63D01*
X585Y63D02*
X595Y63D01*
X665Y63D02*
X674Y63D01*
X687Y63D02*
X696Y63D01*
X715Y63D02*
X723Y63D01*
X730Y63D02*
X747Y63D01*
X771Y63D02*
X779Y63D01*
X789Y63D02*
X797Y63D01*
X814Y63D02*
X826Y63D01*
X835Y63D02*
X845Y63D01*
X865Y63D02*
X873Y63D01*
X880Y63D02*
X897Y63D01*
X921Y63D02*
X929Y63D01*
X939Y63D02*
X947Y63D01*
X414Y62D02*
X446Y62D01*
X469Y62D02*
X492Y62D01*
X514Y62D02*
X520Y62D01*
X541Y62D02*
X547Y62D01*
X564Y62D02*
X570Y62D01*
X586Y62D02*
X596Y62D01*
X666Y62D02*
X695Y62D01*
X715Y62D02*
X747Y62D01*
X772Y62D02*
X797Y62D01*
X814Y62D02*
X827Y62D01*
X834Y62D02*
X844Y62D01*
X865Y62D02*
X897Y62D01*
X921Y62D02*
X947Y62D01*
X414Y61D02*
X447Y61D01*
X468Y61D02*
X493Y61D01*
X514Y61D02*
X520Y61D01*
X541Y61D02*
X547Y61D01*
X564Y61D02*
X570Y61D01*
X587Y61D02*
X597Y61D01*
X667Y61D02*
X694Y61D01*
X716Y61D02*
X739Y61D01*
X741Y61D02*
X747Y61D01*
X772Y61D02*
X796Y61D01*
X814Y61D02*
X843Y61D01*
X866Y61D02*
X889Y61D01*
X891Y61D02*
X897Y61D01*
X922Y61D02*
X946Y61D01*
X414Y60D02*
X447Y60D01*
X467Y60D02*
X494Y60D01*
X514Y60D02*
X520Y60D01*
X541Y60D02*
X547Y60D01*
X564Y60D02*
X570Y60D01*
X588Y60D02*
X597Y60D01*
X668Y60D02*
X693Y60D01*
X717Y60D02*
X738Y60D01*
X741Y60D02*
X747Y60D01*
X773Y60D02*
X795Y60D01*
X814Y60D02*
X842Y60D01*
X867Y60D02*
X888Y60D01*
X891Y60D02*
X897Y60D01*
X923Y60D02*
X945Y60D01*
X414Y59D02*
X447Y59D01*
X467Y59D02*
X494Y59D01*
X514Y59D02*
X520Y59D01*
X541Y59D02*
X547Y59D01*
X564Y59D02*
X570Y59D01*
X590Y59D02*
X597Y59D01*
X669Y59D02*
X692Y59D01*
X717Y59D02*
X736Y59D01*
X741Y59D02*
X747Y59D01*
X774Y59D02*
X794Y59D01*
X814Y59D02*
X840Y59D01*
X867Y59D02*
X886Y59D01*
X891Y59D02*
X897Y59D01*
X924Y59D02*
X944Y59D01*
X414Y58D02*
X447Y58D01*
X467Y58D02*
X494Y58D01*
X514Y58D02*
X520Y58D01*
X542Y58D02*
X547Y58D01*
X564Y58D02*
X570Y58D01*
X591Y58D02*
X597Y58D01*
X670Y58D02*
X691Y58D01*
X719Y58D02*
X735Y58D01*
X742Y58D02*
X747Y58D01*
X775Y58D02*
X793Y58D01*
X814Y58D02*
X820Y58D01*
X822Y58D02*
X839Y58D01*
X869Y58D02*
X885Y58D01*
X892Y58D02*
X897Y58D01*
X925Y58D02*
X943Y58D01*
X414Y57D02*
X447Y57D01*
X468Y57D02*
X493Y57D01*
X515Y57D02*
X519Y57D01*
X542Y57D02*
X546Y57D01*
X565Y57D02*
X569Y57D01*
X592Y57D02*
X597Y57D01*
X672Y57D02*
X689Y57D01*
X720Y57D02*
X733Y57D01*
X742Y57D02*
X747Y57D01*
X776Y57D02*
X792Y57D01*
X814Y57D02*
X820Y57D01*
X823Y57D02*
X838Y57D01*
X870Y57D02*
X883Y57D01*
X892Y57D02*
X897Y57D01*
X926Y57D02*
X942Y57D01*
X414Y56D02*
X445Y56D01*
X469Y56D02*
X492Y56D01*
X516Y56D02*
X518Y56D01*
X543Y56D02*
X545Y56D01*
X566Y56D02*
X568Y56D01*
X593Y56D02*
X595Y56D01*
X674Y56D02*
X687Y56D01*
X722Y56D02*
X731Y56D01*
X743Y56D02*
X745Y56D01*
X778Y56D02*
X789Y56D01*
X814Y56D02*
X820Y56D01*
X825Y56D02*
X837Y56D01*
X872Y56D02*
X881Y56D01*
X893Y56D02*
X895Y56D01*
X928Y56D02*
X939Y56D01*
X814Y55D02*
X820Y55D01*
X827Y55D02*
X835Y55D01*
X814Y54D02*
X820Y54D01*
X814Y53D02*
X820Y53D01*
X814Y52D02*
X820Y52D01*
X814Y51D02*
X820Y51D01*
X814Y50D02*
X820Y50D01*
X814Y49D02*
X820Y49D01*
X814Y48D02*
X820Y48D01*
X814Y47D02*
X820Y47D01*
X814Y46D02*
X820Y46D01*
X814Y45D02*
X820Y45D01*
X814Y44D02*
X820Y44D01*
X814Y43D02*
X819Y43D01*
X815Y42D02*
X819Y42D01*
D02*
G04 End of Silk1*
M02*