; NON-PLATED HOLES START AT T1
; THROUGH (PLATED) HOLES START AT T100
M48
INCH
T100C0.031497
T101C0.035000
T102C0.038000
%
T100
X001693Y005766
X001693Y015766
X002678Y005766
X002678Y015766
X001693Y007766
X001693Y001766
X001693Y011766
X002678Y007766
X002678Y001766
X002678Y011766
X001693Y009766
X001693Y003766
X001693Y013766
X002678Y009766
X002678Y003766
X002678Y013766
T101
X004720Y006768
X007720Y004768
X004720Y010768
X004720Y007768
X007720Y005768
X004720Y011768
X004720Y008768
X007720Y006768
X007720Y010768
X004720Y009768
X007720Y007768
X007720Y011768
X004720Y004768
X007720Y008768
X004720Y005768
X007720Y009768
T102
X006693Y015766
X004693Y001766
X007693Y015766
X005693Y001766
X008693Y015766
X006693Y001766
X007693Y001766
X008693Y001766
X004693Y015766
X005693Y015766
T00
M30
