G04 MADE WITH FRITZING*
G04 WWW.FRITZING.ORG*
G04 DOUBLE SIDED*
G04 HOLES PLATED*
G04 CONTOUR ON CENTER OF CONTOUR VECTOR*
%ASAXBY*%
%FSLAX23Y23*%
%MOIN*%
%OFA0B0*%
%SFA1.0B1.0*%
%ADD10C,0.072992*%
%ADD11C,0.085000*%
%ADD12C,0.088000*%
%ADD13R,0.072992X0.072992*%
%ADD14R,0.085000X0.085000*%
%ADD15R,0.057244X0.053307*%
%ADD16C,0.010000*%
%LNMASK0*%
G90*
G70*
G54D10*
X268Y1577D03*
X169Y1577D03*
X268Y577D03*
X169Y577D03*
X268Y777D03*
X169Y777D03*
X268Y177D03*
X169Y177D03*
X268Y377D03*
X169Y377D03*
X268Y977D03*
X169Y977D03*
X268Y1177D03*
X169Y1177D03*
X268Y1377D03*
X169Y1377D03*
G54D11*
X472Y1177D03*
X772Y1177D03*
X472Y1077D03*
X772Y1077D03*
X472Y977D03*
X772Y977D03*
X472Y877D03*
X772Y877D03*
X472Y777D03*
X772Y777D03*
X472Y677D03*
X772Y677D03*
X472Y577D03*
X772Y577D03*
X472Y477D03*
X772Y477D03*
G54D12*
X869Y177D03*
X769Y177D03*
X669Y177D03*
X569Y177D03*
X469Y177D03*
X469Y1577D03*
X569Y1577D03*
X669Y1577D03*
X769Y1577D03*
X869Y1577D03*
G54D13*
X268Y1577D03*
X268Y577D03*
X268Y777D03*
X268Y177D03*
X268Y377D03*
X268Y977D03*
X268Y1177D03*
X268Y1377D03*
G54D14*
X472Y1177D03*
G54D15*
X169Y1677D03*
X102Y1677D03*
X169Y1477D03*
X102Y1477D03*
G54D16*
G36*
X46Y1255D02*
X46Y1298D01*
X93Y1298D01*
X93Y1255D01*
X46Y1255D01*
G37*
D02*
G36*
X113Y1255D02*
X113Y1298D01*
X160Y1298D01*
X160Y1255D01*
X113Y1255D01*
G37*
D02*
G36*
X46Y1055D02*
X46Y1098D01*
X93Y1098D01*
X93Y1055D01*
X46Y1055D01*
G37*
D02*
G36*
X113Y1055D02*
X113Y1098D01*
X160Y1098D01*
X160Y1055D01*
X113Y1055D01*
G37*
D02*
G36*
X46Y855D02*
X46Y898D01*
X93Y898D01*
X93Y855D01*
X46Y855D01*
G37*
D02*
G36*
X113Y855D02*
X113Y898D01*
X160Y898D01*
X160Y855D01*
X113Y855D01*
G37*
D02*
G36*
X46Y655D02*
X46Y698D01*
X93Y698D01*
X93Y655D01*
X46Y655D01*
G37*
D02*
G36*
X113Y655D02*
X113Y698D01*
X160Y698D01*
X160Y655D01*
X113Y655D01*
G37*
D02*
G36*
X26Y474D02*
X26Y517D01*
X73Y517D01*
X73Y474D01*
X26Y474D01*
G37*
D02*
G36*
X93Y474D02*
X93Y517D01*
X140Y517D01*
X140Y474D01*
X93Y474D01*
G37*
D02*
G36*
X46Y255D02*
X46Y298D01*
X93Y298D01*
X93Y255D01*
X46Y255D01*
G37*
D02*
G36*
X113Y255D02*
X113Y298D01*
X160Y298D01*
X160Y255D01*
X113Y255D01*
G37*
D02*
G04 End of Mask0*
M02*