G04 MADE WITH FRITZING*
G04 WWW.FRITZING.ORG*
G04 DOUBLE SIDED*
G04 HOLES PLATED*
G04 CONTOUR ON CENTER OF CONTOUR VECTOR*
%ASAXBY*%
%FSLAX23Y23*%
%MOIN*%
%OFA0B0*%
%SFA1.0B1.0*%
%ADD10R,0.001000X0.001000*%
%LNSILK0*%
G90*
G70*
G54D10*
X0Y1747D02*
X1049Y1747D01*
X0Y1746D02*
X1049Y1746D01*
X0Y1745D02*
X1049Y1745D01*
X0Y1744D02*
X1049Y1744D01*
X0Y1743D02*
X1049Y1743D01*
X0Y1742D02*
X1049Y1742D01*
X0Y1741D02*
X1049Y1741D01*
X0Y1740D02*
X1049Y1740D01*
X0Y1739D02*
X7Y1739D01*
X1042Y1739D02*
X1049Y1739D01*
X0Y1738D02*
X7Y1738D01*
X1042Y1738D02*
X1049Y1738D01*
X0Y1737D02*
X7Y1737D01*
X1042Y1737D02*
X1049Y1737D01*
X0Y1736D02*
X7Y1736D01*
X1042Y1736D02*
X1049Y1736D01*
X0Y1735D02*
X7Y1735D01*
X1042Y1735D02*
X1049Y1735D01*
X0Y1734D02*
X7Y1734D01*
X1042Y1734D02*
X1049Y1734D01*
X0Y1733D02*
X7Y1733D01*
X1042Y1733D02*
X1049Y1733D01*
X0Y1732D02*
X7Y1732D01*
X1042Y1732D02*
X1049Y1732D01*
X0Y1731D02*
X7Y1731D01*
X1042Y1731D02*
X1049Y1731D01*
X0Y1730D02*
X7Y1730D01*
X1042Y1730D02*
X1049Y1730D01*
X0Y1729D02*
X7Y1729D01*
X1042Y1729D02*
X1049Y1729D01*
X0Y1728D02*
X7Y1728D01*
X1042Y1728D02*
X1049Y1728D01*
X0Y1727D02*
X7Y1727D01*
X1042Y1727D02*
X1049Y1727D01*
X0Y1726D02*
X7Y1726D01*
X1042Y1726D02*
X1049Y1726D01*
X0Y1725D02*
X7Y1725D01*
X1042Y1725D02*
X1049Y1725D01*
X0Y1724D02*
X7Y1724D01*
X1042Y1724D02*
X1049Y1724D01*
X0Y1723D02*
X7Y1723D01*
X1042Y1723D02*
X1049Y1723D01*
X0Y1722D02*
X7Y1722D01*
X1042Y1722D02*
X1049Y1722D01*
X0Y1721D02*
X7Y1721D01*
X1042Y1721D02*
X1049Y1721D01*
X0Y1720D02*
X7Y1720D01*
X1042Y1720D02*
X1049Y1720D01*
X0Y1719D02*
X7Y1719D01*
X1042Y1719D02*
X1049Y1719D01*
X0Y1718D02*
X7Y1718D01*
X1042Y1718D02*
X1049Y1718D01*
X0Y1717D02*
X7Y1717D01*
X1042Y1717D02*
X1049Y1717D01*
X0Y1716D02*
X7Y1716D01*
X1042Y1716D02*
X1049Y1716D01*
X0Y1715D02*
X7Y1715D01*
X1042Y1715D02*
X1049Y1715D01*
X0Y1714D02*
X7Y1714D01*
X1042Y1714D02*
X1049Y1714D01*
X0Y1713D02*
X7Y1713D01*
X1042Y1713D02*
X1049Y1713D01*
X0Y1712D02*
X7Y1712D01*
X1042Y1712D02*
X1049Y1712D01*
X0Y1711D02*
X7Y1711D01*
X1042Y1711D02*
X1049Y1711D01*
X0Y1710D02*
X7Y1710D01*
X1042Y1710D02*
X1049Y1710D01*
X0Y1709D02*
X7Y1709D01*
X1042Y1709D02*
X1049Y1709D01*
X0Y1708D02*
X7Y1708D01*
X1042Y1708D02*
X1049Y1708D01*
X0Y1707D02*
X7Y1707D01*
X1042Y1707D02*
X1049Y1707D01*
X0Y1706D02*
X7Y1706D01*
X71Y1706D02*
X200Y1706D01*
X1042Y1706D02*
X1049Y1706D01*
X0Y1705D02*
X7Y1705D01*
X71Y1705D02*
X200Y1705D01*
X1042Y1705D02*
X1049Y1705D01*
X0Y1704D02*
X7Y1704D01*
X71Y1704D02*
X200Y1704D01*
X1042Y1704D02*
X1049Y1704D01*
X0Y1703D02*
X7Y1703D01*
X71Y1703D02*
X73Y1703D01*
X131Y1703D02*
X140Y1703D01*
X198Y1703D02*
X200Y1703D01*
X1042Y1703D02*
X1049Y1703D01*
X0Y1702D02*
X7Y1702D01*
X71Y1702D02*
X73Y1702D01*
X198Y1702D02*
X200Y1702D01*
X1042Y1702D02*
X1049Y1702D01*
X0Y1701D02*
X7Y1701D01*
X71Y1701D02*
X73Y1701D01*
X198Y1701D02*
X200Y1701D01*
X1042Y1701D02*
X1049Y1701D01*
X0Y1700D02*
X7Y1700D01*
X71Y1700D02*
X73Y1700D01*
X198Y1700D02*
X200Y1700D01*
X1042Y1700D02*
X1049Y1700D01*
X0Y1699D02*
X7Y1699D01*
X71Y1699D02*
X73Y1699D01*
X198Y1699D02*
X200Y1699D01*
X1042Y1699D02*
X1049Y1699D01*
X0Y1698D02*
X7Y1698D01*
X71Y1698D02*
X73Y1698D01*
X198Y1698D02*
X200Y1698D01*
X1042Y1698D02*
X1049Y1698D01*
X0Y1697D02*
X7Y1697D01*
X71Y1697D02*
X73Y1697D01*
X198Y1697D02*
X200Y1697D01*
X1042Y1697D02*
X1049Y1697D01*
X0Y1696D02*
X7Y1696D01*
X71Y1696D02*
X73Y1696D01*
X198Y1696D02*
X200Y1696D01*
X1042Y1696D02*
X1049Y1696D01*
X0Y1695D02*
X7Y1695D01*
X71Y1695D02*
X73Y1695D01*
X198Y1695D02*
X200Y1695D01*
X1042Y1695D02*
X1049Y1695D01*
X0Y1694D02*
X7Y1694D01*
X71Y1694D02*
X73Y1694D01*
X198Y1694D02*
X200Y1694D01*
X1042Y1694D02*
X1049Y1694D01*
X0Y1693D02*
X7Y1693D01*
X71Y1693D02*
X73Y1693D01*
X198Y1693D02*
X200Y1693D01*
X1042Y1693D02*
X1049Y1693D01*
X0Y1692D02*
X7Y1692D01*
X71Y1692D02*
X73Y1692D01*
X198Y1692D02*
X200Y1692D01*
X1042Y1692D02*
X1049Y1692D01*
X0Y1691D02*
X7Y1691D01*
X71Y1691D02*
X73Y1691D01*
X198Y1691D02*
X200Y1691D01*
X1042Y1691D02*
X1049Y1691D01*
X0Y1690D02*
X7Y1690D01*
X71Y1690D02*
X73Y1690D01*
X198Y1690D02*
X200Y1690D01*
X1042Y1690D02*
X1049Y1690D01*
X0Y1689D02*
X7Y1689D01*
X71Y1689D02*
X73Y1689D01*
X198Y1689D02*
X200Y1689D01*
X1042Y1689D02*
X1049Y1689D01*
X0Y1688D02*
X7Y1688D01*
X71Y1688D02*
X73Y1688D01*
X198Y1688D02*
X200Y1688D01*
X1042Y1688D02*
X1049Y1688D01*
X0Y1687D02*
X7Y1687D01*
X71Y1687D02*
X73Y1687D01*
X198Y1687D02*
X200Y1687D01*
X1042Y1687D02*
X1049Y1687D01*
X0Y1686D02*
X7Y1686D01*
X71Y1686D02*
X73Y1686D01*
X198Y1686D02*
X200Y1686D01*
X1042Y1686D02*
X1049Y1686D01*
X0Y1685D02*
X7Y1685D01*
X71Y1685D02*
X73Y1685D01*
X198Y1685D02*
X200Y1685D01*
X1042Y1685D02*
X1049Y1685D01*
X0Y1684D02*
X7Y1684D01*
X71Y1684D02*
X73Y1684D01*
X198Y1684D02*
X200Y1684D01*
X1042Y1684D02*
X1049Y1684D01*
X0Y1683D02*
X7Y1683D01*
X71Y1683D02*
X73Y1683D01*
X198Y1683D02*
X200Y1683D01*
X1042Y1683D02*
X1049Y1683D01*
X0Y1682D02*
X7Y1682D01*
X71Y1682D02*
X73Y1682D01*
X198Y1682D02*
X200Y1682D01*
X1042Y1682D02*
X1049Y1682D01*
X0Y1681D02*
X7Y1681D01*
X71Y1681D02*
X73Y1681D01*
X198Y1681D02*
X200Y1681D01*
X1042Y1681D02*
X1049Y1681D01*
X0Y1680D02*
X7Y1680D01*
X71Y1680D02*
X73Y1680D01*
X198Y1680D02*
X200Y1680D01*
X1042Y1680D02*
X1049Y1680D01*
X0Y1679D02*
X7Y1679D01*
X71Y1679D02*
X73Y1679D01*
X198Y1679D02*
X200Y1679D01*
X1042Y1679D02*
X1049Y1679D01*
X0Y1678D02*
X7Y1678D01*
X71Y1678D02*
X73Y1678D01*
X198Y1678D02*
X200Y1678D01*
X1042Y1678D02*
X1049Y1678D01*
X0Y1677D02*
X7Y1677D01*
X71Y1677D02*
X73Y1677D01*
X198Y1677D02*
X200Y1677D01*
X1042Y1677D02*
X1049Y1677D01*
X0Y1676D02*
X7Y1676D01*
X71Y1676D02*
X73Y1676D01*
X198Y1676D02*
X200Y1676D01*
X1042Y1676D02*
X1049Y1676D01*
X0Y1675D02*
X7Y1675D01*
X71Y1675D02*
X73Y1675D01*
X198Y1675D02*
X200Y1675D01*
X1042Y1675D02*
X1049Y1675D01*
X0Y1674D02*
X7Y1674D01*
X71Y1674D02*
X73Y1674D01*
X198Y1674D02*
X200Y1674D01*
X1042Y1674D02*
X1049Y1674D01*
X0Y1673D02*
X7Y1673D01*
X71Y1673D02*
X73Y1673D01*
X198Y1673D02*
X200Y1673D01*
X1042Y1673D02*
X1049Y1673D01*
X0Y1672D02*
X7Y1672D01*
X71Y1672D02*
X73Y1672D01*
X198Y1672D02*
X200Y1672D01*
X1042Y1672D02*
X1049Y1672D01*
X0Y1671D02*
X7Y1671D01*
X71Y1671D02*
X73Y1671D01*
X198Y1671D02*
X200Y1671D01*
X1042Y1671D02*
X1049Y1671D01*
X0Y1670D02*
X7Y1670D01*
X71Y1670D02*
X73Y1670D01*
X198Y1670D02*
X200Y1670D01*
X1042Y1670D02*
X1049Y1670D01*
X0Y1669D02*
X7Y1669D01*
X71Y1669D02*
X73Y1669D01*
X198Y1669D02*
X200Y1669D01*
X1042Y1669D02*
X1049Y1669D01*
X0Y1668D02*
X7Y1668D01*
X71Y1668D02*
X73Y1668D01*
X198Y1668D02*
X200Y1668D01*
X1042Y1668D02*
X1049Y1668D01*
X0Y1667D02*
X7Y1667D01*
X71Y1667D02*
X73Y1667D01*
X198Y1667D02*
X200Y1667D01*
X1042Y1667D02*
X1049Y1667D01*
X0Y1666D02*
X7Y1666D01*
X71Y1666D02*
X73Y1666D01*
X198Y1666D02*
X200Y1666D01*
X1042Y1666D02*
X1049Y1666D01*
X0Y1665D02*
X7Y1665D01*
X71Y1665D02*
X73Y1665D01*
X198Y1665D02*
X200Y1665D01*
X1042Y1665D02*
X1049Y1665D01*
X0Y1664D02*
X7Y1664D01*
X71Y1664D02*
X73Y1664D01*
X198Y1664D02*
X200Y1664D01*
X1042Y1664D02*
X1049Y1664D01*
X0Y1663D02*
X7Y1663D01*
X71Y1663D02*
X73Y1663D01*
X198Y1663D02*
X200Y1663D01*
X1042Y1663D02*
X1049Y1663D01*
X0Y1662D02*
X7Y1662D01*
X71Y1662D02*
X73Y1662D01*
X198Y1662D02*
X200Y1662D01*
X1042Y1662D02*
X1049Y1662D01*
X0Y1661D02*
X7Y1661D01*
X71Y1661D02*
X73Y1661D01*
X198Y1661D02*
X200Y1661D01*
X1042Y1661D02*
X1049Y1661D01*
X0Y1660D02*
X7Y1660D01*
X71Y1660D02*
X73Y1660D01*
X198Y1660D02*
X200Y1660D01*
X1042Y1660D02*
X1049Y1660D01*
X0Y1659D02*
X7Y1659D01*
X71Y1659D02*
X73Y1659D01*
X198Y1659D02*
X200Y1659D01*
X1042Y1659D02*
X1049Y1659D01*
X0Y1658D02*
X7Y1658D01*
X71Y1658D02*
X73Y1658D01*
X198Y1658D02*
X200Y1658D01*
X1042Y1658D02*
X1049Y1658D01*
X0Y1657D02*
X7Y1657D01*
X71Y1657D02*
X73Y1657D01*
X198Y1657D02*
X200Y1657D01*
X1042Y1657D02*
X1049Y1657D01*
X0Y1656D02*
X7Y1656D01*
X71Y1656D02*
X73Y1656D01*
X198Y1656D02*
X200Y1656D01*
X1042Y1656D02*
X1049Y1656D01*
X0Y1655D02*
X7Y1655D01*
X71Y1655D02*
X73Y1655D01*
X198Y1655D02*
X200Y1655D01*
X1042Y1655D02*
X1049Y1655D01*
X0Y1654D02*
X7Y1654D01*
X71Y1654D02*
X73Y1654D01*
X198Y1654D02*
X200Y1654D01*
X1042Y1654D02*
X1049Y1654D01*
X0Y1653D02*
X7Y1653D01*
X71Y1653D02*
X73Y1653D01*
X198Y1653D02*
X200Y1653D01*
X1042Y1653D02*
X1049Y1653D01*
X0Y1652D02*
X7Y1652D01*
X71Y1652D02*
X73Y1652D01*
X198Y1652D02*
X200Y1652D01*
X1042Y1652D02*
X1049Y1652D01*
X0Y1651D02*
X7Y1651D01*
X71Y1651D02*
X73Y1651D01*
X131Y1651D02*
X140Y1651D01*
X198Y1651D02*
X200Y1651D01*
X1042Y1651D02*
X1049Y1651D01*
X0Y1650D02*
X7Y1650D01*
X71Y1650D02*
X200Y1650D01*
X1042Y1650D02*
X1049Y1650D01*
X0Y1649D02*
X7Y1649D01*
X71Y1649D02*
X200Y1649D01*
X1042Y1649D02*
X1049Y1649D01*
X0Y1648D02*
X7Y1648D01*
X71Y1648D02*
X200Y1648D01*
X1042Y1648D02*
X1049Y1648D01*
X0Y1647D02*
X7Y1647D01*
X1042Y1647D02*
X1049Y1647D01*
X0Y1646D02*
X7Y1646D01*
X1042Y1646D02*
X1049Y1646D01*
X0Y1645D02*
X7Y1645D01*
X1042Y1645D02*
X1049Y1645D01*
X0Y1644D02*
X7Y1644D01*
X1042Y1644D02*
X1049Y1644D01*
X0Y1643D02*
X7Y1643D01*
X1042Y1643D02*
X1049Y1643D01*
X0Y1642D02*
X7Y1642D01*
X1042Y1642D02*
X1049Y1642D01*
X0Y1641D02*
X7Y1641D01*
X1042Y1641D02*
X1049Y1641D01*
X0Y1640D02*
X7Y1640D01*
X1042Y1640D02*
X1049Y1640D01*
X0Y1639D02*
X7Y1639D01*
X1042Y1639D02*
X1049Y1639D01*
X0Y1638D02*
X7Y1638D01*
X1042Y1638D02*
X1049Y1638D01*
X0Y1637D02*
X7Y1637D01*
X1042Y1637D02*
X1049Y1637D01*
X0Y1636D02*
X7Y1636D01*
X1042Y1636D02*
X1049Y1636D01*
X0Y1635D02*
X7Y1635D01*
X1042Y1635D02*
X1049Y1635D01*
X0Y1634D02*
X7Y1634D01*
X1042Y1634D02*
X1049Y1634D01*
X0Y1633D02*
X7Y1633D01*
X1042Y1633D02*
X1049Y1633D01*
X0Y1632D02*
X7Y1632D01*
X1042Y1632D02*
X1049Y1632D01*
X0Y1631D02*
X7Y1631D01*
X1042Y1631D02*
X1049Y1631D01*
X0Y1630D02*
X7Y1630D01*
X1042Y1630D02*
X1049Y1630D01*
X0Y1629D02*
X7Y1629D01*
X1042Y1629D02*
X1049Y1629D01*
X0Y1628D02*
X7Y1628D01*
X1042Y1628D02*
X1049Y1628D01*
X0Y1627D02*
X7Y1627D01*
X1042Y1627D02*
X1049Y1627D01*
X0Y1626D02*
X7Y1626D01*
X1042Y1626D02*
X1049Y1626D01*
X0Y1625D02*
X7Y1625D01*
X1042Y1625D02*
X1049Y1625D01*
X0Y1624D02*
X7Y1624D01*
X1042Y1624D02*
X1049Y1624D01*
X0Y1623D02*
X7Y1623D01*
X1042Y1623D02*
X1049Y1623D01*
X0Y1622D02*
X7Y1622D01*
X1042Y1622D02*
X1049Y1622D01*
X0Y1621D02*
X7Y1621D01*
X1042Y1621D02*
X1049Y1621D01*
X0Y1620D02*
X7Y1620D01*
X1042Y1620D02*
X1049Y1620D01*
X0Y1619D02*
X7Y1619D01*
X1042Y1619D02*
X1049Y1619D01*
X0Y1618D02*
X7Y1618D01*
X1042Y1618D02*
X1049Y1618D01*
X0Y1617D02*
X7Y1617D01*
X1042Y1617D02*
X1049Y1617D01*
X0Y1616D02*
X7Y1616D01*
X1042Y1616D02*
X1049Y1616D01*
X0Y1615D02*
X7Y1615D01*
X1042Y1615D02*
X1049Y1615D01*
X0Y1614D02*
X7Y1614D01*
X1042Y1614D02*
X1049Y1614D01*
X0Y1613D02*
X7Y1613D01*
X1042Y1613D02*
X1049Y1613D01*
X0Y1612D02*
X7Y1612D01*
X1042Y1612D02*
X1049Y1612D01*
X0Y1611D02*
X7Y1611D01*
X1042Y1611D02*
X1049Y1611D01*
X0Y1610D02*
X7Y1610D01*
X1042Y1610D02*
X1049Y1610D01*
X0Y1609D02*
X7Y1609D01*
X1042Y1609D02*
X1049Y1609D01*
X0Y1608D02*
X7Y1608D01*
X1042Y1608D02*
X1049Y1608D01*
X0Y1607D02*
X7Y1607D01*
X1042Y1607D02*
X1049Y1607D01*
X0Y1606D02*
X7Y1606D01*
X1042Y1606D02*
X1049Y1606D01*
X0Y1605D02*
X7Y1605D01*
X1042Y1605D02*
X1049Y1605D01*
X0Y1604D02*
X7Y1604D01*
X1042Y1604D02*
X1049Y1604D01*
X0Y1603D02*
X7Y1603D01*
X1042Y1603D02*
X1049Y1603D01*
X0Y1602D02*
X7Y1602D01*
X1042Y1602D02*
X1049Y1602D01*
X0Y1601D02*
X7Y1601D01*
X1042Y1601D02*
X1049Y1601D01*
X0Y1600D02*
X7Y1600D01*
X1042Y1600D02*
X1049Y1600D01*
X0Y1599D02*
X7Y1599D01*
X1042Y1599D02*
X1049Y1599D01*
X0Y1598D02*
X7Y1598D01*
X1042Y1598D02*
X1049Y1598D01*
X0Y1597D02*
X7Y1597D01*
X1042Y1597D02*
X1049Y1597D01*
X0Y1596D02*
X7Y1596D01*
X1042Y1596D02*
X1049Y1596D01*
X0Y1595D02*
X7Y1595D01*
X1042Y1595D02*
X1049Y1595D01*
X0Y1594D02*
X7Y1594D01*
X1042Y1594D02*
X1049Y1594D01*
X0Y1593D02*
X7Y1593D01*
X1042Y1593D02*
X1049Y1593D01*
X0Y1592D02*
X7Y1592D01*
X1042Y1592D02*
X1049Y1592D01*
X0Y1591D02*
X7Y1591D01*
X1042Y1591D02*
X1049Y1591D01*
X0Y1590D02*
X7Y1590D01*
X1042Y1590D02*
X1049Y1590D01*
X0Y1589D02*
X7Y1589D01*
X1042Y1589D02*
X1049Y1589D01*
X0Y1588D02*
X7Y1588D01*
X1042Y1588D02*
X1049Y1588D01*
X0Y1587D02*
X7Y1587D01*
X1042Y1587D02*
X1049Y1587D01*
X0Y1586D02*
X7Y1586D01*
X1042Y1586D02*
X1049Y1586D01*
X0Y1585D02*
X7Y1585D01*
X1042Y1585D02*
X1049Y1585D01*
X0Y1584D02*
X7Y1584D01*
X1042Y1584D02*
X1049Y1584D01*
X0Y1583D02*
X7Y1583D01*
X1042Y1583D02*
X1049Y1583D01*
X0Y1582D02*
X7Y1582D01*
X1042Y1582D02*
X1049Y1582D01*
X0Y1581D02*
X7Y1581D01*
X1042Y1581D02*
X1049Y1581D01*
X0Y1580D02*
X7Y1580D01*
X1042Y1580D02*
X1049Y1580D01*
X0Y1579D02*
X7Y1579D01*
X1042Y1579D02*
X1049Y1579D01*
X0Y1578D02*
X7Y1578D01*
X1042Y1578D02*
X1049Y1578D01*
X0Y1577D02*
X7Y1577D01*
X1042Y1577D02*
X1049Y1577D01*
X0Y1576D02*
X7Y1576D01*
X1042Y1576D02*
X1049Y1576D01*
X0Y1575D02*
X7Y1575D01*
X1042Y1575D02*
X1049Y1575D01*
X0Y1574D02*
X7Y1574D01*
X1042Y1574D02*
X1049Y1574D01*
X0Y1573D02*
X7Y1573D01*
X1042Y1573D02*
X1049Y1573D01*
X0Y1572D02*
X7Y1572D01*
X1042Y1572D02*
X1049Y1572D01*
X0Y1571D02*
X7Y1571D01*
X1042Y1571D02*
X1049Y1571D01*
X0Y1570D02*
X7Y1570D01*
X1042Y1570D02*
X1049Y1570D01*
X0Y1569D02*
X7Y1569D01*
X1042Y1569D02*
X1049Y1569D01*
X0Y1568D02*
X7Y1568D01*
X1042Y1568D02*
X1049Y1568D01*
X0Y1567D02*
X7Y1567D01*
X1042Y1567D02*
X1049Y1567D01*
X0Y1566D02*
X7Y1566D01*
X1042Y1566D02*
X1049Y1566D01*
X0Y1565D02*
X7Y1565D01*
X1042Y1565D02*
X1049Y1565D01*
X0Y1564D02*
X7Y1564D01*
X1042Y1564D02*
X1049Y1564D01*
X0Y1563D02*
X7Y1563D01*
X1042Y1563D02*
X1049Y1563D01*
X0Y1562D02*
X7Y1562D01*
X1042Y1562D02*
X1049Y1562D01*
X0Y1561D02*
X7Y1561D01*
X1042Y1561D02*
X1049Y1561D01*
X0Y1560D02*
X7Y1560D01*
X1042Y1560D02*
X1049Y1560D01*
X0Y1559D02*
X7Y1559D01*
X1042Y1559D02*
X1049Y1559D01*
X0Y1558D02*
X7Y1558D01*
X1042Y1558D02*
X1049Y1558D01*
X0Y1557D02*
X7Y1557D01*
X1042Y1557D02*
X1049Y1557D01*
X0Y1556D02*
X7Y1556D01*
X1042Y1556D02*
X1049Y1556D01*
X0Y1555D02*
X7Y1555D01*
X1042Y1555D02*
X1049Y1555D01*
X0Y1554D02*
X7Y1554D01*
X1042Y1554D02*
X1049Y1554D01*
X0Y1553D02*
X7Y1553D01*
X1042Y1553D02*
X1049Y1553D01*
X0Y1552D02*
X7Y1552D01*
X1042Y1552D02*
X1049Y1552D01*
X0Y1551D02*
X7Y1551D01*
X1042Y1551D02*
X1049Y1551D01*
X0Y1550D02*
X7Y1550D01*
X1042Y1550D02*
X1049Y1550D01*
X0Y1549D02*
X7Y1549D01*
X1042Y1549D02*
X1049Y1549D01*
X0Y1548D02*
X7Y1548D01*
X1042Y1548D02*
X1049Y1548D01*
X0Y1547D02*
X7Y1547D01*
X1042Y1547D02*
X1049Y1547D01*
X0Y1546D02*
X7Y1546D01*
X1042Y1546D02*
X1049Y1546D01*
X0Y1545D02*
X7Y1545D01*
X1042Y1545D02*
X1049Y1545D01*
X0Y1544D02*
X7Y1544D01*
X1042Y1544D02*
X1049Y1544D01*
X0Y1543D02*
X7Y1543D01*
X1042Y1543D02*
X1049Y1543D01*
X0Y1542D02*
X7Y1542D01*
X1042Y1542D02*
X1049Y1542D01*
X0Y1541D02*
X7Y1541D01*
X1042Y1541D02*
X1049Y1541D01*
X0Y1540D02*
X7Y1540D01*
X1042Y1540D02*
X1049Y1540D01*
X0Y1539D02*
X7Y1539D01*
X1042Y1539D02*
X1049Y1539D01*
X0Y1538D02*
X7Y1538D01*
X1042Y1538D02*
X1049Y1538D01*
X0Y1537D02*
X7Y1537D01*
X1042Y1537D02*
X1049Y1537D01*
X0Y1536D02*
X7Y1536D01*
X1042Y1536D02*
X1049Y1536D01*
X0Y1535D02*
X7Y1535D01*
X1042Y1535D02*
X1049Y1535D01*
X0Y1534D02*
X7Y1534D01*
X1042Y1534D02*
X1049Y1534D01*
X0Y1533D02*
X7Y1533D01*
X1042Y1533D02*
X1049Y1533D01*
X0Y1532D02*
X7Y1532D01*
X1042Y1532D02*
X1049Y1532D01*
X0Y1531D02*
X7Y1531D01*
X1042Y1531D02*
X1049Y1531D01*
X0Y1530D02*
X7Y1530D01*
X1042Y1530D02*
X1049Y1530D01*
X0Y1529D02*
X7Y1529D01*
X1042Y1529D02*
X1049Y1529D01*
X0Y1528D02*
X7Y1528D01*
X1042Y1528D02*
X1049Y1528D01*
X0Y1527D02*
X7Y1527D01*
X1042Y1527D02*
X1049Y1527D01*
X0Y1526D02*
X7Y1526D01*
X1042Y1526D02*
X1049Y1526D01*
X0Y1525D02*
X7Y1525D01*
X1042Y1525D02*
X1049Y1525D01*
X0Y1524D02*
X7Y1524D01*
X1042Y1524D02*
X1049Y1524D01*
X0Y1523D02*
X7Y1523D01*
X1042Y1523D02*
X1049Y1523D01*
X0Y1522D02*
X7Y1522D01*
X1042Y1522D02*
X1049Y1522D01*
X0Y1521D02*
X7Y1521D01*
X1042Y1521D02*
X1049Y1521D01*
X0Y1520D02*
X7Y1520D01*
X1042Y1520D02*
X1049Y1520D01*
X0Y1519D02*
X7Y1519D01*
X1042Y1519D02*
X1049Y1519D01*
X0Y1518D02*
X7Y1518D01*
X1042Y1518D02*
X1049Y1518D01*
X0Y1517D02*
X7Y1517D01*
X1042Y1517D02*
X1049Y1517D01*
X0Y1516D02*
X7Y1516D01*
X1042Y1516D02*
X1049Y1516D01*
X0Y1515D02*
X7Y1515D01*
X1042Y1515D02*
X1049Y1515D01*
X0Y1514D02*
X7Y1514D01*
X1042Y1514D02*
X1049Y1514D01*
X0Y1513D02*
X7Y1513D01*
X1042Y1513D02*
X1049Y1513D01*
X0Y1512D02*
X7Y1512D01*
X1042Y1512D02*
X1049Y1512D01*
X0Y1511D02*
X7Y1511D01*
X1042Y1511D02*
X1049Y1511D01*
X0Y1510D02*
X7Y1510D01*
X1042Y1510D02*
X1049Y1510D01*
X0Y1509D02*
X7Y1509D01*
X1042Y1509D02*
X1049Y1509D01*
X0Y1508D02*
X7Y1508D01*
X1042Y1508D02*
X1049Y1508D01*
X0Y1507D02*
X7Y1507D01*
X1042Y1507D02*
X1049Y1507D01*
X0Y1506D02*
X7Y1506D01*
X71Y1506D02*
X200Y1506D01*
X1042Y1506D02*
X1049Y1506D01*
X0Y1505D02*
X7Y1505D01*
X71Y1505D02*
X200Y1505D01*
X1042Y1505D02*
X1049Y1505D01*
X0Y1504D02*
X7Y1504D01*
X71Y1504D02*
X200Y1504D01*
X1042Y1504D02*
X1049Y1504D01*
X0Y1503D02*
X7Y1503D01*
X71Y1503D02*
X73Y1503D01*
X131Y1503D02*
X140Y1503D01*
X198Y1503D02*
X200Y1503D01*
X1042Y1503D02*
X1049Y1503D01*
X0Y1502D02*
X7Y1502D01*
X71Y1502D02*
X73Y1502D01*
X198Y1502D02*
X200Y1502D01*
X1042Y1502D02*
X1049Y1502D01*
X0Y1501D02*
X7Y1501D01*
X71Y1501D02*
X73Y1501D01*
X198Y1501D02*
X200Y1501D01*
X1042Y1501D02*
X1049Y1501D01*
X0Y1500D02*
X7Y1500D01*
X71Y1500D02*
X73Y1500D01*
X198Y1500D02*
X200Y1500D01*
X1042Y1500D02*
X1049Y1500D01*
X0Y1499D02*
X7Y1499D01*
X71Y1499D02*
X73Y1499D01*
X198Y1499D02*
X200Y1499D01*
X1042Y1499D02*
X1049Y1499D01*
X0Y1498D02*
X7Y1498D01*
X71Y1498D02*
X73Y1498D01*
X198Y1498D02*
X200Y1498D01*
X1042Y1498D02*
X1049Y1498D01*
X0Y1497D02*
X7Y1497D01*
X71Y1497D02*
X73Y1497D01*
X198Y1497D02*
X200Y1497D01*
X1042Y1497D02*
X1049Y1497D01*
X0Y1496D02*
X7Y1496D01*
X71Y1496D02*
X73Y1496D01*
X198Y1496D02*
X200Y1496D01*
X1042Y1496D02*
X1049Y1496D01*
X0Y1495D02*
X7Y1495D01*
X71Y1495D02*
X73Y1495D01*
X198Y1495D02*
X200Y1495D01*
X1042Y1495D02*
X1049Y1495D01*
X0Y1494D02*
X7Y1494D01*
X71Y1494D02*
X73Y1494D01*
X198Y1494D02*
X200Y1494D01*
X1042Y1494D02*
X1049Y1494D01*
X0Y1493D02*
X7Y1493D01*
X71Y1493D02*
X73Y1493D01*
X198Y1493D02*
X200Y1493D01*
X1042Y1493D02*
X1049Y1493D01*
X0Y1492D02*
X7Y1492D01*
X71Y1492D02*
X73Y1492D01*
X198Y1492D02*
X200Y1492D01*
X1042Y1492D02*
X1049Y1492D01*
X0Y1491D02*
X7Y1491D01*
X71Y1491D02*
X73Y1491D01*
X198Y1491D02*
X200Y1491D01*
X1042Y1491D02*
X1049Y1491D01*
X0Y1490D02*
X7Y1490D01*
X71Y1490D02*
X73Y1490D01*
X198Y1490D02*
X200Y1490D01*
X1042Y1490D02*
X1049Y1490D01*
X0Y1489D02*
X7Y1489D01*
X71Y1489D02*
X73Y1489D01*
X198Y1489D02*
X200Y1489D01*
X1042Y1489D02*
X1049Y1489D01*
X0Y1488D02*
X7Y1488D01*
X71Y1488D02*
X73Y1488D01*
X198Y1488D02*
X200Y1488D01*
X1042Y1488D02*
X1049Y1488D01*
X0Y1487D02*
X7Y1487D01*
X71Y1487D02*
X73Y1487D01*
X198Y1487D02*
X200Y1487D01*
X1042Y1487D02*
X1049Y1487D01*
X0Y1486D02*
X7Y1486D01*
X71Y1486D02*
X73Y1486D01*
X198Y1486D02*
X200Y1486D01*
X1042Y1486D02*
X1049Y1486D01*
X0Y1485D02*
X7Y1485D01*
X71Y1485D02*
X73Y1485D01*
X198Y1485D02*
X200Y1485D01*
X1042Y1485D02*
X1049Y1485D01*
X0Y1484D02*
X7Y1484D01*
X71Y1484D02*
X73Y1484D01*
X198Y1484D02*
X200Y1484D01*
X1042Y1484D02*
X1049Y1484D01*
X0Y1483D02*
X7Y1483D01*
X71Y1483D02*
X73Y1483D01*
X198Y1483D02*
X200Y1483D01*
X1042Y1483D02*
X1049Y1483D01*
X0Y1482D02*
X7Y1482D01*
X71Y1482D02*
X73Y1482D01*
X198Y1482D02*
X200Y1482D01*
X1042Y1482D02*
X1049Y1482D01*
X0Y1481D02*
X7Y1481D01*
X71Y1481D02*
X73Y1481D01*
X198Y1481D02*
X200Y1481D01*
X1042Y1481D02*
X1049Y1481D01*
X0Y1480D02*
X7Y1480D01*
X71Y1480D02*
X73Y1480D01*
X198Y1480D02*
X200Y1480D01*
X1042Y1480D02*
X1049Y1480D01*
X0Y1479D02*
X7Y1479D01*
X71Y1479D02*
X73Y1479D01*
X198Y1479D02*
X200Y1479D01*
X1042Y1479D02*
X1049Y1479D01*
X0Y1478D02*
X7Y1478D01*
X71Y1478D02*
X73Y1478D01*
X198Y1478D02*
X200Y1478D01*
X1042Y1478D02*
X1049Y1478D01*
X0Y1477D02*
X7Y1477D01*
X71Y1477D02*
X73Y1477D01*
X198Y1477D02*
X200Y1477D01*
X1042Y1477D02*
X1049Y1477D01*
X0Y1476D02*
X7Y1476D01*
X71Y1476D02*
X73Y1476D01*
X198Y1476D02*
X200Y1476D01*
X1042Y1476D02*
X1049Y1476D01*
X0Y1475D02*
X7Y1475D01*
X71Y1475D02*
X73Y1475D01*
X198Y1475D02*
X200Y1475D01*
X1042Y1475D02*
X1049Y1475D01*
X0Y1474D02*
X7Y1474D01*
X71Y1474D02*
X73Y1474D01*
X198Y1474D02*
X200Y1474D01*
X1042Y1474D02*
X1049Y1474D01*
X0Y1473D02*
X7Y1473D01*
X71Y1473D02*
X73Y1473D01*
X198Y1473D02*
X200Y1473D01*
X1042Y1473D02*
X1049Y1473D01*
X0Y1472D02*
X7Y1472D01*
X71Y1472D02*
X73Y1472D01*
X198Y1472D02*
X200Y1472D01*
X1042Y1472D02*
X1049Y1472D01*
X0Y1471D02*
X7Y1471D01*
X71Y1471D02*
X73Y1471D01*
X198Y1471D02*
X200Y1471D01*
X1042Y1471D02*
X1049Y1471D01*
X0Y1470D02*
X7Y1470D01*
X71Y1470D02*
X73Y1470D01*
X198Y1470D02*
X200Y1470D01*
X1042Y1470D02*
X1049Y1470D01*
X0Y1469D02*
X7Y1469D01*
X71Y1469D02*
X73Y1469D01*
X198Y1469D02*
X200Y1469D01*
X1042Y1469D02*
X1049Y1469D01*
X0Y1468D02*
X7Y1468D01*
X71Y1468D02*
X73Y1468D01*
X198Y1468D02*
X200Y1468D01*
X1042Y1468D02*
X1049Y1468D01*
X0Y1467D02*
X7Y1467D01*
X71Y1467D02*
X73Y1467D01*
X198Y1467D02*
X200Y1467D01*
X1042Y1467D02*
X1049Y1467D01*
X0Y1466D02*
X7Y1466D01*
X71Y1466D02*
X73Y1466D01*
X198Y1466D02*
X200Y1466D01*
X1042Y1466D02*
X1049Y1466D01*
X0Y1465D02*
X7Y1465D01*
X71Y1465D02*
X73Y1465D01*
X198Y1465D02*
X200Y1465D01*
X1042Y1465D02*
X1049Y1465D01*
X0Y1464D02*
X7Y1464D01*
X71Y1464D02*
X73Y1464D01*
X198Y1464D02*
X200Y1464D01*
X1042Y1464D02*
X1049Y1464D01*
X0Y1463D02*
X7Y1463D01*
X71Y1463D02*
X73Y1463D01*
X198Y1463D02*
X200Y1463D01*
X1042Y1463D02*
X1049Y1463D01*
X0Y1462D02*
X7Y1462D01*
X71Y1462D02*
X73Y1462D01*
X198Y1462D02*
X200Y1462D01*
X1042Y1462D02*
X1049Y1462D01*
X0Y1461D02*
X7Y1461D01*
X71Y1461D02*
X73Y1461D01*
X198Y1461D02*
X200Y1461D01*
X1042Y1461D02*
X1049Y1461D01*
X0Y1460D02*
X7Y1460D01*
X71Y1460D02*
X73Y1460D01*
X198Y1460D02*
X200Y1460D01*
X1042Y1460D02*
X1049Y1460D01*
X0Y1459D02*
X7Y1459D01*
X71Y1459D02*
X73Y1459D01*
X198Y1459D02*
X200Y1459D01*
X1042Y1459D02*
X1049Y1459D01*
X0Y1458D02*
X7Y1458D01*
X71Y1458D02*
X73Y1458D01*
X198Y1458D02*
X200Y1458D01*
X1042Y1458D02*
X1049Y1458D01*
X0Y1457D02*
X7Y1457D01*
X71Y1457D02*
X73Y1457D01*
X198Y1457D02*
X200Y1457D01*
X1042Y1457D02*
X1049Y1457D01*
X0Y1456D02*
X7Y1456D01*
X71Y1456D02*
X73Y1456D01*
X198Y1456D02*
X200Y1456D01*
X1042Y1456D02*
X1049Y1456D01*
X0Y1455D02*
X7Y1455D01*
X71Y1455D02*
X73Y1455D01*
X198Y1455D02*
X200Y1455D01*
X1042Y1455D02*
X1049Y1455D01*
X0Y1454D02*
X7Y1454D01*
X71Y1454D02*
X73Y1454D01*
X198Y1454D02*
X200Y1454D01*
X1042Y1454D02*
X1049Y1454D01*
X0Y1453D02*
X7Y1453D01*
X71Y1453D02*
X73Y1453D01*
X198Y1453D02*
X200Y1453D01*
X1042Y1453D02*
X1049Y1453D01*
X0Y1452D02*
X7Y1452D01*
X71Y1452D02*
X73Y1452D01*
X198Y1452D02*
X200Y1452D01*
X1042Y1452D02*
X1049Y1452D01*
X0Y1451D02*
X7Y1451D01*
X71Y1451D02*
X73Y1451D01*
X131Y1451D02*
X140Y1451D01*
X198Y1451D02*
X200Y1451D01*
X1042Y1451D02*
X1049Y1451D01*
X0Y1450D02*
X7Y1450D01*
X71Y1450D02*
X200Y1450D01*
X1042Y1450D02*
X1049Y1450D01*
X0Y1449D02*
X7Y1449D01*
X71Y1449D02*
X200Y1449D01*
X1042Y1449D02*
X1049Y1449D01*
X0Y1448D02*
X7Y1448D01*
X71Y1448D02*
X200Y1448D01*
X1042Y1448D02*
X1049Y1448D01*
X0Y1447D02*
X7Y1447D01*
X1042Y1447D02*
X1049Y1447D01*
X0Y1446D02*
X7Y1446D01*
X1042Y1446D02*
X1049Y1446D01*
X0Y1445D02*
X7Y1445D01*
X1042Y1445D02*
X1049Y1445D01*
X0Y1444D02*
X7Y1444D01*
X1042Y1444D02*
X1049Y1444D01*
X0Y1443D02*
X7Y1443D01*
X1042Y1443D02*
X1049Y1443D01*
X0Y1442D02*
X7Y1442D01*
X1042Y1442D02*
X1049Y1442D01*
X0Y1441D02*
X7Y1441D01*
X1042Y1441D02*
X1049Y1441D01*
X0Y1440D02*
X7Y1440D01*
X1042Y1440D02*
X1049Y1440D01*
X0Y1439D02*
X7Y1439D01*
X1042Y1439D02*
X1049Y1439D01*
X0Y1438D02*
X7Y1438D01*
X1042Y1438D02*
X1049Y1438D01*
X0Y1437D02*
X7Y1437D01*
X1042Y1437D02*
X1049Y1437D01*
X0Y1436D02*
X7Y1436D01*
X1042Y1436D02*
X1049Y1436D01*
X0Y1435D02*
X7Y1435D01*
X1042Y1435D02*
X1049Y1435D01*
X0Y1434D02*
X7Y1434D01*
X1042Y1434D02*
X1049Y1434D01*
X0Y1433D02*
X7Y1433D01*
X1042Y1433D02*
X1049Y1433D01*
X0Y1432D02*
X7Y1432D01*
X1042Y1432D02*
X1049Y1432D01*
X0Y1431D02*
X7Y1431D01*
X1042Y1431D02*
X1049Y1431D01*
X0Y1430D02*
X7Y1430D01*
X1042Y1430D02*
X1049Y1430D01*
X0Y1429D02*
X7Y1429D01*
X1042Y1429D02*
X1049Y1429D01*
X0Y1428D02*
X7Y1428D01*
X1042Y1428D02*
X1049Y1428D01*
X0Y1427D02*
X7Y1427D01*
X1042Y1427D02*
X1049Y1427D01*
X0Y1426D02*
X7Y1426D01*
X1042Y1426D02*
X1049Y1426D01*
X0Y1425D02*
X7Y1425D01*
X1042Y1425D02*
X1049Y1425D01*
X0Y1424D02*
X7Y1424D01*
X1042Y1424D02*
X1049Y1424D01*
X0Y1423D02*
X7Y1423D01*
X1042Y1423D02*
X1049Y1423D01*
X0Y1422D02*
X7Y1422D01*
X1042Y1422D02*
X1049Y1422D01*
X0Y1421D02*
X7Y1421D01*
X1042Y1421D02*
X1049Y1421D01*
X0Y1420D02*
X7Y1420D01*
X1042Y1420D02*
X1049Y1420D01*
X0Y1419D02*
X7Y1419D01*
X1042Y1419D02*
X1049Y1419D01*
X0Y1418D02*
X7Y1418D01*
X1042Y1418D02*
X1049Y1418D01*
X0Y1417D02*
X7Y1417D01*
X1042Y1417D02*
X1049Y1417D01*
X0Y1416D02*
X7Y1416D01*
X1042Y1416D02*
X1049Y1416D01*
X0Y1415D02*
X7Y1415D01*
X1042Y1415D02*
X1049Y1415D01*
X0Y1414D02*
X7Y1414D01*
X1042Y1414D02*
X1049Y1414D01*
X0Y1413D02*
X7Y1413D01*
X1042Y1413D02*
X1049Y1413D01*
X0Y1412D02*
X7Y1412D01*
X1042Y1412D02*
X1049Y1412D01*
X0Y1411D02*
X7Y1411D01*
X1042Y1411D02*
X1049Y1411D01*
X0Y1410D02*
X7Y1410D01*
X1042Y1410D02*
X1049Y1410D01*
X0Y1409D02*
X7Y1409D01*
X1042Y1409D02*
X1049Y1409D01*
X0Y1408D02*
X7Y1408D01*
X1042Y1408D02*
X1049Y1408D01*
X0Y1407D02*
X7Y1407D01*
X1042Y1407D02*
X1049Y1407D01*
X0Y1406D02*
X7Y1406D01*
X1042Y1406D02*
X1049Y1406D01*
X0Y1405D02*
X7Y1405D01*
X1042Y1405D02*
X1049Y1405D01*
X0Y1404D02*
X7Y1404D01*
X1042Y1404D02*
X1049Y1404D01*
X0Y1403D02*
X7Y1403D01*
X1042Y1403D02*
X1049Y1403D01*
X0Y1402D02*
X7Y1402D01*
X1042Y1402D02*
X1049Y1402D01*
X0Y1401D02*
X7Y1401D01*
X1042Y1401D02*
X1049Y1401D01*
X0Y1400D02*
X7Y1400D01*
X1042Y1400D02*
X1049Y1400D01*
X0Y1399D02*
X7Y1399D01*
X1042Y1399D02*
X1049Y1399D01*
X0Y1398D02*
X7Y1398D01*
X1042Y1398D02*
X1049Y1398D01*
X0Y1397D02*
X7Y1397D01*
X1042Y1397D02*
X1049Y1397D01*
X0Y1396D02*
X7Y1396D01*
X1042Y1396D02*
X1049Y1396D01*
X0Y1395D02*
X7Y1395D01*
X1042Y1395D02*
X1049Y1395D01*
X0Y1394D02*
X7Y1394D01*
X1042Y1394D02*
X1049Y1394D01*
X0Y1393D02*
X7Y1393D01*
X1042Y1393D02*
X1049Y1393D01*
X0Y1392D02*
X7Y1392D01*
X1042Y1392D02*
X1049Y1392D01*
X0Y1391D02*
X7Y1391D01*
X1042Y1391D02*
X1049Y1391D01*
X0Y1390D02*
X7Y1390D01*
X1042Y1390D02*
X1049Y1390D01*
X0Y1389D02*
X7Y1389D01*
X1042Y1389D02*
X1049Y1389D01*
X0Y1388D02*
X7Y1388D01*
X1042Y1388D02*
X1049Y1388D01*
X0Y1387D02*
X7Y1387D01*
X1042Y1387D02*
X1049Y1387D01*
X0Y1386D02*
X7Y1386D01*
X1042Y1386D02*
X1049Y1386D01*
X0Y1385D02*
X7Y1385D01*
X1042Y1385D02*
X1049Y1385D01*
X0Y1384D02*
X7Y1384D01*
X1042Y1384D02*
X1049Y1384D01*
X0Y1383D02*
X7Y1383D01*
X1042Y1383D02*
X1049Y1383D01*
X0Y1382D02*
X7Y1382D01*
X1042Y1382D02*
X1049Y1382D01*
X0Y1381D02*
X7Y1381D01*
X1042Y1381D02*
X1049Y1381D01*
X0Y1380D02*
X7Y1380D01*
X1042Y1380D02*
X1049Y1380D01*
X0Y1379D02*
X7Y1379D01*
X1042Y1379D02*
X1049Y1379D01*
X0Y1378D02*
X7Y1378D01*
X1042Y1378D02*
X1049Y1378D01*
X0Y1377D02*
X7Y1377D01*
X1042Y1377D02*
X1049Y1377D01*
X0Y1376D02*
X7Y1376D01*
X1042Y1376D02*
X1049Y1376D01*
X0Y1375D02*
X7Y1375D01*
X1042Y1375D02*
X1049Y1375D01*
X0Y1374D02*
X7Y1374D01*
X1042Y1374D02*
X1049Y1374D01*
X0Y1373D02*
X7Y1373D01*
X1042Y1373D02*
X1049Y1373D01*
X0Y1372D02*
X7Y1372D01*
X1042Y1372D02*
X1049Y1372D01*
X0Y1371D02*
X7Y1371D01*
X1042Y1371D02*
X1049Y1371D01*
X0Y1370D02*
X7Y1370D01*
X1042Y1370D02*
X1049Y1370D01*
X0Y1369D02*
X7Y1369D01*
X1042Y1369D02*
X1049Y1369D01*
X0Y1368D02*
X7Y1368D01*
X1042Y1368D02*
X1049Y1368D01*
X0Y1367D02*
X7Y1367D01*
X1042Y1367D02*
X1049Y1367D01*
X0Y1366D02*
X7Y1366D01*
X1042Y1366D02*
X1049Y1366D01*
X0Y1365D02*
X7Y1365D01*
X1042Y1365D02*
X1049Y1365D01*
X0Y1364D02*
X7Y1364D01*
X1042Y1364D02*
X1049Y1364D01*
X0Y1363D02*
X7Y1363D01*
X1042Y1363D02*
X1049Y1363D01*
X0Y1362D02*
X7Y1362D01*
X1042Y1362D02*
X1049Y1362D01*
X0Y1361D02*
X7Y1361D01*
X1042Y1361D02*
X1049Y1361D01*
X0Y1360D02*
X7Y1360D01*
X1042Y1360D02*
X1049Y1360D01*
X0Y1359D02*
X7Y1359D01*
X1042Y1359D02*
X1049Y1359D01*
X0Y1358D02*
X7Y1358D01*
X1042Y1358D02*
X1049Y1358D01*
X0Y1357D02*
X7Y1357D01*
X1042Y1357D02*
X1049Y1357D01*
X0Y1356D02*
X7Y1356D01*
X1042Y1356D02*
X1049Y1356D01*
X0Y1355D02*
X7Y1355D01*
X1042Y1355D02*
X1049Y1355D01*
X0Y1354D02*
X7Y1354D01*
X1042Y1354D02*
X1049Y1354D01*
X0Y1353D02*
X7Y1353D01*
X1042Y1353D02*
X1049Y1353D01*
X0Y1352D02*
X7Y1352D01*
X1042Y1352D02*
X1049Y1352D01*
X0Y1351D02*
X7Y1351D01*
X1042Y1351D02*
X1049Y1351D01*
X0Y1350D02*
X7Y1350D01*
X1042Y1350D02*
X1049Y1350D01*
X0Y1349D02*
X7Y1349D01*
X1042Y1349D02*
X1049Y1349D01*
X0Y1348D02*
X7Y1348D01*
X1042Y1348D02*
X1049Y1348D01*
X0Y1347D02*
X7Y1347D01*
X1042Y1347D02*
X1049Y1347D01*
X0Y1346D02*
X7Y1346D01*
X1042Y1346D02*
X1049Y1346D01*
X0Y1345D02*
X7Y1345D01*
X1042Y1345D02*
X1049Y1345D01*
X0Y1344D02*
X7Y1344D01*
X1042Y1344D02*
X1049Y1344D01*
X0Y1343D02*
X7Y1343D01*
X1042Y1343D02*
X1049Y1343D01*
X0Y1342D02*
X7Y1342D01*
X1042Y1342D02*
X1049Y1342D01*
X0Y1341D02*
X7Y1341D01*
X1042Y1341D02*
X1049Y1341D01*
X0Y1340D02*
X7Y1340D01*
X1042Y1340D02*
X1049Y1340D01*
X0Y1339D02*
X7Y1339D01*
X1042Y1339D02*
X1049Y1339D01*
X0Y1338D02*
X7Y1338D01*
X1042Y1338D02*
X1049Y1338D01*
X0Y1337D02*
X7Y1337D01*
X1042Y1337D02*
X1049Y1337D01*
X0Y1336D02*
X7Y1336D01*
X1042Y1336D02*
X1049Y1336D01*
X0Y1335D02*
X7Y1335D01*
X1042Y1335D02*
X1049Y1335D01*
X0Y1334D02*
X7Y1334D01*
X1042Y1334D02*
X1049Y1334D01*
X0Y1333D02*
X7Y1333D01*
X1042Y1333D02*
X1049Y1333D01*
X0Y1332D02*
X7Y1332D01*
X1042Y1332D02*
X1049Y1332D01*
X0Y1331D02*
X7Y1331D01*
X1042Y1331D02*
X1049Y1331D01*
X0Y1330D02*
X7Y1330D01*
X1042Y1330D02*
X1049Y1330D01*
X0Y1329D02*
X7Y1329D01*
X1042Y1329D02*
X1049Y1329D01*
X0Y1328D02*
X7Y1328D01*
X1042Y1328D02*
X1049Y1328D01*
X0Y1327D02*
X7Y1327D01*
X1042Y1327D02*
X1049Y1327D01*
X0Y1326D02*
X7Y1326D01*
X1042Y1326D02*
X1049Y1326D01*
X0Y1325D02*
X7Y1325D01*
X1042Y1325D02*
X1049Y1325D01*
X0Y1324D02*
X7Y1324D01*
X1042Y1324D02*
X1049Y1324D01*
X0Y1323D02*
X7Y1323D01*
X1042Y1323D02*
X1049Y1323D01*
X0Y1322D02*
X7Y1322D01*
X1042Y1322D02*
X1049Y1322D01*
X0Y1321D02*
X7Y1321D01*
X1042Y1321D02*
X1049Y1321D01*
X0Y1320D02*
X7Y1320D01*
X1042Y1320D02*
X1049Y1320D01*
X0Y1319D02*
X7Y1319D01*
X1042Y1319D02*
X1049Y1319D01*
X0Y1318D02*
X7Y1318D01*
X1042Y1318D02*
X1049Y1318D01*
X0Y1317D02*
X7Y1317D01*
X1042Y1317D02*
X1049Y1317D01*
X0Y1316D02*
X7Y1316D01*
X1042Y1316D02*
X1049Y1316D01*
X0Y1315D02*
X7Y1315D01*
X1042Y1315D02*
X1049Y1315D01*
X0Y1314D02*
X7Y1314D01*
X1042Y1314D02*
X1049Y1314D01*
X0Y1313D02*
X7Y1313D01*
X1042Y1313D02*
X1049Y1313D01*
X0Y1312D02*
X7Y1312D01*
X1042Y1312D02*
X1049Y1312D01*
X0Y1311D02*
X7Y1311D01*
X1042Y1311D02*
X1049Y1311D01*
X0Y1310D02*
X7Y1310D01*
X1042Y1310D02*
X1049Y1310D01*
X0Y1309D02*
X7Y1309D01*
X1042Y1309D02*
X1049Y1309D01*
X0Y1308D02*
X7Y1308D01*
X1042Y1308D02*
X1049Y1308D01*
X0Y1307D02*
X7Y1307D01*
X1042Y1307D02*
X1049Y1307D01*
X0Y1306D02*
X7Y1306D01*
X38Y1306D02*
X167Y1306D01*
X1042Y1306D02*
X1049Y1306D01*
X0Y1305D02*
X7Y1305D01*
X38Y1305D02*
X167Y1305D01*
X1042Y1305D02*
X1049Y1305D01*
X0Y1304D02*
X7Y1304D01*
X38Y1304D02*
X40Y1304D01*
X98Y1304D02*
X107Y1304D01*
X165Y1304D02*
X167Y1304D01*
X1042Y1304D02*
X1049Y1304D01*
X0Y1303D02*
X7Y1303D01*
X38Y1303D02*
X40Y1303D01*
X98Y1303D02*
X107Y1303D01*
X165Y1303D02*
X167Y1303D01*
X1042Y1303D02*
X1049Y1303D01*
X0Y1302D02*
X7Y1302D01*
X38Y1302D02*
X40Y1302D01*
X165Y1302D02*
X167Y1302D01*
X1042Y1302D02*
X1049Y1302D01*
X0Y1301D02*
X7Y1301D01*
X38Y1301D02*
X40Y1301D01*
X165Y1301D02*
X167Y1301D01*
X1042Y1301D02*
X1049Y1301D01*
X0Y1300D02*
X7Y1300D01*
X38Y1300D02*
X40Y1300D01*
X165Y1300D02*
X167Y1300D01*
X1042Y1300D02*
X1049Y1300D01*
X0Y1299D02*
X7Y1299D01*
X38Y1299D02*
X40Y1299D01*
X165Y1299D02*
X167Y1299D01*
X1042Y1299D02*
X1049Y1299D01*
X0Y1298D02*
X7Y1298D01*
X38Y1298D02*
X40Y1298D01*
X165Y1298D02*
X167Y1298D01*
X1042Y1298D02*
X1049Y1298D01*
X0Y1297D02*
X7Y1297D01*
X38Y1297D02*
X40Y1297D01*
X165Y1297D02*
X167Y1297D01*
X1042Y1297D02*
X1049Y1297D01*
X0Y1296D02*
X7Y1296D01*
X38Y1296D02*
X40Y1296D01*
X165Y1296D02*
X167Y1296D01*
X1042Y1296D02*
X1049Y1296D01*
X0Y1295D02*
X7Y1295D01*
X38Y1295D02*
X40Y1295D01*
X165Y1295D02*
X167Y1295D01*
X1042Y1295D02*
X1049Y1295D01*
X0Y1294D02*
X7Y1294D01*
X38Y1294D02*
X40Y1294D01*
X165Y1294D02*
X167Y1294D01*
X1042Y1294D02*
X1049Y1294D01*
X0Y1293D02*
X7Y1293D01*
X38Y1293D02*
X40Y1293D01*
X165Y1293D02*
X167Y1293D01*
X1042Y1293D02*
X1049Y1293D01*
X0Y1292D02*
X7Y1292D01*
X38Y1292D02*
X40Y1292D01*
X165Y1292D02*
X167Y1292D01*
X1042Y1292D02*
X1049Y1292D01*
X0Y1291D02*
X7Y1291D01*
X38Y1291D02*
X40Y1291D01*
X165Y1291D02*
X167Y1291D01*
X1042Y1291D02*
X1049Y1291D01*
X0Y1290D02*
X7Y1290D01*
X38Y1290D02*
X40Y1290D01*
X165Y1290D02*
X167Y1290D01*
X1042Y1290D02*
X1049Y1290D01*
X0Y1289D02*
X7Y1289D01*
X38Y1289D02*
X40Y1289D01*
X165Y1289D02*
X167Y1289D01*
X1042Y1289D02*
X1049Y1289D01*
X0Y1288D02*
X7Y1288D01*
X38Y1288D02*
X40Y1288D01*
X165Y1288D02*
X167Y1288D01*
X1042Y1288D02*
X1049Y1288D01*
X0Y1287D02*
X7Y1287D01*
X38Y1287D02*
X40Y1287D01*
X165Y1287D02*
X167Y1287D01*
X1042Y1287D02*
X1049Y1287D01*
X0Y1286D02*
X7Y1286D01*
X38Y1286D02*
X40Y1286D01*
X165Y1286D02*
X167Y1286D01*
X1042Y1286D02*
X1049Y1286D01*
X0Y1285D02*
X7Y1285D01*
X38Y1285D02*
X40Y1285D01*
X165Y1285D02*
X167Y1285D01*
X1042Y1285D02*
X1049Y1285D01*
X0Y1284D02*
X7Y1284D01*
X38Y1284D02*
X40Y1284D01*
X165Y1284D02*
X167Y1284D01*
X1042Y1284D02*
X1049Y1284D01*
X0Y1283D02*
X7Y1283D01*
X38Y1283D02*
X40Y1283D01*
X165Y1283D02*
X167Y1283D01*
X1042Y1283D02*
X1049Y1283D01*
X0Y1282D02*
X7Y1282D01*
X38Y1282D02*
X40Y1282D01*
X165Y1282D02*
X167Y1282D01*
X1042Y1282D02*
X1049Y1282D01*
X0Y1281D02*
X7Y1281D01*
X38Y1281D02*
X40Y1281D01*
X165Y1281D02*
X167Y1281D01*
X1042Y1281D02*
X1049Y1281D01*
X0Y1280D02*
X7Y1280D01*
X38Y1280D02*
X40Y1280D01*
X165Y1280D02*
X167Y1280D01*
X1042Y1280D02*
X1049Y1280D01*
X0Y1279D02*
X7Y1279D01*
X38Y1279D02*
X40Y1279D01*
X165Y1279D02*
X167Y1279D01*
X1042Y1279D02*
X1049Y1279D01*
X0Y1278D02*
X7Y1278D01*
X38Y1278D02*
X40Y1278D01*
X165Y1278D02*
X167Y1278D01*
X1042Y1278D02*
X1049Y1278D01*
X0Y1277D02*
X7Y1277D01*
X38Y1277D02*
X40Y1277D01*
X165Y1277D02*
X167Y1277D01*
X1042Y1277D02*
X1049Y1277D01*
X0Y1276D02*
X7Y1276D01*
X38Y1276D02*
X40Y1276D01*
X165Y1276D02*
X167Y1276D01*
X1042Y1276D02*
X1049Y1276D01*
X0Y1275D02*
X7Y1275D01*
X38Y1275D02*
X40Y1275D01*
X165Y1275D02*
X167Y1275D01*
X1042Y1275D02*
X1049Y1275D01*
X0Y1274D02*
X7Y1274D01*
X38Y1274D02*
X40Y1274D01*
X165Y1274D02*
X167Y1274D01*
X1042Y1274D02*
X1049Y1274D01*
X0Y1273D02*
X7Y1273D01*
X38Y1273D02*
X40Y1273D01*
X165Y1273D02*
X167Y1273D01*
X1042Y1273D02*
X1049Y1273D01*
X0Y1272D02*
X7Y1272D01*
X38Y1272D02*
X40Y1272D01*
X165Y1272D02*
X167Y1272D01*
X1042Y1272D02*
X1049Y1272D01*
X0Y1271D02*
X7Y1271D01*
X38Y1271D02*
X40Y1271D01*
X165Y1271D02*
X167Y1271D01*
X1042Y1271D02*
X1049Y1271D01*
X0Y1270D02*
X7Y1270D01*
X38Y1270D02*
X40Y1270D01*
X165Y1270D02*
X167Y1270D01*
X1042Y1270D02*
X1049Y1270D01*
X0Y1269D02*
X7Y1269D01*
X38Y1269D02*
X40Y1269D01*
X165Y1269D02*
X167Y1269D01*
X1042Y1269D02*
X1049Y1269D01*
X0Y1268D02*
X7Y1268D01*
X38Y1268D02*
X40Y1268D01*
X165Y1268D02*
X167Y1268D01*
X1042Y1268D02*
X1049Y1268D01*
X0Y1267D02*
X7Y1267D01*
X38Y1267D02*
X40Y1267D01*
X165Y1267D02*
X167Y1267D01*
X1042Y1267D02*
X1049Y1267D01*
X0Y1266D02*
X7Y1266D01*
X38Y1266D02*
X40Y1266D01*
X165Y1266D02*
X167Y1266D01*
X1042Y1266D02*
X1049Y1266D01*
X0Y1265D02*
X7Y1265D01*
X38Y1265D02*
X40Y1265D01*
X165Y1265D02*
X167Y1265D01*
X1042Y1265D02*
X1049Y1265D01*
X0Y1264D02*
X7Y1264D01*
X38Y1264D02*
X40Y1264D01*
X165Y1264D02*
X167Y1264D01*
X1042Y1264D02*
X1049Y1264D01*
X0Y1263D02*
X7Y1263D01*
X38Y1263D02*
X40Y1263D01*
X165Y1263D02*
X167Y1263D01*
X1042Y1263D02*
X1049Y1263D01*
X0Y1262D02*
X7Y1262D01*
X38Y1262D02*
X40Y1262D01*
X165Y1262D02*
X167Y1262D01*
X1042Y1262D02*
X1049Y1262D01*
X0Y1261D02*
X7Y1261D01*
X38Y1261D02*
X40Y1261D01*
X165Y1261D02*
X167Y1261D01*
X1042Y1261D02*
X1049Y1261D01*
X0Y1260D02*
X7Y1260D01*
X38Y1260D02*
X40Y1260D01*
X165Y1260D02*
X167Y1260D01*
X1042Y1260D02*
X1049Y1260D01*
X0Y1259D02*
X7Y1259D01*
X38Y1259D02*
X40Y1259D01*
X165Y1259D02*
X167Y1259D01*
X1042Y1259D02*
X1049Y1259D01*
X0Y1258D02*
X7Y1258D01*
X38Y1258D02*
X40Y1258D01*
X165Y1258D02*
X167Y1258D01*
X1042Y1258D02*
X1049Y1258D01*
X0Y1257D02*
X7Y1257D01*
X38Y1257D02*
X40Y1257D01*
X165Y1257D02*
X167Y1257D01*
X1042Y1257D02*
X1049Y1257D01*
X0Y1256D02*
X7Y1256D01*
X38Y1256D02*
X40Y1256D01*
X165Y1256D02*
X167Y1256D01*
X1042Y1256D02*
X1049Y1256D01*
X0Y1255D02*
X7Y1255D01*
X38Y1255D02*
X40Y1255D01*
X165Y1255D02*
X167Y1255D01*
X1042Y1255D02*
X1049Y1255D01*
X0Y1254D02*
X7Y1254D01*
X38Y1254D02*
X40Y1254D01*
X165Y1254D02*
X167Y1254D01*
X1042Y1254D02*
X1049Y1254D01*
X0Y1253D02*
X7Y1253D01*
X38Y1253D02*
X40Y1253D01*
X165Y1253D02*
X167Y1253D01*
X1042Y1253D02*
X1049Y1253D01*
X0Y1252D02*
X7Y1252D01*
X38Y1252D02*
X40Y1252D01*
X165Y1252D02*
X167Y1252D01*
X1042Y1252D02*
X1049Y1252D01*
X0Y1251D02*
X7Y1251D01*
X38Y1251D02*
X40Y1251D01*
X98Y1251D02*
X107Y1251D01*
X165Y1251D02*
X167Y1251D01*
X1042Y1251D02*
X1049Y1251D01*
X0Y1250D02*
X7Y1250D01*
X38Y1250D02*
X167Y1250D01*
X1042Y1250D02*
X1049Y1250D01*
X0Y1249D02*
X7Y1249D01*
X38Y1249D02*
X167Y1249D01*
X1042Y1249D02*
X1049Y1249D01*
X0Y1248D02*
X7Y1248D01*
X38Y1248D02*
X166Y1248D01*
X1042Y1248D02*
X1049Y1248D01*
X0Y1247D02*
X7Y1247D01*
X1042Y1247D02*
X1049Y1247D01*
X0Y1246D02*
X7Y1246D01*
X1042Y1246D02*
X1049Y1246D01*
X0Y1245D02*
X7Y1245D01*
X1042Y1245D02*
X1049Y1245D01*
X0Y1244D02*
X7Y1244D01*
X1042Y1244D02*
X1049Y1244D01*
X0Y1243D02*
X7Y1243D01*
X1042Y1243D02*
X1049Y1243D01*
X0Y1242D02*
X7Y1242D01*
X1042Y1242D02*
X1049Y1242D01*
X0Y1241D02*
X7Y1241D01*
X1042Y1241D02*
X1049Y1241D01*
X0Y1240D02*
X7Y1240D01*
X1042Y1240D02*
X1049Y1240D01*
X0Y1239D02*
X7Y1239D01*
X1042Y1239D02*
X1049Y1239D01*
X0Y1238D02*
X7Y1238D01*
X1042Y1238D02*
X1049Y1238D01*
X0Y1237D02*
X7Y1237D01*
X1042Y1237D02*
X1049Y1237D01*
X0Y1236D02*
X7Y1236D01*
X1042Y1236D02*
X1049Y1236D01*
X0Y1235D02*
X7Y1235D01*
X1042Y1235D02*
X1049Y1235D01*
X0Y1234D02*
X7Y1234D01*
X1042Y1234D02*
X1049Y1234D01*
X0Y1233D02*
X7Y1233D01*
X1042Y1233D02*
X1049Y1233D01*
X0Y1232D02*
X7Y1232D01*
X1042Y1232D02*
X1049Y1232D01*
X0Y1231D02*
X7Y1231D01*
X1042Y1231D02*
X1049Y1231D01*
X0Y1230D02*
X7Y1230D01*
X1042Y1230D02*
X1049Y1230D01*
X0Y1229D02*
X7Y1229D01*
X1042Y1229D02*
X1049Y1229D01*
X0Y1228D02*
X7Y1228D01*
X1042Y1228D02*
X1049Y1228D01*
X0Y1227D02*
X7Y1227D01*
X1042Y1227D02*
X1049Y1227D01*
X0Y1226D02*
X7Y1226D01*
X1042Y1226D02*
X1049Y1226D01*
X0Y1225D02*
X7Y1225D01*
X1042Y1225D02*
X1049Y1225D01*
X0Y1224D02*
X7Y1224D01*
X1042Y1224D02*
X1049Y1224D01*
X0Y1223D02*
X7Y1223D01*
X1042Y1223D02*
X1049Y1223D01*
X0Y1222D02*
X7Y1222D01*
X1042Y1222D02*
X1049Y1222D01*
X0Y1221D02*
X7Y1221D01*
X1042Y1221D02*
X1049Y1221D01*
X0Y1220D02*
X7Y1220D01*
X1042Y1220D02*
X1049Y1220D01*
X0Y1219D02*
X7Y1219D01*
X1042Y1219D02*
X1049Y1219D01*
X0Y1218D02*
X7Y1218D01*
X1042Y1218D02*
X1049Y1218D01*
X0Y1217D02*
X7Y1217D01*
X1042Y1217D02*
X1049Y1217D01*
X0Y1216D02*
X7Y1216D01*
X1042Y1216D02*
X1049Y1216D01*
X0Y1215D02*
X7Y1215D01*
X1042Y1215D02*
X1049Y1215D01*
X0Y1214D02*
X7Y1214D01*
X1042Y1214D02*
X1049Y1214D01*
X0Y1213D02*
X7Y1213D01*
X1042Y1213D02*
X1049Y1213D01*
X0Y1212D02*
X7Y1212D01*
X1042Y1212D02*
X1049Y1212D01*
X0Y1211D02*
X7Y1211D01*
X1042Y1211D02*
X1049Y1211D01*
X0Y1210D02*
X7Y1210D01*
X1042Y1210D02*
X1049Y1210D01*
X0Y1209D02*
X7Y1209D01*
X1042Y1209D02*
X1049Y1209D01*
X0Y1208D02*
X7Y1208D01*
X1042Y1208D02*
X1049Y1208D01*
X0Y1207D02*
X7Y1207D01*
X1042Y1207D02*
X1049Y1207D01*
X0Y1206D02*
X7Y1206D01*
X1042Y1206D02*
X1049Y1206D01*
X0Y1205D02*
X7Y1205D01*
X1042Y1205D02*
X1049Y1205D01*
X0Y1204D02*
X7Y1204D01*
X1042Y1204D02*
X1049Y1204D01*
X0Y1203D02*
X7Y1203D01*
X1042Y1203D02*
X1049Y1203D01*
X0Y1202D02*
X7Y1202D01*
X1042Y1202D02*
X1049Y1202D01*
X0Y1201D02*
X7Y1201D01*
X1042Y1201D02*
X1049Y1201D01*
X0Y1200D02*
X7Y1200D01*
X1042Y1200D02*
X1049Y1200D01*
X0Y1199D02*
X7Y1199D01*
X1042Y1199D02*
X1049Y1199D01*
X0Y1198D02*
X7Y1198D01*
X1042Y1198D02*
X1049Y1198D01*
X0Y1197D02*
X7Y1197D01*
X1042Y1197D02*
X1049Y1197D01*
X0Y1196D02*
X7Y1196D01*
X1042Y1196D02*
X1049Y1196D01*
X0Y1195D02*
X7Y1195D01*
X1042Y1195D02*
X1049Y1195D01*
X0Y1194D02*
X7Y1194D01*
X1042Y1194D02*
X1049Y1194D01*
X0Y1193D02*
X7Y1193D01*
X1042Y1193D02*
X1049Y1193D01*
X0Y1192D02*
X7Y1192D01*
X1042Y1192D02*
X1049Y1192D01*
X0Y1191D02*
X7Y1191D01*
X1042Y1191D02*
X1049Y1191D01*
X0Y1190D02*
X7Y1190D01*
X1042Y1190D02*
X1049Y1190D01*
X0Y1189D02*
X7Y1189D01*
X1042Y1189D02*
X1049Y1189D01*
X0Y1188D02*
X7Y1188D01*
X1042Y1188D02*
X1049Y1188D01*
X0Y1187D02*
X7Y1187D01*
X1042Y1187D02*
X1049Y1187D01*
X0Y1186D02*
X7Y1186D01*
X1042Y1186D02*
X1049Y1186D01*
X0Y1185D02*
X7Y1185D01*
X1042Y1185D02*
X1049Y1185D01*
X0Y1184D02*
X7Y1184D01*
X1042Y1184D02*
X1049Y1184D01*
X0Y1183D02*
X7Y1183D01*
X1042Y1183D02*
X1049Y1183D01*
X0Y1182D02*
X7Y1182D01*
X1042Y1182D02*
X1049Y1182D01*
X0Y1181D02*
X7Y1181D01*
X1042Y1181D02*
X1049Y1181D01*
X0Y1180D02*
X7Y1180D01*
X1042Y1180D02*
X1049Y1180D01*
X0Y1179D02*
X7Y1179D01*
X1042Y1179D02*
X1049Y1179D01*
X0Y1178D02*
X7Y1178D01*
X1042Y1178D02*
X1049Y1178D01*
X0Y1177D02*
X7Y1177D01*
X1042Y1177D02*
X1049Y1177D01*
X0Y1176D02*
X7Y1176D01*
X1042Y1176D02*
X1049Y1176D01*
X0Y1175D02*
X7Y1175D01*
X1042Y1175D02*
X1049Y1175D01*
X0Y1174D02*
X7Y1174D01*
X1042Y1174D02*
X1049Y1174D01*
X0Y1173D02*
X7Y1173D01*
X1042Y1173D02*
X1049Y1173D01*
X0Y1172D02*
X7Y1172D01*
X1042Y1172D02*
X1049Y1172D01*
X0Y1171D02*
X7Y1171D01*
X1042Y1171D02*
X1049Y1171D01*
X0Y1170D02*
X7Y1170D01*
X1042Y1170D02*
X1049Y1170D01*
X0Y1169D02*
X7Y1169D01*
X1042Y1169D02*
X1049Y1169D01*
X0Y1168D02*
X7Y1168D01*
X1042Y1168D02*
X1049Y1168D01*
X0Y1167D02*
X7Y1167D01*
X1042Y1167D02*
X1049Y1167D01*
X0Y1166D02*
X7Y1166D01*
X1042Y1166D02*
X1049Y1166D01*
X0Y1165D02*
X7Y1165D01*
X1042Y1165D02*
X1049Y1165D01*
X0Y1164D02*
X7Y1164D01*
X1042Y1164D02*
X1049Y1164D01*
X0Y1163D02*
X7Y1163D01*
X1042Y1163D02*
X1049Y1163D01*
X0Y1162D02*
X7Y1162D01*
X1042Y1162D02*
X1049Y1162D01*
X0Y1161D02*
X7Y1161D01*
X1042Y1161D02*
X1049Y1161D01*
X0Y1160D02*
X7Y1160D01*
X1042Y1160D02*
X1049Y1160D01*
X0Y1159D02*
X7Y1159D01*
X1042Y1159D02*
X1049Y1159D01*
X0Y1158D02*
X7Y1158D01*
X1042Y1158D02*
X1049Y1158D01*
X0Y1157D02*
X7Y1157D01*
X1042Y1157D02*
X1049Y1157D01*
X0Y1156D02*
X7Y1156D01*
X1042Y1156D02*
X1049Y1156D01*
X0Y1155D02*
X7Y1155D01*
X1042Y1155D02*
X1049Y1155D01*
X0Y1154D02*
X7Y1154D01*
X1042Y1154D02*
X1049Y1154D01*
X0Y1153D02*
X7Y1153D01*
X1042Y1153D02*
X1049Y1153D01*
X0Y1152D02*
X7Y1152D01*
X1042Y1152D02*
X1049Y1152D01*
X0Y1151D02*
X7Y1151D01*
X1042Y1151D02*
X1049Y1151D01*
X0Y1150D02*
X7Y1150D01*
X1042Y1150D02*
X1049Y1150D01*
X0Y1149D02*
X7Y1149D01*
X1042Y1149D02*
X1049Y1149D01*
X0Y1148D02*
X7Y1148D01*
X1042Y1148D02*
X1049Y1148D01*
X0Y1147D02*
X7Y1147D01*
X1042Y1147D02*
X1049Y1147D01*
X0Y1146D02*
X7Y1146D01*
X1042Y1146D02*
X1049Y1146D01*
X0Y1145D02*
X7Y1145D01*
X1042Y1145D02*
X1049Y1145D01*
X0Y1144D02*
X7Y1144D01*
X1042Y1144D02*
X1049Y1144D01*
X0Y1143D02*
X7Y1143D01*
X1042Y1143D02*
X1049Y1143D01*
X0Y1142D02*
X7Y1142D01*
X1042Y1142D02*
X1049Y1142D01*
X0Y1141D02*
X7Y1141D01*
X1042Y1141D02*
X1049Y1141D01*
X0Y1140D02*
X7Y1140D01*
X1042Y1140D02*
X1049Y1140D01*
X0Y1139D02*
X7Y1139D01*
X1042Y1139D02*
X1049Y1139D01*
X0Y1138D02*
X7Y1138D01*
X1042Y1138D02*
X1049Y1138D01*
X0Y1137D02*
X7Y1137D01*
X1042Y1137D02*
X1049Y1137D01*
X0Y1136D02*
X7Y1136D01*
X1042Y1136D02*
X1049Y1136D01*
X0Y1135D02*
X7Y1135D01*
X1042Y1135D02*
X1049Y1135D01*
X0Y1134D02*
X7Y1134D01*
X1042Y1134D02*
X1049Y1134D01*
X0Y1133D02*
X7Y1133D01*
X1042Y1133D02*
X1049Y1133D01*
X0Y1132D02*
X7Y1132D01*
X1042Y1132D02*
X1049Y1132D01*
X0Y1131D02*
X7Y1131D01*
X1042Y1131D02*
X1049Y1131D01*
X0Y1130D02*
X7Y1130D01*
X1042Y1130D02*
X1049Y1130D01*
X0Y1129D02*
X7Y1129D01*
X1042Y1129D02*
X1049Y1129D01*
X0Y1128D02*
X7Y1128D01*
X1042Y1128D02*
X1049Y1128D01*
X0Y1127D02*
X7Y1127D01*
X1042Y1127D02*
X1049Y1127D01*
X0Y1126D02*
X7Y1126D01*
X1042Y1126D02*
X1049Y1126D01*
X0Y1125D02*
X7Y1125D01*
X1042Y1125D02*
X1049Y1125D01*
X0Y1124D02*
X7Y1124D01*
X1042Y1124D02*
X1049Y1124D01*
X0Y1123D02*
X7Y1123D01*
X1042Y1123D02*
X1049Y1123D01*
X0Y1122D02*
X7Y1122D01*
X1042Y1122D02*
X1049Y1122D01*
X0Y1121D02*
X7Y1121D01*
X1042Y1121D02*
X1049Y1121D01*
X0Y1120D02*
X7Y1120D01*
X1042Y1120D02*
X1049Y1120D01*
X0Y1119D02*
X7Y1119D01*
X1042Y1119D02*
X1049Y1119D01*
X0Y1118D02*
X7Y1118D01*
X1042Y1118D02*
X1049Y1118D01*
X0Y1117D02*
X7Y1117D01*
X1042Y1117D02*
X1049Y1117D01*
X0Y1116D02*
X7Y1116D01*
X1042Y1116D02*
X1049Y1116D01*
X0Y1115D02*
X7Y1115D01*
X1042Y1115D02*
X1049Y1115D01*
X0Y1114D02*
X7Y1114D01*
X1042Y1114D02*
X1049Y1114D01*
X0Y1113D02*
X7Y1113D01*
X1042Y1113D02*
X1049Y1113D01*
X0Y1112D02*
X7Y1112D01*
X1042Y1112D02*
X1049Y1112D01*
X0Y1111D02*
X7Y1111D01*
X1042Y1111D02*
X1049Y1111D01*
X0Y1110D02*
X7Y1110D01*
X1042Y1110D02*
X1049Y1110D01*
X0Y1109D02*
X7Y1109D01*
X1042Y1109D02*
X1049Y1109D01*
X0Y1108D02*
X7Y1108D01*
X1042Y1108D02*
X1049Y1108D01*
X0Y1107D02*
X7Y1107D01*
X38Y1107D02*
X166Y1107D01*
X1042Y1107D02*
X1049Y1107D01*
X0Y1106D02*
X7Y1106D01*
X38Y1106D02*
X167Y1106D01*
X1042Y1106D02*
X1049Y1106D01*
X0Y1105D02*
X7Y1105D01*
X38Y1105D02*
X167Y1105D01*
X1042Y1105D02*
X1049Y1105D01*
X0Y1104D02*
X7Y1104D01*
X38Y1104D02*
X40Y1104D01*
X98Y1104D02*
X107Y1104D01*
X165Y1104D02*
X167Y1104D01*
X1042Y1104D02*
X1049Y1104D01*
X0Y1103D02*
X7Y1103D01*
X38Y1103D02*
X40Y1103D01*
X165Y1103D02*
X167Y1103D01*
X1042Y1103D02*
X1049Y1103D01*
X0Y1102D02*
X7Y1102D01*
X38Y1102D02*
X40Y1102D01*
X165Y1102D02*
X167Y1102D01*
X1042Y1102D02*
X1049Y1102D01*
X0Y1101D02*
X7Y1101D01*
X38Y1101D02*
X40Y1101D01*
X165Y1101D02*
X167Y1101D01*
X1042Y1101D02*
X1049Y1101D01*
X0Y1100D02*
X7Y1100D01*
X38Y1100D02*
X40Y1100D01*
X165Y1100D02*
X167Y1100D01*
X1042Y1100D02*
X1049Y1100D01*
X0Y1099D02*
X7Y1099D01*
X38Y1099D02*
X40Y1099D01*
X165Y1099D02*
X167Y1099D01*
X1042Y1099D02*
X1049Y1099D01*
X0Y1098D02*
X7Y1098D01*
X38Y1098D02*
X40Y1098D01*
X165Y1098D02*
X167Y1098D01*
X1042Y1098D02*
X1049Y1098D01*
X0Y1097D02*
X7Y1097D01*
X38Y1097D02*
X40Y1097D01*
X165Y1097D02*
X167Y1097D01*
X1042Y1097D02*
X1049Y1097D01*
X0Y1096D02*
X7Y1096D01*
X38Y1096D02*
X40Y1096D01*
X165Y1096D02*
X167Y1096D01*
X1042Y1096D02*
X1049Y1096D01*
X0Y1095D02*
X7Y1095D01*
X38Y1095D02*
X40Y1095D01*
X165Y1095D02*
X167Y1095D01*
X1042Y1095D02*
X1049Y1095D01*
X0Y1094D02*
X7Y1094D01*
X38Y1094D02*
X40Y1094D01*
X165Y1094D02*
X167Y1094D01*
X1042Y1094D02*
X1049Y1094D01*
X0Y1093D02*
X7Y1093D01*
X38Y1093D02*
X40Y1093D01*
X165Y1093D02*
X167Y1093D01*
X1042Y1093D02*
X1049Y1093D01*
X0Y1092D02*
X7Y1092D01*
X38Y1092D02*
X40Y1092D01*
X165Y1092D02*
X167Y1092D01*
X1042Y1092D02*
X1049Y1092D01*
X0Y1091D02*
X7Y1091D01*
X38Y1091D02*
X40Y1091D01*
X165Y1091D02*
X167Y1091D01*
X1042Y1091D02*
X1049Y1091D01*
X0Y1090D02*
X7Y1090D01*
X38Y1090D02*
X40Y1090D01*
X165Y1090D02*
X167Y1090D01*
X1042Y1090D02*
X1049Y1090D01*
X0Y1089D02*
X7Y1089D01*
X38Y1089D02*
X40Y1089D01*
X165Y1089D02*
X167Y1089D01*
X1042Y1089D02*
X1049Y1089D01*
X0Y1088D02*
X7Y1088D01*
X38Y1088D02*
X40Y1088D01*
X165Y1088D02*
X167Y1088D01*
X1042Y1088D02*
X1049Y1088D01*
X0Y1087D02*
X7Y1087D01*
X38Y1087D02*
X40Y1087D01*
X165Y1087D02*
X167Y1087D01*
X1042Y1087D02*
X1049Y1087D01*
X0Y1086D02*
X7Y1086D01*
X38Y1086D02*
X40Y1086D01*
X165Y1086D02*
X167Y1086D01*
X1042Y1086D02*
X1049Y1086D01*
X0Y1085D02*
X7Y1085D01*
X38Y1085D02*
X40Y1085D01*
X165Y1085D02*
X167Y1085D01*
X1042Y1085D02*
X1049Y1085D01*
X0Y1084D02*
X7Y1084D01*
X38Y1084D02*
X40Y1084D01*
X165Y1084D02*
X167Y1084D01*
X1042Y1084D02*
X1049Y1084D01*
X0Y1083D02*
X7Y1083D01*
X38Y1083D02*
X40Y1083D01*
X165Y1083D02*
X167Y1083D01*
X1042Y1083D02*
X1049Y1083D01*
X0Y1082D02*
X7Y1082D01*
X38Y1082D02*
X40Y1082D01*
X165Y1082D02*
X167Y1082D01*
X1042Y1082D02*
X1049Y1082D01*
X0Y1081D02*
X7Y1081D01*
X38Y1081D02*
X40Y1081D01*
X165Y1081D02*
X167Y1081D01*
X1042Y1081D02*
X1049Y1081D01*
X0Y1080D02*
X7Y1080D01*
X38Y1080D02*
X40Y1080D01*
X165Y1080D02*
X167Y1080D01*
X1042Y1080D02*
X1049Y1080D01*
X0Y1079D02*
X7Y1079D01*
X38Y1079D02*
X40Y1079D01*
X165Y1079D02*
X167Y1079D01*
X1042Y1079D02*
X1049Y1079D01*
X0Y1078D02*
X7Y1078D01*
X38Y1078D02*
X40Y1078D01*
X165Y1078D02*
X167Y1078D01*
X1042Y1078D02*
X1049Y1078D01*
X0Y1077D02*
X7Y1077D01*
X38Y1077D02*
X40Y1077D01*
X165Y1077D02*
X167Y1077D01*
X1042Y1077D02*
X1049Y1077D01*
X0Y1076D02*
X7Y1076D01*
X38Y1076D02*
X40Y1076D01*
X165Y1076D02*
X167Y1076D01*
X1042Y1076D02*
X1049Y1076D01*
X0Y1075D02*
X7Y1075D01*
X38Y1075D02*
X40Y1075D01*
X165Y1075D02*
X167Y1075D01*
X1042Y1075D02*
X1049Y1075D01*
X0Y1074D02*
X7Y1074D01*
X38Y1074D02*
X40Y1074D01*
X165Y1074D02*
X167Y1074D01*
X1042Y1074D02*
X1049Y1074D01*
X0Y1073D02*
X7Y1073D01*
X38Y1073D02*
X40Y1073D01*
X165Y1073D02*
X167Y1073D01*
X1042Y1073D02*
X1049Y1073D01*
X0Y1072D02*
X7Y1072D01*
X38Y1072D02*
X40Y1072D01*
X165Y1072D02*
X167Y1072D01*
X1042Y1072D02*
X1049Y1072D01*
X0Y1071D02*
X7Y1071D01*
X38Y1071D02*
X40Y1071D01*
X165Y1071D02*
X167Y1071D01*
X1042Y1071D02*
X1049Y1071D01*
X0Y1070D02*
X7Y1070D01*
X38Y1070D02*
X40Y1070D01*
X165Y1070D02*
X167Y1070D01*
X1042Y1070D02*
X1049Y1070D01*
X0Y1069D02*
X7Y1069D01*
X38Y1069D02*
X40Y1069D01*
X165Y1069D02*
X167Y1069D01*
X1042Y1069D02*
X1049Y1069D01*
X0Y1068D02*
X7Y1068D01*
X38Y1068D02*
X40Y1068D01*
X165Y1068D02*
X167Y1068D01*
X1042Y1068D02*
X1049Y1068D01*
X0Y1067D02*
X7Y1067D01*
X38Y1067D02*
X40Y1067D01*
X165Y1067D02*
X167Y1067D01*
X1042Y1067D02*
X1049Y1067D01*
X0Y1066D02*
X7Y1066D01*
X38Y1066D02*
X40Y1066D01*
X165Y1066D02*
X167Y1066D01*
X1042Y1066D02*
X1049Y1066D01*
X0Y1065D02*
X7Y1065D01*
X38Y1065D02*
X40Y1065D01*
X165Y1065D02*
X167Y1065D01*
X1042Y1065D02*
X1049Y1065D01*
X0Y1064D02*
X7Y1064D01*
X38Y1064D02*
X40Y1064D01*
X165Y1064D02*
X167Y1064D01*
X1042Y1064D02*
X1049Y1064D01*
X0Y1063D02*
X7Y1063D01*
X38Y1063D02*
X40Y1063D01*
X165Y1063D02*
X167Y1063D01*
X1042Y1063D02*
X1049Y1063D01*
X0Y1062D02*
X7Y1062D01*
X38Y1062D02*
X40Y1062D01*
X165Y1062D02*
X167Y1062D01*
X1042Y1062D02*
X1049Y1062D01*
X0Y1061D02*
X7Y1061D01*
X38Y1061D02*
X40Y1061D01*
X165Y1061D02*
X167Y1061D01*
X1042Y1061D02*
X1049Y1061D01*
X0Y1060D02*
X7Y1060D01*
X38Y1060D02*
X40Y1060D01*
X165Y1060D02*
X167Y1060D01*
X1042Y1060D02*
X1049Y1060D01*
X0Y1059D02*
X7Y1059D01*
X38Y1059D02*
X40Y1059D01*
X165Y1059D02*
X167Y1059D01*
X1042Y1059D02*
X1049Y1059D01*
X0Y1058D02*
X7Y1058D01*
X38Y1058D02*
X40Y1058D01*
X165Y1058D02*
X167Y1058D01*
X1042Y1058D02*
X1049Y1058D01*
X0Y1057D02*
X7Y1057D01*
X38Y1057D02*
X40Y1057D01*
X165Y1057D02*
X167Y1057D01*
X1042Y1057D02*
X1049Y1057D01*
X0Y1056D02*
X7Y1056D01*
X38Y1056D02*
X40Y1056D01*
X165Y1056D02*
X167Y1056D01*
X1042Y1056D02*
X1049Y1056D01*
X0Y1055D02*
X7Y1055D01*
X38Y1055D02*
X40Y1055D01*
X165Y1055D02*
X167Y1055D01*
X1042Y1055D02*
X1049Y1055D01*
X0Y1054D02*
X7Y1054D01*
X38Y1054D02*
X40Y1054D01*
X165Y1054D02*
X167Y1054D01*
X1042Y1054D02*
X1049Y1054D01*
X0Y1053D02*
X7Y1053D01*
X38Y1053D02*
X40Y1053D01*
X165Y1053D02*
X167Y1053D01*
X1042Y1053D02*
X1049Y1053D01*
X0Y1052D02*
X7Y1052D01*
X38Y1052D02*
X40Y1052D01*
X165Y1052D02*
X167Y1052D01*
X1042Y1052D02*
X1049Y1052D01*
X0Y1051D02*
X7Y1051D01*
X38Y1051D02*
X40Y1051D01*
X98Y1051D02*
X107Y1051D01*
X165Y1051D02*
X167Y1051D01*
X1042Y1051D02*
X1049Y1051D01*
X0Y1050D02*
X7Y1050D01*
X38Y1050D02*
X167Y1050D01*
X1042Y1050D02*
X1049Y1050D01*
X0Y1049D02*
X7Y1049D01*
X38Y1049D02*
X167Y1049D01*
X1042Y1049D02*
X1049Y1049D01*
X0Y1048D02*
X7Y1048D01*
X1042Y1048D02*
X1049Y1048D01*
X0Y1047D02*
X7Y1047D01*
X1042Y1047D02*
X1049Y1047D01*
X0Y1046D02*
X7Y1046D01*
X1042Y1046D02*
X1049Y1046D01*
X0Y1045D02*
X7Y1045D01*
X1042Y1045D02*
X1049Y1045D01*
X0Y1044D02*
X7Y1044D01*
X1042Y1044D02*
X1049Y1044D01*
X0Y1043D02*
X7Y1043D01*
X1042Y1043D02*
X1049Y1043D01*
X0Y1042D02*
X7Y1042D01*
X1042Y1042D02*
X1049Y1042D01*
X0Y1041D02*
X7Y1041D01*
X1042Y1041D02*
X1049Y1041D01*
X0Y1040D02*
X7Y1040D01*
X1042Y1040D02*
X1049Y1040D01*
X0Y1039D02*
X7Y1039D01*
X1042Y1039D02*
X1049Y1039D01*
X0Y1038D02*
X7Y1038D01*
X1042Y1038D02*
X1049Y1038D01*
X0Y1037D02*
X7Y1037D01*
X1042Y1037D02*
X1049Y1037D01*
X0Y1036D02*
X7Y1036D01*
X1042Y1036D02*
X1049Y1036D01*
X0Y1035D02*
X7Y1035D01*
X1042Y1035D02*
X1049Y1035D01*
X0Y1034D02*
X7Y1034D01*
X1042Y1034D02*
X1049Y1034D01*
X0Y1033D02*
X7Y1033D01*
X1042Y1033D02*
X1049Y1033D01*
X0Y1032D02*
X7Y1032D01*
X1042Y1032D02*
X1049Y1032D01*
X0Y1031D02*
X7Y1031D01*
X1042Y1031D02*
X1049Y1031D01*
X0Y1030D02*
X7Y1030D01*
X1042Y1030D02*
X1049Y1030D01*
X0Y1029D02*
X7Y1029D01*
X1042Y1029D02*
X1049Y1029D01*
X0Y1028D02*
X7Y1028D01*
X1042Y1028D02*
X1049Y1028D01*
X0Y1027D02*
X7Y1027D01*
X1042Y1027D02*
X1049Y1027D01*
X0Y1026D02*
X7Y1026D01*
X1042Y1026D02*
X1049Y1026D01*
X0Y1025D02*
X7Y1025D01*
X1042Y1025D02*
X1049Y1025D01*
X0Y1024D02*
X7Y1024D01*
X1042Y1024D02*
X1049Y1024D01*
X0Y1023D02*
X7Y1023D01*
X1042Y1023D02*
X1049Y1023D01*
X0Y1022D02*
X7Y1022D01*
X1042Y1022D02*
X1049Y1022D01*
X0Y1021D02*
X7Y1021D01*
X1042Y1021D02*
X1049Y1021D01*
X0Y1020D02*
X7Y1020D01*
X1042Y1020D02*
X1049Y1020D01*
X0Y1019D02*
X7Y1019D01*
X1042Y1019D02*
X1049Y1019D01*
X0Y1018D02*
X7Y1018D01*
X1042Y1018D02*
X1049Y1018D01*
X0Y1017D02*
X7Y1017D01*
X1042Y1017D02*
X1049Y1017D01*
X0Y1016D02*
X7Y1016D01*
X1042Y1016D02*
X1049Y1016D01*
X0Y1015D02*
X7Y1015D01*
X1042Y1015D02*
X1049Y1015D01*
X0Y1014D02*
X7Y1014D01*
X1042Y1014D02*
X1049Y1014D01*
X0Y1013D02*
X7Y1013D01*
X1042Y1013D02*
X1049Y1013D01*
X0Y1012D02*
X7Y1012D01*
X1042Y1012D02*
X1049Y1012D01*
X0Y1011D02*
X7Y1011D01*
X1042Y1011D02*
X1049Y1011D01*
X0Y1010D02*
X7Y1010D01*
X1042Y1010D02*
X1049Y1010D01*
X0Y1009D02*
X7Y1009D01*
X1042Y1009D02*
X1049Y1009D01*
X0Y1008D02*
X7Y1008D01*
X1042Y1008D02*
X1049Y1008D01*
X0Y1007D02*
X7Y1007D01*
X1042Y1007D02*
X1049Y1007D01*
X0Y1006D02*
X7Y1006D01*
X1042Y1006D02*
X1049Y1006D01*
X0Y1005D02*
X7Y1005D01*
X1042Y1005D02*
X1049Y1005D01*
X0Y1004D02*
X7Y1004D01*
X1042Y1004D02*
X1049Y1004D01*
X0Y1003D02*
X7Y1003D01*
X1042Y1003D02*
X1049Y1003D01*
X0Y1002D02*
X7Y1002D01*
X1042Y1002D02*
X1049Y1002D01*
X0Y1001D02*
X7Y1001D01*
X1042Y1001D02*
X1049Y1001D01*
X0Y1000D02*
X7Y1000D01*
X1042Y1000D02*
X1049Y1000D01*
X0Y999D02*
X7Y999D01*
X1042Y999D02*
X1049Y999D01*
X0Y998D02*
X7Y998D01*
X1042Y998D02*
X1049Y998D01*
X0Y997D02*
X7Y997D01*
X1042Y997D02*
X1049Y997D01*
X0Y996D02*
X7Y996D01*
X1042Y996D02*
X1049Y996D01*
X0Y995D02*
X7Y995D01*
X1042Y995D02*
X1049Y995D01*
X0Y994D02*
X7Y994D01*
X1042Y994D02*
X1049Y994D01*
X0Y993D02*
X7Y993D01*
X1042Y993D02*
X1049Y993D01*
X0Y992D02*
X7Y992D01*
X1042Y992D02*
X1049Y992D01*
X0Y991D02*
X7Y991D01*
X1042Y991D02*
X1049Y991D01*
X0Y990D02*
X7Y990D01*
X1042Y990D02*
X1049Y990D01*
X0Y989D02*
X7Y989D01*
X1042Y989D02*
X1049Y989D01*
X0Y988D02*
X7Y988D01*
X1042Y988D02*
X1049Y988D01*
X0Y987D02*
X7Y987D01*
X1042Y987D02*
X1049Y987D01*
X0Y986D02*
X7Y986D01*
X1042Y986D02*
X1049Y986D01*
X0Y985D02*
X7Y985D01*
X1042Y985D02*
X1049Y985D01*
X0Y984D02*
X7Y984D01*
X1042Y984D02*
X1049Y984D01*
X0Y983D02*
X7Y983D01*
X1042Y983D02*
X1049Y983D01*
X0Y982D02*
X7Y982D01*
X1042Y982D02*
X1049Y982D01*
X0Y981D02*
X7Y981D01*
X1042Y981D02*
X1049Y981D01*
X0Y980D02*
X7Y980D01*
X1042Y980D02*
X1049Y980D01*
X0Y979D02*
X7Y979D01*
X1042Y979D02*
X1049Y979D01*
X0Y978D02*
X7Y978D01*
X1042Y978D02*
X1049Y978D01*
X0Y977D02*
X7Y977D01*
X1042Y977D02*
X1049Y977D01*
X0Y976D02*
X7Y976D01*
X1042Y976D02*
X1049Y976D01*
X0Y975D02*
X7Y975D01*
X1042Y975D02*
X1049Y975D01*
X0Y974D02*
X7Y974D01*
X1042Y974D02*
X1049Y974D01*
X0Y973D02*
X7Y973D01*
X1042Y973D02*
X1049Y973D01*
X0Y972D02*
X7Y972D01*
X1042Y972D02*
X1049Y972D01*
X0Y971D02*
X7Y971D01*
X1042Y971D02*
X1049Y971D01*
X0Y970D02*
X7Y970D01*
X1042Y970D02*
X1049Y970D01*
X0Y969D02*
X7Y969D01*
X1042Y969D02*
X1049Y969D01*
X0Y968D02*
X7Y968D01*
X1042Y968D02*
X1049Y968D01*
X0Y967D02*
X7Y967D01*
X1042Y967D02*
X1049Y967D01*
X0Y966D02*
X7Y966D01*
X1042Y966D02*
X1049Y966D01*
X0Y965D02*
X7Y965D01*
X1042Y965D02*
X1049Y965D01*
X0Y964D02*
X7Y964D01*
X1042Y964D02*
X1049Y964D01*
X0Y963D02*
X7Y963D01*
X1042Y963D02*
X1049Y963D01*
X0Y962D02*
X7Y962D01*
X1042Y962D02*
X1049Y962D01*
X0Y961D02*
X7Y961D01*
X1042Y961D02*
X1049Y961D01*
X0Y960D02*
X7Y960D01*
X1042Y960D02*
X1049Y960D01*
X0Y959D02*
X7Y959D01*
X1042Y959D02*
X1049Y959D01*
X0Y958D02*
X7Y958D01*
X1042Y958D02*
X1049Y958D01*
X0Y957D02*
X7Y957D01*
X1042Y957D02*
X1049Y957D01*
X0Y956D02*
X7Y956D01*
X1042Y956D02*
X1049Y956D01*
X0Y955D02*
X7Y955D01*
X1042Y955D02*
X1049Y955D01*
X0Y954D02*
X7Y954D01*
X1042Y954D02*
X1049Y954D01*
X0Y953D02*
X7Y953D01*
X1042Y953D02*
X1049Y953D01*
X0Y952D02*
X7Y952D01*
X1042Y952D02*
X1049Y952D01*
X0Y951D02*
X7Y951D01*
X1042Y951D02*
X1049Y951D01*
X0Y950D02*
X7Y950D01*
X1042Y950D02*
X1049Y950D01*
X0Y949D02*
X7Y949D01*
X1042Y949D02*
X1049Y949D01*
X0Y948D02*
X7Y948D01*
X1042Y948D02*
X1049Y948D01*
X0Y947D02*
X7Y947D01*
X1042Y947D02*
X1049Y947D01*
X0Y946D02*
X7Y946D01*
X1042Y946D02*
X1049Y946D01*
X0Y945D02*
X7Y945D01*
X1042Y945D02*
X1049Y945D01*
X0Y944D02*
X7Y944D01*
X1042Y944D02*
X1049Y944D01*
X0Y943D02*
X7Y943D01*
X1042Y943D02*
X1049Y943D01*
X0Y942D02*
X7Y942D01*
X1042Y942D02*
X1049Y942D01*
X0Y941D02*
X7Y941D01*
X1042Y941D02*
X1049Y941D01*
X0Y940D02*
X7Y940D01*
X1042Y940D02*
X1049Y940D01*
X0Y939D02*
X7Y939D01*
X1042Y939D02*
X1049Y939D01*
X0Y938D02*
X7Y938D01*
X1042Y938D02*
X1049Y938D01*
X0Y937D02*
X7Y937D01*
X1042Y937D02*
X1049Y937D01*
X0Y936D02*
X7Y936D01*
X1042Y936D02*
X1049Y936D01*
X0Y935D02*
X7Y935D01*
X1042Y935D02*
X1049Y935D01*
X0Y934D02*
X7Y934D01*
X1042Y934D02*
X1049Y934D01*
X0Y933D02*
X7Y933D01*
X1042Y933D02*
X1049Y933D01*
X0Y932D02*
X7Y932D01*
X1042Y932D02*
X1049Y932D01*
X0Y931D02*
X7Y931D01*
X1042Y931D02*
X1049Y931D01*
X0Y930D02*
X7Y930D01*
X1042Y930D02*
X1049Y930D01*
X0Y929D02*
X7Y929D01*
X1042Y929D02*
X1049Y929D01*
X0Y928D02*
X7Y928D01*
X1042Y928D02*
X1049Y928D01*
X0Y927D02*
X7Y927D01*
X1042Y927D02*
X1049Y927D01*
X0Y926D02*
X7Y926D01*
X1042Y926D02*
X1049Y926D01*
X0Y925D02*
X7Y925D01*
X1042Y925D02*
X1049Y925D01*
X0Y924D02*
X7Y924D01*
X1042Y924D02*
X1049Y924D01*
X0Y923D02*
X7Y923D01*
X1042Y923D02*
X1049Y923D01*
X0Y922D02*
X7Y922D01*
X1042Y922D02*
X1049Y922D01*
X0Y921D02*
X7Y921D01*
X1042Y921D02*
X1049Y921D01*
X0Y920D02*
X7Y920D01*
X1042Y920D02*
X1049Y920D01*
X0Y919D02*
X7Y919D01*
X1042Y919D02*
X1049Y919D01*
X0Y918D02*
X7Y918D01*
X1042Y918D02*
X1049Y918D01*
X0Y917D02*
X7Y917D01*
X1042Y917D02*
X1049Y917D01*
X0Y916D02*
X7Y916D01*
X1042Y916D02*
X1049Y916D01*
X0Y915D02*
X7Y915D01*
X1042Y915D02*
X1049Y915D01*
X0Y914D02*
X7Y914D01*
X1042Y914D02*
X1049Y914D01*
X0Y913D02*
X7Y913D01*
X1042Y913D02*
X1049Y913D01*
X0Y912D02*
X7Y912D01*
X1042Y912D02*
X1049Y912D01*
X0Y911D02*
X7Y911D01*
X1042Y911D02*
X1049Y911D01*
X0Y910D02*
X7Y910D01*
X1042Y910D02*
X1049Y910D01*
X0Y909D02*
X7Y909D01*
X1042Y909D02*
X1049Y909D01*
X0Y908D02*
X7Y908D01*
X1042Y908D02*
X1049Y908D01*
X0Y907D02*
X7Y907D01*
X38Y907D02*
X167Y907D01*
X1042Y907D02*
X1049Y907D01*
X0Y906D02*
X7Y906D01*
X38Y906D02*
X167Y906D01*
X1042Y906D02*
X1049Y906D01*
X0Y905D02*
X7Y905D01*
X38Y905D02*
X167Y905D01*
X1042Y905D02*
X1049Y905D01*
X0Y904D02*
X7Y904D01*
X38Y904D02*
X40Y904D01*
X98Y904D02*
X107Y904D01*
X165Y904D02*
X167Y904D01*
X1042Y904D02*
X1049Y904D01*
X0Y903D02*
X7Y903D01*
X38Y903D02*
X40Y903D01*
X165Y903D02*
X167Y903D01*
X1042Y903D02*
X1049Y903D01*
X0Y902D02*
X7Y902D01*
X38Y902D02*
X40Y902D01*
X165Y902D02*
X167Y902D01*
X1042Y902D02*
X1049Y902D01*
X0Y901D02*
X7Y901D01*
X38Y901D02*
X40Y901D01*
X165Y901D02*
X167Y901D01*
X1042Y901D02*
X1049Y901D01*
X0Y900D02*
X7Y900D01*
X38Y900D02*
X40Y900D01*
X165Y900D02*
X167Y900D01*
X1042Y900D02*
X1049Y900D01*
X0Y899D02*
X7Y899D01*
X38Y899D02*
X40Y899D01*
X165Y899D02*
X167Y899D01*
X1042Y899D02*
X1049Y899D01*
X0Y898D02*
X7Y898D01*
X38Y898D02*
X40Y898D01*
X165Y898D02*
X167Y898D01*
X1042Y898D02*
X1049Y898D01*
X0Y897D02*
X7Y897D01*
X38Y897D02*
X40Y897D01*
X165Y897D02*
X167Y897D01*
X1042Y897D02*
X1049Y897D01*
X0Y896D02*
X7Y896D01*
X38Y896D02*
X40Y896D01*
X165Y896D02*
X167Y896D01*
X1042Y896D02*
X1049Y896D01*
X0Y895D02*
X7Y895D01*
X38Y895D02*
X40Y895D01*
X165Y895D02*
X167Y895D01*
X1042Y895D02*
X1049Y895D01*
X0Y894D02*
X7Y894D01*
X38Y894D02*
X40Y894D01*
X165Y894D02*
X167Y894D01*
X1042Y894D02*
X1049Y894D01*
X0Y893D02*
X7Y893D01*
X38Y893D02*
X40Y893D01*
X165Y893D02*
X167Y893D01*
X1042Y893D02*
X1049Y893D01*
X0Y892D02*
X7Y892D01*
X38Y892D02*
X40Y892D01*
X165Y892D02*
X167Y892D01*
X1042Y892D02*
X1049Y892D01*
X0Y891D02*
X7Y891D01*
X38Y891D02*
X40Y891D01*
X165Y891D02*
X167Y891D01*
X1042Y891D02*
X1049Y891D01*
X0Y890D02*
X7Y890D01*
X38Y890D02*
X40Y890D01*
X165Y890D02*
X167Y890D01*
X1042Y890D02*
X1049Y890D01*
X0Y889D02*
X7Y889D01*
X38Y889D02*
X40Y889D01*
X165Y889D02*
X167Y889D01*
X1042Y889D02*
X1049Y889D01*
X0Y888D02*
X7Y888D01*
X38Y888D02*
X40Y888D01*
X165Y888D02*
X167Y888D01*
X1042Y888D02*
X1049Y888D01*
X0Y887D02*
X7Y887D01*
X38Y887D02*
X40Y887D01*
X165Y887D02*
X167Y887D01*
X1042Y887D02*
X1049Y887D01*
X0Y886D02*
X7Y886D01*
X38Y886D02*
X40Y886D01*
X165Y886D02*
X167Y886D01*
X1042Y886D02*
X1049Y886D01*
X0Y885D02*
X7Y885D01*
X38Y885D02*
X40Y885D01*
X165Y885D02*
X167Y885D01*
X1042Y885D02*
X1049Y885D01*
X0Y884D02*
X7Y884D01*
X38Y884D02*
X40Y884D01*
X165Y884D02*
X167Y884D01*
X1042Y884D02*
X1049Y884D01*
X0Y883D02*
X7Y883D01*
X38Y883D02*
X40Y883D01*
X165Y883D02*
X167Y883D01*
X1042Y883D02*
X1049Y883D01*
X0Y882D02*
X7Y882D01*
X38Y882D02*
X40Y882D01*
X165Y882D02*
X167Y882D01*
X1042Y882D02*
X1049Y882D01*
X0Y881D02*
X7Y881D01*
X38Y881D02*
X40Y881D01*
X165Y881D02*
X167Y881D01*
X1042Y881D02*
X1049Y881D01*
X0Y880D02*
X7Y880D01*
X38Y880D02*
X40Y880D01*
X165Y880D02*
X167Y880D01*
X1042Y880D02*
X1049Y880D01*
X0Y879D02*
X7Y879D01*
X38Y879D02*
X40Y879D01*
X165Y879D02*
X167Y879D01*
X1042Y879D02*
X1049Y879D01*
X0Y878D02*
X7Y878D01*
X38Y878D02*
X40Y878D01*
X165Y878D02*
X167Y878D01*
X1042Y878D02*
X1049Y878D01*
X0Y877D02*
X7Y877D01*
X38Y877D02*
X40Y877D01*
X165Y877D02*
X167Y877D01*
X1042Y877D02*
X1049Y877D01*
X0Y876D02*
X7Y876D01*
X38Y876D02*
X40Y876D01*
X165Y876D02*
X167Y876D01*
X1042Y876D02*
X1049Y876D01*
X0Y875D02*
X7Y875D01*
X38Y875D02*
X40Y875D01*
X165Y875D02*
X167Y875D01*
X1042Y875D02*
X1049Y875D01*
X0Y874D02*
X7Y874D01*
X38Y874D02*
X40Y874D01*
X165Y874D02*
X167Y874D01*
X1042Y874D02*
X1049Y874D01*
X0Y873D02*
X7Y873D01*
X38Y873D02*
X40Y873D01*
X165Y873D02*
X167Y873D01*
X1042Y873D02*
X1049Y873D01*
X0Y872D02*
X7Y872D01*
X38Y872D02*
X40Y872D01*
X165Y872D02*
X167Y872D01*
X1042Y872D02*
X1049Y872D01*
X0Y871D02*
X7Y871D01*
X38Y871D02*
X40Y871D01*
X165Y871D02*
X167Y871D01*
X1042Y871D02*
X1049Y871D01*
X0Y870D02*
X7Y870D01*
X38Y870D02*
X40Y870D01*
X165Y870D02*
X167Y870D01*
X1042Y870D02*
X1049Y870D01*
X0Y869D02*
X7Y869D01*
X38Y869D02*
X40Y869D01*
X165Y869D02*
X167Y869D01*
X1042Y869D02*
X1049Y869D01*
X0Y868D02*
X7Y868D01*
X38Y868D02*
X40Y868D01*
X165Y868D02*
X167Y868D01*
X1042Y868D02*
X1049Y868D01*
X0Y867D02*
X7Y867D01*
X38Y867D02*
X40Y867D01*
X165Y867D02*
X167Y867D01*
X1042Y867D02*
X1049Y867D01*
X0Y866D02*
X7Y866D01*
X38Y866D02*
X40Y866D01*
X165Y866D02*
X167Y866D01*
X1042Y866D02*
X1049Y866D01*
X0Y865D02*
X7Y865D01*
X38Y865D02*
X40Y865D01*
X165Y865D02*
X167Y865D01*
X1042Y865D02*
X1049Y865D01*
X0Y864D02*
X7Y864D01*
X38Y864D02*
X40Y864D01*
X165Y864D02*
X167Y864D01*
X1042Y864D02*
X1049Y864D01*
X0Y863D02*
X7Y863D01*
X38Y863D02*
X40Y863D01*
X165Y863D02*
X167Y863D01*
X1042Y863D02*
X1049Y863D01*
X0Y862D02*
X7Y862D01*
X38Y862D02*
X40Y862D01*
X165Y862D02*
X167Y862D01*
X1042Y862D02*
X1049Y862D01*
X0Y861D02*
X7Y861D01*
X38Y861D02*
X40Y861D01*
X165Y861D02*
X167Y861D01*
X1042Y861D02*
X1049Y861D01*
X0Y860D02*
X7Y860D01*
X38Y860D02*
X40Y860D01*
X165Y860D02*
X167Y860D01*
X1042Y860D02*
X1049Y860D01*
X0Y859D02*
X7Y859D01*
X38Y859D02*
X40Y859D01*
X165Y859D02*
X167Y859D01*
X1042Y859D02*
X1049Y859D01*
X0Y858D02*
X7Y858D01*
X38Y858D02*
X40Y858D01*
X165Y858D02*
X167Y858D01*
X1042Y858D02*
X1049Y858D01*
X0Y857D02*
X7Y857D01*
X38Y857D02*
X40Y857D01*
X165Y857D02*
X167Y857D01*
X1042Y857D02*
X1049Y857D01*
X0Y856D02*
X7Y856D01*
X38Y856D02*
X40Y856D01*
X165Y856D02*
X167Y856D01*
X1042Y856D02*
X1049Y856D01*
X0Y855D02*
X7Y855D01*
X38Y855D02*
X40Y855D01*
X165Y855D02*
X167Y855D01*
X1042Y855D02*
X1049Y855D01*
X0Y854D02*
X7Y854D01*
X38Y854D02*
X40Y854D01*
X165Y854D02*
X167Y854D01*
X1042Y854D02*
X1049Y854D01*
X0Y853D02*
X7Y853D01*
X38Y853D02*
X40Y853D01*
X165Y853D02*
X167Y853D01*
X1042Y853D02*
X1049Y853D01*
X0Y852D02*
X7Y852D01*
X38Y852D02*
X40Y852D01*
X98Y852D02*
X107Y852D01*
X165Y852D02*
X167Y852D01*
X1042Y852D02*
X1049Y852D01*
X0Y851D02*
X7Y851D01*
X38Y851D02*
X40Y851D01*
X98Y851D02*
X107Y851D01*
X164Y851D02*
X167Y851D01*
X1042Y851D02*
X1049Y851D01*
X0Y850D02*
X7Y850D01*
X38Y850D02*
X167Y850D01*
X1042Y850D02*
X1049Y850D01*
X0Y849D02*
X7Y849D01*
X38Y849D02*
X167Y849D01*
X1042Y849D02*
X1049Y849D01*
X0Y848D02*
X7Y848D01*
X1042Y848D02*
X1049Y848D01*
X0Y847D02*
X7Y847D01*
X1042Y847D02*
X1049Y847D01*
X0Y846D02*
X7Y846D01*
X1042Y846D02*
X1049Y846D01*
X0Y845D02*
X7Y845D01*
X1042Y845D02*
X1049Y845D01*
X0Y844D02*
X7Y844D01*
X1042Y844D02*
X1049Y844D01*
X0Y843D02*
X7Y843D01*
X1042Y843D02*
X1049Y843D01*
X0Y842D02*
X7Y842D01*
X1042Y842D02*
X1049Y842D01*
X0Y841D02*
X7Y841D01*
X1042Y841D02*
X1049Y841D01*
X0Y840D02*
X7Y840D01*
X1042Y840D02*
X1049Y840D01*
X0Y839D02*
X7Y839D01*
X1042Y839D02*
X1049Y839D01*
X0Y838D02*
X7Y838D01*
X1042Y838D02*
X1049Y838D01*
X0Y837D02*
X7Y837D01*
X1042Y837D02*
X1049Y837D01*
X0Y836D02*
X7Y836D01*
X1042Y836D02*
X1049Y836D01*
X0Y835D02*
X7Y835D01*
X1042Y835D02*
X1049Y835D01*
X0Y834D02*
X7Y834D01*
X1042Y834D02*
X1049Y834D01*
X0Y833D02*
X7Y833D01*
X1042Y833D02*
X1049Y833D01*
X0Y832D02*
X7Y832D01*
X1042Y832D02*
X1049Y832D01*
X0Y831D02*
X7Y831D01*
X1042Y831D02*
X1049Y831D01*
X0Y830D02*
X7Y830D01*
X1042Y830D02*
X1049Y830D01*
X0Y829D02*
X7Y829D01*
X1042Y829D02*
X1049Y829D01*
X0Y828D02*
X7Y828D01*
X1042Y828D02*
X1049Y828D01*
X0Y827D02*
X7Y827D01*
X1042Y827D02*
X1049Y827D01*
X0Y826D02*
X7Y826D01*
X1042Y826D02*
X1049Y826D01*
X0Y825D02*
X7Y825D01*
X1042Y825D02*
X1049Y825D01*
X0Y824D02*
X7Y824D01*
X1042Y824D02*
X1049Y824D01*
X0Y823D02*
X7Y823D01*
X1042Y823D02*
X1049Y823D01*
X0Y822D02*
X7Y822D01*
X1042Y822D02*
X1049Y822D01*
X0Y821D02*
X7Y821D01*
X1042Y821D02*
X1049Y821D01*
X0Y820D02*
X7Y820D01*
X1042Y820D02*
X1049Y820D01*
X0Y819D02*
X7Y819D01*
X1042Y819D02*
X1049Y819D01*
X0Y818D02*
X7Y818D01*
X1042Y818D02*
X1049Y818D01*
X0Y817D02*
X7Y817D01*
X1042Y817D02*
X1049Y817D01*
X0Y816D02*
X7Y816D01*
X1042Y816D02*
X1049Y816D01*
X0Y815D02*
X7Y815D01*
X1042Y815D02*
X1049Y815D01*
X0Y814D02*
X7Y814D01*
X1042Y814D02*
X1049Y814D01*
X0Y813D02*
X7Y813D01*
X1042Y813D02*
X1049Y813D01*
X0Y812D02*
X7Y812D01*
X1042Y812D02*
X1049Y812D01*
X0Y811D02*
X7Y811D01*
X1042Y811D02*
X1049Y811D01*
X0Y810D02*
X7Y810D01*
X1042Y810D02*
X1049Y810D01*
X0Y809D02*
X7Y809D01*
X1042Y809D02*
X1049Y809D01*
X0Y808D02*
X7Y808D01*
X1042Y808D02*
X1049Y808D01*
X0Y807D02*
X7Y807D01*
X1042Y807D02*
X1049Y807D01*
X0Y806D02*
X7Y806D01*
X1042Y806D02*
X1049Y806D01*
X0Y805D02*
X7Y805D01*
X1042Y805D02*
X1049Y805D01*
X0Y804D02*
X7Y804D01*
X1042Y804D02*
X1049Y804D01*
X0Y803D02*
X7Y803D01*
X1042Y803D02*
X1049Y803D01*
X0Y802D02*
X7Y802D01*
X1042Y802D02*
X1049Y802D01*
X0Y801D02*
X7Y801D01*
X1042Y801D02*
X1049Y801D01*
X0Y800D02*
X7Y800D01*
X1042Y800D02*
X1049Y800D01*
X0Y799D02*
X7Y799D01*
X1042Y799D02*
X1049Y799D01*
X0Y798D02*
X7Y798D01*
X1042Y798D02*
X1049Y798D01*
X0Y797D02*
X7Y797D01*
X1042Y797D02*
X1049Y797D01*
X0Y796D02*
X7Y796D01*
X1042Y796D02*
X1049Y796D01*
X0Y795D02*
X7Y795D01*
X1042Y795D02*
X1049Y795D01*
X0Y794D02*
X7Y794D01*
X1042Y794D02*
X1049Y794D01*
X0Y793D02*
X7Y793D01*
X1042Y793D02*
X1049Y793D01*
X0Y792D02*
X7Y792D01*
X1042Y792D02*
X1049Y792D01*
X0Y791D02*
X7Y791D01*
X1042Y791D02*
X1049Y791D01*
X0Y790D02*
X7Y790D01*
X1042Y790D02*
X1049Y790D01*
X0Y789D02*
X7Y789D01*
X1042Y789D02*
X1049Y789D01*
X0Y788D02*
X7Y788D01*
X1042Y788D02*
X1049Y788D01*
X0Y787D02*
X7Y787D01*
X1042Y787D02*
X1049Y787D01*
X0Y786D02*
X7Y786D01*
X1042Y786D02*
X1049Y786D01*
X0Y785D02*
X7Y785D01*
X1042Y785D02*
X1049Y785D01*
X0Y784D02*
X7Y784D01*
X1042Y784D02*
X1049Y784D01*
X0Y783D02*
X7Y783D01*
X1042Y783D02*
X1049Y783D01*
X0Y782D02*
X7Y782D01*
X1042Y782D02*
X1049Y782D01*
X0Y781D02*
X7Y781D01*
X1042Y781D02*
X1049Y781D01*
X0Y780D02*
X7Y780D01*
X1042Y780D02*
X1049Y780D01*
X0Y779D02*
X7Y779D01*
X1042Y779D02*
X1049Y779D01*
X0Y778D02*
X7Y778D01*
X1042Y778D02*
X1049Y778D01*
X0Y777D02*
X7Y777D01*
X1042Y777D02*
X1049Y777D01*
X0Y776D02*
X7Y776D01*
X1042Y776D02*
X1049Y776D01*
X0Y775D02*
X7Y775D01*
X1042Y775D02*
X1049Y775D01*
X0Y774D02*
X7Y774D01*
X1042Y774D02*
X1049Y774D01*
X0Y773D02*
X7Y773D01*
X1042Y773D02*
X1049Y773D01*
X0Y772D02*
X7Y772D01*
X1042Y772D02*
X1049Y772D01*
X0Y771D02*
X7Y771D01*
X1042Y771D02*
X1049Y771D01*
X0Y770D02*
X7Y770D01*
X1042Y770D02*
X1049Y770D01*
X0Y769D02*
X7Y769D01*
X1042Y769D02*
X1049Y769D01*
X0Y768D02*
X7Y768D01*
X1042Y768D02*
X1049Y768D01*
X0Y767D02*
X7Y767D01*
X1042Y767D02*
X1049Y767D01*
X0Y766D02*
X7Y766D01*
X1042Y766D02*
X1049Y766D01*
X0Y765D02*
X7Y765D01*
X1042Y765D02*
X1049Y765D01*
X0Y764D02*
X7Y764D01*
X1042Y764D02*
X1049Y764D01*
X0Y763D02*
X7Y763D01*
X1042Y763D02*
X1049Y763D01*
X0Y762D02*
X7Y762D01*
X1042Y762D02*
X1049Y762D01*
X0Y761D02*
X7Y761D01*
X1042Y761D02*
X1049Y761D01*
X0Y760D02*
X7Y760D01*
X1042Y760D02*
X1049Y760D01*
X0Y759D02*
X7Y759D01*
X1042Y759D02*
X1049Y759D01*
X0Y758D02*
X7Y758D01*
X1042Y758D02*
X1049Y758D01*
X0Y757D02*
X7Y757D01*
X1042Y757D02*
X1049Y757D01*
X0Y756D02*
X7Y756D01*
X1042Y756D02*
X1049Y756D01*
X0Y755D02*
X7Y755D01*
X1042Y755D02*
X1049Y755D01*
X0Y754D02*
X7Y754D01*
X1042Y754D02*
X1049Y754D01*
X0Y753D02*
X7Y753D01*
X1042Y753D02*
X1049Y753D01*
X0Y752D02*
X7Y752D01*
X1042Y752D02*
X1049Y752D01*
X0Y751D02*
X7Y751D01*
X1042Y751D02*
X1049Y751D01*
X0Y750D02*
X7Y750D01*
X1042Y750D02*
X1049Y750D01*
X0Y749D02*
X7Y749D01*
X1042Y749D02*
X1049Y749D01*
X0Y748D02*
X7Y748D01*
X1042Y748D02*
X1049Y748D01*
X0Y747D02*
X7Y747D01*
X1042Y747D02*
X1049Y747D01*
X0Y746D02*
X7Y746D01*
X1042Y746D02*
X1049Y746D01*
X0Y745D02*
X7Y745D01*
X1042Y745D02*
X1049Y745D01*
X0Y744D02*
X7Y744D01*
X1042Y744D02*
X1049Y744D01*
X0Y743D02*
X7Y743D01*
X1042Y743D02*
X1049Y743D01*
X0Y742D02*
X7Y742D01*
X1042Y742D02*
X1049Y742D01*
X0Y741D02*
X7Y741D01*
X1042Y741D02*
X1049Y741D01*
X0Y740D02*
X7Y740D01*
X1042Y740D02*
X1049Y740D01*
X0Y739D02*
X7Y739D01*
X1042Y739D02*
X1049Y739D01*
X0Y738D02*
X7Y738D01*
X1042Y738D02*
X1049Y738D01*
X0Y737D02*
X7Y737D01*
X1042Y737D02*
X1049Y737D01*
X0Y736D02*
X7Y736D01*
X1042Y736D02*
X1049Y736D01*
X0Y735D02*
X7Y735D01*
X1042Y735D02*
X1049Y735D01*
X0Y734D02*
X7Y734D01*
X1042Y734D02*
X1049Y734D01*
X0Y733D02*
X7Y733D01*
X1042Y733D02*
X1049Y733D01*
X0Y732D02*
X7Y732D01*
X1042Y732D02*
X1049Y732D01*
X0Y731D02*
X7Y731D01*
X1042Y731D02*
X1049Y731D01*
X0Y730D02*
X7Y730D01*
X1042Y730D02*
X1049Y730D01*
X0Y729D02*
X7Y729D01*
X1042Y729D02*
X1049Y729D01*
X0Y728D02*
X7Y728D01*
X1042Y728D02*
X1049Y728D01*
X0Y727D02*
X7Y727D01*
X1042Y727D02*
X1049Y727D01*
X0Y726D02*
X7Y726D01*
X1042Y726D02*
X1049Y726D01*
X0Y725D02*
X7Y725D01*
X1042Y725D02*
X1049Y725D01*
X0Y724D02*
X7Y724D01*
X1042Y724D02*
X1049Y724D01*
X0Y723D02*
X7Y723D01*
X1042Y723D02*
X1049Y723D01*
X0Y722D02*
X7Y722D01*
X1042Y722D02*
X1049Y722D01*
X0Y721D02*
X7Y721D01*
X1042Y721D02*
X1049Y721D01*
X0Y720D02*
X7Y720D01*
X1042Y720D02*
X1049Y720D01*
X0Y719D02*
X7Y719D01*
X1042Y719D02*
X1049Y719D01*
X0Y718D02*
X7Y718D01*
X1042Y718D02*
X1049Y718D01*
X0Y717D02*
X7Y717D01*
X1042Y717D02*
X1049Y717D01*
X0Y716D02*
X7Y716D01*
X1042Y716D02*
X1049Y716D01*
X0Y715D02*
X7Y715D01*
X1042Y715D02*
X1049Y715D01*
X0Y714D02*
X7Y714D01*
X1042Y714D02*
X1049Y714D01*
X0Y713D02*
X7Y713D01*
X1042Y713D02*
X1049Y713D01*
X0Y712D02*
X7Y712D01*
X1042Y712D02*
X1049Y712D01*
X0Y711D02*
X7Y711D01*
X1042Y711D02*
X1049Y711D01*
X0Y710D02*
X7Y710D01*
X1042Y710D02*
X1049Y710D01*
X0Y709D02*
X7Y709D01*
X1042Y709D02*
X1049Y709D01*
X0Y708D02*
X7Y708D01*
X1042Y708D02*
X1049Y708D01*
X0Y707D02*
X7Y707D01*
X38Y707D02*
X167Y707D01*
X1042Y707D02*
X1049Y707D01*
X0Y706D02*
X7Y706D01*
X38Y706D02*
X167Y706D01*
X1042Y706D02*
X1049Y706D01*
X0Y705D02*
X7Y705D01*
X38Y705D02*
X167Y705D01*
X1042Y705D02*
X1049Y705D01*
X0Y704D02*
X7Y704D01*
X38Y704D02*
X40Y704D01*
X98Y704D02*
X107Y704D01*
X165Y704D02*
X167Y704D01*
X1042Y704D02*
X1049Y704D01*
X0Y703D02*
X7Y703D01*
X38Y703D02*
X40Y703D01*
X165Y703D02*
X167Y703D01*
X1042Y703D02*
X1049Y703D01*
X0Y702D02*
X7Y702D01*
X38Y702D02*
X40Y702D01*
X165Y702D02*
X167Y702D01*
X1042Y702D02*
X1049Y702D01*
X0Y701D02*
X7Y701D01*
X38Y701D02*
X40Y701D01*
X165Y701D02*
X167Y701D01*
X1042Y701D02*
X1049Y701D01*
X0Y700D02*
X7Y700D01*
X38Y700D02*
X40Y700D01*
X165Y700D02*
X167Y700D01*
X1042Y700D02*
X1049Y700D01*
X0Y699D02*
X7Y699D01*
X38Y699D02*
X40Y699D01*
X165Y699D02*
X167Y699D01*
X1042Y699D02*
X1049Y699D01*
X0Y698D02*
X7Y698D01*
X38Y698D02*
X40Y698D01*
X165Y698D02*
X167Y698D01*
X1042Y698D02*
X1049Y698D01*
X0Y697D02*
X7Y697D01*
X38Y697D02*
X40Y697D01*
X165Y697D02*
X167Y697D01*
X1042Y697D02*
X1049Y697D01*
X0Y696D02*
X7Y696D01*
X38Y696D02*
X40Y696D01*
X165Y696D02*
X167Y696D01*
X1042Y696D02*
X1049Y696D01*
X0Y695D02*
X7Y695D01*
X38Y695D02*
X40Y695D01*
X165Y695D02*
X167Y695D01*
X1042Y695D02*
X1049Y695D01*
X0Y694D02*
X7Y694D01*
X38Y694D02*
X40Y694D01*
X165Y694D02*
X167Y694D01*
X1042Y694D02*
X1049Y694D01*
X0Y693D02*
X7Y693D01*
X38Y693D02*
X40Y693D01*
X165Y693D02*
X167Y693D01*
X1042Y693D02*
X1049Y693D01*
X0Y692D02*
X7Y692D01*
X38Y692D02*
X40Y692D01*
X165Y692D02*
X167Y692D01*
X1042Y692D02*
X1049Y692D01*
X0Y691D02*
X7Y691D01*
X38Y691D02*
X40Y691D01*
X165Y691D02*
X167Y691D01*
X1042Y691D02*
X1049Y691D01*
X0Y690D02*
X7Y690D01*
X38Y690D02*
X40Y690D01*
X165Y690D02*
X167Y690D01*
X1042Y690D02*
X1049Y690D01*
X0Y689D02*
X7Y689D01*
X38Y689D02*
X40Y689D01*
X165Y689D02*
X167Y689D01*
X1042Y689D02*
X1049Y689D01*
X0Y688D02*
X7Y688D01*
X38Y688D02*
X40Y688D01*
X165Y688D02*
X167Y688D01*
X1042Y688D02*
X1049Y688D01*
X0Y687D02*
X7Y687D01*
X38Y687D02*
X40Y687D01*
X165Y687D02*
X167Y687D01*
X1042Y687D02*
X1049Y687D01*
X0Y686D02*
X7Y686D01*
X38Y686D02*
X40Y686D01*
X165Y686D02*
X167Y686D01*
X1042Y686D02*
X1049Y686D01*
X0Y685D02*
X7Y685D01*
X38Y685D02*
X40Y685D01*
X165Y685D02*
X167Y685D01*
X1042Y685D02*
X1049Y685D01*
X0Y684D02*
X7Y684D01*
X38Y684D02*
X40Y684D01*
X165Y684D02*
X167Y684D01*
X1042Y684D02*
X1049Y684D01*
X0Y683D02*
X7Y683D01*
X38Y683D02*
X40Y683D01*
X165Y683D02*
X167Y683D01*
X1042Y683D02*
X1049Y683D01*
X0Y682D02*
X7Y682D01*
X38Y682D02*
X40Y682D01*
X165Y682D02*
X167Y682D01*
X1042Y682D02*
X1049Y682D01*
X0Y681D02*
X7Y681D01*
X38Y681D02*
X40Y681D01*
X165Y681D02*
X167Y681D01*
X1042Y681D02*
X1049Y681D01*
X0Y680D02*
X7Y680D01*
X38Y680D02*
X40Y680D01*
X165Y680D02*
X167Y680D01*
X1042Y680D02*
X1049Y680D01*
X0Y679D02*
X7Y679D01*
X38Y679D02*
X40Y679D01*
X165Y679D02*
X167Y679D01*
X1042Y679D02*
X1049Y679D01*
X0Y678D02*
X7Y678D01*
X38Y678D02*
X40Y678D01*
X165Y678D02*
X167Y678D01*
X1042Y678D02*
X1049Y678D01*
X0Y677D02*
X7Y677D01*
X38Y677D02*
X40Y677D01*
X165Y677D02*
X167Y677D01*
X1042Y677D02*
X1049Y677D01*
X0Y676D02*
X7Y676D01*
X38Y676D02*
X40Y676D01*
X165Y676D02*
X167Y676D01*
X1042Y676D02*
X1049Y676D01*
X0Y675D02*
X7Y675D01*
X38Y675D02*
X40Y675D01*
X165Y675D02*
X167Y675D01*
X1042Y675D02*
X1049Y675D01*
X0Y674D02*
X7Y674D01*
X38Y674D02*
X40Y674D01*
X165Y674D02*
X167Y674D01*
X1042Y674D02*
X1049Y674D01*
X0Y673D02*
X7Y673D01*
X38Y673D02*
X40Y673D01*
X165Y673D02*
X167Y673D01*
X1042Y673D02*
X1049Y673D01*
X0Y672D02*
X7Y672D01*
X38Y672D02*
X40Y672D01*
X165Y672D02*
X167Y672D01*
X1042Y672D02*
X1049Y672D01*
X0Y671D02*
X7Y671D01*
X38Y671D02*
X40Y671D01*
X165Y671D02*
X167Y671D01*
X1042Y671D02*
X1049Y671D01*
X0Y670D02*
X7Y670D01*
X38Y670D02*
X40Y670D01*
X165Y670D02*
X167Y670D01*
X1042Y670D02*
X1049Y670D01*
X0Y669D02*
X7Y669D01*
X38Y669D02*
X40Y669D01*
X165Y669D02*
X167Y669D01*
X1042Y669D02*
X1049Y669D01*
X0Y668D02*
X7Y668D01*
X38Y668D02*
X40Y668D01*
X165Y668D02*
X167Y668D01*
X1042Y668D02*
X1049Y668D01*
X0Y667D02*
X7Y667D01*
X38Y667D02*
X40Y667D01*
X165Y667D02*
X167Y667D01*
X1042Y667D02*
X1049Y667D01*
X0Y666D02*
X7Y666D01*
X38Y666D02*
X40Y666D01*
X165Y666D02*
X167Y666D01*
X1042Y666D02*
X1049Y666D01*
X0Y665D02*
X7Y665D01*
X38Y665D02*
X40Y665D01*
X165Y665D02*
X167Y665D01*
X1042Y665D02*
X1049Y665D01*
X0Y664D02*
X7Y664D01*
X38Y664D02*
X40Y664D01*
X165Y664D02*
X167Y664D01*
X1042Y664D02*
X1049Y664D01*
X0Y663D02*
X7Y663D01*
X38Y663D02*
X40Y663D01*
X165Y663D02*
X167Y663D01*
X1042Y663D02*
X1049Y663D01*
X0Y662D02*
X7Y662D01*
X38Y662D02*
X40Y662D01*
X165Y662D02*
X167Y662D01*
X1042Y662D02*
X1049Y662D01*
X0Y661D02*
X7Y661D01*
X38Y661D02*
X40Y661D01*
X165Y661D02*
X167Y661D01*
X1042Y661D02*
X1049Y661D01*
X0Y660D02*
X7Y660D01*
X38Y660D02*
X40Y660D01*
X165Y660D02*
X167Y660D01*
X1042Y660D02*
X1049Y660D01*
X0Y659D02*
X7Y659D01*
X38Y659D02*
X40Y659D01*
X165Y659D02*
X167Y659D01*
X1042Y659D02*
X1049Y659D01*
X0Y658D02*
X7Y658D01*
X38Y658D02*
X40Y658D01*
X165Y658D02*
X167Y658D01*
X1042Y658D02*
X1049Y658D01*
X0Y657D02*
X7Y657D01*
X38Y657D02*
X40Y657D01*
X165Y657D02*
X167Y657D01*
X1042Y657D02*
X1049Y657D01*
X0Y656D02*
X7Y656D01*
X38Y656D02*
X40Y656D01*
X165Y656D02*
X167Y656D01*
X1042Y656D02*
X1049Y656D01*
X0Y655D02*
X7Y655D01*
X38Y655D02*
X40Y655D01*
X165Y655D02*
X167Y655D01*
X1042Y655D02*
X1049Y655D01*
X0Y654D02*
X7Y654D01*
X38Y654D02*
X40Y654D01*
X165Y654D02*
X167Y654D01*
X1042Y654D02*
X1049Y654D01*
X0Y653D02*
X7Y653D01*
X38Y653D02*
X40Y653D01*
X165Y653D02*
X167Y653D01*
X1042Y653D02*
X1049Y653D01*
X0Y652D02*
X7Y652D01*
X38Y652D02*
X40Y652D01*
X98Y652D02*
X107Y652D01*
X165Y652D02*
X167Y652D01*
X1042Y652D02*
X1049Y652D01*
X0Y651D02*
X7Y651D01*
X38Y651D02*
X167Y651D01*
X1042Y651D02*
X1049Y651D01*
X0Y650D02*
X7Y650D01*
X38Y650D02*
X167Y650D01*
X1042Y650D02*
X1049Y650D01*
X0Y649D02*
X7Y649D01*
X38Y649D02*
X167Y649D01*
X1042Y649D02*
X1049Y649D01*
X0Y648D02*
X7Y648D01*
X1042Y648D02*
X1049Y648D01*
X0Y647D02*
X7Y647D01*
X1042Y647D02*
X1049Y647D01*
X0Y646D02*
X7Y646D01*
X1042Y646D02*
X1049Y646D01*
X0Y645D02*
X7Y645D01*
X1042Y645D02*
X1049Y645D01*
X0Y644D02*
X7Y644D01*
X1042Y644D02*
X1049Y644D01*
X0Y643D02*
X7Y643D01*
X1042Y643D02*
X1049Y643D01*
X0Y642D02*
X7Y642D01*
X1042Y642D02*
X1049Y642D01*
X0Y641D02*
X7Y641D01*
X1042Y641D02*
X1049Y641D01*
X0Y640D02*
X7Y640D01*
X1042Y640D02*
X1049Y640D01*
X0Y639D02*
X7Y639D01*
X1042Y639D02*
X1049Y639D01*
X0Y638D02*
X7Y638D01*
X1042Y638D02*
X1049Y638D01*
X0Y637D02*
X7Y637D01*
X1042Y637D02*
X1049Y637D01*
X0Y636D02*
X7Y636D01*
X1042Y636D02*
X1049Y636D01*
X0Y635D02*
X7Y635D01*
X1042Y635D02*
X1049Y635D01*
X0Y634D02*
X7Y634D01*
X1042Y634D02*
X1049Y634D01*
X0Y633D02*
X7Y633D01*
X1042Y633D02*
X1049Y633D01*
X0Y632D02*
X7Y632D01*
X1042Y632D02*
X1049Y632D01*
X0Y631D02*
X7Y631D01*
X1042Y631D02*
X1049Y631D01*
X0Y630D02*
X7Y630D01*
X1042Y630D02*
X1049Y630D01*
X0Y629D02*
X7Y629D01*
X1042Y629D02*
X1049Y629D01*
X0Y628D02*
X7Y628D01*
X1042Y628D02*
X1049Y628D01*
X0Y627D02*
X7Y627D01*
X1042Y627D02*
X1049Y627D01*
X0Y626D02*
X7Y626D01*
X1042Y626D02*
X1049Y626D01*
X0Y625D02*
X7Y625D01*
X1042Y625D02*
X1049Y625D01*
X0Y624D02*
X7Y624D01*
X1042Y624D02*
X1049Y624D01*
X0Y623D02*
X7Y623D01*
X1042Y623D02*
X1049Y623D01*
X0Y622D02*
X7Y622D01*
X1042Y622D02*
X1049Y622D01*
X0Y621D02*
X7Y621D01*
X1042Y621D02*
X1049Y621D01*
X0Y620D02*
X7Y620D01*
X1042Y620D02*
X1049Y620D01*
X0Y619D02*
X7Y619D01*
X1042Y619D02*
X1049Y619D01*
X0Y618D02*
X7Y618D01*
X1042Y618D02*
X1049Y618D01*
X0Y617D02*
X7Y617D01*
X1042Y617D02*
X1049Y617D01*
X0Y616D02*
X7Y616D01*
X1042Y616D02*
X1049Y616D01*
X0Y615D02*
X7Y615D01*
X1042Y615D02*
X1049Y615D01*
X0Y614D02*
X7Y614D01*
X1042Y614D02*
X1049Y614D01*
X0Y613D02*
X7Y613D01*
X1042Y613D02*
X1049Y613D01*
X0Y612D02*
X7Y612D01*
X1042Y612D02*
X1049Y612D01*
X0Y611D02*
X7Y611D01*
X1042Y611D02*
X1049Y611D01*
X0Y610D02*
X7Y610D01*
X1042Y610D02*
X1049Y610D01*
X0Y609D02*
X7Y609D01*
X1042Y609D02*
X1049Y609D01*
X0Y608D02*
X7Y608D01*
X1042Y608D02*
X1049Y608D01*
X0Y607D02*
X7Y607D01*
X1042Y607D02*
X1049Y607D01*
X0Y606D02*
X7Y606D01*
X1042Y606D02*
X1049Y606D01*
X0Y605D02*
X7Y605D01*
X1042Y605D02*
X1049Y605D01*
X0Y604D02*
X7Y604D01*
X1042Y604D02*
X1049Y604D01*
X0Y603D02*
X7Y603D01*
X1042Y603D02*
X1049Y603D01*
X0Y602D02*
X7Y602D01*
X1042Y602D02*
X1049Y602D01*
X0Y601D02*
X7Y601D01*
X1042Y601D02*
X1049Y601D01*
X0Y600D02*
X7Y600D01*
X1042Y600D02*
X1049Y600D01*
X0Y599D02*
X7Y599D01*
X1042Y599D02*
X1049Y599D01*
X0Y598D02*
X7Y598D01*
X1042Y598D02*
X1049Y598D01*
X0Y597D02*
X7Y597D01*
X1042Y597D02*
X1049Y597D01*
X0Y596D02*
X7Y596D01*
X1042Y596D02*
X1049Y596D01*
X0Y595D02*
X7Y595D01*
X1042Y595D02*
X1049Y595D01*
X0Y594D02*
X7Y594D01*
X1042Y594D02*
X1049Y594D01*
X0Y593D02*
X7Y593D01*
X1042Y593D02*
X1049Y593D01*
X0Y592D02*
X7Y592D01*
X1042Y592D02*
X1049Y592D01*
X0Y591D02*
X7Y591D01*
X1042Y591D02*
X1049Y591D01*
X0Y590D02*
X7Y590D01*
X1042Y590D02*
X1049Y590D01*
X0Y589D02*
X7Y589D01*
X1042Y589D02*
X1049Y589D01*
X0Y588D02*
X7Y588D01*
X1042Y588D02*
X1049Y588D01*
X0Y587D02*
X7Y587D01*
X1042Y587D02*
X1049Y587D01*
X0Y586D02*
X7Y586D01*
X1042Y586D02*
X1049Y586D01*
X0Y585D02*
X7Y585D01*
X1042Y585D02*
X1049Y585D01*
X0Y584D02*
X7Y584D01*
X1042Y584D02*
X1049Y584D01*
X0Y583D02*
X7Y583D01*
X1042Y583D02*
X1049Y583D01*
X0Y582D02*
X7Y582D01*
X1042Y582D02*
X1049Y582D01*
X0Y581D02*
X7Y581D01*
X1042Y581D02*
X1049Y581D01*
X0Y580D02*
X7Y580D01*
X1042Y580D02*
X1049Y580D01*
X0Y579D02*
X7Y579D01*
X1042Y579D02*
X1049Y579D01*
X0Y578D02*
X7Y578D01*
X1042Y578D02*
X1049Y578D01*
X0Y577D02*
X7Y577D01*
X1042Y577D02*
X1049Y577D01*
X0Y576D02*
X7Y576D01*
X1042Y576D02*
X1049Y576D01*
X0Y575D02*
X7Y575D01*
X1042Y575D02*
X1049Y575D01*
X0Y574D02*
X7Y574D01*
X1042Y574D02*
X1049Y574D01*
X0Y573D02*
X7Y573D01*
X1042Y573D02*
X1049Y573D01*
X0Y572D02*
X7Y572D01*
X1042Y572D02*
X1049Y572D01*
X0Y571D02*
X7Y571D01*
X1042Y571D02*
X1049Y571D01*
X0Y570D02*
X7Y570D01*
X1042Y570D02*
X1049Y570D01*
X0Y569D02*
X7Y569D01*
X1042Y569D02*
X1049Y569D01*
X0Y568D02*
X7Y568D01*
X1042Y568D02*
X1049Y568D01*
X0Y567D02*
X7Y567D01*
X1042Y567D02*
X1049Y567D01*
X0Y566D02*
X7Y566D01*
X1042Y566D02*
X1049Y566D01*
X0Y565D02*
X7Y565D01*
X1042Y565D02*
X1049Y565D01*
X0Y564D02*
X7Y564D01*
X1042Y564D02*
X1049Y564D01*
X0Y563D02*
X7Y563D01*
X1042Y563D02*
X1049Y563D01*
X0Y562D02*
X7Y562D01*
X1042Y562D02*
X1049Y562D01*
X0Y561D02*
X7Y561D01*
X1042Y561D02*
X1049Y561D01*
X0Y560D02*
X7Y560D01*
X1042Y560D02*
X1049Y560D01*
X0Y559D02*
X7Y559D01*
X1042Y559D02*
X1049Y559D01*
X0Y558D02*
X7Y558D01*
X1042Y558D02*
X1049Y558D01*
X0Y557D02*
X7Y557D01*
X1042Y557D02*
X1049Y557D01*
X0Y556D02*
X7Y556D01*
X1042Y556D02*
X1049Y556D01*
X0Y555D02*
X7Y555D01*
X1042Y555D02*
X1049Y555D01*
X0Y554D02*
X7Y554D01*
X1042Y554D02*
X1049Y554D01*
X0Y553D02*
X7Y553D01*
X1042Y553D02*
X1049Y553D01*
X0Y552D02*
X7Y552D01*
X1042Y552D02*
X1049Y552D01*
X0Y551D02*
X7Y551D01*
X1042Y551D02*
X1049Y551D01*
X0Y550D02*
X7Y550D01*
X1042Y550D02*
X1049Y550D01*
X0Y549D02*
X7Y549D01*
X1042Y549D02*
X1049Y549D01*
X0Y548D02*
X7Y548D01*
X1042Y548D02*
X1049Y548D01*
X0Y547D02*
X7Y547D01*
X1042Y547D02*
X1049Y547D01*
X0Y546D02*
X7Y546D01*
X1042Y546D02*
X1049Y546D01*
X0Y545D02*
X7Y545D01*
X1042Y545D02*
X1049Y545D01*
X0Y544D02*
X7Y544D01*
X1042Y544D02*
X1049Y544D01*
X0Y543D02*
X7Y543D01*
X1042Y543D02*
X1049Y543D01*
X0Y542D02*
X7Y542D01*
X1042Y542D02*
X1049Y542D01*
X0Y541D02*
X7Y541D01*
X1042Y541D02*
X1049Y541D01*
X0Y540D02*
X7Y540D01*
X1042Y540D02*
X1049Y540D01*
X0Y539D02*
X7Y539D01*
X1042Y539D02*
X1049Y539D01*
X0Y538D02*
X7Y538D01*
X1042Y538D02*
X1049Y538D01*
X0Y537D02*
X7Y537D01*
X1042Y537D02*
X1049Y537D01*
X0Y536D02*
X7Y536D01*
X1042Y536D02*
X1049Y536D01*
X0Y535D02*
X7Y535D01*
X1042Y535D02*
X1049Y535D01*
X0Y534D02*
X7Y534D01*
X1042Y534D02*
X1049Y534D01*
X0Y533D02*
X7Y533D01*
X1042Y533D02*
X1049Y533D01*
X0Y532D02*
X7Y532D01*
X1042Y532D02*
X1049Y532D01*
X0Y531D02*
X7Y531D01*
X1042Y531D02*
X1049Y531D01*
X0Y530D02*
X7Y530D01*
X1042Y530D02*
X1049Y530D01*
X0Y529D02*
X7Y529D01*
X1042Y529D02*
X1049Y529D01*
X0Y528D02*
X7Y528D01*
X1042Y528D02*
X1049Y528D01*
X0Y527D02*
X7Y527D01*
X1042Y527D02*
X1049Y527D01*
X0Y526D02*
X7Y526D01*
X18Y526D02*
X147Y526D01*
X1042Y526D02*
X1049Y526D01*
X0Y525D02*
X7Y525D01*
X18Y525D02*
X147Y525D01*
X1042Y525D02*
X1049Y525D01*
X0Y524D02*
X7Y524D01*
X18Y524D02*
X147Y524D01*
X1042Y524D02*
X1049Y524D01*
X0Y523D02*
X7Y523D01*
X18Y523D02*
X20Y523D01*
X78Y523D02*
X87Y523D01*
X145Y523D02*
X147Y523D01*
X1042Y523D02*
X1049Y523D01*
X0Y522D02*
X7Y522D01*
X18Y522D02*
X20Y522D01*
X145Y522D02*
X147Y522D01*
X1042Y522D02*
X1049Y522D01*
X0Y521D02*
X7Y521D01*
X18Y521D02*
X20Y521D01*
X145Y521D02*
X147Y521D01*
X1042Y521D02*
X1049Y521D01*
X0Y520D02*
X7Y520D01*
X18Y520D02*
X20Y520D01*
X145Y520D02*
X147Y520D01*
X1042Y520D02*
X1049Y520D01*
X0Y519D02*
X7Y519D01*
X18Y519D02*
X20Y519D01*
X145Y519D02*
X147Y519D01*
X1042Y519D02*
X1049Y519D01*
X0Y518D02*
X7Y518D01*
X18Y518D02*
X20Y518D01*
X145Y518D02*
X147Y518D01*
X1042Y518D02*
X1049Y518D01*
X0Y517D02*
X7Y517D01*
X18Y517D02*
X20Y517D01*
X145Y517D02*
X147Y517D01*
X1042Y517D02*
X1049Y517D01*
X0Y516D02*
X7Y516D01*
X18Y516D02*
X20Y516D01*
X145Y516D02*
X147Y516D01*
X1042Y516D02*
X1049Y516D01*
X0Y515D02*
X7Y515D01*
X18Y515D02*
X20Y515D01*
X145Y515D02*
X147Y515D01*
X1042Y515D02*
X1049Y515D01*
X0Y514D02*
X7Y514D01*
X18Y514D02*
X20Y514D01*
X145Y514D02*
X147Y514D01*
X1042Y514D02*
X1049Y514D01*
X0Y513D02*
X7Y513D01*
X18Y513D02*
X20Y513D01*
X145Y513D02*
X147Y513D01*
X1042Y513D02*
X1049Y513D01*
X0Y512D02*
X7Y512D01*
X18Y512D02*
X20Y512D01*
X145Y512D02*
X147Y512D01*
X1042Y512D02*
X1049Y512D01*
X0Y511D02*
X7Y511D01*
X18Y511D02*
X20Y511D01*
X145Y511D02*
X147Y511D01*
X1042Y511D02*
X1049Y511D01*
X0Y510D02*
X7Y510D01*
X18Y510D02*
X20Y510D01*
X145Y510D02*
X147Y510D01*
X1042Y510D02*
X1049Y510D01*
X0Y509D02*
X7Y509D01*
X18Y509D02*
X20Y509D01*
X145Y509D02*
X147Y509D01*
X1042Y509D02*
X1049Y509D01*
X0Y508D02*
X7Y508D01*
X18Y508D02*
X20Y508D01*
X145Y508D02*
X147Y508D01*
X1042Y508D02*
X1049Y508D01*
X0Y507D02*
X7Y507D01*
X18Y507D02*
X20Y507D01*
X145Y507D02*
X147Y507D01*
X1042Y507D02*
X1049Y507D01*
X0Y506D02*
X7Y506D01*
X18Y506D02*
X20Y506D01*
X145Y506D02*
X147Y506D01*
X1042Y506D02*
X1049Y506D01*
X0Y505D02*
X7Y505D01*
X18Y505D02*
X20Y505D01*
X145Y505D02*
X147Y505D01*
X1042Y505D02*
X1049Y505D01*
X0Y504D02*
X7Y504D01*
X18Y504D02*
X20Y504D01*
X145Y504D02*
X147Y504D01*
X1042Y504D02*
X1049Y504D01*
X0Y503D02*
X7Y503D01*
X18Y503D02*
X20Y503D01*
X145Y503D02*
X147Y503D01*
X1042Y503D02*
X1049Y503D01*
X0Y502D02*
X7Y502D01*
X18Y502D02*
X20Y502D01*
X145Y502D02*
X147Y502D01*
X1042Y502D02*
X1049Y502D01*
X0Y501D02*
X7Y501D01*
X18Y501D02*
X20Y501D01*
X145Y501D02*
X147Y501D01*
X1042Y501D02*
X1049Y501D01*
X0Y500D02*
X7Y500D01*
X18Y500D02*
X20Y500D01*
X145Y500D02*
X147Y500D01*
X1042Y500D02*
X1049Y500D01*
X0Y499D02*
X7Y499D01*
X18Y499D02*
X20Y499D01*
X145Y499D02*
X147Y499D01*
X1042Y499D02*
X1049Y499D01*
X0Y498D02*
X7Y498D01*
X18Y498D02*
X20Y498D01*
X145Y498D02*
X147Y498D01*
X1042Y498D02*
X1049Y498D01*
X0Y497D02*
X7Y497D01*
X18Y497D02*
X20Y497D01*
X145Y497D02*
X147Y497D01*
X1042Y497D02*
X1049Y497D01*
X0Y496D02*
X7Y496D01*
X18Y496D02*
X20Y496D01*
X145Y496D02*
X147Y496D01*
X1042Y496D02*
X1049Y496D01*
X0Y495D02*
X7Y495D01*
X18Y495D02*
X20Y495D01*
X145Y495D02*
X147Y495D01*
X1042Y495D02*
X1049Y495D01*
X0Y494D02*
X7Y494D01*
X18Y494D02*
X20Y494D01*
X145Y494D02*
X147Y494D01*
X1042Y494D02*
X1049Y494D01*
X0Y493D02*
X7Y493D01*
X18Y493D02*
X20Y493D01*
X145Y493D02*
X147Y493D01*
X1042Y493D02*
X1049Y493D01*
X0Y492D02*
X7Y492D01*
X18Y492D02*
X20Y492D01*
X145Y492D02*
X147Y492D01*
X1042Y492D02*
X1049Y492D01*
X0Y491D02*
X7Y491D01*
X18Y491D02*
X20Y491D01*
X145Y491D02*
X147Y491D01*
X1042Y491D02*
X1049Y491D01*
X0Y490D02*
X7Y490D01*
X18Y490D02*
X20Y490D01*
X145Y490D02*
X147Y490D01*
X1042Y490D02*
X1049Y490D01*
X0Y489D02*
X7Y489D01*
X18Y489D02*
X20Y489D01*
X145Y489D02*
X147Y489D01*
X1042Y489D02*
X1049Y489D01*
X0Y488D02*
X7Y488D01*
X18Y488D02*
X20Y488D01*
X145Y488D02*
X147Y488D01*
X1042Y488D02*
X1049Y488D01*
X0Y487D02*
X7Y487D01*
X18Y487D02*
X20Y487D01*
X145Y487D02*
X147Y487D01*
X1042Y487D02*
X1049Y487D01*
X0Y486D02*
X7Y486D01*
X18Y486D02*
X20Y486D01*
X145Y486D02*
X147Y486D01*
X1042Y486D02*
X1049Y486D01*
X0Y485D02*
X7Y485D01*
X18Y485D02*
X20Y485D01*
X145Y485D02*
X147Y485D01*
X1042Y485D02*
X1049Y485D01*
X0Y484D02*
X7Y484D01*
X18Y484D02*
X20Y484D01*
X145Y484D02*
X147Y484D01*
X1042Y484D02*
X1049Y484D01*
X0Y483D02*
X7Y483D01*
X18Y483D02*
X20Y483D01*
X145Y483D02*
X147Y483D01*
X1042Y483D02*
X1049Y483D01*
X0Y482D02*
X7Y482D01*
X18Y482D02*
X20Y482D01*
X145Y482D02*
X147Y482D01*
X1042Y482D02*
X1049Y482D01*
X0Y481D02*
X7Y481D01*
X18Y481D02*
X20Y481D01*
X145Y481D02*
X147Y481D01*
X1042Y481D02*
X1049Y481D01*
X0Y480D02*
X7Y480D01*
X18Y480D02*
X20Y480D01*
X145Y480D02*
X147Y480D01*
X1042Y480D02*
X1049Y480D01*
X0Y479D02*
X7Y479D01*
X18Y479D02*
X20Y479D01*
X145Y479D02*
X147Y479D01*
X1042Y479D02*
X1049Y479D01*
X0Y478D02*
X7Y478D01*
X18Y478D02*
X20Y478D01*
X145Y478D02*
X147Y478D01*
X1042Y478D02*
X1049Y478D01*
X0Y477D02*
X7Y477D01*
X18Y477D02*
X20Y477D01*
X145Y477D02*
X147Y477D01*
X1042Y477D02*
X1049Y477D01*
X0Y476D02*
X7Y476D01*
X18Y476D02*
X20Y476D01*
X145Y476D02*
X147Y476D01*
X1042Y476D02*
X1049Y476D01*
X0Y475D02*
X7Y475D01*
X18Y475D02*
X20Y475D01*
X145Y475D02*
X147Y475D01*
X1042Y475D02*
X1049Y475D01*
X0Y474D02*
X7Y474D01*
X18Y474D02*
X20Y474D01*
X145Y474D02*
X147Y474D01*
X1042Y474D02*
X1049Y474D01*
X0Y473D02*
X7Y473D01*
X18Y473D02*
X20Y473D01*
X145Y473D02*
X147Y473D01*
X1042Y473D02*
X1049Y473D01*
X0Y472D02*
X7Y472D01*
X18Y472D02*
X20Y472D01*
X145Y472D02*
X147Y472D01*
X1042Y472D02*
X1049Y472D01*
X0Y471D02*
X7Y471D01*
X18Y471D02*
X20Y471D01*
X78Y471D02*
X87Y471D01*
X145Y471D02*
X147Y471D01*
X1042Y471D02*
X1049Y471D01*
X0Y470D02*
X7Y470D01*
X18Y470D02*
X147Y470D01*
X1042Y470D02*
X1049Y470D01*
X0Y469D02*
X7Y469D01*
X18Y469D02*
X147Y469D01*
X1042Y469D02*
X1049Y469D01*
X0Y468D02*
X7Y468D01*
X18Y468D02*
X147Y468D01*
X1042Y468D02*
X1049Y468D01*
X0Y467D02*
X7Y467D01*
X1042Y467D02*
X1049Y467D01*
X0Y466D02*
X7Y466D01*
X1042Y466D02*
X1049Y466D01*
X0Y465D02*
X7Y465D01*
X1042Y465D02*
X1049Y465D01*
X0Y464D02*
X7Y464D01*
X1042Y464D02*
X1049Y464D01*
X0Y463D02*
X7Y463D01*
X1042Y463D02*
X1049Y463D01*
X0Y462D02*
X7Y462D01*
X1042Y462D02*
X1049Y462D01*
X0Y461D02*
X7Y461D01*
X1042Y461D02*
X1049Y461D01*
X0Y460D02*
X7Y460D01*
X1042Y460D02*
X1049Y460D01*
X0Y459D02*
X7Y459D01*
X1042Y459D02*
X1049Y459D01*
X0Y458D02*
X7Y458D01*
X1042Y458D02*
X1049Y458D01*
X0Y457D02*
X7Y457D01*
X1042Y457D02*
X1049Y457D01*
X0Y456D02*
X7Y456D01*
X1042Y456D02*
X1049Y456D01*
X0Y455D02*
X7Y455D01*
X1042Y455D02*
X1049Y455D01*
X0Y454D02*
X7Y454D01*
X1042Y454D02*
X1049Y454D01*
X0Y453D02*
X7Y453D01*
X1042Y453D02*
X1049Y453D01*
X0Y452D02*
X7Y452D01*
X1042Y452D02*
X1049Y452D01*
X0Y451D02*
X7Y451D01*
X1042Y451D02*
X1049Y451D01*
X0Y450D02*
X7Y450D01*
X1042Y450D02*
X1049Y450D01*
X0Y449D02*
X7Y449D01*
X1042Y449D02*
X1049Y449D01*
X0Y448D02*
X7Y448D01*
X1042Y448D02*
X1049Y448D01*
X0Y447D02*
X7Y447D01*
X1042Y447D02*
X1049Y447D01*
X0Y446D02*
X7Y446D01*
X1042Y446D02*
X1049Y446D01*
X0Y445D02*
X7Y445D01*
X1042Y445D02*
X1049Y445D01*
X0Y444D02*
X7Y444D01*
X1042Y444D02*
X1049Y444D01*
X0Y443D02*
X7Y443D01*
X1042Y443D02*
X1049Y443D01*
X0Y442D02*
X7Y442D01*
X1042Y442D02*
X1049Y442D01*
X0Y441D02*
X7Y441D01*
X1042Y441D02*
X1049Y441D01*
X0Y440D02*
X7Y440D01*
X1042Y440D02*
X1049Y440D01*
X0Y439D02*
X7Y439D01*
X1042Y439D02*
X1049Y439D01*
X0Y438D02*
X7Y438D01*
X1042Y438D02*
X1049Y438D01*
X0Y437D02*
X7Y437D01*
X1042Y437D02*
X1049Y437D01*
X0Y436D02*
X7Y436D01*
X1042Y436D02*
X1049Y436D01*
X0Y435D02*
X7Y435D01*
X1042Y435D02*
X1049Y435D01*
X0Y434D02*
X7Y434D01*
X1042Y434D02*
X1049Y434D01*
X0Y433D02*
X7Y433D01*
X1042Y433D02*
X1049Y433D01*
X0Y432D02*
X7Y432D01*
X1042Y432D02*
X1049Y432D01*
X0Y431D02*
X7Y431D01*
X1042Y431D02*
X1049Y431D01*
X0Y430D02*
X7Y430D01*
X1042Y430D02*
X1049Y430D01*
X0Y429D02*
X7Y429D01*
X1042Y429D02*
X1049Y429D01*
X0Y428D02*
X7Y428D01*
X1042Y428D02*
X1049Y428D01*
X0Y427D02*
X7Y427D01*
X1042Y427D02*
X1049Y427D01*
X0Y426D02*
X7Y426D01*
X1042Y426D02*
X1049Y426D01*
X0Y425D02*
X7Y425D01*
X1042Y425D02*
X1049Y425D01*
X0Y424D02*
X7Y424D01*
X1042Y424D02*
X1049Y424D01*
X0Y423D02*
X7Y423D01*
X1042Y423D02*
X1049Y423D01*
X0Y422D02*
X7Y422D01*
X1042Y422D02*
X1049Y422D01*
X0Y421D02*
X7Y421D01*
X1042Y421D02*
X1049Y421D01*
X0Y420D02*
X7Y420D01*
X1042Y420D02*
X1049Y420D01*
X0Y419D02*
X7Y419D01*
X1042Y419D02*
X1049Y419D01*
X0Y418D02*
X7Y418D01*
X1042Y418D02*
X1049Y418D01*
X0Y417D02*
X7Y417D01*
X1042Y417D02*
X1049Y417D01*
X0Y416D02*
X7Y416D01*
X1042Y416D02*
X1049Y416D01*
X0Y415D02*
X7Y415D01*
X1042Y415D02*
X1049Y415D01*
X0Y414D02*
X7Y414D01*
X1042Y414D02*
X1049Y414D01*
X0Y413D02*
X7Y413D01*
X1042Y413D02*
X1049Y413D01*
X0Y412D02*
X7Y412D01*
X1042Y412D02*
X1049Y412D01*
X0Y411D02*
X7Y411D01*
X1042Y411D02*
X1049Y411D01*
X0Y410D02*
X7Y410D01*
X1042Y410D02*
X1049Y410D01*
X0Y409D02*
X7Y409D01*
X1042Y409D02*
X1049Y409D01*
X0Y408D02*
X7Y408D01*
X1042Y408D02*
X1049Y408D01*
X0Y407D02*
X7Y407D01*
X1042Y407D02*
X1049Y407D01*
X0Y406D02*
X7Y406D01*
X1042Y406D02*
X1049Y406D01*
X0Y405D02*
X7Y405D01*
X1042Y405D02*
X1049Y405D01*
X0Y404D02*
X7Y404D01*
X1042Y404D02*
X1049Y404D01*
X0Y403D02*
X7Y403D01*
X1042Y403D02*
X1049Y403D01*
X0Y402D02*
X7Y402D01*
X1042Y402D02*
X1049Y402D01*
X0Y401D02*
X7Y401D01*
X1042Y401D02*
X1049Y401D01*
X0Y400D02*
X7Y400D01*
X1042Y400D02*
X1049Y400D01*
X0Y399D02*
X7Y399D01*
X1042Y399D02*
X1049Y399D01*
X0Y398D02*
X7Y398D01*
X1042Y398D02*
X1049Y398D01*
X0Y397D02*
X7Y397D01*
X1042Y397D02*
X1049Y397D01*
X0Y396D02*
X7Y396D01*
X1042Y396D02*
X1049Y396D01*
X0Y395D02*
X7Y395D01*
X1042Y395D02*
X1049Y395D01*
X0Y394D02*
X7Y394D01*
X1042Y394D02*
X1049Y394D01*
X0Y393D02*
X7Y393D01*
X1042Y393D02*
X1049Y393D01*
X0Y392D02*
X7Y392D01*
X1042Y392D02*
X1049Y392D01*
X0Y391D02*
X7Y391D01*
X1042Y391D02*
X1049Y391D01*
X0Y390D02*
X7Y390D01*
X1042Y390D02*
X1049Y390D01*
X0Y389D02*
X7Y389D01*
X1042Y389D02*
X1049Y389D01*
X0Y388D02*
X7Y388D01*
X1042Y388D02*
X1049Y388D01*
X0Y387D02*
X7Y387D01*
X1042Y387D02*
X1049Y387D01*
X0Y386D02*
X7Y386D01*
X1042Y386D02*
X1049Y386D01*
X0Y385D02*
X7Y385D01*
X1042Y385D02*
X1049Y385D01*
X0Y384D02*
X7Y384D01*
X1042Y384D02*
X1049Y384D01*
X0Y383D02*
X7Y383D01*
X1042Y383D02*
X1049Y383D01*
X0Y382D02*
X7Y382D01*
X1042Y382D02*
X1049Y382D01*
X0Y381D02*
X7Y381D01*
X1042Y381D02*
X1049Y381D01*
X0Y380D02*
X7Y380D01*
X1042Y380D02*
X1049Y380D01*
X0Y379D02*
X7Y379D01*
X1042Y379D02*
X1049Y379D01*
X0Y378D02*
X7Y378D01*
X1042Y378D02*
X1049Y378D01*
X0Y377D02*
X7Y377D01*
X1042Y377D02*
X1049Y377D01*
X0Y376D02*
X7Y376D01*
X1042Y376D02*
X1049Y376D01*
X0Y375D02*
X7Y375D01*
X1042Y375D02*
X1049Y375D01*
X0Y374D02*
X7Y374D01*
X1042Y374D02*
X1049Y374D01*
X0Y373D02*
X7Y373D01*
X1042Y373D02*
X1049Y373D01*
X0Y372D02*
X7Y372D01*
X1042Y372D02*
X1049Y372D01*
X0Y371D02*
X7Y371D01*
X1042Y371D02*
X1049Y371D01*
X0Y370D02*
X7Y370D01*
X1042Y370D02*
X1049Y370D01*
X0Y369D02*
X7Y369D01*
X1042Y369D02*
X1049Y369D01*
X0Y368D02*
X7Y368D01*
X1042Y368D02*
X1049Y368D01*
X0Y367D02*
X7Y367D01*
X1042Y367D02*
X1049Y367D01*
X0Y366D02*
X7Y366D01*
X1042Y366D02*
X1049Y366D01*
X0Y365D02*
X7Y365D01*
X1042Y365D02*
X1049Y365D01*
X0Y364D02*
X7Y364D01*
X1042Y364D02*
X1049Y364D01*
X0Y363D02*
X7Y363D01*
X1042Y363D02*
X1049Y363D01*
X0Y362D02*
X7Y362D01*
X1042Y362D02*
X1049Y362D01*
X0Y361D02*
X7Y361D01*
X1042Y361D02*
X1049Y361D01*
X0Y360D02*
X7Y360D01*
X1042Y360D02*
X1049Y360D01*
X0Y359D02*
X7Y359D01*
X1042Y359D02*
X1049Y359D01*
X0Y358D02*
X7Y358D01*
X1042Y358D02*
X1049Y358D01*
X0Y357D02*
X7Y357D01*
X1042Y357D02*
X1049Y357D01*
X0Y356D02*
X7Y356D01*
X1042Y356D02*
X1049Y356D01*
X0Y355D02*
X7Y355D01*
X1042Y355D02*
X1049Y355D01*
X0Y354D02*
X7Y354D01*
X1042Y354D02*
X1049Y354D01*
X0Y353D02*
X7Y353D01*
X1042Y353D02*
X1049Y353D01*
X0Y352D02*
X7Y352D01*
X1042Y352D02*
X1049Y352D01*
X0Y351D02*
X7Y351D01*
X1042Y351D02*
X1049Y351D01*
X0Y350D02*
X7Y350D01*
X1042Y350D02*
X1049Y350D01*
X0Y349D02*
X7Y349D01*
X1042Y349D02*
X1049Y349D01*
X0Y348D02*
X7Y348D01*
X1042Y348D02*
X1049Y348D01*
X0Y347D02*
X7Y347D01*
X1042Y347D02*
X1049Y347D01*
X0Y346D02*
X7Y346D01*
X1042Y346D02*
X1049Y346D01*
X0Y345D02*
X7Y345D01*
X1042Y345D02*
X1049Y345D01*
X0Y344D02*
X7Y344D01*
X1042Y344D02*
X1049Y344D01*
X0Y343D02*
X7Y343D01*
X1042Y343D02*
X1049Y343D01*
X0Y342D02*
X7Y342D01*
X1042Y342D02*
X1049Y342D01*
X0Y341D02*
X7Y341D01*
X1042Y341D02*
X1049Y341D01*
X0Y340D02*
X7Y340D01*
X1042Y340D02*
X1049Y340D01*
X0Y339D02*
X7Y339D01*
X1042Y339D02*
X1049Y339D01*
X0Y338D02*
X7Y338D01*
X1042Y338D02*
X1049Y338D01*
X0Y337D02*
X7Y337D01*
X1042Y337D02*
X1049Y337D01*
X0Y336D02*
X7Y336D01*
X1042Y336D02*
X1049Y336D01*
X0Y335D02*
X7Y335D01*
X1042Y335D02*
X1049Y335D01*
X0Y334D02*
X7Y334D01*
X1042Y334D02*
X1049Y334D01*
X0Y333D02*
X7Y333D01*
X1042Y333D02*
X1049Y333D01*
X0Y332D02*
X7Y332D01*
X1042Y332D02*
X1049Y332D01*
X0Y331D02*
X7Y331D01*
X1042Y331D02*
X1049Y331D01*
X0Y330D02*
X7Y330D01*
X1042Y330D02*
X1049Y330D01*
X0Y329D02*
X7Y329D01*
X1042Y329D02*
X1049Y329D01*
X0Y328D02*
X7Y328D01*
X1042Y328D02*
X1049Y328D01*
X0Y327D02*
X7Y327D01*
X1042Y327D02*
X1049Y327D01*
X0Y326D02*
X7Y326D01*
X1042Y326D02*
X1049Y326D01*
X0Y325D02*
X7Y325D01*
X1042Y325D02*
X1049Y325D01*
X0Y324D02*
X7Y324D01*
X1042Y324D02*
X1049Y324D01*
X0Y323D02*
X7Y323D01*
X1042Y323D02*
X1049Y323D01*
X0Y322D02*
X7Y322D01*
X1042Y322D02*
X1049Y322D01*
X0Y321D02*
X7Y321D01*
X1042Y321D02*
X1049Y321D01*
X0Y320D02*
X7Y320D01*
X1042Y320D02*
X1049Y320D01*
X0Y319D02*
X7Y319D01*
X1042Y319D02*
X1049Y319D01*
X0Y318D02*
X7Y318D01*
X1042Y318D02*
X1049Y318D01*
X0Y317D02*
X7Y317D01*
X1042Y317D02*
X1049Y317D01*
X0Y316D02*
X7Y316D01*
X1042Y316D02*
X1049Y316D01*
X0Y315D02*
X7Y315D01*
X1042Y315D02*
X1049Y315D01*
X0Y314D02*
X7Y314D01*
X1042Y314D02*
X1049Y314D01*
X0Y313D02*
X7Y313D01*
X1042Y313D02*
X1049Y313D01*
X0Y312D02*
X7Y312D01*
X1042Y312D02*
X1049Y312D01*
X0Y311D02*
X7Y311D01*
X1042Y311D02*
X1049Y311D01*
X0Y310D02*
X7Y310D01*
X1042Y310D02*
X1049Y310D01*
X0Y309D02*
X7Y309D01*
X1042Y309D02*
X1049Y309D01*
X0Y308D02*
X7Y308D01*
X1042Y308D02*
X1049Y308D01*
X0Y307D02*
X7Y307D01*
X38Y307D02*
X167Y307D01*
X1042Y307D02*
X1049Y307D01*
X0Y306D02*
X7Y306D01*
X38Y306D02*
X167Y306D01*
X1042Y306D02*
X1049Y306D01*
X0Y305D02*
X7Y305D01*
X38Y305D02*
X167Y305D01*
X1042Y305D02*
X1049Y305D01*
X0Y304D02*
X7Y304D01*
X38Y304D02*
X40Y304D01*
X98Y304D02*
X107Y304D01*
X165Y304D02*
X167Y304D01*
X1042Y304D02*
X1049Y304D01*
X0Y303D02*
X7Y303D01*
X38Y303D02*
X40Y303D01*
X165Y303D02*
X167Y303D01*
X1042Y303D02*
X1049Y303D01*
X0Y302D02*
X7Y302D01*
X38Y302D02*
X40Y302D01*
X165Y302D02*
X167Y302D01*
X1042Y302D02*
X1049Y302D01*
X0Y301D02*
X7Y301D01*
X38Y301D02*
X40Y301D01*
X165Y301D02*
X167Y301D01*
X1042Y301D02*
X1049Y301D01*
X0Y300D02*
X7Y300D01*
X38Y300D02*
X40Y300D01*
X165Y300D02*
X167Y300D01*
X1042Y300D02*
X1049Y300D01*
X0Y299D02*
X7Y299D01*
X38Y299D02*
X40Y299D01*
X165Y299D02*
X167Y299D01*
X1042Y299D02*
X1049Y299D01*
X0Y298D02*
X7Y298D01*
X38Y298D02*
X40Y298D01*
X165Y298D02*
X167Y298D01*
X1042Y298D02*
X1049Y298D01*
X0Y297D02*
X7Y297D01*
X38Y297D02*
X40Y297D01*
X165Y297D02*
X167Y297D01*
X1042Y297D02*
X1049Y297D01*
X0Y296D02*
X7Y296D01*
X38Y296D02*
X40Y296D01*
X165Y296D02*
X167Y296D01*
X1042Y296D02*
X1049Y296D01*
X0Y295D02*
X7Y295D01*
X38Y295D02*
X40Y295D01*
X165Y295D02*
X167Y295D01*
X1042Y295D02*
X1049Y295D01*
X0Y294D02*
X7Y294D01*
X38Y294D02*
X40Y294D01*
X165Y294D02*
X167Y294D01*
X1042Y294D02*
X1049Y294D01*
X0Y293D02*
X7Y293D01*
X38Y293D02*
X40Y293D01*
X165Y293D02*
X167Y293D01*
X1042Y293D02*
X1049Y293D01*
X0Y292D02*
X7Y292D01*
X38Y292D02*
X40Y292D01*
X165Y292D02*
X167Y292D01*
X1042Y292D02*
X1049Y292D01*
X0Y291D02*
X7Y291D01*
X38Y291D02*
X40Y291D01*
X165Y291D02*
X167Y291D01*
X1042Y291D02*
X1049Y291D01*
X0Y290D02*
X7Y290D01*
X38Y290D02*
X40Y290D01*
X165Y290D02*
X167Y290D01*
X1042Y290D02*
X1049Y290D01*
X0Y289D02*
X7Y289D01*
X38Y289D02*
X40Y289D01*
X165Y289D02*
X167Y289D01*
X1042Y289D02*
X1049Y289D01*
X0Y288D02*
X7Y288D01*
X38Y288D02*
X40Y288D01*
X165Y288D02*
X167Y288D01*
X1042Y288D02*
X1049Y288D01*
X0Y287D02*
X7Y287D01*
X38Y287D02*
X40Y287D01*
X165Y287D02*
X167Y287D01*
X1042Y287D02*
X1049Y287D01*
X0Y286D02*
X7Y286D01*
X38Y286D02*
X40Y286D01*
X165Y286D02*
X167Y286D01*
X1042Y286D02*
X1049Y286D01*
X0Y285D02*
X7Y285D01*
X38Y285D02*
X40Y285D01*
X165Y285D02*
X167Y285D01*
X1042Y285D02*
X1049Y285D01*
X0Y284D02*
X7Y284D01*
X38Y284D02*
X40Y284D01*
X165Y284D02*
X167Y284D01*
X1042Y284D02*
X1049Y284D01*
X0Y283D02*
X7Y283D01*
X38Y283D02*
X40Y283D01*
X165Y283D02*
X167Y283D01*
X1042Y283D02*
X1049Y283D01*
X0Y282D02*
X7Y282D01*
X38Y282D02*
X40Y282D01*
X165Y282D02*
X167Y282D01*
X1042Y282D02*
X1049Y282D01*
X0Y281D02*
X7Y281D01*
X38Y281D02*
X40Y281D01*
X165Y281D02*
X167Y281D01*
X1042Y281D02*
X1049Y281D01*
X0Y280D02*
X7Y280D01*
X38Y280D02*
X40Y280D01*
X165Y280D02*
X167Y280D01*
X1042Y280D02*
X1049Y280D01*
X0Y279D02*
X7Y279D01*
X38Y279D02*
X40Y279D01*
X165Y279D02*
X167Y279D01*
X1042Y279D02*
X1049Y279D01*
X0Y278D02*
X7Y278D01*
X38Y278D02*
X40Y278D01*
X165Y278D02*
X167Y278D01*
X1042Y278D02*
X1049Y278D01*
X0Y277D02*
X7Y277D01*
X38Y277D02*
X40Y277D01*
X165Y277D02*
X167Y277D01*
X1042Y277D02*
X1049Y277D01*
X0Y276D02*
X7Y276D01*
X38Y276D02*
X40Y276D01*
X165Y276D02*
X167Y276D01*
X1042Y276D02*
X1049Y276D01*
X0Y275D02*
X7Y275D01*
X38Y275D02*
X40Y275D01*
X165Y275D02*
X167Y275D01*
X1042Y275D02*
X1049Y275D01*
X0Y274D02*
X7Y274D01*
X38Y274D02*
X40Y274D01*
X165Y274D02*
X167Y274D01*
X1042Y274D02*
X1049Y274D01*
X0Y273D02*
X7Y273D01*
X38Y273D02*
X40Y273D01*
X165Y273D02*
X167Y273D01*
X1042Y273D02*
X1049Y273D01*
X0Y272D02*
X7Y272D01*
X38Y272D02*
X40Y272D01*
X165Y272D02*
X167Y272D01*
X1042Y272D02*
X1049Y272D01*
X0Y271D02*
X7Y271D01*
X38Y271D02*
X40Y271D01*
X165Y271D02*
X167Y271D01*
X1042Y271D02*
X1049Y271D01*
X0Y270D02*
X7Y270D01*
X38Y270D02*
X40Y270D01*
X165Y270D02*
X167Y270D01*
X1042Y270D02*
X1049Y270D01*
X0Y269D02*
X7Y269D01*
X38Y269D02*
X40Y269D01*
X165Y269D02*
X167Y269D01*
X1042Y269D02*
X1049Y269D01*
X0Y268D02*
X7Y268D01*
X38Y268D02*
X40Y268D01*
X165Y268D02*
X167Y268D01*
X1042Y268D02*
X1049Y268D01*
X0Y267D02*
X7Y267D01*
X38Y267D02*
X40Y267D01*
X165Y267D02*
X167Y267D01*
X1042Y267D02*
X1049Y267D01*
X0Y266D02*
X7Y266D01*
X38Y266D02*
X40Y266D01*
X165Y266D02*
X167Y266D01*
X1042Y266D02*
X1049Y266D01*
X0Y265D02*
X7Y265D01*
X38Y265D02*
X40Y265D01*
X165Y265D02*
X167Y265D01*
X1042Y265D02*
X1049Y265D01*
X0Y264D02*
X7Y264D01*
X38Y264D02*
X40Y264D01*
X165Y264D02*
X167Y264D01*
X1042Y264D02*
X1049Y264D01*
X0Y263D02*
X7Y263D01*
X38Y263D02*
X40Y263D01*
X165Y263D02*
X167Y263D01*
X1042Y263D02*
X1049Y263D01*
X0Y262D02*
X7Y262D01*
X38Y262D02*
X40Y262D01*
X165Y262D02*
X167Y262D01*
X1042Y262D02*
X1049Y262D01*
X0Y261D02*
X7Y261D01*
X38Y261D02*
X40Y261D01*
X165Y261D02*
X167Y261D01*
X1042Y261D02*
X1049Y261D01*
X0Y260D02*
X7Y260D01*
X38Y260D02*
X40Y260D01*
X165Y260D02*
X167Y260D01*
X1042Y260D02*
X1049Y260D01*
X0Y259D02*
X7Y259D01*
X38Y259D02*
X40Y259D01*
X165Y259D02*
X167Y259D01*
X1042Y259D02*
X1049Y259D01*
X0Y258D02*
X7Y258D01*
X38Y258D02*
X40Y258D01*
X165Y258D02*
X167Y258D01*
X1042Y258D02*
X1049Y258D01*
X0Y257D02*
X7Y257D01*
X38Y257D02*
X40Y257D01*
X165Y257D02*
X167Y257D01*
X1042Y257D02*
X1049Y257D01*
X0Y256D02*
X7Y256D01*
X38Y256D02*
X40Y256D01*
X165Y256D02*
X167Y256D01*
X1042Y256D02*
X1049Y256D01*
X0Y255D02*
X7Y255D01*
X38Y255D02*
X40Y255D01*
X165Y255D02*
X167Y255D01*
X1042Y255D02*
X1049Y255D01*
X0Y254D02*
X7Y254D01*
X38Y254D02*
X40Y254D01*
X165Y254D02*
X167Y254D01*
X1042Y254D02*
X1049Y254D01*
X0Y253D02*
X7Y253D01*
X38Y253D02*
X40Y253D01*
X165Y253D02*
X167Y253D01*
X1042Y253D02*
X1049Y253D01*
X0Y252D02*
X7Y252D01*
X38Y252D02*
X40Y252D01*
X98Y252D02*
X107Y252D01*
X165Y252D02*
X167Y252D01*
X1042Y252D02*
X1049Y252D01*
X0Y251D02*
X7Y251D01*
X38Y251D02*
X167Y251D01*
X1042Y251D02*
X1049Y251D01*
X0Y250D02*
X7Y250D01*
X38Y250D02*
X167Y250D01*
X1042Y250D02*
X1049Y250D01*
X0Y249D02*
X7Y249D01*
X38Y249D02*
X167Y249D01*
X1042Y249D02*
X1049Y249D01*
X0Y248D02*
X7Y248D01*
X1042Y248D02*
X1049Y248D01*
X0Y247D02*
X7Y247D01*
X1042Y247D02*
X1049Y247D01*
X0Y246D02*
X7Y246D01*
X1042Y246D02*
X1049Y246D01*
X0Y245D02*
X7Y245D01*
X1042Y245D02*
X1049Y245D01*
X0Y244D02*
X7Y244D01*
X1042Y244D02*
X1049Y244D01*
X0Y243D02*
X7Y243D01*
X1042Y243D02*
X1049Y243D01*
X0Y242D02*
X7Y242D01*
X1042Y242D02*
X1049Y242D01*
X0Y241D02*
X7Y241D01*
X1042Y241D02*
X1049Y241D01*
X0Y240D02*
X7Y240D01*
X1042Y240D02*
X1049Y240D01*
X0Y239D02*
X7Y239D01*
X1042Y239D02*
X1049Y239D01*
X0Y238D02*
X7Y238D01*
X1042Y238D02*
X1049Y238D01*
X0Y237D02*
X7Y237D01*
X1042Y237D02*
X1049Y237D01*
X0Y236D02*
X7Y236D01*
X1042Y236D02*
X1049Y236D01*
X0Y235D02*
X7Y235D01*
X1042Y235D02*
X1049Y235D01*
X0Y234D02*
X7Y234D01*
X1042Y234D02*
X1049Y234D01*
X0Y233D02*
X7Y233D01*
X1042Y233D02*
X1049Y233D01*
X0Y232D02*
X7Y232D01*
X1042Y232D02*
X1049Y232D01*
X0Y231D02*
X7Y231D01*
X1042Y231D02*
X1049Y231D01*
X0Y230D02*
X7Y230D01*
X1042Y230D02*
X1049Y230D01*
X0Y229D02*
X7Y229D01*
X1042Y229D02*
X1049Y229D01*
X0Y228D02*
X7Y228D01*
X1042Y228D02*
X1049Y228D01*
X0Y227D02*
X7Y227D01*
X1042Y227D02*
X1049Y227D01*
X0Y226D02*
X7Y226D01*
X1042Y226D02*
X1049Y226D01*
X0Y225D02*
X7Y225D01*
X1042Y225D02*
X1049Y225D01*
X0Y224D02*
X7Y224D01*
X1042Y224D02*
X1049Y224D01*
X0Y223D02*
X7Y223D01*
X1042Y223D02*
X1049Y223D01*
X0Y222D02*
X7Y222D01*
X1042Y222D02*
X1049Y222D01*
X0Y221D02*
X7Y221D01*
X1042Y221D02*
X1049Y221D01*
X0Y220D02*
X7Y220D01*
X1042Y220D02*
X1049Y220D01*
X0Y219D02*
X7Y219D01*
X1042Y219D02*
X1049Y219D01*
X0Y218D02*
X7Y218D01*
X1042Y218D02*
X1049Y218D01*
X0Y217D02*
X7Y217D01*
X1042Y217D02*
X1049Y217D01*
X0Y216D02*
X7Y216D01*
X1042Y216D02*
X1049Y216D01*
X0Y215D02*
X7Y215D01*
X1042Y215D02*
X1049Y215D01*
X0Y214D02*
X7Y214D01*
X1042Y214D02*
X1049Y214D01*
X0Y213D02*
X7Y213D01*
X1042Y213D02*
X1049Y213D01*
X0Y212D02*
X7Y212D01*
X1042Y212D02*
X1049Y212D01*
X0Y211D02*
X7Y211D01*
X1042Y211D02*
X1049Y211D01*
X0Y210D02*
X7Y210D01*
X1042Y210D02*
X1049Y210D01*
X0Y209D02*
X7Y209D01*
X1042Y209D02*
X1049Y209D01*
X0Y208D02*
X7Y208D01*
X1042Y208D02*
X1049Y208D01*
X0Y207D02*
X7Y207D01*
X1042Y207D02*
X1049Y207D01*
X0Y206D02*
X7Y206D01*
X1042Y206D02*
X1049Y206D01*
X0Y205D02*
X7Y205D01*
X1042Y205D02*
X1049Y205D01*
X0Y204D02*
X7Y204D01*
X1042Y204D02*
X1049Y204D01*
X0Y203D02*
X7Y203D01*
X1042Y203D02*
X1049Y203D01*
X0Y202D02*
X7Y202D01*
X1042Y202D02*
X1049Y202D01*
X0Y201D02*
X7Y201D01*
X1042Y201D02*
X1049Y201D01*
X0Y200D02*
X7Y200D01*
X1042Y200D02*
X1049Y200D01*
X0Y199D02*
X7Y199D01*
X1042Y199D02*
X1049Y199D01*
X0Y198D02*
X7Y198D01*
X1042Y198D02*
X1049Y198D01*
X0Y197D02*
X7Y197D01*
X1042Y197D02*
X1049Y197D01*
X0Y196D02*
X7Y196D01*
X1042Y196D02*
X1049Y196D01*
X0Y195D02*
X7Y195D01*
X1042Y195D02*
X1049Y195D01*
X0Y194D02*
X7Y194D01*
X1042Y194D02*
X1049Y194D01*
X0Y193D02*
X7Y193D01*
X1042Y193D02*
X1049Y193D01*
X0Y192D02*
X7Y192D01*
X1042Y192D02*
X1049Y192D01*
X0Y191D02*
X7Y191D01*
X1042Y191D02*
X1049Y191D01*
X0Y190D02*
X7Y190D01*
X1042Y190D02*
X1049Y190D01*
X0Y189D02*
X7Y189D01*
X1042Y189D02*
X1049Y189D01*
X0Y188D02*
X7Y188D01*
X1042Y188D02*
X1049Y188D01*
X0Y187D02*
X7Y187D01*
X1042Y187D02*
X1049Y187D01*
X0Y186D02*
X7Y186D01*
X1042Y186D02*
X1049Y186D01*
X0Y185D02*
X7Y185D01*
X1042Y185D02*
X1049Y185D01*
X0Y184D02*
X7Y184D01*
X1042Y184D02*
X1049Y184D01*
X0Y183D02*
X7Y183D01*
X1042Y183D02*
X1049Y183D01*
X0Y182D02*
X7Y182D01*
X1042Y182D02*
X1049Y182D01*
X0Y181D02*
X7Y181D01*
X1042Y181D02*
X1049Y181D01*
X0Y180D02*
X7Y180D01*
X1042Y180D02*
X1049Y180D01*
X0Y179D02*
X7Y179D01*
X1042Y179D02*
X1049Y179D01*
X0Y178D02*
X7Y178D01*
X1042Y178D02*
X1049Y178D01*
X0Y177D02*
X7Y177D01*
X1042Y177D02*
X1049Y177D01*
X0Y176D02*
X7Y176D01*
X1042Y176D02*
X1049Y176D01*
X0Y175D02*
X7Y175D01*
X1042Y175D02*
X1049Y175D01*
X0Y174D02*
X7Y174D01*
X1042Y174D02*
X1049Y174D01*
X0Y173D02*
X7Y173D01*
X1042Y173D02*
X1049Y173D01*
X0Y172D02*
X7Y172D01*
X1042Y172D02*
X1049Y172D01*
X0Y171D02*
X7Y171D01*
X1042Y171D02*
X1049Y171D01*
X0Y170D02*
X7Y170D01*
X1042Y170D02*
X1049Y170D01*
X0Y169D02*
X7Y169D01*
X1042Y169D02*
X1049Y169D01*
X0Y168D02*
X7Y168D01*
X1042Y168D02*
X1049Y168D01*
X0Y167D02*
X7Y167D01*
X1042Y167D02*
X1049Y167D01*
X0Y166D02*
X7Y166D01*
X1042Y166D02*
X1049Y166D01*
X0Y165D02*
X7Y165D01*
X1042Y165D02*
X1049Y165D01*
X0Y164D02*
X7Y164D01*
X1042Y164D02*
X1049Y164D01*
X0Y163D02*
X7Y163D01*
X1042Y163D02*
X1049Y163D01*
X0Y162D02*
X7Y162D01*
X1042Y162D02*
X1049Y162D01*
X0Y161D02*
X7Y161D01*
X1042Y161D02*
X1049Y161D01*
X0Y160D02*
X7Y160D01*
X1042Y160D02*
X1049Y160D01*
X0Y159D02*
X7Y159D01*
X1042Y159D02*
X1049Y159D01*
X0Y158D02*
X7Y158D01*
X1042Y158D02*
X1049Y158D01*
X0Y157D02*
X7Y157D01*
X1042Y157D02*
X1049Y157D01*
X0Y156D02*
X7Y156D01*
X1042Y156D02*
X1049Y156D01*
X0Y155D02*
X7Y155D01*
X1042Y155D02*
X1049Y155D01*
X0Y154D02*
X7Y154D01*
X1042Y154D02*
X1049Y154D01*
X0Y153D02*
X7Y153D01*
X1042Y153D02*
X1049Y153D01*
X0Y152D02*
X7Y152D01*
X1042Y152D02*
X1049Y152D01*
X0Y151D02*
X7Y151D01*
X1042Y151D02*
X1049Y151D01*
X0Y150D02*
X7Y150D01*
X1042Y150D02*
X1049Y150D01*
X0Y149D02*
X7Y149D01*
X1042Y149D02*
X1049Y149D01*
X0Y148D02*
X7Y148D01*
X1042Y148D02*
X1049Y148D01*
X0Y147D02*
X7Y147D01*
X1042Y147D02*
X1049Y147D01*
X0Y146D02*
X7Y146D01*
X1042Y146D02*
X1049Y146D01*
X0Y145D02*
X7Y145D01*
X1042Y145D02*
X1049Y145D01*
X0Y144D02*
X7Y144D01*
X1042Y144D02*
X1049Y144D01*
X0Y143D02*
X7Y143D01*
X1042Y143D02*
X1049Y143D01*
X0Y142D02*
X7Y142D01*
X1042Y142D02*
X1049Y142D01*
X0Y141D02*
X7Y141D01*
X1042Y141D02*
X1049Y141D01*
X0Y140D02*
X7Y140D01*
X1042Y140D02*
X1049Y140D01*
X0Y139D02*
X7Y139D01*
X1042Y139D02*
X1049Y139D01*
X0Y138D02*
X7Y138D01*
X1042Y138D02*
X1049Y138D01*
X0Y137D02*
X7Y137D01*
X1042Y137D02*
X1049Y137D01*
X0Y136D02*
X7Y136D01*
X1042Y136D02*
X1049Y136D01*
X0Y135D02*
X7Y135D01*
X1042Y135D02*
X1049Y135D01*
X0Y134D02*
X7Y134D01*
X1042Y134D02*
X1049Y134D01*
X0Y133D02*
X7Y133D01*
X1042Y133D02*
X1049Y133D01*
X0Y132D02*
X7Y132D01*
X1042Y132D02*
X1049Y132D01*
X0Y131D02*
X7Y131D01*
X1042Y131D02*
X1049Y131D01*
X0Y130D02*
X7Y130D01*
X1042Y130D02*
X1049Y130D01*
X0Y129D02*
X7Y129D01*
X1042Y129D02*
X1049Y129D01*
X0Y128D02*
X7Y128D01*
X1042Y128D02*
X1049Y128D01*
X0Y127D02*
X7Y127D01*
X1042Y127D02*
X1049Y127D01*
X0Y126D02*
X7Y126D01*
X1042Y126D02*
X1049Y126D01*
X0Y125D02*
X7Y125D01*
X1042Y125D02*
X1049Y125D01*
X0Y124D02*
X7Y124D01*
X1042Y124D02*
X1049Y124D01*
X0Y123D02*
X7Y123D01*
X1042Y123D02*
X1049Y123D01*
X0Y122D02*
X7Y122D01*
X1042Y122D02*
X1049Y122D01*
X0Y121D02*
X7Y121D01*
X1042Y121D02*
X1049Y121D01*
X0Y120D02*
X7Y120D01*
X1042Y120D02*
X1049Y120D01*
X0Y119D02*
X7Y119D01*
X1042Y119D02*
X1049Y119D01*
X0Y118D02*
X7Y118D01*
X1042Y118D02*
X1049Y118D01*
X0Y117D02*
X7Y117D01*
X1042Y117D02*
X1049Y117D01*
X0Y116D02*
X7Y116D01*
X1042Y116D02*
X1049Y116D01*
X0Y115D02*
X7Y115D01*
X1042Y115D02*
X1049Y115D01*
X0Y114D02*
X7Y114D01*
X1042Y114D02*
X1049Y114D01*
X0Y113D02*
X7Y113D01*
X1042Y113D02*
X1049Y113D01*
X0Y112D02*
X7Y112D01*
X1042Y112D02*
X1049Y112D01*
X0Y111D02*
X7Y111D01*
X1042Y111D02*
X1049Y111D01*
X0Y110D02*
X7Y110D01*
X1042Y110D02*
X1049Y110D01*
X0Y109D02*
X7Y109D01*
X1042Y109D02*
X1049Y109D01*
X0Y108D02*
X7Y108D01*
X1042Y108D02*
X1049Y108D01*
X0Y107D02*
X7Y107D01*
X1042Y107D02*
X1049Y107D01*
X0Y106D02*
X7Y106D01*
X1042Y106D02*
X1049Y106D01*
X0Y105D02*
X7Y105D01*
X1042Y105D02*
X1049Y105D01*
X0Y104D02*
X7Y104D01*
X1042Y104D02*
X1049Y104D01*
X0Y103D02*
X7Y103D01*
X1042Y103D02*
X1049Y103D01*
X0Y102D02*
X7Y102D01*
X1042Y102D02*
X1049Y102D01*
X0Y101D02*
X7Y101D01*
X1042Y101D02*
X1049Y101D01*
X0Y100D02*
X7Y100D01*
X1042Y100D02*
X1049Y100D01*
X0Y99D02*
X7Y99D01*
X1042Y99D02*
X1049Y99D01*
X0Y98D02*
X7Y98D01*
X1042Y98D02*
X1049Y98D01*
X0Y97D02*
X7Y97D01*
X1042Y97D02*
X1049Y97D01*
X0Y96D02*
X7Y96D01*
X1042Y96D02*
X1049Y96D01*
X0Y95D02*
X7Y95D01*
X1042Y95D02*
X1049Y95D01*
X0Y94D02*
X7Y94D01*
X1042Y94D02*
X1049Y94D01*
X0Y93D02*
X7Y93D01*
X1042Y93D02*
X1049Y93D01*
X0Y92D02*
X7Y92D01*
X1042Y92D02*
X1049Y92D01*
X0Y91D02*
X7Y91D01*
X1042Y91D02*
X1049Y91D01*
X0Y90D02*
X7Y90D01*
X1042Y90D02*
X1049Y90D01*
X0Y89D02*
X7Y89D01*
X1042Y89D02*
X1049Y89D01*
X0Y88D02*
X7Y88D01*
X1042Y88D02*
X1049Y88D01*
X0Y87D02*
X7Y87D01*
X1042Y87D02*
X1049Y87D01*
X0Y86D02*
X7Y86D01*
X1042Y86D02*
X1049Y86D01*
X0Y85D02*
X7Y85D01*
X1042Y85D02*
X1049Y85D01*
X0Y84D02*
X7Y84D01*
X1042Y84D02*
X1049Y84D01*
X0Y83D02*
X7Y83D01*
X1042Y83D02*
X1049Y83D01*
X0Y82D02*
X7Y82D01*
X1042Y82D02*
X1049Y82D01*
X0Y81D02*
X7Y81D01*
X1042Y81D02*
X1049Y81D01*
X0Y80D02*
X7Y80D01*
X1042Y80D02*
X1049Y80D01*
X0Y79D02*
X7Y79D01*
X1042Y79D02*
X1049Y79D01*
X0Y78D02*
X7Y78D01*
X1042Y78D02*
X1049Y78D01*
X0Y77D02*
X7Y77D01*
X1042Y77D02*
X1049Y77D01*
X0Y76D02*
X7Y76D01*
X1042Y76D02*
X1049Y76D01*
X0Y75D02*
X7Y75D01*
X1042Y75D02*
X1049Y75D01*
X0Y74D02*
X7Y74D01*
X1042Y74D02*
X1049Y74D01*
X0Y73D02*
X7Y73D01*
X1042Y73D02*
X1049Y73D01*
X0Y72D02*
X7Y72D01*
X1042Y72D02*
X1049Y72D01*
X0Y71D02*
X7Y71D01*
X1042Y71D02*
X1049Y71D01*
X0Y70D02*
X7Y70D01*
X1042Y70D02*
X1049Y70D01*
X0Y69D02*
X7Y69D01*
X1042Y69D02*
X1049Y69D01*
X0Y68D02*
X7Y68D01*
X1042Y68D02*
X1049Y68D01*
X0Y67D02*
X7Y67D01*
X1042Y67D02*
X1049Y67D01*
X0Y66D02*
X7Y66D01*
X1042Y66D02*
X1049Y66D01*
X0Y65D02*
X7Y65D01*
X1042Y65D02*
X1049Y65D01*
X0Y64D02*
X7Y64D01*
X1042Y64D02*
X1049Y64D01*
X0Y63D02*
X7Y63D01*
X1042Y63D02*
X1049Y63D01*
X0Y62D02*
X7Y62D01*
X1042Y62D02*
X1049Y62D01*
X0Y61D02*
X7Y61D01*
X1042Y61D02*
X1049Y61D01*
X0Y60D02*
X7Y60D01*
X1042Y60D02*
X1049Y60D01*
X0Y59D02*
X7Y59D01*
X1042Y59D02*
X1049Y59D01*
X0Y58D02*
X7Y58D01*
X1042Y58D02*
X1049Y58D01*
X0Y57D02*
X7Y57D01*
X1042Y57D02*
X1049Y57D01*
X0Y56D02*
X7Y56D01*
X1042Y56D02*
X1049Y56D01*
X0Y55D02*
X7Y55D01*
X1042Y55D02*
X1049Y55D01*
X0Y54D02*
X7Y54D01*
X1042Y54D02*
X1049Y54D01*
X0Y53D02*
X7Y53D01*
X1042Y53D02*
X1049Y53D01*
X0Y52D02*
X7Y52D01*
X1042Y52D02*
X1049Y52D01*
X0Y51D02*
X7Y51D01*
X1042Y51D02*
X1049Y51D01*
X0Y50D02*
X7Y50D01*
X1042Y50D02*
X1049Y50D01*
X0Y49D02*
X7Y49D01*
X1042Y49D02*
X1049Y49D01*
X0Y48D02*
X7Y48D01*
X1042Y48D02*
X1049Y48D01*
X0Y47D02*
X7Y47D01*
X1042Y47D02*
X1049Y47D01*
X0Y46D02*
X7Y46D01*
X1042Y46D02*
X1049Y46D01*
X0Y45D02*
X7Y45D01*
X1042Y45D02*
X1049Y45D01*
X0Y44D02*
X7Y44D01*
X1042Y44D02*
X1049Y44D01*
X0Y43D02*
X7Y43D01*
X1042Y43D02*
X1049Y43D01*
X0Y42D02*
X7Y42D01*
X1042Y42D02*
X1049Y42D01*
X0Y41D02*
X7Y41D01*
X1042Y41D02*
X1049Y41D01*
X0Y40D02*
X7Y40D01*
X1042Y40D02*
X1049Y40D01*
X0Y39D02*
X7Y39D01*
X1042Y39D02*
X1049Y39D01*
X0Y38D02*
X7Y38D01*
X1042Y38D02*
X1049Y38D01*
X0Y37D02*
X7Y37D01*
X1042Y37D02*
X1049Y37D01*
X0Y36D02*
X7Y36D01*
X1042Y36D02*
X1049Y36D01*
X0Y35D02*
X7Y35D01*
X1042Y35D02*
X1049Y35D01*
X0Y34D02*
X7Y34D01*
X1042Y34D02*
X1049Y34D01*
X0Y33D02*
X7Y33D01*
X1042Y33D02*
X1049Y33D01*
X0Y32D02*
X7Y32D01*
X1042Y32D02*
X1049Y32D01*
X0Y31D02*
X7Y31D01*
X1042Y31D02*
X1049Y31D01*
X0Y30D02*
X7Y30D01*
X1042Y30D02*
X1049Y30D01*
X0Y29D02*
X7Y29D01*
X1042Y29D02*
X1049Y29D01*
X0Y28D02*
X7Y28D01*
X1042Y28D02*
X1049Y28D01*
X0Y27D02*
X7Y27D01*
X1042Y27D02*
X1049Y27D01*
X0Y26D02*
X7Y26D01*
X1042Y26D02*
X1049Y26D01*
X0Y25D02*
X7Y25D01*
X1042Y25D02*
X1049Y25D01*
X0Y24D02*
X7Y24D01*
X1042Y24D02*
X1049Y24D01*
X0Y23D02*
X7Y23D01*
X1042Y23D02*
X1049Y23D01*
X0Y22D02*
X7Y22D01*
X1042Y22D02*
X1049Y22D01*
X0Y21D02*
X7Y21D01*
X1042Y21D02*
X1049Y21D01*
X0Y20D02*
X7Y20D01*
X1042Y20D02*
X1049Y20D01*
X0Y19D02*
X7Y19D01*
X1042Y19D02*
X1049Y19D01*
X0Y18D02*
X7Y18D01*
X1042Y18D02*
X1049Y18D01*
X0Y17D02*
X7Y17D01*
X1042Y17D02*
X1049Y17D01*
X0Y16D02*
X7Y16D01*
X1042Y16D02*
X1049Y16D01*
X0Y15D02*
X7Y15D01*
X1042Y15D02*
X1049Y15D01*
X0Y14D02*
X7Y14D01*
X1042Y14D02*
X1049Y14D01*
X0Y13D02*
X7Y13D01*
X1042Y13D02*
X1049Y13D01*
X0Y12D02*
X7Y12D01*
X1042Y12D02*
X1049Y12D01*
X0Y11D02*
X7Y11D01*
X1042Y11D02*
X1049Y11D01*
X0Y10D02*
X7Y10D01*
X1042Y10D02*
X1049Y10D01*
X0Y9D02*
X1049Y9D01*
X0Y8D02*
X1049Y8D01*
X0Y7D02*
X1049Y7D01*
X0Y6D02*
X1049Y6D01*
X0Y5D02*
X1049Y5D01*
X0Y4D02*
X1049Y4D01*
X0Y3D02*
X1049Y3D01*
X0Y2D02*
X1049Y2D01*
D02*
G04 End of Silk0*
M02*