G04 MADE WITH FRITZING*
G04 WWW.FRITZING.ORG*
G04 DOUBLE SIDED*
G04 HOLES PLATED*
G04 CONTOUR ON CENTER OF CONTOUR VECTOR*
%ASAXBY*%
%FSLAX23Y23*%
%MOIN*%
%OFA0B0*%
%SFA1.0B1.0*%
%ADD10R,0.047244X0.043307*%
%LNPASTEMASK0*%
G90*
G70*
G54D10*
X169Y1677D03*
X102Y1677D03*
X169Y1477D03*
X102Y1477D03*
G36*
X46Y1255D02*
X46Y1298D01*
X93Y1298D01*
X93Y1255D01*
X46Y1255D01*
G37*
D02*
G36*
X113Y1255D02*
X113Y1298D01*
X160Y1298D01*
X160Y1255D01*
X113Y1255D01*
G37*
D02*
G36*
X46Y1055D02*
X46Y1098D01*
X93Y1098D01*
X93Y1055D01*
X46Y1055D01*
G37*
D02*
G36*
X113Y1055D02*
X113Y1098D01*
X160Y1098D01*
X160Y1055D01*
X113Y1055D01*
G37*
D02*
G36*
X46Y855D02*
X46Y898D01*
X93Y898D01*
X93Y855D01*
X46Y855D01*
G37*
D02*
G36*
X113Y855D02*
X113Y898D01*
X160Y898D01*
X160Y855D01*
X113Y855D01*
G37*
D02*
G36*
X46Y655D02*
X46Y698D01*
X93Y698D01*
X93Y655D01*
X46Y655D01*
G37*
D02*
G36*
X113Y655D02*
X113Y698D01*
X160Y698D01*
X160Y655D01*
X113Y655D01*
G37*
D02*
G36*
X26Y474D02*
X26Y517D01*
X73Y517D01*
X73Y474D01*
X26Y474D01*
G37*
D02*
G36*
X93Y474D02*
X93Y517D01*
X140Y517D01*
X140Y474D01*
X93Y474D01*
G37*
D02*
G36*
X46Y255D02*
X46Y298D01*
X93Y298D01*
X93Y255D01*
X46Y255D01*
G37*
D02*
G36*
X113Y255D02*
X113Y298D01*
X160Y298D01*
X160Y255D01*
X113Y255D01*
G37*
D02*
G04 End of PasteMask0*
M02*