G04 MADE WITH FRITZING*
G04 WWW.FRITZING.ORG*
G04 SINGLE SIDED*
G04 HOLES NOT PLATED*
G04 CONTOUR ON CENTER OF CONTOUR VECTOR*
%ASAXBY*%
%FSLAX23Y23*%
%MOIN*%
%OFA0B0*%
%SFA1.0B1.0*%
%ADD10C,0.062992*%
%ADD11C,0.075000*%
%ADD12C,0.078000*%
%ADD13R,0.062992X0.062992*%
%ADD14R,0.075000X0.075000*%
%ADD15C,0.032000*%
%ADD16C,0.048000*%
%ADD17R,0.001000X0.001000*%
%LNCOPPER0*%
G90*
G70*
G54D10*
X511Y2416D03*
X413Y2416D03*
X511Y916D03*
X413Y916D03*
X511Y1216D03*
X413Y1216D03*
X511Y316D03*
X413Y316D03*
X511Y616D03*
X413Y616D03*
X511Y1516D03*
X413Y1516D03*
X511Y1816D03*
X413Y1816D03*
X511Y2116D03*
X413Y2116D03*
G54D11*
X715Y1417D03*
X1015Y1417D03*
X715Y1317D03*
X1015Y1317D03*
X715Y1217D03*
X1015Y1217D03*
X715Y1117D03*
X1015Y1117D03*
X715Y1017D03*
X1015Y1017D03*
X715Y917D03*
X1015Y917D03*
X715Y817D03*
X1015Y817D03*
X715Y717D03*
X1015Y717D03*
G54D12*
X1215Y917D03*
X1215Y1017D03*
X1215Y1117D03*
X1215Y1217D03*
X1215Y1317D03*
G54D11*
X113Y2316D03*
X395Y2599D03*
X113Y2016D03*
X395Y2299D03*
X113Y1716D03*
X395Y1999D03*
X113Y1416D03*
X395Y1699D03*
X113Y1116D03*
X395Y1399D03*
X113Y816D03*
X395Y1099D03*
X113Y516D03*
X395Y799D03*
X113Y216D03*
X395Y499D03*
G54D13*
X511Y2416D03*
X511Y916D03*
X511Y1216D03*
X511Y316D03*
X511Y616D03*
X511Y1516D03*
X511Y1816D03*
X511Y2116D03*
G54D14*
X715Y1417D03*
G54D15*
X613Y1617D02*
X526Y1787D01*
D02*
X611Y1316D02*
X613Y1617D01*
D02*
X681Y1316D02*
X611Y1316D01*
D02*
X512Y1116D02*
X511Y1184D01*
D02*
X611Y1115D02*
X512Y1116D01*
D02*
X681Y1116D02*
X611Y1115D01*
D02*
X613Y2216D02*
X526Y2387D01*
D02*
X715Y2018D02*
X613Y2216D01*
D02*
X913Y1516D02*
X715Y2018D01*
D02*
X913Y1316D02*
X913Y1516D01*
D02*
X981Y1316D02*
X913Y1316D01*
D02*
X691Y793D02*
X611Y716D01*
D02*
X613Y416D02*
X534Y339D01*
G54D16*
D02*
X409Y1854D02*
X399Y1960D01*
D02*
X113Y556D02*
X113Y777D01*
D02*
X113Y256D02*
X113Y477D01*
G54D15*
D02*
X1313Y819D02*
X1049Y817D01*
D02*
X1313Y1316D02*
X1313Y819D01*
D02*
X1251Y1316D02*
X1313Y1316D01*
D02*
X712Y1617D02*
X523Y2086D01*
D02*
X715Y1451D02*
X712Y1617D01*
D02*
X1216Y1418D02*
X1216Y1352D01*
D02*
X1049Y1417D02*
X1216Y1418D01*
D02*
X1180Y1017D02*
X1049Y1017D01*
G54D16*
D02*
X113Y2056D02*
X113Y2277D01*
D02*
X409Y954D02*
X399Y1060D01*
D02*
X409Y1254D02*
X399Y1360D01*
D02*
X914Y1118D02*
X975Y1117D01*
D02*
X913Y814D02*
X914Y1118D01*
D02*
X813Y716D02*
X913Y814D01*
D02*
X755Y716D02*
X813Y716D01*
G54D15*
D02*
X691Y893D02*
X613Y816D01*
D02*
X613Y816D02*
X512Y717D01*
D02*
X512Y717D02*
X511Y649D01*
D02*
X1180Y1117D02*
X1049Y1117D01*
G54D16*
D02*
X113Y1756D02*
X113Y1977D01*
D02*
X113Y1456D02*
X113Y1677D01*
D02*
X409Y354D02*
X399Y460D01*
D02*
X409Y1554D02*
X399Y1660D01*
D02*
X113Y1156D02*
X113Y1377D01*
G54D15*
D02*
X511Y1018D02*
X511Y949D01*
D02*
X681Y1017D02*
X511Y1018D01*
G54D16*
D02*
X414Y117D02*
X150Y204D01*
D02*
X613Y216D02*
X414Y117D01*
D02*
X715Y414D02*
X613Y216D01*
D02*
X712Y416D02*
X715Y414D01*
D02*
X715Y677D02*
X712Y416D01*
D02*
X409Y2154D02*
X399Y2260D01*
D02*
X409Y654D02*
X399Y760D01*
G54D15*
D02*
X1180Y1217D02*
X1049Y1217D01*
G54D16*
D02*
X113Y856D02*
X113Y1077D01*
G54D15*
D02*
X511Y1417D02*
X511Y1484D01*
D02*
X512Y1316D02*
X511Y1417D01*
D02*
X626Y1224D02*
X512Y1316D01*
D02*
X681Y1219D02*
X626Y1224D01*
D02*
X1180Y917D02*
X1049Y917D01*
G54D16*
D02*
X409Y2454D02*
X399Y2560D01*
G54D17*
X607Y732D02*
X615Y732D01*
X604Y731D02*
X617Y731D01*
X602Y730D02*
X619Y730D01*
X601Y729D02*
X620Y729D01*
X600Y728D02*
X622Y728D01*
X599Y727D02*
X622Y727D01*
X598Y726D02*
X623Y726D01*
X598Y725D02*
X624Y725D01*
X597Y724D02*
X624Y724D01*
X597Y723D02*
X625Y723D01*
X596Y722D02*
X625Y722D01*
X596Y721D02*
X626Y721D01*
X596Y720D02*
X626Y720D01*
X596Y719D02*
X626Y719D01*
X595Y718D02*
X626Y718D01*
X595Y717D02*
X626Y717D01*
X595Y716D02*
X626Y716D01*
X595Y715D02*
X626Y715D01*
X595Y714D02*
X626Y714D01*
X595Y713D02*
X626Y713D01*
X595Y712D02*
X626Y712D01*
X595Y711D02*
X626Y711D01*
X595Y710D02*
X626Y710D01*
X595Y709D02*
X626Y709D01*
X595Y708D02*
X626Y708D01*
X595Y707D02*
X626Y707D01*
X595Y706D02*
X626Y706D01*
X595Y705D02*
X626Y705D01*
X595Y704D02*
X626Y704D01*
X595Y703D02*
X626Y703D01*
X595Y702D02*
X626Y702D01*
X595Y701D02*
X626Y701D01*
X595Y700D02*
X626Y700D01*
X595Y699D02*
X626Y699D01*
X595Y698D02*
X626Y698D01*
X595Y697D02*
X626Y697D01*
X595Y696D02*
X626Y696D01*
X595Y695D02*
X626Y695D01*
X595Y694D02*
X626Y694D01*
X595Y693D02*
X626Y693D01*
X595Y692D02*
X626Y692D01*
X595Y691D02*
X626Y691D01*
X595Y690D02*
X626Y690D01*
X595Y689D02*
X626Y689D01*
X595Y688D02*
X626Y688D01*
X595Y687D02*
X626Y687D01*
X595Y686D02*
X626Y686D01*
X595Y685D02*
X626Y685D01*
X595Y684D02*
X626Y684D01*
X595Y683D02*
X626Y683D01*
X595Y682D02*
X626Y682D01*
X595Y681D02*
X626Y681D01*
X595Y680D02*
X626Y680D01*
X595Y679D02*
X626Y679D01*
X595Y678D02*
X626Y678D01*
X595Y677D02*
X627Y677D01*
X595Y676D02*
X627Y676D01*
X596Y675D02*
X627Y675D01*
X596Y674D02*
X627Y674D01*
X596Y673D02*
X627Y673D01*
X596Y672D02*
X627Y672D01*
X596Y671D02*
X627Y671D01*
X596Y670D02*
X627Y670D01*
X596Y669D02*
X627Y669D01*
X596Y668D02*
X627Y668D01*
X596Y667D02*
X627Y667D01*
X596Y666D02*
X627Y666D01*
X596Y665D02*
X627Y665D01*
X596Y664D02*
X627Y664D01*
X596Y663D02*
X627Y663D01*
X596Y662D02*
X627Y662D01*
X596Y661D02*
X627Y661D01*
X596Y660D02*
X627Y660D01*
X596Y659D02*
X627Y659D01*
X596Y658D02*
X627Y658D01*
X596Y657D02*
X627Y657D01*
X596Y656D02*
X627Y656D01*
X596Y655D02*
X627Y655D01*
X596Y654D02*
X627Y654D01*
X596Y653D02*
X627Y653D01*
X596Y652D02*
X627Y652D01*
X596Y651D02*
X627Y651D01*
X596Y650D02*
X627Y650D01*
X596Y649D02*
X627Y649D01*
X596Y648D02*
X627Y648D01*
X596Y647D02*
X627Y647D01*
X596Y646D02*
X627Y646D01*
X596Y645D02*
X627Y645D01*
X596Y644D02*
X627Y644D01*
X596Y643D02*
X627Y643D01*
X596Y642D02*
X627Y642D01*
X596Y641D02*
X627Y641D01*
X596Y640D02*
X627Y640D01*
X596Y639D02*
X627Y639D01*
X596Y638D02*
X627Y638D01*
X596Y637D02*
X627Y637D01*
X596Y636D02*
X627Y636D01*
X596Y635D02*
X627Y635D01*
X596Y634D02*
X627Y634D01*
X596Y633D02*
X627Y633D01*
X596Y632D02*
X627Y632D01*
X596Y631D02*
X627Y631D01*
X596Y630D02*
X627Y630D01*
X596Y629D02*
X627Y629D01*
X596Y628D02*
X627Y628D01*
X596Y627D02*
X627Y627D01*
X596Y626D02*
X627Y626D01*
X596Y625D02*
X627Y625D01*
X596Y624D02*
X627Y624D01*
X596Y623D02*
X627Y623D01*
X596Y622D02*
X627Y622D01*
X596Y621D02*
X627Y621D01*
X596Y620D02*
X627Y620D01*
X596Y619D02*
X627Y619D01*
X596Y618D02*
X627Y618D01*
X596Y617D02*
X627Y617D01*
X596Y616D02*
X627Y616D01*
X596Y615D02*
X627Y615D01*
X596Y614D02*
X627Y614D01*
X596Y613D02*
X627Y613D01*
X596Y612D02*
X627Y612D01*
X596Y611D02*
X627Y611D01*
X596Y610D02*
X627Y610D01*
X596Y609D02*
X627Y609D01*
X596Y608D02*
X627Y608D01*
X596Y607D02*
X627Y607D01*
X596Y606D02*
X627Y606D01*
X596Y605D02*
X627Y605D01*
X596Y604D02*
X627Y604D01*
X596Y603D02*
X627Y603D01*
X596Y602D02*
X627Y602D01*
X596Y601D02*
X627Y601D01*
X596Y600D02*
X627Y600D01*
X596Y599D02*
X627Y599D01*
X596Y598D02*
X627Y598D01*
X596Y597D02*
X627Y597D01*
X596Y596D02*
X627Y596D01*
X596Y595D02*
X627Y595D01*
X596Y594D02*
X627Y594D01*
X596Y593D02*
X627Y593D01*
X596Y592D02*
X627Y592D01*
X596Y591D02*
X627Y591D01*
X596Y590D02*
X627Y590D01*
X596Y589D02*
X627Y589D01*
X596Y588D02*
X627Y588D01*
X596Y587D02*
X627Y587D01*
X596Y586D02*
X627Y586D01*
X596Y585D02*
X627Y585D01*
X596Y584D02*
X627Y584D01*
X596Y583D02*
X627Y583D01*
X596Y582D02*
X627Y582D01*
X596Y581D02*
X627Y581D01*
X596Y580D02*
X627Y580D01*
X596Y579D02*
X627Y579D01*
X596Y578D02*
X627Y578D01*
X596Y577D02*
X627Y577D01*
X596Y576D02*
X627Y576D01*
X596Y575D02*
X627Y575D01*
X596Y574D02*
X627Y574D01*
X596Y573D02*
X627Y573D01*
X596Y572D02*
X627Y572D01*
X596Y571D02*
X627Y571D01*
X596Y570D02*
X627Y570D01*
X596Y569D02*
X627Y569D01*
X596Y568D02*
X627Y568D01*
X596Y567D02*
X627Y567D01*
X596Y566D02*
X627Y566D01*
X596Y565D02*
X627Y565D01*
X596Y564D02*
X627Y564D01*
X596Y563D02*
X627Y563D01*
X596Y562D02*
X627Y562D01*
X596Y561D02*
X627Y561D01*
X596Y560D02*
X627Y560D01*
X596Y559D02*
X627Y559D01*
X596Y558D02*
X627Y558D01*
X596Y557D02*
X627Y557D01*
X596Y556D02*
X627Y556D01*
X596Y555D02*
X627Y555D01*
X596Y554D02*
X627Y554D01*
X596Y553D02*
X627Y553D01*
X596Y552D02*
X627Y552D01*
X596Y551D02*
X627Y551D01*
X596Y550D02*
X627Y550D01*
X596Y549D02*
X627Y549D01*
X596Y548D02*
X627Y548D01*
X596Y547D02*
X627Y547D01*
X596Y546D02*
X627Y546D01*
X596Y545D02*
X627Y545D01*
X596Y544D02*
X627Y544D01*
X596Y543D02*
X627Y543D01*
X596Y542D02*
X627Y542D01*
X596Y541D02*
X627Y541D01*
X596Y540D02*
X627Y540D01*
X596Y539D02*
X627Y539D01*
X596Y538D02*
X627Y538D01*
X596Y537D02*
X627Y537D01*
X596Y536D02*
X627Y536D01*
X596Y535D02*
X627Y535D01*
X596Y534D02*
X627Y534D01*
X596Y533D02*
X627Y533D01*
X596Y532D02*
X627Y532D01*
X596Y531D02*
X627Y531D01*
X596Y530D02*
X627Y530D01*
X596Y529D02*
X627Y529D01*
X596Y528D02*
X627Y528D01*
X596Y527D02*
X627Y527D01*
X596Y526D02*
X627Y526D01*
X596Y525D02*
X627Y525D01*
X596Y524D02*
X627Y524D01*
X596Y523D02*
X627Y523D01*
X596Y522D02*
X627Y522D01*
X596Y521D02*
X627Y521D01*
X596Y520D02*
X627Y520D01*
X596Y519D02*
X627Y519D01*
X596Y518D02*
X627Y518D01*
X596Y517D02*
X627Y517D01*
X596Y516D02*
X627Y516D01*
X596Y515D02*
X627Y515D01*
X596Y514D02*
X627Y514D01*
X596Y513D02*
X627Y513D01*
X596Y512D02*
X627Y512D01*
X596Y511D02*
X627Y511D01*
X596Y510D02*
X627Y510D01*
X596Y509D02*
X627Y509D01*
X596Y508D02*
X627Y508D01*
X596Y507D02*
X627Y507D01*
X596Y506D02*
X627Y506D01*
X596Y505D02*
X627Y505D01*
X596Y504D02*
X627Y504D01*
X596Y503D02*
X627Y503D01*
X596Y502D02*
X627Y502D01*
X596Y501D02*
X627Y501D01*
X596Y500D02*
X627Y500D01*
X596Y499D02*
X627Y499D01*
X596Y498D02*
X627Y498D01*
X596Y497D02*
X627Y497D01*
X596Y496D02*
X627Y496D01*
X596Y495D02*
X627Y495D01*
X596Y494D02*
X627Y494D01*
X596Y493D02*
X627Y493D01*
X596Y492D02*
X627Y492D01*
X596Y491D02*
X627Y491D01*
X596Y490D02*
X627Y490D01*
X596Y489D02*
X627Y489D01*
X596Y488D02*
X627Y488D01*
X596Y487D02*
X627Y487D01*
X596Y486D02*
X627Y486D01*
X596Y485D02*
X627Y485D01*
X596Y484D02*
X627Y484D01*
X596Y483D02*
X627Y483D01*
X596Y482D02*
X627Y482D01*
X596Y481D02*
X628Y481D01*
X596Y480D02*
X628Y480D01*
X597Y479D02*
X628Y479D01*
X597Y478D02*
X628Y478D01*
X597Y477D02*
X628Y477D01*
X597Y476D02*
X628Y476D01*
X597Y475D02*
X628Y475D01*
X597Y474D02*
X628Y474D01*
X597Y473D02*
X628Y473D01*
X597Y472D02*
X628Y472D01*
X597Y471D02*
X628Y471D01*
X597Y470D02*
X628Y470D01*
X597Y469D02*
X628Y469D01*
X597Y468D02*
X628Y468D01*
X597Y467D02*
X628Y467D01*
X597Y466D02*
X628Y466D01*
X597Y465D02*
X628Y465D01*
X597Y464D02*
X628Y464D01*
X597Y463D02*
X628Y463D01*
X597Y462D02*
X628Y462D01*
X597Y461D02*
X628Y461D01*
X597Y460D02*
X628Y460D01*
X597Y459D02*
X628Y459D01*
X597Y458D02*
X628Y458D01*
X597Y457D02*
X628Y457D01*
X597Y456D02*
X628Y456D01*
X597Y455D02*
X628Y455D01*
X597Y454D02*
X628Y454D01*
X597Y453D02*
X628Y453D01*
X597Y452D02*
X628Y452D01*
X597Y451D02*
X628Y451D01*
X597Y450D02*
X628Y450D01*
X597Y449D02*
X628Y449D01*
X597Y448D02*
X628Y448D01*
X597Y447D02*
X628Y447D01*
X597Y446D02*
X628Y446D01*
X597Y445D02*
X628Y445D01*
X597Y444D02*
X628Y444D01*
X597Y443D02*
X628Y443D01*
X597Y442D02*
X628Y442D01*
X597Y441D02*
X628Y441D01*
X597Y440D02*
X628Y440D01*
X597Y439D02*
X628Y439D01*
X597Y438D02*
X628Y438D01*
X597Y437D02*
X628Y437D01*
X597Y436D02*
X628Y436D01*
X597Y435D02*
X628Y435D01*
X597Y434D02*
X628Y434D01*
X597Y433D02*
X628Y433D01*
X597Y432D02*
X628Y432D01*
X597Y431D02*
X628Y431D01*
X597Y430D02*
X628Y430D01*
X597Y429D02*
X628Y429D01*
X597Y428D02*
X628Y428D01*
X597Y427D02*
X628Y427D01*
X597Y426D02*
X628Y426D01*
X597Y425D02*
X628Y425D01*
X597Y424D02*
X628Y424D01*
X597Y423D02*
X628Y423D01*
X597Y422D02*
X628Y422D01*
X597Y421D02*
X628Y421D01*
X597Y420D02*
X628Y420D01*
X597Y419D02*
X628Y419D01*
X597Y418D02*
X628Y418D01*
X597Y417D02*
X628Y417D01*
X597Y416D02*
X628Y416D01*
X597Y415D02*
X628Y415D01*
X597Y414D02*
X628Y414D01*
X597Y413D02*
X627Y413D01*
X598Y412D02*
X627Y412D01*
X598Y411D02*
X627Y411D01*
X598Y410D02*
X626Y410D01*
X599Y409D02*
X626Y409D01*
X599Y408D02*
X625Y408D01*
X600Y407D02*
X625Y407D01*
X601Y406D02*
X624Y406D01*
X602Y405D02*
X623Y405D01*
X603Y404D02*
X622Y404D01*
X604Y403D02*
X620Y403D01*
X606Y402D02*
X619Y402D01*
X609Y401D02*
X616Y401D01*
D02*
G04 End of Copper0*
M02*