; NON-PLATED HOLES START AT T1
; THROUGH (PLATED) HOLES START AT T100
M48
INCH
T100C0.038000
T101C0.035000
T102C0.031497
%
T100
X012152Y012165
X012152Y009165
X012152Y010165
X012152Y013165
X012152Y011165
T101
X001125Y005162
X007152Y009165
X010152Y008165
X003953Y022991
X007152Y013165
X010152Y012165
X003953Y019991
X003953Y013991
X001125Y020162
X010152Y009165
X007152Y014165
X010152Y013165
X001125Y017162
X003953Y004991
X001125Y011162
X010152Y014165
X001125Y008162
X001125Y002162
X003953Y025991
X007152Y010165
X003953Y016991
X001125Y023162
X007152Y007165
X003953Y010991
X007152Y011165
X010152Y010165
X003953Y007991
X001125Y014162
X007152Y008165
X010152Y007165
X007152Y012165
X010152Y011165
T102
X004125Y009162
X005109Y006162
X004125Y015162
X005109Y012162
X004125Y021162
X005109Y009162
X004125Y018162
X005109Y015162
X004125Y024162
X005109Y021162
X004125Y003162
X005109Y018162
X004125Y006162
X005109Y024162
X005109Y003162
X004125Y012162
T00
M30
