G04 MADE WITH FRITZING*
G04 WWW.FRITZING.ORG*
G04 SINGLE SIDED*
G04 HOLES NOT PLATED*
G04 CONTOUR ON CENTER OF CONTOUR VECTOR*
%ASAXBY*%
%FSLAX23Y23*%
%MOIN*%
%OFA0B0*%
%SFA1.0B1.0*%
%ADD10C,0.075000*%
%ADD11C,0.062992*%
%ADD12C,0.078000*%
%ADD13R,0.062992X0.062992*%
%ADD14R,0.075000X0.075000*%
%ADD15C,0.048000*%
%ADD16C,0.032000*%
%ADD17R,0.001000X0.001000*%
%LNCOPPER0*%
G90*
G70*
G54D10*
X918Y294D03*
X1318Y494D03*
X818Y294D03*
X1218Y294D03*
X1118Y694D03*
X1418Y694D03*
G54D11*
X516Y2294D03*
X418Y2294D03*
X516Y794D03*
X418Y794D03*
X516Y1094D03*
X418Y1094D03*
X516Y194D03*
X418Y194D03*
X516Y494D03*
X418Y494D03*
X516Y1394D03*
X418Y1394D03*
X516Y1694D03*
X418Y1694D03*
X516Y1994D03*
X418Y1994D03*
G54D10*
X721Y1294D03*
X1021Y1294D03*
X721Y1194D03*
X1021Y1194D03*
X721Y1094D03*
X1021Y1094D03*
X721Y994D03*
X1021Y994D03*
X721Y894D03*
X1021Y894D03*
X721Y794D03*
X1021Y794D03*
X721Y694D03*
X1021Y694D03*
X721Y594D03*
X1021Y594D03*
G54D12*
X1218Y194D03*
X1118Y194D03*
X1018Y194D03*
X918Y194D03*
X818Y194D03*
X1221Y794D03*
X1221Y894D03*
X1221Y994D03*
X1221Y1094D03*
X1221Y1194D03*
G54D10*
X118Y2194D03*
X401Y2477D03*
X118Y1894D03*
X401Y2177D03*
X118Y1594D03*
X401Y1877D03*
X118Y1294D03*
X401Y1577D03*
X118Y994D03*
X401Y1277D03*
X118Y694D03*
X401Y977D03*
X118Y394D03*
X401Y677D03*
X118Y94D03*
X401Y377D03*
G54D13*
X516Y2294D03*
X516Y794D03*
X516Y1094D03*
X516Y194D03*
X516Y494D03*
X516Y1394D03*
X516Y1694D03*
X516Y1994D03*
G54D14*
X721Y1294D03*
G54D15*
X1117Y295D02*
X1033Y557D01*
D02*
X1117Y235D02*
X1117Y295D01*
D02*
X1417Y295D02*
X1317Y195D01*
D02*
X1417Y495D02*
X1417Y295D01*
D02*
X1317Y195D02*
X1259Y195D01*
D02*
X1417Y696D02*
X1417Y495D01*
D02*
X920Y669D02*
X1010Y235D01*
D02*
X1078Y694D02*
X1060Y694D01*
D02*
X918Y255D02*
X918Y235D01*
D02*
X818Y255D02*
X818Y235D01*
D02*
X1317Y793D02*
X1318Y534D01*
D02*
X1317Y893D02*
X1317Y793D01*
D02*
X1262Y894D02*
X1317Y893D01*
D02*
X1220Y753D02*
X1218Y334D01*
G54D16*
D02*
X618Y1495D02*
X531Y1665D01*
D02*
X617Y1194D02*
X618Y1495D01*
D02*
X686Y1194D02*
X617Y1194D01*
D02*
X517Y994D02*
X517Y1062D01*
D02*
X617Y993D02*
X517Y994D01*
D02*
X686Y994D02*
X617Y993D01*
D02*
X619Y2094D02*
X531Y2265D01*
D02*
X720Y1896D02*
X619Y2094D01*
D02*
X918Y1394D02*
X720Y1896D01*
D02*
X919Y1194D02*
X918Y1394D01*
D02*
X986Y1194D02*
X919Y1194D01*
D02*
X696Y671D02*
X617Y594D01*
D02*
X618Y294D02*
X540Y217D01*
G54D15*
D02*
X414Y1732D02*
X404Y1838D01*
D02*
X118Y434D02*
X118Y655D01*
D02*
X118Y134D02*
X118Y355D01*
D02*
X1417Y1193D02*
X1417Y696D01*
D02*
X1262Y1194D02*
X1417Y1193D01*
G54D16*
D02*
X718Y1495D02*
X528Y1964D01*
D02*
X720Y1329D02*
X718Y1495D01*
D02*
X1222Y1296D02*
X1221Y1230D01*
D02*
X1055Y1295D02*
X1222Y1296D01*
D02*
X1185Y894D02*
X1055Y894D01*
G54D15*
D02*
X118Y1934D02*
X118Y2155D01*
D02*
X414Y832D02*
X404Y938D01*
D02*
X414Y1132D02*
X404Y1238D01*
D02*
X920Y996D02*
X981Y995D01*
D02*
X920Y669D02*
X920Y996D01*
D02*
X819Y594D02*
X920Y669D01*
D02*
X760Y594D02*
X819Y594D01*
G54D16*
D02*
X696Y771D02*
X618Y694D01*
D02*
X618Y694D02*
X517Y595D01*
D02*
X517Y595D02*
X517Y527D01*
D02*
X1185Y994D02*
X1055Y994D01*
G54D15*
D02*
X118Y1634D02*
X118Y1855D01*
D02*
X118Y1334D02*
X118Y1555D01*
D02*
X414Y232D02*
X404Y338D01*
D02*
X414Y1432D02*
X404Y1538D01*
D02*
X118Y1034D02*
X118Y1255D01*
G54D16*
D02*
X516Y896D02*
X516Y827D01*
D02*
X686Y895D02*
X516Y896D01*
G54D15*
D02*
X419Y95D02*
X158Y94D01*
D02*
X619Y94D02*
X419Y95D01*
D02*
X720Y292D02*
X619Y94D01*
D02*
X717Y294D02*
X720Y292D01*
D02*
X720Y555D02*
X717Y294D01*
D02*
X414Y2032D02*
X404Y2138D01*
D02*
X414Y532D02*
X404Y638D01*
G54D16*
D02*
X1185Y1094D02*
X1055Y1094D01*
G54D15*
D02*
X118Y734D02*
X118Y955D01*
G54D16*
D02*
X516Y1295D02*
X516Y1362D01*
D02*
X517Y1194D02*
X516Y1295D01*
D02*
X631Y1102D02*
X517Y1194D01*
D02*
X687Y1097D02*
X631Y1102D01*
D02*
X1185Y794D02*
X1055Y794D01*
G54D15*
D02*
X414Y2332D02*
X404Y2438D01*
G54D17*
X612Y610D02*
X620Y610D01*
X610Y609D02*
X623Y609D01*
X608Y608D02*
X625Y608D01*
X607Y607D02*
X626Y607D01*
X605Y606D02*
X627Y606D01*
X605Y605D02*
X628Y605D01*
X604Y604D02*
X629Y604D01*
X603Y603D02*
X629Y603D01*
X603Y602D02*
X630Y602D01*
X602Y601D02*
X630Y601D01*
X602Y600D02*
X631Y600D01*
X601Y599D02*
X631Y599D01*
X601Y598D02*
X631Y598D01*
X601Y597D02*
X632Y597D01*
X601Y596D02*
X632Y596D01*
X601Y595D02*
X632Y595D01*
X601Y594D02*
X632Y594D01*
X601Y593D02*
X632Y593D01*
X601Y592D02*
X632Y592D01*
X601Y591D02*
X632Y591D01*
X601Y590D02*
X632Y590D01*
X601Y589D02*
X632Y589D01*
X601Y588D02*
X632Y588D01*
X601Y587D02*
X632Y587D01*
X601Y586D02*
X632Y586D01*
X601Y585D02*
X632Y585D01*
X601Y584D02*
X632Y584D01*
X601Y583D02*
X632Y583D01*
X601Y582D02*
X632Y582D01*
X601Y581D02*
X632Y581D01*
X601Y580D02*
X632Y580D01*
X601Y579D02*
X632Y579D01*
X601Y578D02*
X632Y578D01*
X601Y577D02*
X632Y577D01*
X601Y576D02*
X632Y576D01*
X601Y575D02*
X632Y575D01*
X601Y574D02*
X632Y574D01*
X601Y573D02*
X632Y573D01*
X601Y572D02*
X632Y572D01*
X601Y571D02*
X632Y571D01*
X601Y570D02*
X632Y570D01*
X601Y569D02*
X632Y569D01*
X601Y568D02*
X632Y568D01*
X601Y567D02*
X632Y567D01*
X601Y566D02*
X632Y566D01*
X601Y565D02*
X632Y565D01*
X601Y564D02*
X632Y564D01*
X601Y563D02*
X632Y563D01*
X601Y562D02*
X632Y562D01*
X601Y561D02*
X632Y561D01*
X601Y560D02*
X632Y560D01*
X601Y559D02*
X632Y559D01*
X601Y558D02*
X632Y558D01*
X601Y557D02*
X632Y557D01*
X601Y556D02*
X632Y556D01*
X601Y555D02*
X632Y555D01*
X601Y554D02*
X632Y554D01*
X601Y553D02*
X632Y553D01*
X601Y552D02*
X632Y552D01*
X601Y551D02*
X632Y551D01*
X601Y550D02*
X632Y550D01*
X601Y549D02*
X632Y549D01*
X601Y548D02*
X632Y548D01*
X601Y547D02*
X632Y547D01*
X601Y546D02*
X632Y546D01*
X601Y545D02*
X632Y545D01*
X601Y544D02*
X632Y544D01*
X601Y543D02*
X632Y543D01*
X601Y542D02*
X632Y542D01*
X601Y541D02*
X632Y541D01*
X601Y540D02*
X632Y540D01*
X601Y539D02*
X632Y539D01*
X601Y538D02*
X632Y538D01*
X601Y537D02*
X632Y537D01*
X601Y536D02*
X632Y536D01*
X601Y535D02*
X632Y535D01*
X601Y534D02*
X632Y534D01*
X601Y533D02*
X632Y533D01*
X601Y532D02*
X632Y532D01*
X601Y531D02*
X632Y531D01*
X601Y530D02*
X632Y530D01*
X601Y529D02*
X632Y529D01*
X601Y528D02*
X632Y528D01*
X601Y527D02*
X632Y527D01*
X601Y526D02*
X632Y526D01*
X601Y525D02*
X632Y525D01*
X601Y524D02*
X632Y524D01*
X601Y523D02*
X632Y523D01*
X601Y522D02*
X632Y522D01*
X601Y521D02*
X632Y521D01*
X601Y520D02*
X632Y520D01*
X601Y519D02*
X632Y519D01*
X601Y518D02*
X632Y518D01*
X601Y517D02*
X632Y517D01*
X601Y516D02*
X632Y516D01*
X601Y515D02*
X632Y515D01*
X601Y514D02*
X632Y514D01*
X601Y513D02*
X632Y513D01*
X601Y512D02*
X632Y512D01*
X601Y511D02*
X632Y511D01*
X601Y510D02*
X632Y510D01*
X601Y509D02*
X632Y509D01*
X601Y508D02*
X632Y508D01*
X601Y507D02*
X632Y507D01*
X601Y506D02*
X632Y506D01*
X601Y505D02*
X632Y505D01*
X601Y504D02*
X632Y504D01*
X601Y503D02*
X632Y503D01*
X601Y502D02*
X632Y502D01*
X601Y501D02*
X632Y501D01*
X601Y500D02*
X632Y500D01*
X601Y499D02*
X632Y499D01*
X601Y498D02*
X632Y498D01*
X601Y497D02*
X632Y497D01*
X601Y496D02*
X632Y496D01*
X601Y495D02*
X632Y495D01*
X601Y494D02*
X632Y494D01*
X601Y493D02*
X632Y493D01*
X601Y492D02*
X632Y492D01*
X601Y491D02*
X632Y491D01*
X601Y490D02*
X632Y490D01*
X601Y489D02*
X632Y489D01*
X601Y488D02*
X632Y488D01*
X601Y487D02*
X632Y487D01*
X601Y486D02*
X632Y486D01*
X601Y485D02*
X632Y485D01*
X601Y484D02*
X632Y484D01*
X601Y483D02*
X632Y483D01*
X601Y482D02*
X632Y482D01*
X601Y481D02*
X632Y481D01*
X601Y480D02*
X632Y480D01*
X601Y479D02*
X632Y479D01*
X601Y478D02*
X632Y478D01*
X601Y477D02*
X632Y477D01*
X601Y476D02*
X632Y476D01*
X601Y475D02*
X632Y475D01*
X601Y474D02*
X632Y474D01*
X601Y473D02*
X632Y473D01*
X601Y472D02*
X632Y472D01*
X601Y471D02*
X632Y471D01*
X601Y470D02*
X632Y470D01*
X601Y469D02*
X632Y469D01*
X601Y468D02*
X632Y468D01*
X601Y467D02*
X632Y467D01*
X601Y466D02*
X632Y466D01*
X601Y465D02*
X632Y465D01*
X601Y464D02*
X632Y464D01*
X601Y463D02*
X632Y463D01*
X601Y462D02*
X632Y462D01*
X601Y461D02*
X632Y461D01*
X601Y460D02*
X632Y460D01*
X601Y459D02*
X632Y459D01*
X601Y458D02*
X632Y458D01*
X601Y457D02*
X632Y457D01*
X601Y456D02*
X632Y456D01*
X601Y455D02*
X632Y455D01*
X601Y454D02*
X632Y454D01*
X601Y453D02*
X632Y453D01*
X601Y452D02*
X632Y452D01*
X601Y451D02*
X632Y451D01*
X601Y450D02*
X632Y450D01*
X601Y449D02*
X632Y449D01*
X601Y448D02*
X633Y448D01*
X601Y447D02*
X633Y447D01*
X602Y446D02*
X633Y446D01*
X602Y445D02*
X633Y445D01*
X602Y444D02*
X633Y444D01*
X602Y443D02*
X633Y443D01*
X602Y442D02*
X633Y442D01*
X602Y441D02*
X633Y441D01*
X602Y440D02*
X633Y440D01*
X602Y439D02*
X633Y439D01*
X602Y438D02*
X633Y438D01*
X602Y437D02*
X633Y437D01*
X602Y436D02*
X633Y436D01*
X602Y435D02*
X633Y435D01*
X602Y434D02*
X633Y434D01*
X602Y433D02*
X633Y433D01*
X602Y432D02*
X633Y432D01*
X602Y431D02*
X633Y431D01*
X602Y430D02*
X633Y430D01*
X602Y429D02*
X633Y429D01*
X602Y428D02*
X633Y428D01*
X602Y427D02*
X633Y427D01*
X602Y426D02*
X633Y426D01*
X602Y425D02*
X633Y425D01*
X602Y424D02*
X633Y424D01*
X602Y423D02*
X633Y423D01*
X602Y422D02*
X633Y422D01*
X602Y421D02*
X633Y421D01*
X602Y420D02*
X633Y420D01*
X602Y419D02*
X633Y419D01*
X602Y418D02*
X633Y418D01*
X602Y417D02*
X633Y417D01*
X602Y416D02*
X633Y416D01*
X602Y415D02*
X633Y415D01*
X602Y414D02*
X633Y414D01*
X602Y413D02*
X633Y413D01*
X602Y412D02*
X633Y412D01*
X602Y411D02*
X633Y411D01*
X602Y410D02*
X633Y410D01*
X602Y409D02*
X633Y409D01*
X602Y408D02*
X633Y408D01*
X602Y407D02*
X633Y407D01*
X602Y406D02*
X633Y406D01*
X602Y405D02*
X633Y405D01*
X602Y404D02*
X633Y404D01*
X602Y403D02*
X633Y403D01*
X602Y402D02*
X633Y402D01*
X602Y401D02*
X633Y401D01*
X602Y400D02*
X633Y400D01*
X602Y399D02*
X633Y399D01*
X602Y398D02*
X633Y398D01*
X602Y397D02*
X633Y397D01*
X602Y396D02*
X633Y396D01*
X602Y395D02*
X633Y395D01*
X602Y394D02*
X633Y394D01*
X602Y393D02*
X633Y393D01*
X602Y392D02*
X633Y392D01*
X602Y391D02*
X633Y391D01*
X602Y390D02*
X633Y390D01*
X602Y389D02*
X633Y389D01*
X602Y388D02*
X633Y388D01*
X602Y387D02*
X633Y387D01*
X602Y386D02*
X633Y386D01*
X602Y385D02*
X633Y385D01*
X602Y384D02*
X633Y384D01*
X602Y383D02*
X633Y383D01*
X602Y382D02*
X633Y382D01*
X602Y381D02*
X633Y381D01*
X602Y380D02*
X633Y380D01*
X602Y379D02*
X633Y379D01*
X602Y378D02*
X633Y378D01*
X602Y377D02*
X633Y377D01*
X602Y376D02*
X633Y376D01*
X602Y375D02*
X633Y375D01*
X602Y374D02*
X633Y374D01*
X602Y373D02*
X633Y373D01*
X602Y372D02*
X633Y372D01*
X602Y371D02*
X633Y371D01*
X602Y370D02*
X633Y370D01*
X602Y369D02*
X633Y369D01*
X602Y368D02*
X633Y368D01*
X602Y367D02*
X633Y367D01*
X602Y366D02*
X633Y366D01*
X602Y365D02*
X633Y365D01*
X602Y364D02*
X633Y364D01*
X602Y363D02*
X633Y363D01*
X602Y362D02*
X633Y362D01*
X602Y361D02*
X633Y361D01*
X602Y360D02*
X633Y360D01*
X602Y359D02*
X633Y359D01*
X602Y358D02*
X633Y358D01*
X602Y357D02*
X633Y357D01*
X602Y356D02*
X633Y356D01*
X602Y355D02*
X633Y355D01*
X602Y354D02*
X633Y354D01*
X602Y353D02*
X633Y353D01*
X602Y352D02*
X633Y352D01*
X602Y351D02*
X633Y351D01*
X602Y350D02*
X633Y350D01*
X602Y349D02*
X633Y349D01*
X602Y348D02*
X633Y348D01*
X602Y347D02*
X633Y347D01*
X602Y346D02*
X633Y346D01*
X602Y345D02*
X633Y345D01*
X602Y344D02*
X633Y344D01*
X602Y343D02*
X633Y343D01*
X602Y342D02*
X633Y342D01*
X602Y341D02*
X633Y341D01*
X602Y340D02*
X633Y340D01*
X602Y339D02*
X633Y339D01*
X602Y338D02*
X633Y338D01*
X602Y337D02*
X633Y337D01*
X602Y336D02*
X633Y336D01*
X602Y335D02*
X633Y335D01*
X602Y334D02*
X633Y334D01*
X602Y333D02*
X633Y333D01*
X602Y332D02*
X633Y332D01*
X602Y331D02*
X633Y331D01*
X602Y330D02*
X633Y330D01*
X602Y329D02*
X633Y329D01*
X602Y328D02*
X633Y328D01*
X602Y327D02*
X633Y327D01*
X602Y326D02*
X633Y326D01*
X602Y325D02*
X633Y325D01*
X602Y324D02*
X633Y324D01*
X602Y323D02*
X633Y323D01*
X602Y322D02*
X633Y322D01*
X602Y321D02*
X633Y321D01*
X602Y320D02*
X633Y320D01*
X602Y319D02*
X633Y319D01*
X602Y318D02*
X633Y318D01*
X602Y317D02*
X633Y317D01*
X602Y316D02*
X633Y316D01*
X602Y315D02*
X633Y315D01*
X602Y314D02*
X633Y314D01*
X602Y313D02*
X633Y313D01*
X602Y312D02*
X633Y312D01*
X602Y311D02*
X633Y311D01*
X602Y310D02*
X633Y310D01*
X602Y309D02*
X633Y309D01*
X602Y308D02*
X633Y308D01*
X602Y307D02*
X633Y307D01*
X602Y306D02*
X633Y306D01*
X602Y305D02*
X633Y305D01*
X602Y304D02*
X633Y304D01*
X602Y303D02*
X633Y303D01*
X602Y302D02*
X633Y302D01*
X602Y301D02*
X633Y301D01*
X602Y300D02*
X633Y300D01*
X602Y299D02*
X633Y299D01*
X602Y298D02*
X633Y298D01*
X602Y297D02*
X633Y297D01*
X602Y296D02*
X633Y296D01*
X602Y295D02*
X633Y295D01*
X602Y294D02*
X633Y294D01*
X602Y293D02*
X633Y293D01*
X603Y292D02*
X633Y292D01*
X603Y291D02*
X633Y291D01*
X603Y290D02*
X633Y290D01*
X603Y289D02*
X632Y289D01*
X604Y288D02*
X632Y288D01*
X604Y287D02*
X631Y287D01*
X605Y286D02*
X631Y286D01*
X605Y285D02*
X630Y285D01*
X606Y284D02*
X629Y284D01*
X607Y283D02*
X628Y283D01*
X608Y282D02*
X627Y282D01*
X610Y281D02*
X626Y281D01*
X612Y280D02*
X624Y280D01*
X614Y279D02*
X621Y279D01*
D02*
G04 End of Copper0*
M02*