G04 MADE WITH FRITZING*
G04 WWW.FRITZING.ORG*
G04 SINGLE SIDED*
G04 HOLES NOT PLATED*
G04 CONTOUR ON CENTER OF CONTOUR VECTOR*
%ASAXBY*%
%FSLAX23Y23*%
%MOIN*%
%OFA0B0*%
%SFA1.0B1.0*%
%ADD10C,0.085000*%
%ADD11C,0.072992*%
%ADD12C,0.088000*%
%ADD13R,0.072992X0.072992*%
%ADD14R,0.085000X0.085000*%
%LNMASK0*%
G90*
G70*
G54D10*
X918Y294D03*
X1318Y494D03*
X818Y294D03*
X1218Y294D03*
X1118Y694D03*
X1418Y694D03*
G54D11*
X516Y2294D03*
X418Y2294D03*
X516Y794D03*
X418Y794D03*
X516Y1094D03*
X418Y1094D03*
X516Y194D03*
X418Y194D03*
X516Y494D03*
X418Y494D03*
X516Y1394D03*
X418Y1394D03*
X516Y1694D03*
X418Y1694D03*
X516Y1994D03*
X418Y1994D03*
G54D10*
X721Y1294D03*
X1021Y1294D03*
X721Y1194D03*
X1021Y1194D03*
X721Y1094D03*
X1021Y1094D03*
X721Y994D03*
X1021Y994D03*
X721Y894D03*
X1021Y894D03*
X721Y794D03*
X1021Y794D03*
X721Y694D03*
X1021Y694D03*
X721Y594D03*
X1021Y594D03*
G54D12*
X1218Y194D03*
X1118Y194D03*
X1018Y194D03*
X918Y194D03*
X818Y194D03*
X1221Y794D03*
X1221Y894D03*
X1221Y994D03*
X1221Y1094D03*
X1221Y1194D03*
G54D10*
X118Y2194D03*
X401Y2477D03*
X118Y1894D03*
X401Y2177D03*
X118Y1594D03*
X401Y1877D03*
X118Y1294D03*
X401Y1577D03*
X118Y994D03*
X401Y1277D03*
X118Y694D03*
X401Y977D03*
X118Y394D03*
X401Y677D03*
X118Y94D03*
X401Y377D03*
G54D13*
X516Y2294D03*
X516Y794D03*
X516Y1094D03*
X516Y194D03*
X516Y494D03*
X516Y1394D03*
X516Y1694D03*
X516Y1994D03*
G54D14*
X721Y1294D03*
G04 End of Mask0*
M02*