; NON-PLATED HOLES START AT T1
; THROUGH (PLATED) HOLES START AT T100
M48
INCH
T100C0.038000
T101C0.035000
T102C0.031497
%
T100
X011179Y001942
X010179Y001942
X012205Y011944
X009179Y001942
X012205Y008944
X008179Y001942
X012205Y009944
X012205Y010944
X012205Y007944
X012179Y001942
T101
X007205Y006944
X010205Y006944
X007205Y010944
X011179Y006942
X010205Y010944
X004007Y009771
X004007Y006770
X013179Y004942
X004007Y003770
X001179Y009942
X007205Y008944
X001179Y006942
X010205Y008944
X007205Y012944
X004007Y018771
X007205Y005944
X010205Y012944
X001179Y003942
X010205Y005944
X004007Y015771
X001179Y000942
X008179Y002942
X004007Y012771
X001179Y018942
X001179Y015942
X001179Y012942
X007205Y007944
X004007Y024771
X010205Y007944
X007205Y011944
X010205Y011944
X004007Y021771
X001179Y021942
X007205Y009944
X009179Y002942
X014179Y006942
X010205Y009944
X012179Y002942
T102
X004179Y010942
X005163Y013942
X004179Y007942
X004179Y013942
X005163Y016942
X005163Y022942
X004179Y016942
X005163Y001942
X005163Y019942
X004179Y022942
X004179Y001942
X004179Y019942
X005163Y004942
X005163Y010942
X004179Y004942
X005163Y007942
T00
M30
