; NON-PLATED HOLES START AT T1
; THROUGH (PLATED) HOLES START AT T100
M48
INCH
T100C0.035000
T101C0.031497
T102C0.038000
%
T100
X019386Y029603
X022409Y008582
X011418Y005583
X014395Y014604
X058409Y005582
X023386Y026603
X019386Y017603
X055386Y026603
X037386Y020603
X059386Y023603
X005347Y026613
X007370Y008592
X051386Y006603
X020409Y005582
X042409Y008582
X023386Y014603
X028386Y008603
X055386Y014603
X023409Y008582
X055409Y008582
X021386Y004603
X059386Y011603
X005347Y014613
X010395Y020604
X059386Y030603
X050386Y008603
X028363Y023623
X005370Y005592
X037386Y026603
X035386Y008603
X059386Y029603
X040409Y005582
X008370Y008592
X062409Y008582
X021409Y005582
X048386Y008603
X032363Y020623
X043409Y008582
X029386Y008603
X015425Y006603
X028363Y011623
X041386Y023603
X028363Y030623
X056409Y008582
X037386Y014603
X059386Y017603
X019409Y005582
X001347Y020613
X010395Y026604
X017418Y005583
X028363Y029623
X033386Y005603
X006370Y005592
X060409Y005582
X041386Y011603
X046386Y005603
X005386Y002103
X041386Y030603
X041409Y005582
X010395Y014604
X049386Y008603
X032363Y026623
X026409Y005582
X028363Y017623
X006386Y006603
X041386Y029603
X014418Y008583
X046363Y020623
X039409Y005582
X019386Y006603
X030386Y008603
X004386Y004103
X001347Y026613
X003370Y008592
X053386Y005603
X034386Y005603
X032363Y014623
X049386Y004103
X041386Y017603
X061409Y005582
X047386Y005603
X001347Y014613
X012418Y005583
X059409Y005582
X015418Y008583
X001370Y005592
X046363Y026623
X031386Y008603
X004370Y008592
X019386Y020603
X050363Y023623
X033386Y006603
X046363Y014623
X024409Y008582
X046386Y006603
X013418Y005583
X031386Y004103
X037409Y008582
X003386Y004603
X051386Y008603
X016418Y008583
X002370Y005592
X050363Y011623
X048386Y004603
X001386Y002103
X050363Y030623
X032386Y008603
X014395Y023604
X019386Y026603
X022409Y005582
X050363Y029623
X044409Y008582
X010418Y008583
X025409Y008582
X014395Y011604
X057409Y008582
X014395Y030604
X023386Y023603
X038409Y008582
X019386Y014603
X055386Y023603
X052386Y008603
X050363Y017623
X059386Y020603
X005347Y023613
X014395Y029604
X007370Y005592
X042409Y005582
X023386Y011603
X028386Y005603
X055386Y011603
X023386Y030603
X023409Y005582
X030386Y004603
X055386Y030603
X055409Y005582
X011418Y008583
X005347Y011613
X014395Y017604
X058409Y008582
X005347Y030613
X023386Y029603
X050386Y005603
X028363Y020623
X055386Y029603
X037386Y023603
X035386Y005603
X059386Y026603
X005347Y029613
X008370Y005592
X020409Y008582
X062409Y005582
X048386Y005603
X042386Y006603
X023386Y017603
X043409Y005582
X029386Y005603
X055386Y017603
X041386Y020603
X056409Y005582
X037386Y011603
X012386Y004603
X037386Y030603
X059386Y014603
X005347Y017613
X010395Y023604
X057386Y004603
X028363Y026623
X005370Y008592
X037386Y029603
X040409Y008582
X021409Y008582
X010395Y011604
X049386Y005603
X032363Y023623
X010395Y030604
X028363Y014623
X041386Y026603
X014418Y005583
X028386Y006603
X037386Y017603
X030386Y005603
X013386Y004103
X019409Y008582
X001347Y023613
X010395Y029604
X017418Y008583
X003370Y005592
X033386Y008603
X058386Y004103
X032363Y011623
X032363Y030623
X006370Y008592
X060409Y008582
X041386Y014603
X046386Y008603
X041409Y008582
X001347Y011613
X010395Y017604
X032363Y029623
X001347Y030613
X026409Y008582
X015418Y005583
X046363Y023623
X039409Y008582
X031386Y005603
X001347Y029613
X053386Y008603
X004370Y005592
X034386Y008603
X032363Y017623
X010386Y006603
X050363Y020623
X061409Y008582
X047386Y008603
X046363Y011623
X055386Y006603
X046363Y030623
X024409Y005582
X040386Y004103
X001347Y017613
X012418Y008583
X037409Y005582
X059409Y008582
X001370Y008592
X046363Y029623
X051386Y005603
X016418Y005583
X032386Y005603
X014395Y020604
X019386Y023603
X050363Y026623
X044409Y005582
X010418Y005583
X046363Y017623
X024386Y006603
X025409Y005582
X057409Y005582
X037386Y006603
X013418Y008583
X023386Y020603
X038409Y005582
X022386Y004103
X019386Y011603
X055386Y020603
X019386Y030603
X002370Y008592
X052386Y005603
X050363Y014623
X005347Y020613
X014395Y026604
X039386Y004603
T101
X029364Y028623
X003331Y028613
X002347Y010613
X020386Y031603
X038386Y022603
X056386Y028603
X020386Y010603
X021370Y031603
X039370Y022603
X012380Y022604
X057370Y028603
X047364Y022623
X021370Y010603
X048348Y031623
X002347Y028613
X048348Y010623
X020386Y028603
X038386Y019603
X021370Y028603
X039370Y019603
X012380Y019604
X029364Y013623
X003331Y013613
X047364Y019623
X048348Y028623
X056386Y013603
X030348Y016623
X011395Y016604
X057370Y013603
X002347Y013613
X038386Y025603
X020386Y013603
X039370Y025603
X012380Y025604
X047364Y025623
X021370Y013603
X030348Y022623
X011395Y022604
X048348Y013623
X038386Y031603
X029364Y016623
X003331Y016613
X038386Y010603
X039370Y031603
X012380Y031604
X056386Y016603
X047364Y031623
X030348Y019623
X011395Y019604
X039370Y010603
X012380Y010604
X057370Y016603
X047364Y010623
X002347Y016613
X038386Y028603
X020386Y016603
X039370Y028603
X012380Y028604
X029364Y022623
X003331Y022613
X047364Y028623
X021370Y016603
X056386Y022603
X030348Y025623
X011395Y025604
X048348Y016623
X057370Y022603
X002347Y022613
X029364Y019623
X003331Y019613
X020386Y022603
X038386Y013603
X056386Y019603
X021370Y022603
X039370Y013603
X012380Y013604
X057370Y019603
X047364Y013623
X030348Y031623
X011395Y031604
X048348Y022623
X002347Y019613
X030348Y010623
X011395Y010604
X020386Y019603
X029364Y025623
X003331Y025613
X021370Y019603
X056386Y025603
X030348Y028623
X011395Y028604
X048348Y019623
X057370Y025603
X002347Y025613
X020386Y025603
X038386Y016603
X029364Y031623
X003331Y031613
X021370Y025603
X039370Y016603
X012380Y016604
X056386Y031603
X029364Y010623
X003331Y010613
X047364Y016623
X048348Y025623
X056386Y010603
X057370Y031603
X030348Y013623
X011395Y013604
X002347Y031613
X057370Y010603
T102
X006386Y003103
X005386Y003103
X004386Y003103
X003386Y003103
X061386Y002603
X060386Y002603
X059386Y002603
X058386Y002603
X057386Y002603
X007386Y003103
T00
M30
