G04 MADE WITH FRITZING*
G04 WWW.FRITZING.ORG*
G04 SINGLE SIDED*
G04 HOLES NOT PLATED*
G04 CONTOUR ON CENTER OF CONTOUR VECTOR*
%ASAXBY*%
%FSLAX23Y23*%
%MOIN*%
%OFA0B0*%
%SFA1.0B1.0*%
%ADD10C,0.075000*%
%ADD11C,0.062992*%
%ADD12C,0.078000*%
%ADD13R,0.062992X0.062992*%
%ADD14R,0.075000X0.075000*%
%ADD15C,0.048000*%
%ADD16C,0.024000*%
%ADD17C,0.032000*%
%LNCOPPER0*%
G90*
G70*
G54D10*
X139Y210D03*
X539Y210D03*
X439Y410D03*
X1339Y410D03*
X639Y660D03*
X1039Y660D03*
X339Y460D03*
X1239Y460D03*
X1339Y410D03*
X2239Y410D03*
X1543Y660D03*
X1939Y660D03*
X1239Y460D03*
X2139Y460D03*
X2239Y410D03*
X3139Y410D03*
X2439Y660D03*
X2839Y660D03*
X2139Y460D03*
X3039Y460D03*
X3139Y410D03*
X4039Y410D03*
X3339Y660D03*
X3739Y660D03*
X3039Y460D03*
X3939Y460D03*
X4039Y410D03*
X4939Y410D03*
X4239Y660D03*
X4639Y660D03*
X3939Y460D03*
X4839Y460D03*
X5139Y660D03*
X5539Y660D03*
X4939Y410D03*
X5839Y410D03*
X4839Y460D03*
X5739Y460D03*
G54D11*
X333Y3161D03*
X235Y3161D03*
X1238Y3160D03*
X1140Y3160D03*
X2137Y3160D03*
X2039Y3160D03*
X3035Y3162D03*
X2936Y3162D03*
X3937Y3160D03*
X3839Y3160D03*
X4835Y3162D03*
X4736Y3162D03*
X5737Y3160D03*
X5639Y3160D03*
X333Y1661D03*
X235Y1661D03*
X1238Y1660D03*
X1140Y1660D03*
X2137Y1660D03*
X2039Y1660D03*
X3035Y1662D03*
X2936Y1662D03*
X3937Y1660D03*
X3839Y1660D03*
X4835Y1662D03*
X4736Y1662D03*
X5737Y1660D03*
X5639Y1660D03*
X333Y1961D03*
X235Y1961D03*
X1238Y1960D03*
X1140Y1960D03*
X2137Y1960D03*
X2039Y1960D03*
X3035Y1962D03*
X2936Y1962D03*
X3937Y1960D03*
X3839Y1960D03*
X4835Y1962D03*
X4736Y1962D03*
X5737Y1960D03*
X5639Y1960D03*
X333Y1061D03*
X235Y1061D03*
X1238Y1060D03*
X1140Y1060D03*
X2137Y1060D03*
X2039Y1060D03*
X3035Y1062D03*
X2936Y1062D03*
X3937Y1060D03*
X3839Y1060D03*
X4835Y1062D03*
X4736Y1062D03*
X5737Y1060D03*
X5639Y1060D03*
X333Y1361D03*
X235Y1361D03*
X1238Y1360D03*
X1140Y1360D03*
X2137Y1360D03*
X2039Y1360D03*
X3035Y1362D03*
X2936Y1362D03*
X3937Y1360D03*
X3839Y1360D03*
X4835Y1362D03*
X4736Y1362D03*
X5737Y1360D03*
X5639Y1360D03*
X333Y2261D03*
X235Y2261D03*
X1238Y2260D03*
X1140Y2260D03*
X2137Y2260D03*
X2039Y2260D03*
X3035Y2262D03*
X2936Y2262D03*
X3937Y2260D03*
X3839Y2260D03*
X4835Y2262D03*
X4736Y2262D03*
X5737Y2260D03*
X5639Y2260D03*
X333Y2561D03*
X235Y2561D03*
X1238Y2560D03*
X1140Y2560D03*
X2137Y2560D03*
X2039Y2560D03*
X3035Y2562D03*
X2936Y2562D03*
X3937Y2560D03*
X3839Y2560D03*
X4835Y2562D03*
X4736Y2562D03*
X5737Y2560D03*
X5639Y2560D03*
X333Y2861D03*
X235Y2861D03*
X1238Y2860D03*
X1140Y2860D03*
X2137Y2860D03*
X2039Y2860D03*
X3035Y2862D03*
X2936Y2862D03*
X3937Y2860D03*
X3839Y2860D03*
X4835Y2862D03*
X4736Y2862D03*
X5737Y2860D03*
X5639Y2860D03*
G54D10*
X837Y859D03*
X837Y559D03*
X737Y859D03*
X737Y559D03*
X637Y859D03*
X637Y559D03*
X537Y859D03*
X537Y559D03*
X437Y859D03*
X437Y559D03*
X337Y859D03*
X337Y559D03*
X237Y859D03*
X237Y559D03*
X137Y859D03*
X137Y559D03*
X1742Y858D03*
X1742Y558D03*
X1642Y858D03*
X1642Y558D03*
X1542Y858D03*
X1542Y558D03*
X1442Y858D03*
X1442Y558D03*
X1342Y858D03*
X1342Y558D03*
X1242Y858D03*
X1242Y558D03*
X1142Y858D03*
X1142Y558D03*
X1042Y858D03*
X1042Y558D03*
X2641Y858D03*
X2641Y558D03*
X2541Y858D03*
X2541Y558D03*
X2441Y858D03*
X2441Y558D03*
X2341Y858D03*
X2341Y558D03*
X2241Y858D03*
X2241Y558D03*
X2141Y858D03*
X2141Y558D03*
X2041Y858D03*
X2041Y558D03*
X1941Y858D03*
X1941Y558D03*
X3539Y860D03*
X3539Y560D03*
X3439Y860D03*
X3439Y560D03*
X3339Y860D03*
X3339Y560D03*
X3239Y860D03*
X3239Y560D03*
X3139Y860D03*
X3139Y560D03*
X3039Y860D03*
X3039Y560D03*
X2939Y860D03*
X2939Y560D03*
X2839Y860D03*
X2839Y560D03*
X4441Y858D03*
X4441Y558D03*
X4341Y858D03*
X4341Y558D03*
X4241Y858D03*
X4241Y558D03*
X4141Y858D03*
X4141Y558D03*
X4041Y858D03*
X4041Y558D03*
X3941Y858D03*
X3941Y558D03*
X3841Y858D03*
X3841Y558D03*
X3741Y858D03*
X3741Y558D03*
X5339Y860D03*
X5339Y560D03*
X5239Y860D03*
X5239Y560D03*
X5139Y860D03*
X5139Y560D03*
X5039Y860D03*
X5039Y560D03*
X4939Y860D03*
X4939Y560D03*
X4839Y860D03*
X4839Y560D03*
X4739Y860D03*
X4739Y560D03*
X4639Y860D03*
X4639Y560D03*
X6241Y858D03*
X6241Y558D03*
X6141Y858D03*
X6141Y558D03*
X6041Y858D03*
X6041Y558D03*
X5941Y858D03*
X5941Y558D03*
X5841Y858D03*
X5841Y558D03*
X5741Y858D03*
X5741Y558D03*
X5641Y858D03*
X5641Y558D03*
X5541Y858D03*
X5541Y558D03*
G54D12*
X339Y310D03*
X439Y310D03*
X539Y310D03*
X639Y310D03*
X739Y310D03*
X5739Y260D03*
X5839Y260D03*
X5939Y260D03*
X6039Y260D03*
X6139Y260D03*
G54D10*
X135Y3061D03*
X535Y3061D03*
X1040Y3060D03*
X1440Y3060D03*
X1939Y3060D03*
X2339Y3060D03*
X2836Y3062D03*
X3236Y3062D03*
X3739Y3060D03*
X4139Y3060D03*
X4636Y3062D03*
X5036Y3062D03*
X5539Y3060D03*
X5939Y3060D03*
X135Y2961D03*
X535Y2961D03*
X1040Y2960D03*
X1440Y2960D03*
X1939Y2960D03*
X2339Y2960D03*
X2836Y2962D03*
X3236Y2962D03*
X3739Y2960D03*
X4139Y2960D03*
X4636Y2962D03*
X5036Y2962D03*
X5539Y2960D03*
X5939Y2960D03*
X135Y2661D03*
X535Y2661D03*
X1040Y2660D03*
X1440Y2660D03*
X1939Y2660D03*
X2339Y2660D03*
X2836Y2662D03*
X3236Y2662D03*
X3739Y2660D03*
X4139Y2660D03*
X4636Y2662D03*
X5036Y2662D03*
X5539Y2660D03*
X5939Y2660D03*
X135Y2361D03*
X535Y2361D03*
X1040Y2360D03*
X1440Y2360D03*
X1939Y2360D03*
X2339Y2360D03*
X2836Y2362D03*
X3236Y2362D03*
X3739Y2360D03*
X4139Y2360D03*
X4636Y2362D03*
X5036Y2362D03*
X5539Y2360D03*
X5939Y2360D03*
X135Y2061D03*
X535Y2061D03*
X1040Y2060D03*
X1440Y2060D03*
X1939Y2060D03*
X2339Y2060D03*
X2836Y2062D03*
X3236Y2062D03*
X3739Y2060D03*
X4139Y2060D03*
X4636Y2062D03*
X5036Y2062D03*
X5539Y2060D03*
X5939Y2060D03*
X135Y1761D03*
X535Y1761D03*
X1040Y1760D03*
X1440Y1760D03*
X1939Y1760D03*
X2339Y1760D03*
X2836Y1762D03*
X3236Y1762D03*
X3739Y1760D03*
X4139Y1760D03*
X4636Y1762D03*
X5036Y1762D03*
X5539Y1760D03*
X5939Y1760D03*
X135Y1461D03*
X535Y1461D03*
X1040Y1460D03*
X1440Y1460D03*
X1939Y1460D03*
X2339Y1460D03*
X2836Y1462D03*
X3236Y1462D03*
X3739Y1460D03*
X4139Y1460D03*
X4636Y1462D03*
X5036Y1462D03*
X5539Y1460D03*
X5939Y1460D03*
X135Y1161D03*
X535Y1161D03*
X1040Y1160D03*
X1440Y1160D03*
X1939Y1160D03*
X2339Y1160D03*
X2836Y1162D03*
X3236Y1162D03*
X3739Y1160D03*
X4139Y1160D03*
X4636Y1162D03*
X5036Y1162D03*
X5539Y1160D03*
X5939Y1160D03*
G54D13*
X333Y3161D03*
X1238Y3160D03*
X2137Y3160D03*
X3035Y3162D03*
X3937Y3160D03*
X4835Y3162D03*
X5737Y3160D03*
X333Y1661D03*
X1238Y1660D03*
X2137Y1660D03*
X3035Y1662D03*
X3937Y1660D03*
X4835Y1662D03*
X5737Y1660D03*
X333Y1961D03*
X1238Y1960D03*
X2137Y1960D03*
X3035Y1962D03*
X3937Y1960D03*
X4835Y1962D03*
X5737Y1960D03*
X333Y1061D03*
X1238Y1060D03*
X2137Y1060D03*
X3035Y1062D03*
X3937Y1060D03*
X4835Y1062D03*
X5737Y1060D03*
X333Y1361D03*
X1238Y1360D03*
X2137Y1360D03*
X3035Y1362D03*
X3937Y1360D03*
X4835Y1362D03*
X5737Y1360D03*
X333Y2261D03*
X1238Y2260D03*
X2137Y2260D03*
X3035Y2262D03*
X3937Y2260D03*
X4835Y2262D03*
X5737Y2260D03*
X333Y2561D03*
X1238Y2560D03*
X2137Y2560D03*
X3035Y2562D03*
X3937Y2560D03*
X4835Y2562D03*
X5737Y2560D03*
X333Y2861D03*
X1238Y2860D03*
X2137Y2860D03*
X3035Y2862D03*
X3937Y2860D03*
X4835Y2862D03*
X5737Y2860D03*
G54D14*
X837Y859D03*
X1742Y858D03*
X2641Y858D03*
X3539Y860D03*
X4441Y858D03*
X5339Y860D03*
X6241Y858D03*
G54D15*
X3739Y1800D02*
X3739Y2021D01*
D02*
X1939Y1200D02*
X1939Y1421D01*
G54D16*
D02*
X3918Y1041D02*
X3841Y963D01*
D02*
X3841Y963D02*
X3841Y887D01*
D02*
X785Y2262D02*
X360Y2261D01*
D02*
X785Y1011D02*
X785Y2262D01*
D02*
X734Y959D02*
X785Y1011D01*
D02*
X657Y880D02*
X734Y959D01*
D02*
X557Y880D02*
X635Y962D01*
D02*
X635Y962D02*
X736Y1060D01*
D02*
X736Y1060D02*
X736Y1961D01*
D02*
X736Y1961D02*
X360Y1961D01*
G54D15*
D02*
X2038Y1098D02*
X2037Y1159D01*
D02*
X2037Y1159D02*
X2299Y1160D01*
D02*
X5637Y1462D02*
X5899Y1461D01*
D02*
X5638Y1398D02*
X5637Y1462D01*
G54D16*
D02*
X4039Y439D02*
X4040Y530D01*
G54D15*
D02*
X2935Y2364D02*
X3197Y2363D01*
D02*
X2936Y2300D02*
X2935Y2364D01*
G54D16*
D02*
X3551Y886D02*
X3586Y960D01*
D02*
X3586Y960D02*
X3585Y2862D01*
D02*
X3585Y2862D02*
X3062Y2862D01*
G54D15*
D02*
X5639Y160D02*
X5641Y519D01*
D02*
X6138Y160D02*
X5639Y160D01*
D02*
X6138Y219D02*
X6138Y160D01*
G54D16*
D02*
X2839Y589D02*
X2839Y632D01*
G54D15*
D02*
X3839Y3060D02*
X4099Y3060D01*
D02*
X3839Y3122D02*
X3839Y3060D01*
D02*
X1138Y1761D02*
X1400Y1760D01*
D02*
X1139Y1698D02*
X1138Y1761D01*
G54D17*
D02*
X5939Y296D02*
X5941Y524D01*
G54D16*
D02*
X5287Y2263D02*
X4862Y2262D01*
D02*
X5287Y1012D02*
X5287Y2263D01*
D02*
X5236Y960D02*
X5287Y1012D01*
D02*
X5159Y881D02*
X5236Y960D01*
D02*
X5961Y879D02*
X6039Y961D01*
D02*
X6039Y961D02*
X6140Y1059D01*
D02*
X6140Y1059D02*
X6140Y1960D01*
D02*
X6140Y1960D02*
X5764Y1960D01*
D02*
X1542Y587D02*
X1542Y632D01*
D02*
X3238Y1362D02*
X3062Y1362D01*
D02*
X3336Y1212D02*
X3238Y1362D01*
D02*
X3338Y1159D02*
X3336Y1212D01*
D02*
X3059Y881D02*
X3338Y1159D01*
G54D15*
D02*
X1042Y819D02*
X1042Y760D01*
D02*
X1042Y760D02*
X1140Y660D01*
D02*
X1140Y660D02*
X1443Y659D01*
D02*
X1443Y659D02*
X1442Y598D01*
D02*
X5637Y1761D02*
X5899Y1760D01*
D02*
X5638Y1698D02*
X5637Y1761D01*
G54D16*
D02*
X5940Y1360D02*
X5764Y1360D01*
D02*
X6039Y1210D02*
X5940Y1360D01*
D02*
X6038Y1160D02*
X6039Y1210D01*
D02*
X5761Y879D02*
X6038Y1160D01*
G54D17*
D02*
X6039Y296D02*
X6041Y524D01*
G54D16*
D02*
X1362Y879D02*
X1490Y1010D01*
D02*
X1490Y1010D02*
X1589Y1111D01*
D02*
X1589Y1111D02*
X1589Y1661D01*
D02*
X1589Y1661D02*
X1265Y1660D01*
D02*
X4438Y2559D02*
X3964Y2560D01*
D02*
X4438Y961D02*
X4438Y2559D01*
D02*
X4361Y879D02*
X4438Y961D01*
D02*
X338Y489D02*
X337Y531D01*
D02*
X5838Y410D02*
X5810Y408D01*
G54D17*
D02*
X5838Y410D02*
X5840Y524D01*
D02*
X5838Y296D02*
X5838Y410D01*
G54D16*
D02*
X4240Y587D02*
X4239Y632D01*
G54D15*
D02*
X4636Y2402D02*
X4636Y2623D01*
D02*
X1138Y2059D02*
X1400Y2060D01*
D02*
X1139Y1998D02*
X1138Y2059D01*
D02*
X5637Y2059D02*
X5899Y2060D01*
D02*
X5638Y1998D02*
X5637Y2059D01*
D02*
X135Y1501D02*
X135Y1722D01*
G54D16*
D02*
X2440Y587D02*
X2439Y632D01*
G54D15*
D02*
X1040Y2700D02*
X1040Y2921D01*
D02*
X5539Y2100D02*
X5539Y2321D01*
G54D16*
D02*
X5641Y963D02*
X5641Y887D01*
D02*
X5718Y1041D02*
X5641Y963D01*
D02*
X1754Y884D02*
X1789Y958D01*
D02*
X1789Y958D02*
X1789Y2860D01*
D02*
X1789Y2860D02*
X1265Y2860D01*
G54D15*
D02*
X234Y1399D02*
X233Y1463D01*
D02*
X233Y1463D02*
X495Y1462D01*
G54D16*
D02*
X5058Y881D02*
X5136Y963D01*
D02*
X5136Y963D02*
X5237Y1061D01*
D02*
X5237Y1061D02*
X5237Y1962D01*
D02*
X5237Y1962D02*
X4862Y1962D01*
G54D15*
D02*
X5539Y2700D02*
X5539Y2921D01*
G54D16*
D02*
X4839Y489D02*
X4839Y532D01*
G54D15*
D02*
X2937Y3062D02*
X3197Y3062D01*
D02*
X2937Y3124D02*
X2937Y3062D01*
G54D16*
D02*
X5237Y563D02*
X5227Y586D01*
D02*
X5240Y712D02*
X5237Y563D01*
D02*
X5439Y761D02*
X5240Y712D01*
D02*
X5437Y3163D02*
X5439Y761D01*
D02*
X4862Y3162D02*
X5437Y3163D01*
G54D15*
D02*
X2836Y1802D02*
X2836Y2023D01*
D02*
X234Y2599D02*
X233Y2661D01*
D02*
X233Y2661D02*
X495Y2661D01*
D02*
X2039Y3060D02*
X2299Y3060D01*
D02*
X2039Y3122D02*
X2039Y3060D01*
D02*
X3739Y2700D02*
X3739Y2921D01*
D02*
X135Y1801D02*
X135Y2022D01*
D02*
X1040Y3000D02*
X1040Y3021D01*
D02*
X4735Y2364D02*
X4997Y2363D01*
D02*
X4736Y2300D02*
X4735Y2364D01*
G54D16*
D02*
X1219Y1041D02*
X1142Y963D01*
D02*
X1142Y963D02*
X1142Y887D01*
D02*
X5539Y632D02*
X5540Y587D01*
G54D15*
D02*
X3741Y819D02*
X3741Y760D01*
D02*
X3741Y760D02*
X3839Y660D01*
D02*
X3839Y660D02*
X4143Y659D01*
D02*
X4143Y659D02*
X4142Y598D01*
D02*
X1040Y2400D02*
X1040Y2621D01*
D02*
X3837Y2362D02*
X4099Y2361D01*
D02*
X3838Y2298D02*
X3837Y2362D01*
D02*
X5637Y2660D02*
X5899Y2660D01*
D02*
X5638Y2598D02*
X5637Y2660D01*
D02*
X3739Y1121D02*
X3741Y898D01*
D02*
X2836Y3002D02*
X2836Y3023D01*
G54D16*
D02*
X3740Y587D02*
X3739Y632D01*
G54D15*
D02*
X5541Y819D02*
X5541Y760D01*
D02*
X5541Y760D02*
X5839Y761D01*
D02*
X5839Y761D02*
X5943Y659D01*
D02*
X5943Y659D02*
X5942Y598D01*
D02*
X3837Y2059D02*
X4099Y2060D01*
D02*
X3838Y1998D02*
X3837Y2059D01*
G54D16*
D02*
X1690Y2261D02*
X1265Y2260D01*
D02*
X1690Y1010D02*
X1690Y2261D01*
D02*
X1639Y958D02*
X1690Y1010D01*
D02*
X1562Y879D02*
X1639Y958D01*
G54D15*
D02*
X5639Y260D02*
X5641Y519D01*
D02*
X5339Y260D02*
X5639Y260D01*
D02*
X5339Y260D02*
X4438Y260D01*
D02*
X4438Y260D02*
X4441Y519D01*
D02*
X4438Y260D02*
X4740Y260D01*
D02*
X5339Y260D02*
X5339Y521D01*
D02*
X4438Y260D02*
X3540Y260D01*
D02*
X4740Y260D02*
X4739Y521D01*
D02*
X3540Y260D02*
X3539Y521D01*
D02*
X4438Y260D02*
X3849Y275D01*
D02*
X3849Y275D02*
X3540Y260D01*
D02*
X3540Y260D02*
X2938Y260D01*
D02*
X3849Y275D02*
X3842Y519D01*
D02*
X2938Y260D02*
X2639Y260D01*
D02*
X2639Y260D02*
X2641Y519D01*
D02*
X2639Y260D02*
X2039Y260D01*
D02*
X2938Y260D02*
X2939Y521D01*
D02*
X2039Y260D02*
X1738Y260D01*
D02*
X1738Y260D02*
X1741Y519D01*
D02*
X2039Y260D02*
X2041Y519D01*
D02*
X1738Y260D02*
X1140Y260D01*
D02*
X1140Y260D02*
X845Y234D01*
D02*
X845Y234D02*
X838Y520D01*
D02*
X845Y234D02*
X838Y112D01*
D02*
X1140Y260D02*
X1142Y519D01*
D02*
X838Y112D02*
X239Y112D01*
D02*
X239Y112D02*
X239Y360D01*
D02*
X239Y360D02*
X237Y520D01*
D02*
X135Y2701D02*
X135Y2922D01*
D02*
X4636Y1202D02*
X4636Y1423D01*
D02*
X1939Y1121D02*
X1941Y898D01*
D02*
X3838Y2598D02*
X3837Y2660D01*
D02*
X3837Y2660D02*
X4099Y2660D01*
D02*
X1939Y1500D02*
X1939Y1721D01*
D02*
X1138Y2362D02*
X1400Y2361D01*
D02*
X1139Y2298D02*
X1138Y2362D01*
D02*
X4736Y1100D02*
X4735Y1161D01*
D02*
X4735Y1161D02*
X4997Y1162D01*
G54D17*
D02*
X6238Y359D02*
X6164Y285D01*
D02*
X6240Y524D02*
X6238Y359D01*
G54D15*
D02*
X4735Y2061D02*
X4997Y2062D01*
D02*
X4736Y2000D02*
X4735Y2061D01*
G54D16*
D02*
X5336Y2561D02*
X4862Y2562D01*
D02*
X5336Y963D02*
X5336Y2561D01*
D02*
X5258Y881D02*
X5336Y963D01*
G54D15*
D02*
X4736Y2900D02*
X4736Y2961D01*
D02*
X4736Y2961D02*
X4997Y2962D01*
D02*
X3739Y2400D02*
X3739Y2621D01*
D02*
X5539Y1500D02*
X5539Y1721D01*
G54D16*
D02*
X3437Y563D02*
X3427Y586D01*
D02*
X3438Y712D02*
X3437Y563D01*
D02*
X3638Y761D02*
X3438Y712D01*
D02*
X3637Y3163D02*
X3638Y761D01*
D02*
X3062Y3162D02*
X3637Y3163D01*
G54D15*
D02*
X5539Y1800D02*
X5539Y2021D01*
D02*
X1040Y1500D02*
X1040Y1721D01*
D02*
X4636Y1802D02*
X4636Y2023D01*
D02*
X233Y2363D02*
X495Y2362D01*
D02*
X234Y2299D02*
X233Y2363D01*
D02*
X2836Y2702D02*
X2836Y2923D01*
G54D16*
D02*
X4939Y439D02*
X4939Y532D01*
G54D15*
D02*
X4636Y3002D02*
X4636Y3023D01*
D02*
X2836Y2102D02*
X2836Y2323D01*
G54D16*
D02*
X849Y885D02*
X884Y959D01*
D02*
X884Y959D02*
X884Y2861D01*
D02*
X884Y2861D02*
X360Y2861D01*
G54D15*
D02*
X1939Y2700D02*
X1939Y2921D01*
G54D16*
D02*
X1041Y587D02*
X1040Y632D01*
G54D15*
D02*
X5539Y1200D02*
X5539Y1421D01*
G54D16*
D02*
X3016Y1043D02*
X2938Y965D01*
D02*
X2938Y965D02*
X2939Y889D01*
G54D15*
D02*
X4735Y1763D02*
X4997Y1762D01*
D02*
X4736Y1700D02*
X4735Y1763D01*
D02*
X2839Y821D02*
X2838Y762D01*
D02*
X2838Y762D02*
X2936Y662D01*
D02*
X2936Y662D02*
X3240Y661D01*
D02*
X3240Y661D02*
X3239Y600D01*
D02*
X1941Y819D02*
X1941Y760D01*
D02*
X1941Y760D02*
X2039Y660D01*
D02*
X2039Y660D02*
X2343Y659D01*
D02*
X2343Y659D02*
X2342Y598D01*
D02*
X3838Y2898D02*
X3838Y2959D01*
D02*
X3838Y2959D02*
X4099Y2960D01*
G54D16*
D02*
X3939Y489D02*
X3940Y530D01*
D02*
X6088Y1661D02*
X5764Y1660D01*
D02*
X6088Y1111D02*
X6088Y1661D01*
D02*
X5989Y1010D02*
X6088Y1111D01*
D02*
X5861Y879D02*
X5989Y1010D01*
G54D15*
D02*
X4639Y821D02*
X4638Y762D01*
D02*
X4638Y762D02*
X4938Y761D01*
D02*
X4938Y761D02*
X5040Y661D01*
D02*
X5040Y661D02*
X5039Y600D01*
G54D16*
D02*
X1641Y561D02*
X1630Y584D01*
D02*
X1641Y712D02*
X1641Y561D01*
D02*
X1840Y761D02*
X1641Y712D01*
D02*
X1840Y3161D02*
X1841Y761D01*
D02*
X1265Y3160D02*
X1840Y3161D01*
D02*
X3487Y2263D02*
X3062Y2262D01*
D02*
X3487Y1012D02*
X3487Y2263D01*
D02*
X3436Y960D02*
X3487Y1012D01*
D02*
X3359Y881D02*
X3436Y960D01*
D02*
X1339Y439D02*
X1341Y530D01*
G54D15*
D02*
X2836Y1502D02*
X2836Y1723D01*
G54D16*
D02*
X5351Y886D02*
X5386Y960D01*
D02*
X5386Y960D02*
X5385Y2862D01*
D02*
X5385Y2862D02*
X4862Y2862D01*
D02*
X6288Y2860D02*
X5764Y2860D01*
D02*
X6288Y958D02*
X6288Y2860D01*
D02*
X6253Y884D02*
X6288Y958D01*
G54D15*
D02*
X233Y1762D02*
X495Y1761D01*
D02*
X234Y1699D02*
X233Y1762D01*
D02*
X1140Y3060D02*
X1400Y3060D01*
D02*
X1140Y3122D02*
X1140Y3060D01*
G54D16*
D02*
X2118Y1041D02*
X2041Y963D01*
D02*
X2041Y963D02*
X2041Y887D01*
G54D15*
D02*
X2037Y1761D02*
X2299Y1760D01*
D02*
X2038Y1698D02*
X2037Y1761D01*
D02*
X4636Y1502D02*
X4636Y1723D01*
D02*
X2936Y1100D02*
X2935Y1161D01*
D02*
X2935Y1161D02*
X3197Y1162D01*
D02*
X1040Y2100D02*
X1040Y2321D01*
G54D16*
D02*
X2638Y2559D02*
X2164Y2560D01*
D02*
X2638Y961D02*
X2638Y2559D01*
D02*
X2561Y879D02*
X2638Y961D01*
D02*
X3039Y489D02*
X3039Y532D01*
D02*
X5139Y632D02*
X5139Y589D01*
D02*
X4061Y879D02*
X4189Y1010D01*
D02*
X4189Y1010D02*
X4288Y1111D01*
D02*
X4288Y1111D02*
X4288Y1661D01*
D02*
X4288Y1661D02*
X3964Y1660D01*
G54D15*
D02*
X1139Y1098D02*
X1138Y1159D01*
D02*
X1138Y1159D02*
X1400Y1160D01*
G54D16*
D02*
X3159Y881D02*
X3287Y1012D01*
D02*
X3287Y1012D02*
X3386Y1113D01*
D02*
X3386Y1113D02*
X3386Y1663D01*
D02*
X3386Y1663D02*
X3062Y1662D01*
G54D15*
D02*
X5637Y1159D02*
X5899Y1160D01*
D02*
X5638Y1098D02*
X5637Y1159D01*
G54D16*
D02*
X4639Y589D02*
X4639Y632D01*
G54D15*
D02*
X2038Y2598D02*
X2037Y2660D01*
D02*
X2037Y2660D02*
X2299Y2660D01*
G54D16*
D02*
X2340Y1360D02*
X2164Y1360D01*
D02*
X2439Y1210D02*
X2340Y1360D01*
D02*
X2439Y1159D02*
X2439Y1210D01*
D02*
X2161Y879D02*
X2439Y1159D01*
D02*
X1940Y587D02*
X1939Y632D01*
G54D15*
D02*
X1939Y2400D02*
X1939Y2621D01*
G54D16*
D02*
X2653Y884D02*
X2688Y958D01*
D02*
X2688Y958D02*
X2688Y2860D01*
D02*
X2688Y2860D02*
X2164Y2860D01*
G54D15*
D02*
X2836Y2402D02*
X2836Y2623D01*
G54D16*
D02*
X3139Y439D02*
X3139Y532D01*
G54D15*
D02*
X4736Y1400D02*
X4735Y1464D01*
D02*
X4735Y1464D02*
X4997Y1463D01*
G54D16*
D02*
X2139Y489D02*
X2140Y530D01*
D02*
X637Y588D02*
X638Y632D01*
G54D15*
D02*
X1939Y2100D02*
X1939Y2321D01*
D02*
X135Y2401D02*
X135Y2622D01*
D02*
X5637Y2362D02*
X5899Y2361D01*
D02*
X5638Y2298D02*
X5637Y2362D01*
D02*
X3739Y1200D02*
X3739Y1421D01*
G54D17*
D02*
X5539Y1126D02*
X5541Y892D01*
G54D15*
D02*
X2936Y1400D02*
X2935Y1464D01*
D02*
X2935Y1464D02*
X3197Y1463D01*
D02*
X135Y3001D02*
X136Y3259D01*
D02*
X136Y3259D02*
X1037Y3259D01*
G54D16*
D02*
X1037Y3259D02*
X1039Y3089D01*
D02*
X1920Y3259D02*
X1037Y3259D01*
G54D15*
D02*
X1920Y3259D02*
X2839Y3259D01*
G54D16*
D02*
X2839Y3259D02*
X2837Y3091D01*
G54D15*
D02*
X1936Y3000D02*
X1920Y3259D01*
G54D16*
D02*
X3704Y3273D02*
X2839Y3259D01*
G54D15*
D02*
X3704Y3273D02*
X4641Y3259D01*
G54D16*
D02*
X4641Y3259D02*
X5537Y3259D01*
G54D15*
D02*
X3734Y3000D02*
X3704Y3273D01*
G54D16*
D02*
X5537Y3259D02*
X5538Y3089D01*
D02*
X4637Y3091D02*
X4641Y3259D01*
G54D15*
D02*
X2037Y2362D02*
X2299Y2361D01*
D02*
X2038Y2298D02*
X2037Y2362D01*
D02*
X1139Y2898D02*
X1139Y2959D01*
D02*
X1139Y2959D02*
X1400Y2960D01*
D02*
X4737Y3062D02*
X4997Y3062D01*
D02*
X4737Y3124D02*
X4737Y3062D01*
G54D16*
D02*
X4340Y561D02*
X4329Y584D01*
D02*
X4339Y712D02*
X4340Y561D01*
D02*
X4539Y761D02*
X4339Y712D01*
D02*
X4540Y3161D02*
X4539Y761D01*
D02*
X3964Y3160D02*
X4540Y3161D01*
G54D15*
D02*
X2837Y1123D02*
X2838Y900D01*
D02*
X4636Y2102D02*
X4636Y2323D01*
D02*
X2836Y1202D02*
X2836Y1423D01*
G54D16*
D02*
X457Y880D02*
X585Y1011D01*
D02*
X585Y1011D02*
X684Y1112D01*
D02*
X684Y1112D02*
X684Y1662D01*
D02*
X684Y1662D02*
X360Y1661D01*
D02*
X4959Y881D02*
X5087Y1012D01*
D02*
X5087Y1012D02*
X5186Y1113D01*
D02*
X5186Y1113D02*
X5186Y1663D01*
D02*
X5186Y1663D02*
X4862Y1662D01*
D02*
X6140Y561D02*
X6129Y584D01*
D02*
X6141Y712D02*
X6140Y561D01*
D02*
X6340Y711D02*
X6141Y712D01*
D02*
X6340Y3161D02*
X6340Y711D01*
D02*
X5764Y3160D02*
X6340Y3161D01*
G54D15*
D02*
X234Y1099D02*
X233Y1160D01*
D02*
X233Y1160D02*
X495Y1161D01*
G54D16*
D02*
X4140Y1360D02*
X3964Y1360D01*
D02*
X4239Y1210D02*
X4140Y1360D01*
D02*
X4237Y1160D02*
X4239Y1210D01*
D02*
X3961Y879D02*
X4237Y1160D01*
D02*
X3258Y881D02*
X3336Y963D01*
D02*
X3336Y963D02*
X3437Y1061D01*
D02*
X3437Y1061D02*
X3437Y1962D01*
D02*
X3437Y1962D02*
X3062Y1962D01*
D02*
X736Y562D02*
X725Y585D01*
D02*
X740Y712D02*
X736Y562D01*
D02*
X940Y761D02*
X740Y712D01*
D02*
X936Y3162D02*
X940Y761D01*
D02*
X360Y3161D02*
X936Y3162D01*
D02*
X1739Y2559D02*
X1265Y2560D01*
D02*
X1739Y961D02*
X1739Y2559D01*
D02*
X1662Y879D02*
X1739Y961D01*
G54D15*
D02*
X235Y3061D02*
X495Y3061D01*
D02*
X235Y3123D02*
X235Y3061D01*
G54D16*
D02*
X834Y2560D02*
X360Y2561D01*
D02*
X834Y962D02*
X834Y2560D01*
D02*
X757Y880D02*
X834Y962D01*
G54D15*
D02*
X4636Y2702D02*
X4636Y2923D01*
G54D16*
D02*
X4389Y2261D02*
X3964Y2260D01*
D02*
X4389Y1010D02*
X4389Y2261D01*
D02*
X4338Y958D02*
X4389Y1010D01*
D02*
X4261Y879D02*
X4338Y958D01*
D02*
X5740Y460D02*
X5767Y461D01*
G54D17*
D02*
X5740Y460D02*
X5740Y524D01*
D02*
X5739Y296D02*
X5740Y460D01*
G54D15*
D02*
X1040Y1121D02*
X1042Y898D01*
G54D16*
D02*
X536Y1361D02*
X360Y1361D01*
D02*
X635Y1211D02*
X536Y1361D01*
D02*
X638Y1159D02*
X635Y1211D01*
D02*
X357Y879D02*
X638Y1159D01*
G54D15*
D02*
X3739Y1500D02*
X3739Y1721D01*
G54D16*
D02*
X438Y439D02*
X437Y531D01*
D02*
X314Y1042D02*
X237Y964D01*
D02*
X237Y964D02*
X237Y888D01*
D02*
X2589Y2261D02*
X2164Y2260D01*
D02*
X2589Y1010D02*
X2589Y2261D01*
D02*
X2538Y958D02*
X2589Y1010D01*
D02*
X2461Y879D02*
X2538Y958D01*
G54D15*
D02*
X233Y2060D02*
X495Y2061D01*
D02*
X234Y1999D02*
X233Y2060D01*
D02*
X1040Y1200D02*
X1040Y1421D01*
D02*
X3838Y1098D02*
X3837Y1159D01*
D02*
X3837Y1159D02*
X4099Y1160D01*
D02*
X135Y2101D02*
X135Y2322D01*
D02*
X5638Y2959D02*
X5899Y2960D01*
D02*
X5638Y2898D02*
X5638Y2959D01*
D02*
X3837Y1761D02*
X4099Y1760D01*
D02*
X3838Y1698D02*
X3837Y1761D01*
G54D16*
D02*
X2361Y879D02*
X2439Y961D01*
D02*
X2439Y961D02*
X2540Y1059D01*
D02*
X2540Y1059D02*
X2540Y1960D01*
D02*
X2540Y1960D02*
X2164Y1960D01*
D02*
X1462Y879D02*
X1539Y961D01*
D02*
X1539Y961D02*
X1641Y1059D01*
D02*
X1641Y1059D02*
X1641Y1960D01*
D02*
X1641Y1960D02*
X1265Y1960D01*
G54D15*
D02*
X2037Y2059D02*
X2299Y2060D01*
D02*
X2038Y1998D02*
X2037Y2059D01*
G54D16*
D02*
X5038Y1362D02*
X4862Y1362D01*
D02*
X5136Y1212D02*
X5038Y1362D01*
D02*
X5138Y1160D02*
X5136Y1212D01*
D02*
X4859Y881D02*
X5138Y1160D01*
D02*
X4453Y884D02*
X4488Y958D01*
D02*
X4488Y958D02*
X4488Y2860D01*
D02*
X4488Y2860D02*
X3964Y2860D01*
G54D15*
D02*
X1939Y1800D02*
X1939Y2021D01*
G54D16*
D02*
X1441Y1360D02*
X1265Y1360D01*
D02*
X1539Y1210D02*
X1441Y1360D01*
D02*
X1537Y1159D02*
X1539Y1210D01*
D02*
X1262Y879D02*
X1537Y1159D01*
G54D17*
D02*
X4637Y1128D02*
X4638Y894D01*
G54D16*
D02*
X1240Y489D02*
X1241Y530D01*
G54D15*
D02*
X2936Y2900D02*
X2936Y2961D01*
D02*
X2936Y2961D02*
X3197Y2962D01*
D02*
X5539Y2400D02*
X5539Y2621D01*
D02*
X1139Y2598D02*
X1138Y2660D01*
D02*
X1138Y2660D02*
X1400Y2660D01*
G54D16*
D02*
X2261Y879D02*
X2389Y1010D01*
D02*
X2389Y1010D02*
X2488Y1111D01*
D02*
X2488Y1111D02*
X2488Y1661D01*
D02*
X2488Y1661D02*
X2164Y1660D01*
G54D15*
D02*
X1040Y1800D02*
X1040Y2021D01*
D02*
X3838Y1398D02*
X3837Y1462D01*
D02*
X3837Y1462D02*
X4099Y1461D01*
G54D16*
D02*
X4816Y1043D02*
X4738Y965D01*
D02*
X4738Y965D02*
X4739Y889D01*
D02*
X3536Y2561D02*
X3062Y2562D01*
D02*
X3536Y963D02*
X3536Y2561D01*
D02*
X3458Y881D02*
X3536Y963D01*
D02*
X4161Y879D02*
X4239Y961D01*
D02*
X4239Y961D02*
X4340Y1059D01*
D02*
X4340Y1059D02*
X4340Y1960D01*
D02*
X4340Y1960D02*
X3964Y1960D01*
G54D15*
D02*
X137Y820D02*
X137Y761D01*
D02*
X137Y761D02*
X235Y661D01*
D02*
X235Y661D02*
X539Y660D01*
D02*
X539Y660D02*
X538Y599D01*
D02*
X2936Y2600D02*
X2935Y2662D01*
D02*
X2935Y2662D02*
X3197Y2662D01*
D02*
X2038Y2898D02*
X2038Y2959D01*
D02*
X2038Y2959D02*
X2299Y2960D01*
D02*
X5639Y3060D02*
X5899Y3060D01*
D02*
X5639Y3122D02*
X5639Y3060D01*
G54D16*
D02*
X3339Y589D02*
X3339Y632D01*
D02*
X6189Y2261D02*
X5764Y2260D01*
D02*
X6189Y1010D02*
X6189Y2261D01*
D02*
X6138Y958D02*
X6189Y1010D01*
D02*
X6061Y879D02*
X6138Y958D01*
G54D15*
D02*
X135Y1201D02*
X135Y1422D01*
D02*
X2935Y1763D02*
X3197Y1762D01*
D02*
X2936Y1700D02*
X2935Y1763D01*
G54D16*
D02*
X6238Y2559D02*
X5764Y2560D01*
D02*
X6238Y961D02*
X6238Y2559D01*
D02*
X6161Y879D02*
X6238Y961D01*
G54D15*
D02*
X135Y1122D02*
X137Y899D01*
D02*
X4736Y2600D02*
X4735Y2662D01*
D02*
X4735Y2662D02*
X4997Y2662D01*
G54D16*
D02*
X2540Y561D02*
X2529Y584D01*
D02*
X2537Y712D02*
X2540Y561D01*
D02*
X2737Y761D02*
X2537Y712D01*
D02*
X2740Y3161D02*
X2737Y761D01*
D02*
X2164Y3160D02*
X2740Y3161D01*
G54D15*
D02*
X1139Y1398D02*
X1138Y1462D01*
D02*
X1138Y1462D02*
X1400Y1461D01*
D02*
X235Y2899D02*
X234Y2960D01*
D02*
X234Y2960D02*
X495Y2961D01*
D02*
X3739Y2100D02*
X3739Y2321D01*
D02*
X5539Y3000D02*
X5539Y3021D01*
D02*
X2935Y2061D02*
X3197Y2062D01*
D02*
X2936Y2000D02*
X2935Y2061D01*
G54D16*
D02*
X2239Y439D02*
X2240Y530D01*
G54D15*
D02*
X2038Y1398D02*
X2037Y1462D01*
D02*
X2037Y1462D02*
X2299Y1461D01*
G54D16*
D02*
X339Y340D02*
X339Y432D01*
D02*
X439Y340D02*
X439Y382D01*
D02*
X538Y340D02*
X537Y531D01*
G54D15*
D02*
X738Y212D02*
X738Y269D01*
D02*
X845Y234D02*
X738Y212D01*
G54D16*
D02*
X617Y289D02*
X559Y231D01*
D02*
X139Y239D02*
X137Y531D01*
G04 End of Copper0*
M02*