G04 MADE WITH FRITZING*
G04 WWW.FRITZING.ORG*
G04 SINGLE SIDED*
G04 HOLES NOT PLATED*
G04 CONTOUR ON CENTER OF CONTOUR VECTOR*
%ASAXBY*%
%FSLAX23Y23*%
%MOIN*%
%OFA0B0*%
%SFA1.0B1.0*%
%ADD10C,0.085000*%
%ADD11C,0.072992*%
%ADD12C,0.088000*%
%ADD13R,0.072992X0.072992*%
%ADD14R,0.085000X0.085000*%
%LNMASK0*%
G90*
G70*
G54D10*
X139Y210D03*
X539Y210D03*
X439Y410D03*
X1339Y410D03*
X639Y660D03*
X1039Y660D03*
X339Y460D03*
X1239Y460D03*
X1339Y410D03*
X2239Y410D03*
X1543Y660D03*
X1939Y660D03*
X1239Y460D03*
X2139Y460D03*
X2239Y410D03*
X3139Y410D03*
X2439Y660D03*
X2839Y660D03*
X2139Y460D03*
X3039Y460D03*
X3139Y410D03*
X4039Y410D03*
X3339Y660D03*
X3739Y660D03*
X3039Y460D03*
X3939Y460D03*
X4039Y410D03*
X4939Y410D03*
X4239Y660D03*
X4639Y660D03*
X3939Y460D03*
X4839Y460D03*
X5139Y660D03*
X5539Y660D03*
X4939Y410D03*
X5839Y410D03*
X4839Y460D03*
X5739Y460D03*
G54D11*
X333Y3161D03*
X235Y3161D03*
X1238Y3160D03*
X1140Y3160D03*
X2137Y3160D03*
X2039Y3160D03*
X3035Y3162D03*
X2936Y3162D03*
X3937Y3160D03*
X3839Y3160D03*
X4835Y3162D03*
X4736Y3162D03*
X5737Y3160D03*
X5639Y3160D03*
X333Y1661D03*
X235Y1661D03*
X1238Y1660D03*
X1140Y1660D03*
X2137Y1660D03*
X2039Y1660D03*
X3035Y1662D03*
X2936Y1662D03*
X3937Y1660D03*
X3839Y1660D03*
X4835Y1662D03*
X4736Y1662D03*
X5737Y1660D03*
X5639Y1660D03*
X333Y1961D03*
X235Y1961D03*
X1238Y1960D03*
X1140Y1960D03*
X2137Y1960D03*
X2039Y1960D03*
X3035Y1962D03*
X2936Y1962D03*
X3937Y1960D03*
X3839Y1960D03*
X4835Y1962D03*
X4736Y1962D03*
X5737Y1960D03*
X5639Y1960D03*
X333Y1061D03*
X235Y1061D03*
X1238Y1060D03*
X1140Y1060D03*
X2137Y1060D03*
X2039Y1060D03*
X3035Y1062D03*
X2936Y1062D03*
X3937Y1060D03*
X3839Y1060D03*
X4835Y1062D03*
X4736Y1062D03*
X5737Y1060D03*
X5639Y1060D03*
X333Y1361D03*
X235Y1361D03*
X1238Y1360D03*
X1140Y1360D03*
X2137Y1360D03*
X2039Y1360D03*
X3035Y1362D03*
X2936Y1362D03*
X3937Y1360D03*
X3839Y1360D03*
X4835Y1362D03*
X4736Y1362D03*
X5737Y1360D03*
X5639Y1360D03*
X333Y2261D03*
X235Y2261D03*
X1238Y2260D03*
X1140Y2260D03*
X2137Y2260D03*
X2039Y2260D03*
X3035Y2262D03*
X2936Y2262D03*
X3937Y2260D03*
X3839Y2260D03*
X4835Y2262D03*
X4736Y2262D03*
X5737Y2260D03*
X5639Y2260D03*
X333Y2561D03*
X235Y2561D03*
X1238Y2560D03*
X1140Y2560D03*
X2137Y2560D03*
X2039Y2560D03*
X3035Y2562D03*
X2936Y2562D03*
X3937Y2560D03*
X3839Y2560D03*
X4835Y2562D03*
X4736Y2562D03*
X5737Y2560D03*
X5639Y2560D03*
X333Y2861D03*
X235Y2861D03*
X1238Y2860D03*
X1140Y2860D03*
X2137Y2860D03*
X2039Y2860D03*
X3035Y2862D03*
X2936Y2862D03*
X3937Y2860D03*
X3839Y2860D03*
X4835Y2862D03*
X4736Y2862D03*
X5737Y2860D03*
X5639Y2860D03*
G54D10*
X837Y859D03*
X837Y559D03*
X737Y859D03*
X737Y559D03*
X637Y859D03*
X637Y559D03*
X537Y859D03*
X537Y559D03*
X437Y859D03*
X437Y559D03*
X337Y859D03*
X337Y559D03*
X237Y859D03*
X237Y559D03*
X137Y859D03*
X137Y559D03*
X1742Y858D03*
X1742Y558D03*
X1642Y858D03*
X1642Y558D03*
X1542Y858D03*
X1542Y558D03*
X1442Y858D03*
X1442Y558D03*
X1342Y858D03*
X1342Y558D03*
X1242Y858D03*
X1242Y558D03*
X1142Y858D03*
X1142Y558D03*
X1042Y858D03*
X1042Y558D03*
X2641Y858D03*
X2641Y558D03*
X2541Y858D03*
X2541Y558D03*
X2441Y858D03*
X2441Y558D03*
X2341Y858D03*
X2341Y558D03*
X2241Y858D03*
X2241Y558D03*
X2141Y858D03*
X2141Y558D03*
X2041Y858D03*
X2041Y558D03*
X1941Y858D03*
X1941Y558D03*
X3539Y860D03*
X3539Y560D03*
X3439Y860D03*
X3439Y560D03*
X3339Y860D03*
X3339Y560D03*
X3239Y860D03*
X3239Y560D03*
X3139Y860D03*
X3139Y560D03*
X3039Y860D03*
X3039Y560D03*
X2939Y860D03*
X2939Y560D03*
X2839Y860D03*
X2839Y560D03*
X4441Y858D03*
X4441Y558D03*
X4341Y858D03*
X4341Y558D03*
X4241Y858D03*
X4241Y558D03*
X4141Y858D03*
X4141Y558D03*
X4041Y858D03*
X4041Y558D03*
X3941Y858D03*
X3941Y558D03*
X3841Y858D03*
X3841Y558D03*
X3741Y858D03*
X3741Y558D03*
X5339Y860D03*
X5339Y560D03*
X5239Y860D03*
X5239Y560D03*
X5139Y860D03*
X5139Y560D03*
X5039Y860D03*
X5039Y560D03*
X4939Y860D03*
X4939Y560D03*
X4839Y860D03*
X4839Y560D03*
X4739Y860D03*
X4739Y560D03*
X4639Y860D03*
X4639Y560D03*
X6241Y858D03*
X6241Y558D03*
X6141Y858D03*
X6141Y558D03*
X6041Y858D03*
X6041Y558D03*
X5941Y858D03*
X5941Y558D03*
X5841Y858D03*
X5841Y558D03*
X5741Y858D03*
X5741Y558D03*
X5641Y858D03*
X5641Y558D03*
X5541Y858D03*
X5541Y558D03*
G54D12*
X339Y310D03*
X439Y310D03*
X539Y310D03*
X639Y310D03*
X739Y310D03*
X5739Y260D03*
X5839Y260D03*
X5939Y260D03*
X6039Y260D03*
X6139Y260D03*
G54D10*
X135Y3061D03*
X535Y3061D03*
X1040Y3060D03*
X1440Y3060D03*
X1939Y3060D03*
X2339Y3060D03*
X2836Y3062D03*
X3236Y3062D03*
X3739Y3060D03*
X4139Y3060D03*
X4636Y3062D03*
X5036Y3062D03*
X5539Y3060D03*
X5939Y3060D03*
X135Y2961D03*
X535Y2961D03*
X1040Y2960D03*
X1440Y2960D03*
X1939Y2960D03*
X2339Y2960D03*
X2836Y2962D03*
X3236Y2962D03*
X3739Y2960D03*
X4139Y2960D03*
X4636Y2962D03*
X5036Y2962D03*
X5539Y2960D03*
X5939Y2960D03*
X135Y2661D03*
X535Y2661D03*
X1040Y2660D03*
X1440Y2660D03*
X1939Y2660D03*
X2339Y2660D03*
X2836Y2662D03*
X3236Y2662D03*
X3739Y2660D03*
X4139Y2660D03*
X4636Y2662D03*
X5036Y2662D03*
X5539Y2660D03*
X5939Y2660D03*
X135Y2361D03*
X535Y2361D03*
X1040Y2360D03*
X1440Y2360D03*
X1939Y2360D03*
X2339Y2360D03*
X2836Y2362D03*
X3236Y2362D03*
X3739Y2360D03*
X4139Y2360D03*
X4636Y2362D03*
X5036Y2362D03*
X5539Y2360D03*
X5939Y2360D03*
X135Y2061D03*
X535Y2061D03*
X1040Y2060D03*
X1440Y2060D03*
X1939Y2060D03*
X2339Y2060D03*
X2836Y2062D03*
X3236Y2062D03*
X3739Y2060D03*
X4139Y2060D03*
X4636Y2062D03*
X5036Y2062D03*
X5539Y2060D03*
X5939Y2060D03*
X135Y1761D03*
X535Y1761D03*
X1040Y1760D03*
X1440Y1760D03*
X1939Y1760D03*
X2339Y1760D03*
X2836Y1762D03*
X3236Y1762D03*
X3739Y1760D03*
X4139Y1760D03*
X4636Y1762D03*
X5036Y1762D03*
X5539Y1760D03*
X5939Y1760D03*
X135Y1461D03*
X535Y1461D03*
X1040Y1460D03*
X1440Y1460D03*
X1939Y1460D03*
X2339Y1460D03*
X2836Y1462D03*
X3236Y1462D03*
X3739Y1460D03*
X4139Y1460D03*
X4636Y1462D03*
X5036Y1462D03*
X5539Y1460D03*
X5939Y1460D03*
X135Y1161D03*
X535Y1161D03*
X1040Y1160D03*
X1440Y1160D03*
X1939Y1160D03*
X2339Y1160D03*
X2836Y1162D03*
X3236Y1162D03*
X3739Y1160D03*
X4139Y1160D03*
X4636Y1162D03*
X5036Y1162D03*
X5539Y1160D03*
X5939Y1160D03*
G54D13*
X333Y3161D03*
X1238Y3160D03*
X2137Y3160D03*
X3035Y3162D03*
X3937Y3160D03*
X4835Y3162D03*
X5737Y3160D03*
X333Y1661D03*
X1238Y1660D03*
X2137Y1660D03*
X3035Y1662D03*
X3937Y1660D03*
X4835Y1662D03*
X5737Y1660D03*
X333Y1961D03*
X1238Y1960D03*
X2137Y1960D03*
X3035Y1962D03*
X3937Y1960D03*
X4835Y1962D03*
X5737Y1960D03*
X333Y1061D03*
X1238Y1060D03*
X2137Y1060D03*
X3035Y1062D03*
X3937Y1060D03*
X4835Y1062D03*
X5737Y1060D03*
X333Y1361D03*
X1238Y1360D03*
X2137Y1360D03*
X3035Y1362D03*
X3937Y1360D03*
X4835Y1362D03*
X5737Y1360D03*
X333Y2261D03*
X1238Y2260D03*
X2137Y2260D03*
X3035Y2262D03*
X3937Y2260D03*
X4835Y2262D03*
X5737Y2260D03*
X333Y2561D03*
X1238Y2560D03*
X2137Y2560D03*
X3035Y2562D03*
X3937Y2560D03*
X4835Y2562D03*
X5737Y2560D03*
X333Y2861D03*
X1238Y2860D03*
X2137Y2860D03*
X3035Y2862D03*
X3937Y2860D03*
X4835Y2862D03*
X5737Y2860D03*
G54D14*
X837Y859D03*
X1742Y858D03*
X2641Y858D03*
X3539Y860D03*
X4441Y858D03*
X5339Y860D03*
X6241Y858D03*
G04 End of Mask0*
M02*